<?xml version="1.0" encoding="utf-8"?>
<!-- Generator: Adobe Illustrator 23.0.1, SVG Export Plug-In . SVG Version: 6.00 Build 0)  -->
<svg version="1.1" id="Layer_1" xmlns="http://www.w3.org/2000/svg" xmlns:xlink="http://www.w3.org/1999/xlink" x="0px" y="0px"
	 viewBox="0 0 1418 904" style="enable-background:new 0 0 1418 904;" xml:space="preserve">
<style type="text/css">
	.st0{fill-rule:evenodd;clip-rule:evenodd;fill:#FF0000;}
	.st1{fill:#FF0000;}
</style>
<g>
	<path class="st0" d="M875.7,405L990,332.3c20.5-13.1,47.4,1.7,47.4,26V573c0,24.3-26.9,39.1-47.4,26l-114.3-72.7V405z
		 M1001.1,349.6l-104.8,66.7V515l104.8,66.7c6.8,4.4,15.8-0.6,15.8-8.7V358.3C1016.9,350.2,1007.9,345.3,1001.1,349.6z"/>
	<path class="st0" d="M863.4,405.4v120.6h-21.9c-18.2,0-32.9-14.7-32.9-32.9v-54.8c0-18.2,14.7-32.9,32.9-32.9H863.4z M841.5,427.3
		c-6.1,0-11,4.9-11,11v54.8c0,6.1,4.9,11,11,11V427.3z"/>
	<path class="st1" d="M1071,454.1c-5.7,0-10.3,4.6-10.3,10.3c0,5.7,4.6,10.3,10.3,10.3h56.2c5.7,0,10.3-4.6,10.3-10.3
		c0-5.7-4.6-10.3-10.3-10.3H1071z"/>
	<path class="st1" d="M1065.9,416.5c-3.2-4.7-1.9-11.1,2.8-14.3l19.3-13c4.7-3.2,11.1-1.9,14.3,2.8c3.2,4.7,1.9,11.1-2.8,14.3
		l-19.3,13C1075.5,422.5,1069.1,421.2,1065.9,416.5z"/>
	<path class="st1" d="M1072.1,530.3c-4.7-3.2-5.9-9.6-2.8-14.3c3.2-4.7,9.6-5.9,14.3-2.8l19.3,13c4.7,3.2,5.9,9.6,2.8,14.3
		c-3.2,4.7-9.6,5.9-14.3,2.8L1072.1,530.3z"/>
	<g>
		<path class="st1" d="M356.4,589.6c-3.9,0-7.8-0.7-11.8-2.1c-3.9-1.4-7.4-3.5-10.6-6.2c-3.1-2.8-5.6-6.3-7.4-10.7
			c-1.8-4.4-2.8-9.7-2.8-15.9V378.4c0-6.2,0.9-11.5,2.8-15.9c1.8-4.4,4.3-8,7.4-10.7c3.1-2.8,6.6-4.8,10.6-6.2
			c3.9-1.4,7.8-2.1,11.8-2.1h6.2c3.9,0,7.8,0.7,11.8,2.1c3.9,1.4,7.4,3.5,10.6,6.2c3.1,2.8,5.6,6.3,7.4,10.7
			c1.8,4.4,2.8,9.7,2.8,15.9v176.2c0,6.2-0.9,11.5-2.8,15.9c-1.8,4.4-4.3,8-7.4,10.7c-3.1,2.8-6.6,4.8-10.6,6.2
			c-3.9,1.4-7.8,2.1-11.8,2.1H356.4z M358.8,366.3c-5.3,0-8,5.4-8,16.3v167.9c0,6,0.7,10.2,2.1,12.6c1.4,2.4,3.3,3.6,5.9,3.6h1.4
			c2.5,0,4.5-1.2,5.9-3.6c1.4-2.4,2.1-6.6,2.1-12.6V382.6c0-10.8-2.7-16.3-8-16.3H358.8z"/>
		<path class="st1" d="M452.4,589.6c-3.9,0-7.8-0.6-11.7-1.9c-3.9-1.3-7.4-3.3-10.5-6.2c-3.1-2.9-5.6-6.5-7.6-10.9
			c-2-4.4-2.9-9.7-2.9-15.9V345.5h27v204.9c0,6,0.7,10.2,2.1,12.6c1.4,2.4,3.3,3.6,5.9,3.6h1.7c2.3,0,4.2-1.2,5.5-3.6
			c1.4-2.4,2.1-6.6,2.1-12.6V345.5h27v209.1c0,6.2-0.9,11.5-2.8,15.9c-1.8,4.4-4.3,8-7.4,10.7c-3.1,2.8-6.6,4.8-10.5,6.2
			c-3.9,1.4-7.9,2.1-12.1,2.1H452.4z"/>
		<path class="st1" d="M566.5,345.5H590l-21.8,242h-34.6l-22.5-242h26l14.2,167.5h1L566.5,345.5z"/>
		<path class="st1" d="M637.1,345.5v242h-27v-242H637.1z"/>
		<path class="st1" d="M733.3,443.1c0,7.4-1.1,12.9-3.4,16.4c-2.3,3.6-5.1,5.9-8.5,7.1c3.4,0.9,6.3,3.2,8.5,6.7
			c2.3,3.6,3.4,9.1,3.4,16.4v54.3c0,7.8,0.2,14.4,0.5,19.7c0.3,5.3,0.7,9.6,1.2,13c0.5,3.3,0.9,5.8,1.4,7.4c0.5,1.6,0.8,2.7,1,3.1
			h-27.1c-1.6-2.8-2.7-7.6-3.2-14.4c-0.6-6.8-0.9-16.4-0.9-28.9v-51.9c0-10.4-2.3-15.6-6.9-15.6H689v110.8h-27v-242h38.9
			c9,0,16.6,3,22.9,9c6.3,6,9.5,14.5,9.5,25.6V443.1z M699.4,456.6c4.6,0,6.9-5.1,6.9-15.2v-57.1c0-10.6-2.7-15.9-8-15.9H689v88.3
			H699.4z"/>
	</g>
</g>
</svg>
