<?xml version="1.0" encoding="utf-8"?>
<!-- Generator: Adobe Illustrator 23.0.1, SVG Export Plug-In . SVG Version: 6.00 Build 0)  -->
<svg version="1.1" id="Layer_1" xmlns="http://www.w3.org/2000/svg" xmlns:xlink="http://www.w3.org/1999/xlink" x="0px" y="0px"
	 viewBox="0 0 1418 904" style="enable-background:new 0 0 1418 904;" xml:space="preserve">
<style type="text/css">
	.st0{fill:#F9123C;}
	.st1{fill:#020202;}
</style>
<path class="st0" d="M1341.5-0.3H786H629.7H74.2C32.6-0.3-1.3,33.6-1.3,75.2v669.1c0,41.6,33.9,75.5,75.5,75.5h555.5h23.8l53.7,84.2
	l0.6-0.9l0.6,0.9l53.7-84.2H786h555.5c41.6,0,75.5-33.9,75.5-75.5V75.2C1417,33.6,1383.1-0.3,1341.5-0.3z"/>
<g>
	<g>
		<path class="st1" d="M1031.7,273.5c-17.8,0-32.3,14.5-32.3,32.3v2.3l-203,59.2c-1.6-16.4-15.4-29.2-32.1-29.2
			c-17.8,0-32.3,14.5-32.3,32.3v83c0,17.8,14.5,32.3,32.3,32.3c16.8,0,30.6-12.9,32.1-29.2l20.4,5.9c-4.9,5.6-7.7,12.8-7.7,20.6
			c0,13.8,9.3,26.2,22.6,30.1l50.6,14.8l0,0c3,0.9,5.9,1.3,8.9,1.3c6.7,0,13.2-2.2,18.7-6.3c8-6,12.5-15.1,12.5-25.1
			c0-1.6-0.1-3.1-0.4-4.6l77.4,22.5v2.3c0,17.8,14.5,32.3,32.3,32.3c17.8,0,32.3-14.5,32.3-32.3V305.8
			C1064,288,1049.5,273.5,1031.7,273.5z M898.8,507.9c-3.3,2.4-7.4,3.2-11.3,2.1l-50.6-14.8c-5.5-1.6-9.3-6.7-9.3-12.4
			c0-4.1,1.9-7.9,5.2-10.3c3.3-2.4,7.4-3.2,11.3-2.1l50.6,14.8c5.5,1.6,9.3,6.7,9.3,12.4C904,501.7,902.1,505.5,898.8,507.9z
			 M778.1,453.3c0,7.6-6.2,13.8-13.8,13.8s-13.8-6.2-13.8-13.8v-83c0-7.6,6.2-13.8,13.8-13.8s13.8,6.2,13.8,13.8V453.3z
			 M796.6,437.2v-50.7l202.9-59.2v169.1L796.6,437.2z M1045.5,517.9c0,7.6-6.2,13.8-13.8,13.8c-7.6,0-13.8-6.2-13.8-13.8V305.8
			c0-7.6,6.2-13.8,13.8-13.8c7.6,0,13.8,6.2,13.8,13.8V517.9z M1147,411.9c0,5.1-4.1,9.2-9.2,9.2h-46.1c-5.1,0-9.2-4.1-9.2-9.2
			s4.1-9.2,9.2-9.2h46.1C1142.8,402.6,1147,406.8,1147,411.9z M1135.9,491.1c-1.8,2.4-4.6,3.7-7.4,3.7c-1.9,0-3.9-0.6-5.5-1.8
			l-36.9-27.7c-4.1-3-4.9-8.9-1.8-12.9c3-4.1,8.8-4.9,12.9-1.8l36.9,27.7C1138.1,481.3,1138.9,487.1,1135.9,491.1z M1084.3,371.3
			c-3-4.1-2.2-9.9,1.8-12.9l36.9-27.7c4.1-3,9.9-2.2,12.9,1.8c3,4.1,2.2,9.9-1.8,12.9l-36.9,27.7c-1.7,1.2-3.6,1.8-5.5,1.8
			C1088.8,375,1086.1,373.7,1084.3,371.3z"/>
	</g>
	<g>
		<path class="st1" d="M295.4,324v87h23.3v20.2h-23.3v109.6h-26.7V301.4h56.5V324H295.4z"/>
		<path class="st1" d="M381.8,477.4h-18.8l-5.1,63.4h-22.9l21.2-239.4h34.3l22.6,239.4h-25.7L381.8,477.4z M364.6,457.6h15.4
			l-7.2-82.2h-1L364.6,457.6z"/>
		<path class="st1" d="M459.5,301.4v219.2h28.4v20.2h-55.1V301.4H459.5z"/>
		<path class="st1" d="M550.6,477.4h-18.8l-5.1,63.4h-23l21.2-239.4h34.3l22.6,239.4h-25.7L550.6,477.4z M533.5,457.6h15.4
			l-7.2-82.2h-1L533.5,457.6z"/>
		<path class="st1" d="M672.2,397.9c0,7.3-1.1,12.7-3.4,16.3c-2.3,3.5-5.1,5.9-8.5,7c3.4,0.9,6.2,3.1,8.5,6.7
			c2.3,3.5,3.4,9,3.4,16.3V498c0,7.8,0.2,14.3,0.5,19.5c0.3,5.3,0.7,9.5,1.2,12.8c0.5,3.3,0.9,5.8,1.4,7.4c0.5,1.6,0.8,2.6,1,3.1
			h-26.8c-1.6-2.7-2.6-7.5-3.2-14.2c-0.6-6.7-0.8-16.3-0.8-28.6v-51.4c0-10.3-2.3-15.4-6.9-15.4h-10.3v109.6h-26.7V301.4h38.5
			c8.9,0,16.4,3,22.7,8.9c6.3,5.9,9.4,14.4,9.4,25.3V397.9z M638.7,411.3c4.6,0,6.9-5,6.9-15.1v-56.5c0-10.5-2.6-15.8-7.9-15.8h-9.2
			v87.3H638.7z"/>
	</g>
</g>
</svg>
