<?xml version="1.0" encoding="utf-8"?>
<!-- Generator: Adobe Illustrator 23.0.1, SVG Export Plug-In . SVG Version: 6.00 Build 0)  -->
<svg version="1.1" id="Layer_1" xmlns="http://www.w3.org/2000/svg" xmlns:xlink="http://www.w3.org/1999/xlink" x="0px" y="0px"
	 viewBox="0 0 1217 904" style="enable-background:new 0 0 1217 904;" xml:space="preserve">
<style type="text/css">
	.st0{fill:#F9123C;}
</style>
<g>
	<path class="st0" d="M1141.6-0.3H75.2C33.6-0.3-0.3,33.6-0.3,75.2v669.1c0,41.6,33.9,75.5,75.5,75.5h479.5l53.7,84.2l53.7-84.2
		h479.5c41.6,0,75.5-33.9,75.5-75.5V75.2C1217.1,33.6,1183.3-0.3,1141.6-0.3z M1191.6,744.4c0,27.5-22.4,50-50,50H648.1l-39.7,62.2
		l-39.7-62.2H75.2c-27.5,0-50-22.4-50-50V75.2c0-27.5,22.4-50,50-50h1066.4c27.5,0,50,22.4,50,50V744.4z"/>
</g>
</svg>
