<?xml version="1.0" encoding="utf-8"?>
<!-- Generator: Adobe Illustrator 23.0.4, SVG Export Plug-In . SVG Version: 6.00 Build 0)  -->
<svg version="1.1" id="Camada_1" xmlns="http://www.w3.org/2000/svg" xmlns:xlink="http://www.w3.org/1999/xlink" x="0px" y="0px"
	 viewBox="0 0 291 54" style="enable-background:new 0 0 291 54;" xml:space="preserve">
<style type="text/css">
	.st0{fill:#FF0013;}
</style>
<g>
	<polygon class="st0" points="269.5,47.2 283.1,26.4 274.8,26.4 274.8,7 274.7,7 220.2,7 216.6,7 216.6,17.6 220.2,17.6 264.1,17.6 
		264.2,17.6 264.2,26.4 255.9,26.4 	"/>
</g>
<g>
	<path class="st0" d="M17.2,6.5c1.5,0,2.7,0.5,3.8,1.5c1,1,1.6,2.4,1.6,4.2v12.9c0,1.7-0.5,3-1.5,3.7c-1,0.7-2.2,1.1-3.7,1.1h-2.1
		v16.2h-4.4V6.5H17.2z M18,12.9c0-1.7-0.4-2.6-1.3-2.6h-1.5v16h1.7c0.8,0,1.1-0.8,1.1-2.5V12.9z"/>
	<path class="st0" d="M35.8,22.5c0,1.2-0.2,2.1-0.6,2.7c-0.4,0.6-0.8,1-1.4,1.2c0.6,0.2,1,0.5,1.4,1.1c0.4,0.6,0.6,1.5,0.6,2.7V39
		c0,1.3,0,2.4,0.1,3.2c0.1,0.9,0.1,1.6,0.2,2.1c0.1,0.5,0.1,1,0.2,1.2c0.1,0.3,0.1,0.4,0.2,0.5h-4.4c-0.3-0.5-0.4-1.2-0.5-2.3
		c-0.1-1.1-0.1-2.7-0.1-4.7v-8.5c0-1.7-0.4-2.5-1.1-2.5h-1.7v18.1h-4.4V6.5h6.4C32,6.5,33.3,7,34.3,8c1,1,1.5,2.4,1.5,4.2V22.5z
		 M30.3,24.7c0.8,0,1.1-0.8,1.1-2.5v-9.3c0-1.7-0.4-2.6-1.3-2.6h-1.5v14.4H30.3z"/>
	<path class="st0" d="M45,35.6h-3.1L41,46.1h-3.8l3.5-39.5h5.7l3.7,39.5h-4.2L45,35.6z M42.2,32.3h2.5l-1.2-13.6h-0.2L42.2,32.3z"/>
	<path class="st0" d="M60.2,10.2h-3.8v35.8H52V10.2h-3.8V6.5h12.1V10.2z"/>
	<path class="st0" d="M65.7,6.5v39.5h-4.4V6.5H65.7z"/>
	<path class="st0" d="M72.8,46.4c-0.6,0-1.3-0.1-1.9-0.3c-0.6-0.2-1.2-0.6-1.7-1c-0.5-0.5-0.9-1-1.2-1.8c-0.3-0.7-0.5-1.6-0.5-2.6
		V11.9c0-1,0.2-1.9,0.5-2.6c0.3-0.7,0.7-1.3,1.2-1.8c0.5-0.5,1.1-0.8,1.7-1c0.6-0.2,1.3-0.3,1.9-0.3h1c0.6,0,1.3,0.1,1.9,0.3
		c0.6,0.2,1.2,0.6,1.7,1c0.5,0.5,0.9,1,1.2,1.8c0.3,0.7,0.5,1.6,0.5,2.6v28.8c0,1.1-0.2,1.9-0.5,2.7c-0.3,0.7-0.7,1.3-1.3,1.8
		l1.7,1.7L76.8,49l-2.6-2.6h-0.5H72.8z M73.2,9.9c-0.9,0-1.3,0.9-1.3,2.7V40c0,1,0.1,1.7,0.3,2.1c0.2,0.4,0.5,0.6,1,0.6h0.2
		c0.4,0,0.7-0.2,1-0.6c0.2-0.4,0.3-1.1,0.3-2.1V12.6c0-1.8-0.4-2.7-1.3-2.7H73.2z"/>
	<path class="st0" d="M86.3,46.4c-0.6,0-1.3-0.1-1.9-0.3c-0.6-0.2-1.2-0.5-1.7-1c-0.5-0.5-0.9-1.1-1.2-1.8c-0.3-0.7-0.5-1.6-0.5-2.6
		V6.5h4.4V40c0,1,0.1,1.7,0.3,2.1c0.2,0.4,0.5,0.6,1,0.6H87c0.4,0,0.7-0.2,0.9-0.6c0.2-0.4,0.3-1.1,0.3-2.1V6.5h4.4v34.2
		c0,1-0.1,1.9-0.5,2.6C91.9,44,91.5,44.6,91,45c-0.5,0.5-1.1,0.8-1.7,1c-0.6,0.2-1.3,0.3-2,0.3H86.3z"/>
	<path class="st0" d="M98.8,10.2v14.4h3.8V28h-3.8v14.4h5.3v3.7h-9.7V6.5h9.3v3.7H98.8z"/>
	<path class="st0" d="M118.5,35.6h-3.1l-0.8,10.5h-3.8l3.5-39.5h5.7l3.7,39.5h-4.2L118.5,35.6z M115.7,32.3h2.5l-1.2-13.6h-0.2
		L115.7,32.3z"/>
	<path class="st0" d="M135.2,10.2v14.4h3.8V28h-3.8v14.4h5.3v3.7h-9.7V6.5h9.3v3.7H135.2z"/>
	<path class="st0" d="M158.1,6.5v39.5h-3.7V20.2h-0.1l-2.8,25.9h-3.2l-2.8-25.9h-0.1v25.9h-3.7V6.5h5.7l2.4,22.6h0.1l2.5-22.6H158.1
		z"/>
	<path class="st0" d="M166.3,6.5c1.5,0,2.7,0.5,3.8,1.5c1,1,1.6,2.4,1.6,4.2v12.9c0,1.7-0.5,3-1.5,3.7c-1,0.7-2.2,1.1-3.7,1.1h-2.1
		v16.2h-4.4V6.5H166.3z M167.2,12.9c0-1.7-0.4-2.6-1.3-2.6h-1.5v16h1.7c0.8,0,1.1-0.8,1.1-2.5V12.9z"/>
	<path class="st0" d="M179.2,35.6h-3.1l-0.8,10.5h-3.8L175,6.5h5.7l3.7,39.5h-4.2L179.2,35.6z M176.4,32.3h2.5l-1.2-13.6h-0.2
		L176.4,32.3z"/>
	<path class="st0" d="M194.5,10.2h-3.8v35.8h-4.4V10.2h-3.8V6.5h12.1V10.2z"/>
	<path class="st0" d="M199.9,6.5v39.5h-4.4V6.5H199.9z"/>
	<path class="st0" d="M208.8,35.6h-3.1l-0.8,10.5H201l3.5-39.5h5.7l3.7,39.5h-4.2L208.8,35.6z M205.9,32.3h2.5l-1.2-13.6h-0.2
		L205.9,32.3z"/>
</g>
</svg>
