<?xml version="1.0" encoding="utf-8"?>
<!-- Generator: Adobe Illustrator 23.0.1, SVG Export Plug-In . SVG Version: 6.00 Build 0)  -->
<svg version="1.1" id="Layer_1" xmlns="http://www.w3.org/2000/svg" xmlns:xlink="http://www.w3.org/1999/xlink" x="0px" y="0px"
	 viewBox="0 0 24 30" style="enable-background:new 0 0 24 30;" xml:space="preserve">
<style type="text/css">
	.st0{fill:#002BFF;}
</style>
<g>
	<polygon class="st0" points="11.9,19.1 11.1,19.1 7.8,15.7 8.5,15 11.5,18 14.5,15 15.2,15.7 	"/>
	<rect x="11" y="12" class="st0" width="1" height="6"/>
	<rect x="7.5" y="21" class="st0" width="8" height="1"/>
	<path class="st0" d="M7,10H3.5V9H7c0.3,0,0.5-0.2,0.5-0.5V5h1v3.5C8.5,9.3,7.8,10,7,10z"/>
	<path class="st0" d="M19.5,27h-16c-1.1,0-2-0.9-2-2V8.5l0.1-0.4l5-5L7,3h12.5c1.1,0,2,0.9,2,2v20C21.5,26.1,20.6,27,19.5,27z
		 M2.5,8.7V25c0,0.6,0.4,1,1,1h16c0.6,0,1-0.4,1-1V5c0-0.6-0.4-1-1-1H7.2L2.5,8.7z"/>
</g>
</svg>
