<?xml version="1.0" encoding="utf-8"?>
<!-- Generator: Adobe Illustrator 23.0.1, SVG Export Plug-In . SVG Version: 6.00 Build 0)  -->
<svg version="1.1" id="Layer_1" xmlns="http://www.w3.org/2000/svg" xmlns:xlink="http://www.w3.org/1999/xlink" x="0px" y="0px"
	 viewBox="0 0 495 244" style="enable-background:new 0 0 495 244;" xml:space="preserve">
<style type="text/css">
	.st0{fill:#F70606;}
	.st1{fill:#FFFFFF;}
	.st2{fill:#FFFDFD;}
</style>
<rect class="st0" width="495" height="244"/>
<g>
	<g>
		<g>
			<g>
				<path class="st1" d="M172.9,162.3H96.5v-100h76.4V162.3z M101.1,157.8h67.3V66.9h-67.3V157.8z"/>
			</g>
		</g>
	</g>
	<g>
		<g>
			<g>
				<rect x="110.1" y="118.8" class="st1" width="40" height="4.6"/>
			</g>
		</g>
	</g>
	<g>
		<g>
			<g>
				<rect x="110.1" y="129" class="st1" width="40" height="4.6"/>
			</g>
		</g>
	</g>
	<g>
		<g>
			<g>
				<rect x="110.1" y="139.3" class="st1" width="28.7" height="4.6"/>
			</g>
		</g>
	</g>
	<g>
		<g>
			<g>
				<rect x="148.5" y="75.3" class="st1" width="14.4" height="4.6"/>
			</g>
		</g>
	</g>
	<g>
		<g>
			<g>
				<rect x="193.9" y="101.9" class="st1" width="14.4" height="4.6"/>
			</g>
		</g>
	</g>
	<g>
		<g>
			<g>
				<path class="st1" d="M171,125.8"/>
			</g>
		</g>
	</g>
	<g>
		<g>
			<g>
				<path class="st1" d="M170.5,104"/>
			</g>
		</g>
	</g>
	<g>
		<g>
			<g>
				<path class="st1" d="M170.5,85.6"/>
			</g>
		</g>
	</g>
	<g>
		<g>
			<g>
				<path class="st1" d="M144.9,160.5"/>
			</g>
		</g>
	</g>
	<g>
		<g>
			<g>
				<polygon class="st1" points="219.1,189 142.7,189 142.7,162.1 147.2,162.1 147.2,184.4 214.5,184.4 214.5,93.6 170.6,93.6 
					170.6,89 219.1,89 				"/>
			</g>
		</g>
	</g>
	<g>
		<g>
			<g>
				<rect x="170.6" y="145.5" class="st1" width="25.7" height="4.6"/>
			</g>
		</g>
	</g>
	<g>
		<g>
			<g>
				<rect x="170.6" y="155.7" class="st1" width="25.7" height="4.6"/>
			</g>
		</g>
	</g>
	<g>
		<g>
			<g>
				<rect x="157.3" y="166" class="st1" width="31.8" height="4.6"/>
			</g>
		</g>
	</g>
</g>
<g>
	<path class="st2" d="M256.8,68.8c0,1-0.2,1.8-0.5,2.3c-0.3,0.5-0.7,0.8-1.2,1c0.5,0.1,0.9,0.4,1.2,0.9c0.3,0.5,0.5,1.3,0.5,2.3v9.3
		c0,0.8-0.1,1.5-0.4,2.1c-0.3,0.6-0.6,1.1-1,1.4c-0.4,0.4-0.9,0.7-1.5,0.8c-0.5,0.2-1.1,0.3-1.7,0.3h-5.3V55.8h5.3
		c0.6,0,1.1,0.1,1.7,0.3c0.5,0.2,1,0.5,1.5,0.9c0.4,0.4,0.8,0.9,1,1.5c0.3,0.6,0.4,1.3,0.4,2.2V68.8z M252.2,70.6
		c0.6,0,0.9-0.7,0.9-2.1v-7.4c0-1.5-0.4-2.2-1.1-2.2h-1.3v11.7H252.2z M253.1,75.5c0-1.4-0.3-2.1-1-2.1h-1.4V86h1.3
		c0.7,0,1.1-0.7,1.1-2.1V75.5z"/>
	<path class="st2" d="M269.9,80.3h-2.6l-0.7,8.8h-3.2l3-33.4h4.8l3.2,33.4h-3.6L269.9,80.3z M267.5,77.6h2.2l-1-11.5h-0.1
		L267.5,77.6z"/>
	<path class="st2" d="M284.6,55.8v33.4h-3.7V55.8H284.6z"/>
	<path class="st2" d="M298.6,72.5l3.5,16.7h-3.8l-1.9-9.2l-1.7,9.2h-3.6l3.5-17.9l-3.5-15.5h3.7l1.8,7.9l1.6-7.9h3.7L298.6,72.5z"/>
	<path class="st2" d="M312.5,58.9v12.1h3.3v2.8h-3.3V86h4.4v3.2h-8.2V55.8h7.9v3.2H312.5z"/>
	<path class="st2" d="M340.6,80.3H338l-0.7,8.8h-3.2l3-33.4h4.8l3.2,33.4h-3.6L340.6,80.3z M338.2,77.6h2.2l-1-11.5h-0.1L338.2,77.6
		z"/>
	<path class="st2" d="M356,89.5c-0.5,0-1.1-0.1-1.6-0.3s-1-0.5-1.5-0.9c-0.4-0.4-0.8-0.9-1-1.5c-0.3-0.6-0.4-1.3-0.4-2.2V60.3
		c0-0.9,0.1-1.6,0.4-2.2c0.3-0.6,0.6-1.1,1-1.5c0.4-0.4,0.9-0.7,1.5-0.9c0.5-0.2,1.1-0.3,1.6-0.3h0.9c0.5,0,1.1,0.1,1.6,0.3
		c0.5,0.2,1,0.5,1.5,0.9c0.4,0.4,0.8,0.9,1,1.5s0.4,1.3,0.4,2.2v24.3c0,0.9-0.1,1.6-0.4,2.2c-0.3,0.6-0.6,1.1-1.1,1.5l1.4,1.4
		l-1.9,1.9l-2.2-2.2h-0.4H356z M356.4,58.6c-0.7,0-1.1,0.7-1.1,2.2v23.2c0,0.8,0.1,1.4,0.3,1.7s0.5,0.5,0.8,0.5h0.2
		c0.4,0,0.6-0.2,0.8-0.5s0.3-0.9,0.3-1.7V60.9c0-1.5-0.4-2.2-1.1-2.2H356.4z"/>
	<path class="st2" d="M373.2,89.5c-0.5,0-1.1-0.1-1.6-0.3c-0.5-0.2-1-0.5-1.5-0.9c-0.4-0.4-0.8-0.9-1-1.5c-0.3-0.6-0.4-1.3-0.4-2.2
		V55.8h3.7v28.3c0,0.8,0.1,1.4,0.3,1.7s0.5,0.5,0.8,0.5h0.2c0.3,0,0.6-0.2,0.8-0.5s0.3-0.9,0.3-1.7V55.8h3.7v28.9
		c0,0.9-0.1,1.6-0.4,2.2c-0.3,0.6-0.6,1.1-1,1.5c-0.4,0.4-0.9,0.7-1.5,0.9c-0.5,0.2-1.1,0.3-1.7,0.3H373.2z"/>
	<path class="st2" d="M389.5,55.8v33.4h-3.7V55.8H389.5z"/>
	<path class="st2" d="M251.4,138.8c-0.5,0-1.1-0.1-1.6-0.3s-1-0.5-1.5-0.9c-0.4-0.4-0.8-0.9-1-1.5c-0.3-0.6-0.4-1.3-0.4-2.2v-24.3
		c0-0.9,0.1-1.6,0.4-2.2c0.3-0.6,0.6-1.1,1-1.5c0.4-0.4,0.9-0.7,1.5-0.9c0.5-0.2,1.1-0.3,1.6-0.3h0.9c0.5,0,1.1,0.1,1.6,0.3
		c0.5,0.2,1,0.5,1.5,0.9c0.4,0.4,0.8,0.9,1,1.5s0.4,1.3,0.4,2.2V134c0,0.9-0.1,1.6-0.4,2.2s-0.6,1.1-1,1.5c-0.4,0.4-0.9,0.7-1.5,0.9
		c-0.5,0.2-1.1,0.3-1.6,0.3H251.4z M251.7,108c-0.7,0-1.1,0.7-1.1,2.2v23.2c0,0.8,0.1,1.4,0.3,1.7s0.5,0.5,0.8,0.5h0.2
		c0.4,0,0.6-0.2,0.8-0.5s0.3-0.9,0.3-1.7v-23.2c0-1.5-0.4-2.2-1.1-2.2H251.7z"/>
	<path class="st2" d="M284.7,118.6c0,1-0.2,1.8-0.5,2.3c-0.3,0.5-0.7,0.8-1.2,1c0.5,0.1,0.9,0.4,1.2,0.9c0.3,0.5,0.5,1.3,0.5,2.3
		v7.5c0,1.1,0,2,0.1,2.7c0,0.7,0.1,1.3,0.2,1.8c0.1,0.5,0.1,0.8,0.2,1c0.1,0.2,0.1,0.4,0.1,0.4h-3.7c-0.2-0.4-0.4-1-0.4-2
		c-0.1-0.9-0.1-2.3-0.1-4v-7.2c0-1.4-0.3-2.2-1-2.2h-1.4v15.3h-3.7v-33.4h5.4c1.2,0,2.3,0.4,3.2,1.2c0.9,0.8,1.3,2,1.3,3.5V118.6z
		 M280,120.5c0.6,0,1-0.7,1-2.1v-7.9c0-1.5-0.4-2.2-1.1-2.2h-1.3v12.2H280z"/>
	<path class="st2" d="M296.7,138.8c-0.5,0-1.1-0.1-1.6-0.3s-1-0.5-1.5-0.9c-0.4-0.4-0.8-0.9-1-1.5c-0.3-0.6-0.4-1.3-0.4-2.2v-24.3
		c0-0.9,0.1-1.6,0.4-2.2c0.3-0.6,0.6-1.1,1-1.5c0.4-0.4,0.9-0.7,1.5-0.9c0.5-0.2,1.1-0.3,1.6-0.3h0.9c0.5,0,1.1,0.1,1.6,0.3
		c0.5,0.2,1,0.5,1.5,0.9c0.4,0.4,0.8,0.9,1,1.5s0.4,1.3,0.4,2.2V134c0,0.9-0.1,1.6-0.4,2.2s-0.6,1.1-1,1.5c-0.4,0.4-0.9,0.7-1.5,0.9
		c-0.5,0.2-1.1,0.3-1.6,0.3H296.7z M297,108c-0.7,0-1.1,0.7-1.1,2.2v23.2c0,0.8,0.1,1.4,0.3,1.7s0.5,0.5,0.8,0.5h0.2
		c0.4,0,0.6-0.2,0.8-0.5s0.3-0.9,0.3-1.7v-23.2c0-1.5-0.4-2.2-1.1-2.2H297z"/>
	<path class="st2" d="M315.2,129.7h-2.6l-0.7,8.8h-3.2l3-33.4h4.8l3.2,33.4H316L315.2,129.7z M312.8,126.9h2.2l-1-11.5h-0.1
		L312.8,126.9z"/>
	<path class="st2" d="M326.1,138.6v-33.4h5.3c0.6,0,1.1,0.1,1.7,0.3c0.5,0.2,1,0.5,1.5,0.8c0.4,0.4,0.8,0.9,1,1.5
		c0.3,0.6,0.4,1.3,0.4,2.2v23.9c0,0.9-0.1,1.6-0.4,2.2c-0.3,0.6-0.6,1.1-1,1.5c-0.4,0.4-0.9,0.7-1.5,0.8c-0.5,0.2-1.1,0.3-1.7,0.3
		H326.1z M329.9,108.3v27.1h1.3c0.3,0,0.6-0.2,0.8-0.5c0.2-0.3,0.3-0.9,0.3-1.7v-22.8c0-0.8-0.1-1.4-0.3-1.7
		c-0.2-0.3-0.4-0.5-0.8-0.5H329.9z"/>
	<path class="st2" d="M357,105.1v33.4h-3.1v-21.8h0l-2.4,21.8h-2.7l-2.3-21.8h-0.1v21.8h-3.1v-33.4h4.8l2,19.1h0.1l2.1-19.1H357z"/>
	<path class="st2" d="M370.2,129.7h-2.6l-0.7,8.8h-3.2l3-33.4h4.8l3.2,33.4h-3.6L370.2,129.7z M367.8,126.9h2.2l-1-11.5h-0.1
		L367.8,126.9z"/>
	<path class="st2" d="M386.5,105.1c1.2,0,2.3,0.4,3.2,1.2c0.9,0.8,1.3,2,1.3,3.5v10.9c0,1.5-0.4,2.5-1.2,3.1
		c-0.8,0.6-1.9,0.9-3.1,0.9h-1.8v13.7h-3.7v-33.4H386.5z M387.2,110.5c0-1.5-0.4-2.2-1.1-2.2h-1.3v13.5h1.4c0.6,0,1-0.7,1-2.1V110.5
		z"/>
	<path class="st2" d="M251.4,188.2c-0.5,0-1.1-0.1-1.6-0.3s-1-0.5-1.5-0.9c-0.4-0.4-0.8-0.9-1-1.5c-0.3-0.6-0.4-1.3-0.4-2.2V159
		c0-0.9,0.1-1.6,0.4-2.2c0.3-0.6,0.6-1.1,1-1.5c0.4-0.4,0.9-0.7,1.5-0.9s1.1-0.3,1.6-0.3h0.9c0.5,0,1.1,0.1,1.6,0.3
		c0.5,0.2,1,0.5,1.5,0.9c0.4,0.4,0.8,0.9,1,1.5s0.4,1.3,0.4,2.2v8.9H253v-8.4c0-0.8-0.1-1.4-0.3-1.7s-0.5-0.5-0.8-0.5h-0.2
		c-0.4,0-0.6,0.2-0.8,0.5c-0.2,0.3-0.3,0.9-0.3,1.7v23.2c0,0.8,0.1,1.4,0.3,1.7s0.5,0.5,0.8,0.5h0.2c0.4,0,0.6-0.2,0.8-0.5
		s0.3-0.9,0.3-1.7v-8.4h3.7v9c0,0.9-0.1,1.6-0.4,2.2c-0.3,0.6-0.6,1.1-1,1.5c-0.4,0.4-0.9,0.7-1.5,0.9c-0.5,0.2-1.1,0.3-1.6,0.3
		H251.4z"/>
	<path class="st2" d="M268.4,188.2c-0.5,0-1.1-0.1-1.6-0.3s-1-0.5-1.5-0.9c-0.4-0.4-0.8-0.9-1-1.5c-0.3-0.6-0.4-1.3-0.4-2.2V159
		c0-0.9,0.1-1.6,0.4-2.2c0.3-0.6,0.6-1.1,1-1.5c0.4-0.4,0.9-0.7,1.5-0.9s1.1-0.3,1.6-0.3h0.9c0.5,0,1.1,0.1,1.6,0.3
		c0.5,0.2,1,0.5,1.5,0.9c0.4,0.4,0.8,0.9,1,1.5s0.4,1.3,0.4,2.2v24.3c0,0.9-0.1,1.6-0.4,2.2c-0.3,0.6-0.6,1.1-1,1.5
		c-0.4,0.4-0.9,0.7-1.5,0.9c-0.5,0.2-1.1,0.3-1.6,0.3H268.4z M268.7,157.4c-0.7,0-1.1,0.7-1.1,2.2v23.2c0,0.8,0.1,1.4,0.3,1.7
		s0.5,0.5,0.8,0.5h0.2c0.4,0,0.6-0.2,0.8-0.5s0.3-0.9,0.3-1.7v-23.2c0-1.5-0.4-2.2-1.1-2.2H268.7z"/>
	<path class="st2" d="M294.7,154.5v33.4h-3.1v-21.8h0l-2.4,21.8h-2.7l-2.3-21.8H284v21.8h-3.1v-33.4h4.8l2,19.1h0.1l2.1-19.1H294.7z
		"/>
	<path class="st2" d="M307.4,154.5c1.2,0,2.3,0.4,3.2,1.2c0.9,0.8,1.3,2,1.3,3.5v10.9c0,1.5-0.4,2.5-1.2,3.1
		c-0.8,0.6-1.9,0.9-3.1,0.9h-1.8v13.7H302v-33.4H307.4z M308.1,159.9c0-1.5-0.4-2.2-1.1-2.2h-1.3v13.5h1.4c0.6,0,1-0.7,1-2.1V159.9z
		"/>
	<path class="st2" d="M322.8,154.5v30.6h4v2.8h-7.7v-33.4H322.8z"/>
	<path class="st2" d="M337.1,157.7v12.1h3.3v2.8h-3.3v12.1h4.4v3.2h-8.2v-33.4h7.9v3.2H337.1z"/>
	<path class="st2" d="M358,157.7h-3.2v30.3h-3.7v-30.3h-3.3v-3.2H358V157.7z"/>
	<path class="st2" d="M369.1,188.2c-0.5,0-1.1-0.1-1.6-0.3s-1-0.5-1.5-0.9c-0.4-0.4-0.8-0.9-1-1.5c-0.3-0.6-0.4-1.3-0.4-2.2V159
		c0-0.9,0.1-1.6,0.4-2.2c0.3-0.6,0.6-1.1,1-1.5c0.4-0.4,0.9-0.7,1.5-0.9s1.1-0.3,1.6-0.3h0.9c0.5,0,1.1,0.1,1.6,0.3
		c0.5,0.2,1,0.5,1.5,0.9c0.4,0.4,0.8,0.9,1,1.5s0.4,1.3,0.4,2.2v24.3c0,0.9-0.1,1.6-0.4,2.2c-0.3,0.6-0.6,1.1-1,1.5
		c-0.4,0.4-0.9,0.7-1.5,0.9c-0.5,0.2-1.1,0.3-1.6,0.3H369.1z M369.5,157.4c-0.7,0-1.1,0.7-1.1,2.2v23.2c0,0.8,0.1,1.4,0.3,1.7
		s0.5,0.5,0.8,0.5h0.2c0.4,0,0.6-0.2,0.8-0.5s0.3-0.9,0.3-1.7v-23.2c0-1.5-0.4-2.2-1.1-2.2H369.5z"/>
</g>
</svg>
