<?xml version="1.0" encoding="utf-8"?>
<!-- Generator: Adobe Illustrator 23.0.4, SVG Export Plug-In . SVG Version: 6.00 Build 0)  -->
<svg version="1.1" id="Camada_1" xmlns="http://www.w3.org/2000/svg" xmlns:xlink="http://www.w3.org/1999/xlink" x="0px" y="0px"
	 viewBox="0 0 1767 768" style="enable-background:new 0 0 1767 768;" xml:space="preserve">
<style type="text/css">
	.st0{fill:none;stroke:#FF0000;stroke-width:0.75;stroke-miterlimit:10;}
</style>
<path class="st0" d="M474.1,91L2.6,300.4 M507.4,91L75.2,300.4 M540.7,91L147.8,300.4 M574,91L220.4,300.4 M607.3,91L293,300.4
	 M640.6,91l-275,209.3 M673.9,91L438.2,300.4 M707.2,91L510.8,300.4 M740.5,91L583.4,300.4 M773.8,91L656,300.4 M807.1,91
	l-78.6,209.3 M840.4,91l-39.3,209.3 M873.7,91v209.3 M907,91l39.3,209.3 M940.3,91l78.6,209.3 M973.6,91l117.9,209.3 M1006.9,91
	l157.2,209.3 M1040.2,91l196.4,209.3 M1073.5,91l235.7,209.3 M1381.9,300.4L1106.8,91 M1140.1,91l314.3,209.3 M1173.4,91L1527,300.4
	 M1206.7,91l392.9,209.3 M1672.2,300.4L1240,91 M1273.3,91l471.5,209.3 M474.1,91h799.2 M464,95.5h819.4 M453.4,100.2H1294
	 M442.3,105.2h862.9 M1317,110.4H430.5 M418.1,115.9h911.3 M404.9,121.8h937.6 M391,127.9h965.5 M376.2,134.5h995.1 M360.5,141.5
	H1387 M343.7,148.9h1060 M325.8,156.9h1095.8 M306.7,165.4h1134 M286.2,174.5h1175 M264.2,184.2h1219.1 M240.4,194.8h1266.7
	 M214.7,206.2h1318.1 M186.8,218.6h1373.8 M156.5,232.1H1591 M123.4,246.8h1500.7 M87,262.9h1573.4 M47,280.7h1653.5 M2.6,300.4
	h1742.2"/>
</svg>
