<?xml version="1.0" encoding="utf-8"?>
<!-- Generator: Adobe Illustrator 23.0.1, SVG Export Plug-In . SVG Version: 6.00 Build 0)  -->
<svg version="1.1" id="Layer_1" xmlns="http://www.w3.org/2000/svg" xmlns:xlink="http://www.w3.org/1999/xlink" x="0px" y="0px"
	 viewBox="0 0 54 54" style="enable-background:new 0 0 54 54;" xml:space="preserve">
<style type="text/css">
	.st0{fill-rule:evenodd;clip-rule:evenodd;}
	.st1{fill:#FF0303;}
	.st2{fill:#FFFFFF;}
</style>
<g>
	<g id="XMLID_1_">
		<g>
			<path d="M49,13.7v26.1H3.6V13.7H49z M47.2,38.1V21.5h-2.8v-2.9H8.2v2.9H5.3v16.5h0.1c0-0.1,0-0.1,0-0.2c0-0.2,0.2-0.4,0.4-0.4
				c0.2,0,0.4,0.2,0.4,0.4c0,0.1,0,0.1,0,0.2h1.1c0-0.1,0-0.1,0-0.2c0-0.2,0.2-0.4,0.4-0.4c0.2,0,0.4,0.2,0.4,0.4C8,38,8,38,8,38.1
				h1.1c0-0.1,0-0.1,0-0.2c0-0.2,0.2-0.4,0.4-0.4c0.2,0,0.4,0.2,0.4,0.4c0,0.1,0,0.1,0,0.2H11c0-0.1,0-0.1,0-0.2
				c0-0.2,0.2-0.4,0.4-0.4s0.4,0.2,0.4,0.4c0,0.1,0,0.1,0,0.2h1.1c0-0.1,0-0.1,0-0.2c0-0.2,0.2-0.4,0.4-0.4c0.2,0,0.4,0.2,0.4,0.4
				c0,0.1,0,0.1,0,0.2h1.1c0-0.1,0-0.1,0-0.2c0-0.2,0.2-0.4,0.4-0.4s0.4,0.2,0.4,0.4c0,0.1,0,0.1,0,0.2h1.1c0-0.1,0-0.1,0-0.2
				c0-0.2,0.2-0.4,0.4-0.4c0.2,0,0.4,0.2,0.4,0.4c0,0.1,0,0.1,0,0.2h1.1c0-0.1,0-0.1,0-0.2c0-0.2,0.2-0.4,0.4-0.4
				c0.2,0,0.4,0.2,0.4,0.4c0,0.1,0,0.1,0,0.2h1.1c0-0.1,0-0.1,0-0.2c0-0.2,0.2-0.4,0.4-0.4c0.2,0,0.4,0.2,0.4,0.4c0,0.1,0,0.1,0,0.2
				h1.1c0-0.1,0-0.1,0-0.2c0-0.2,0.2-0.4,0.4-0.4c0.2,0,0.4,0.2,0.4,0.4c0,0.1,0,0.1,0,0.2H24c0-0.1,0-0.1,0-0.2
				c0-0.2,0.2-0.4,0.4-0.4c0.2,0,0.4,0.2,0.4,0.4c0,0.1,0,0.1,0,0.2h1.1c0-0.1,0-0.1,0-0.2c0-0.2,0.2-0.4,0.4-0.4
				c0.2,0,0.4,0.2,0.4,0.4c0,0.1,0,0.1,0,0.2h1.1c0-0.1,0-0.1,0-0.2c0-0.2,0.2-0.4,0.4-0.4c0.2,0,0.4,0.2,0.4,0.4c0,0.1,0,0.1,0,0.2
				h1.1c0-0.1,0-0.1,0-0.2c0-0.2,0.2-0.4,0.4-0.4c0.2,0,0.4,0.2,0.4,0.4c0,0.1,0,0.1,0,0.2h1.1c0-0.1,0-0.1,0-0.2
				c0-0.2,0.2-0.4,0.4-0.4c0.2,0,0.4,0.2,0.4,0.4c0,0.1,0,0.1,0,0.2h1.1c0-0.1,0-0.1,0-0.2c0-0.2,0.2-0.4,0.4-0.4
				c0.2,0,0.4,0.2,0.4,0.4c0,0.1,0,0.1,0,0.2h1.1c0-0.1,0-0.1,0-0.2c0-0.2,0.2-0.4,0.4-0.4c0.2,0,0.4,0.2,0.4,0.4c0,0.1,0,0.1,0,0.2
				H37c0-0.1,0-0.1,0-0.2c0-0.2,0.2-0.4,0.4-0.4c0.2,0,0.4,0.2,0.4,0.4c0,0.1,0,0.1,0,0.2h1.1c0-0.1,0-0.1,0-0.2
				c0-0.2,0.2-0.4,0.4-0.4c0.2,0,0.4,0.2,0.4,0.4c0,0.1,0,0.1,0,0.2h1.1c0-0.1,0-0.1,0-0.2c0-0.2,0.2-0.4,0.4-0.4s0.4,0.2,0.4,0.4
				c0,0.1,0,0.1,0,0.2h1.1c0-0.1,0-0.1,0-0.2c0-0.2,0.2-0.4,0.4-0.4s0.4,0.2,0.4,0.4c0,0.1,0,0.1,0,0.2h1.1c0-0.1,0-0.1,0-0.2
				c0-0.2,0.2-0.4,0.4-0.4s0.4,0.2,0.4,0.4c0,0.1,0,0.1,0,0.2h1.1c0-0.1,0-0.1,0-0.2c0-0.2,0.2-0.4,0.4-0.4c0.2,0,0.4,0.2,0.4,0.4
				c0,0.1,0,0.1,0,0.2H47.2z M47.2,20.7v-5.2H5.3v5.2h2v-3h38v3H47.2z"/>
			<path class="st2" d="M47.2,21.5v16.5h-0.2c0-0.1,0-0.1,0-0.2c0-0.2-0.2-0.4-0.4-0.4c-0.2,0-0.4,0.2-0.4,0.4c0,0.1,0,0.1,0,0.2
				h-1.1c0-0.1,0-0.1,0-0.2c0-0.2-0.2-0.4-0.4-0.4s-0.4,0.2-0.4,0.4c0,0.1,0,0.1,0,0.2h-1.1c0-0.1,0-0.1,0-0.2
				c0-0.2-0.2-0.4-0.4-0.4s-0.4,0.2-0.4,0.4c0,0.1,0,0.1,0,0.2h-1.1c0-0.1,0-0.1,0-0.2c0-0.2-0.2-0.4-0.4-0.4s-0.4,0.2-0.4,0.4
				c0,0.1,0,0.1,0,0.2h-1.1c0-0.1,0-0.1,0-0.2c0-0.2-0.2-0.4-0.4-0.4c-0.2,0-0.4,0.2-0.4,0.4c0,0.1,0,0.1,0,0.2h-1.1
				c0-0.1,0-0.1,0-0.2c0-0.2-0.2-0.4-0.4-0.4c-0.2,0-0.4,0.2-0.4,0.4c0,0.1,0,0.1,0,0.2h-1.1c0-0.1,0-0.1,0-0.2
				c0-0.2-0.2-0.4-0.4-0.4c-0.2,0-0.4,0.2-0.4,0.4c0,0.1,0,0.1,0,0.2h-1.1c0-0.1,0-0.1,0-0.2c0-0.2-0.2-0.4-0.4-0.4
				c-0.2,0-0.4,0.2-0.4,0.4c0,0.1,0,0.1,0,0.2h-1.1c0-0.1,0-0.1,0-0.2c0-0.2-0.2-0.4-0.4-0.4c-0.2,0-0.4,0.2-0.4,0.4
				c0,0.1,0,0.1,0,0.2h-1.1c0-0.1,0-0.1,0-0.2c0-0.2-0.2-0.4-0.4-0.4c-0.2,0-0.4,0.2-0.4,0.4c0,0.1,0,0.1,0,0.2h-1.1
				c0-0.1,0-0.1,0-0.2c0-0.2-0.2-0.4-0.4-0.4c-0.2,0-0.4,0.2-0.4,0.4c0,0.1,0,0.1,0,0.2h-1.1c0-0.1,0-0.1,0-0.2
				c0-0.2-0.2-0.4-0.4-0.4c-0.2,0-0.4,0.2-0.4,0.4c0,0.1,0,0.1,0,0.2h-1.1c0-0.1,0-0.1,0-0.2c0-0.2-0.2-0.4-0.4-0.4
				c-0.2,0-0.4,0.2-0.4,0.4c0,0.1,0,0.1,0,0.2h-1.1c0-0.1,0-0.1,0-0.2c0-0.2-0.2-0.4-0.4-0.4c-0.2,0-0.4,0.2-0.4,0.4
				c0,0.1,0,0.1,0,0.2H21c0-0.1,0-0.1,0-0.2c0-0.2-0.2-0.4-0.4-0.4c-0.2,0-0.4,0.2-0.4,0.4c0,0.1,0,0.1,0,0.2h-1.1
				c0-0.1,0-0.1,0-0.2c0-0.2-0.2-0.4-0.4-0.4c-0.2,0-0.4,0.2-0.4,0.4c0,0.1,0,0.1,0,0.2h-1.1c0-0.1,0-0.1,0-0.2
				c0-0.2-0.2-0.4-0.4-0.4c-0.2,0-0.4,0.2-0.4,0.4c0,0.1,0,0.1,0,0.2h-1.1c0-0.1,0-0.1,0-0.2c0-0.2-0.2-0.4-0.4-0.4
				s-0.4,0.2-0.4,0.4c0,0.1,0,0.1,0,0.2h-1.1c0-0.1,0-0.1,0-0.2c0-0.2-0.2-0.4-0.4-0.4c-0.2,0-0.4,0.2-0.4,0.4c0,0.1,0,0.1,0,0.2
				h-1.1c0-0.1,0-0.1,0-0.2c0-0.2-0.2-0.4-0.4-0.4S11,37.7,11,37.9c0,0.1,0,0.1,0,0.2H9.9c0-0.1,0-0.1,0-0.2c0-0.2-0.2-0.4-0.4-0.4
				c-0.2,0-0.4,0.2-0.4,0.4c0,0.1,0,0.1,0,0.2H8C8,38,8,38,8,37.9c0-0.2-0.2-0.4-0.4-0.4c-0.2,0-0.4,0.2-0.4,0.4c0,0.1,0,0.1,0,0.2
				H6.2c0-0.1,0-0.1,0-0.2c0-0.2-0.2-0.4-0.4-0.4c-0.2,0-0.4,0.2-0.4,0.4c0,0.1,0,0.1,0,0.2H5.3V21.5h2.8v-2.9h36.2v2.9H47.2z
				 M47.1,23c0-0.2-0.2-0.4-0.4-0.4c-0.2,0-0.4,0.2-0.4,0.4c0,0.2,0.2,0.4,0.4,0.4C46.9,23.4,47.1,23.3,47.1,23z M47.1,24.9
				c0-0.2-0.2-0.4-0.4-0.4c-0.2,0-0.4,0.2-0.4,0.4c0,0.2,0.2,0.4,0.4,0.4C46.9,25.3,47.1,25.1,47.1,24.9z M47.1,26.8
				c0-0.2-0.2-0.4-0.4-0.4c-0.2,0-0.4,0.2-0.4,0.4c0,0.2,0.2,0.4,0.4,0.4C46.9,27.2,47.1,27,47.1,26.8z M47.1,28.6
				c0-0.2-0.2-0.4-0.4-0.4c-0.2,0-0.4,0.2-0.4,0.4c0,0.2,0.2,0.4,0.4,0.4C46.9,29,47.1,28.8,47.1,28.6z M47.1,30.5
				c0-0.2-0.2-0.4-0.4-0.4c-0.2,0-0.4,0.2-0.4,0.4c0,0.2,0.2,0.4,0.4,0.4C46.9,30.9,47.1,30.7,47.1,30.5z M47.1,32.3
				c0-0.2-0.2-0.4-0.4-0.4c-0.2,0-0.4,0.2-0.4,0.4c0,0.2,0.2,0.4,0.4,0.4C46.9,32.7,47.1,32.6,47.1,32.3z M47.1,34.2
				c0-0.2-0.2-0.4-0.4-0.4c-0.2,0-0.4,0.2-0.4,0.4c0,0.2,0.2,0.4,0.4,0.4C46.9,34.6,47.1,34.4,47.1,34.2z M47.1,36.1
				c0-0.2-0.2-0.4-0.4-0.4c-0.2,0-0.4,0.2-0.4,0.4c0,0.2,0.2,0.4,0.4,0.4C46.9,36.5,47.1,36.3,47.1,36.1z M46.2,22.1
				c0-0.2-0.2-0.4-0.4-0.4c-0.2,0-0.4,0.2-0.4,0.4c0,0.2,0.2,0.4,0.4,0.4C46,22.5,46.2,22.3,46.2,22.1z M46.2,24
				c0-0.2-0.2-0.4-0.4-0.4c-0.2,0-0.4,0.2-0.4,0.4c0,0.2,0.2,0.4,0.4,0.4C46,24.4,46.2,24.2,46.2,24z M46.2,25.8
				c0-0.2-0.2-0.4-0.4-0.4c-0.2,0-0.4,0.2-0.4,0.4c0,0.2,0.2,0.4,0.4,0.4C46,26.2,46.2,26,46.2,25.8z M46.2,27.7
				c0-0.2-0.2-0.4-0.4-0.4c-0.2,0-0.4,0.2-0.4,0.4c0,0.2,0.2,0.4,0.4,0.4C46,28.1,46.2,27.9,46.2,27.7z M46.2,29.6
				c0-0.2-0.2-0.4-0.4-0.4c-0.2,0-0.4,0.2-0.4,0.4c0,0.2,0.2,0.4,0.4,0.4C46,30,46.2,29.8,46.2,29.6z M46.2,31.4
				c0-0.2-0.2-0.4-0.4-0.4c-0.2,0-0.4,0.2-0.4,0.4c0,0.2,0.2,0.4,0.4,0.4C46,31.8,46.2,31.6,46.2,31.4z M46.2,33.3
				c0-0.2-0.2-0.4-0.4-0.4c-0.2,0-0.4,0.2-0.4,0.4c0,0.2,0.2,0.4,0.4,0.4C46,33.7,46.2,33.5,46.2,33.3z M46.2,35.1
				c0-0.2-0.2-0.4-0.4-0.4c-0.2,0-0.4,0.2-0.4,0.4s0.2,0.4,0.4,0.4C46,35.5,46.2,35.4,46.2,35.1z M46.2,37c0-0.2-0.2-0.4-0.4-0.4
				c-0.2,0-0.4,0.2-0.4,0.4c0,0.2,0.2,0.4,0.4,0.4C46,37.4,46.2,37.2,46.2,37z M45.2,30.3c0.1-0.4,0.1-0.8,0.1-1.3
				c0-2.1-1-4.2-2.6-5.6c0.1,0.1,0.2,0.1,0.3,0.1c0.2,0,0.4-0.2,0.4-0.4c0-0.2-0.2-0.4-0.4-0.4s-0.4,0.2-0.4,0.4
				c0,0.1,0,0.2,0.1,0.3c-0.1,0-0.1-0.1-0.2-0.1h-1c0,0,0-0.1,0-0.1c0-0.2-0.2-0.4-0.4-0.4s-0.4,0.2-0.4,0.4c0,0,0,0.1,0,0.1h-1.1
				c0,0,0-0.1,0-0.1c0-0.2-0.2-0.4-0.4-0.4c-0.2,0-0.4,0.2-0.4,0.4c0,0,0,0.1,0,0.1h-1.1c0,0,0-0.1,0-0.1c0-0.2-0.2-0.4-0.4-0.4
				c-0.2,0-0.4,0.2-0.4,0.4c0,0,0,0.1,0,0.1h-1.1c0,0,0-0.1,0-0.1c0-0.2-0.2-0.4-0.4-0.4c-0.2,0-0.4,0.2-0.4,0.4c0,0,0,0.1,0,0.1
				h-1.1c0,0,0-0.1,0-0.1c0-0.2-0.2-0.4-0.4-0.4c-0.1,0-0.2,0.1-0.3,0.1c0,0.1-0.1,0.2-0.1,0.3c0,0,0,0.1,0,0.1h-0.2v0.7
				c0-0.2-0.2-0.3-0.4-0.3c-0.2,0-0.4,0.2-0.4,0.4c0,0.2,0.2,0.4,0.4,0.4c0.2,0,0.3-0.1,0.4-0.3v1.6c0-0.2-0.2-0.3-0.4-0.3
				c-0.2,0-0.4,0.2-0.4,0.4s0.2,0.4,0.4,0.4c0.2,0,0.3-0.1,0.4-0.3v1.6c0-0.2-0.2-0.3-0.4-0.3c-0.2,0-0.4,0.2-0.4,0.4
				c0,0.2,0.2,0.4,0.4,0.4c0.2,0,0.3-0.1,0.4-0.3v1.6c0-0.2-0.2-0.3-0.4-0.3c-0.2,0-0.4,0.2-0.4,0.4c0,0.2,0.2,0.4,0.4,0.4
				c0.2,0,0.3-0.1,0.4-0.3v1.6c0-0.2-0.2-0.3-0.4-0.3c-0.2,0-0.4,0.2-0.4,0.4c0,0.2,0.2,0.4,0.4,0.4c0.2,0,0.3-0.1,0.4-0.3v1.6
				c0-0.2-0.2-0.3-0.4-0.3c-0.2,0-0.4,0.2-0.4,0.4c0,0.2,0.2,0.4,0.4,0.4c0.2,0,0.3-0.1,0.4-0.3v1.4h1.2c-0.1,0.1-0.1,0.2-0.1,0.3
				c0,0.2,0.2,0.4,0.4,0.4c0.2,0,0.4-0.2,0.4-0.4c0-0.1-0.1-0.2-0.1-0.3h1.3c-0.1,0.1-0.1,0.2-0.1,0.3c0,0.2,0.2,0.4,0.4,0.4
				c0.2,0,0.4-0.2,0.4-0.4c0-0.1,0-0.2-0.1-0.3h1.3C38,34.9,38,35,38,35.1c0,0.2,0.2,0.4,0.4,0.4c0.2,0,0.4-0.2,0.4-0.4
				c0-0.1-0.1-0.2-0.1-0.3H40c-0.1,0.1-0.1,0.2-0.1,0.3c0,0.2,0.2,0.4,0.4,0.4c0.2,0,0.4-0.2,0.4-0.4c0-0.1-0.1-0.2-0.1-0.3h1.3
				c-0.1,0.1-0.1,0.2-0.1,0.3c0,0.2,0.2,0.4,0.4,0.4s0.4-0.2,0.4-0.4c0-0.1-0.1-0.2-0.1-0.3h0.2c0.8-0.7,1.4-1.5,1.9-2.5
				c0,0.2,0.2,0.4,0.4,0.4c0.2,0,0.4-0.2,0.4-0.4c0-0.2-0.2-0.4-0.4-0.4c-0.1,0-0.2,0-0.2,0.1c0.2-0.4,0.3-0.8,0.4-1.2
				c0.1-0.1,0.2-0.2,0.2-0.3C45.3,30.4,45.2,30.3,45.2,30.3z M45.3,23c0-0.2-0.2-0.4-0.4-0.4s-0.4,0.2-0.4,0.4
				c0,0.2,0.2,0.4,0.4,0.4S45.3,23.3,45.3,23z M45.3,24.9c0-0.2-0.2-0.4-0.4-0.4s-0.4,0.2-0.4,0.4c0,0.2,0.2,0.4,0.4,0.4
				S45.3,25.1,45.3,24.9z M45.3,34.2c0-0.2-0.2-0.4-0.4-0.4s-0.4,0.2-0.4,0.4c0,0.2,0.2,0.4,0.4,0.4S45.3,34.4,45.3,34.2z
				 M45.3,36.1c0-0.2-0.2-0.4-0.4-0.4s-0.4,0.2-0.4,0.4c0,0.2,0.2,0.4,0.4,0.4S45.3,36.3,45.3,36.1z M44.3,20.3
				c0-0.2-0.2-0.4-0.4-0.4s-0.4,0.2-0.4,0.4s0.2,0.4,0.4,0.4S44.3,20.5,44.3,20.3z M44.3,22.1c0-0.2-0.2-0.4-0.4-0.4
				s-0.4,0.2-0.4,0.4c0,0.2,0.2,0.4,0.4,0.4S44.3,22.3,44.3,22.1z M44.3,24c0-0.2-0.2-0.4-0.4-0.4s-0.4,0.2-0.4,0.4
				c0,0.2,0.2,0.4,0.4,0.4S44.3,24.2,44.3,24z M44.3,35.1c0-0.2-0.2-0.4-0.4-0.4s-0.4,0.2-0.4,0.4s0.2,0.4,0.4,0.4
				S44.3,35.4,44.3,35.1z M44.3,37c0-0.2-0.2-0.4-0.4-0.4s-0.4,0.2-0.4,0.4c0,0.2,0.2,0.4,0.4,0.4S44.3,37.2,44.3,37z M43.4,19.3
				c0-0.2-0.2-0.4-0.4-0.4s-0.4,0.2-0.4,0.4c0,0.2,0.2,0.4,0.4,0.4S43.4,19.5,43.4,19.3z M43.4,21.2c0-0.2-0.2-0.4-0.4-0.4
				s-0.4,0.2-0.4,0.4c0,0.2,0.2,0.4,0.4,0.4S43.4,21.4,43.4,21.2z M43.4,36.1c0-0.2-0.2-0.4-0.4-0.4s-0.4,0.2-0.4,0.4
				c0,0.2,0.2,0.4,0.4,0.4S43.4,36.3,43.4,36.1z M42.5,20.3c0-0.2-0.2-0.4-0.4-0.4s-0.4,0.2-0.4,0.4s0.2,0.4,0.4,0.4
				S42.5,20.5,42.5,20.3z M42.5,22.1c0-0.2-0.2-0.4-0.4-0.4s-0.4,0.2-0.4,0.4c0,0.2,0.2,0.4,0.4,0.4S42.5,22.3,42.5,22.1z M42.5,37
				c0-0.2-0.2-0.4-0.4-0.4s-0.4,0.2-0.4,0.4c0,0.2,0.2,0.4,0.4,0.4S42.5,37.2,42.5,37z M41.5,19.3c0-0.2-0.2-0.4-0.4-0.4
				s-0.4,0.2-0.4,0.4c0,0.2,0.2,0.4,0.4,0.4S41.5,19.5,41.5,19.3z M41.5,21.2c0-0.2-0.2-0.4-0.4-0.4s-0.4,0.2-0.4,0.4
				c0,0.2,0.2,0.4,0.4,0.4S41.5,21.4,41.5,21.2z M41.5,36.1c0-0.2-0.2-0.4-0.4-0.4s-0.4,0.2-0.4,0.4c0,0.2,0.2,0.4,0.4,0.4
				S41.5,36.3,41.5,36.1z M40.6,20.3c0-0.2-0.2-0.4-0.4-0.4c-0.2,0-0.4,0.2-0.4,0.4s0.2,0.4,0.4,0.4C40.4,20.6,40.6,20.5,40.6,20.3z
				 M40.6,22.1c0-0.2-0.2-0.4-0.4-0.4c-0.2,0-0.4,0.2-0.4,0.4c0,0.2,0.2,0.4,0.4,0.4C40.4,22.5,40.6,22.3,40.6,22.1z M40.6,37
				c0-0.2-0.2-0.4-0.4-0.4c-0.2,0-0.4,0.2-0.4,0.4c0,0.2,0.2,0.4,0.4,0.4C40.4,37.4,40.6,37.2,40.6,37z M39.7,19.3
				c0-0.2-0.2-0.4-0.4-0.4c-0.2,0-0.4,0.2-0.4,0.4c0,0.2,0.2,0.4,0.4,0.4C39.5,19.7,39.7,19.5,39.7,19.3z M39.7,21.2
				c0-0.2-0.2-0.4-0.4-0.4c-0.2,0-0.4,0.2-0.4,0.4c0,0.2,0.2,0.4,0.4,0.4C39.5,21.6,39.7,21.4,39.7,21.2z M39.7,36.1
				c0-0.2-0.2-0.4-0.4-0.4c-0.2,0-0.4,0.2-0.4,0.4c0,0.2,0.2,0.4,0.4,0.4C39.5,36.5,39.7,36.3,39.7,36.1z M38.7,20.3
				c0-0.2-0.2-0.4-0.4-0.4c-0.2,0-0.4,0.2-0.4,0.4s0.2,0.4,0.4,0.4C38.6,20.6,38.7,20.5,38.7,20.3z M38.7,22.1
				c0-0.2-0.2-0.4-0.4-0.4c-0.2,0-0.4,0.2-0.4,0.4c0,0.2,0.2,0.4,0.4,0.4C38.6,22.5,38.7,22.3,38.7,22.1z M38.7,37
				c0-0.2-0.2-0.4-0.4-0.4c-0.2,0-0.4,0.2-0.4,0.4c0,0.2,0.2,0.4,0.4,0.4C38.6,37.4,38.7,37.2,38.7,37z M37.8,19.3
				c0-0.2-0.2-0.4-0.4-0.4c-0.2,0-0.4,0.2-0.4,0.4c0,0.2,0.2,0.4,0.4,0.4C37.6,19.7,37.8,19.5,37.8,19.3z M37.8,21.2
				c0-0.2-0.2-0.4-0.4-0.4c-0.2,0-0.4,0.2-0.4,0.4c0,0.2,0.2,0.4,0.4,0.4C37.6,21.6,37.8,21.4,37.8,21.2z M37.8,36.1
				c0-0.2-0.2-0.4-0.4-0.4c-0.2,0-0.4,0.2-0.4,0.4c0,0.2,0.2,0.4,0.4,0.4C37.6,36.5,37.8,36.3,37.8,36.1z M36.9,20.3
				c0-0.2-0.2-0.4-0.4-0.4c-0.2,0-0.4,0.2-0.4,0.4s0.2,0.4,0.4,0.4C36.7,20.6,36.9,20.5,36.9,20.3z M36.9,22.1
				c0-0.2-0.2-0.4-0.4-0.4c-0.2,0-0.4,0.2-0.4,0.4c0,0.2,0.2,0.4,0.4,0.4C36.7,22.5,36.9,22.3,36.9,22.1z M36.9,37
				c0-0.2-0.2-0.4-0.4-0.4c-0.2,0-0.4,0.2-0.4,0.4c0,0.2,0.2,0.4,0.4,0.4C36.7,37.4,36.9,37.2,36.9,37z M36,19.3
				c0-0.2-0.2-0.4-0.4-0.4c-0.2,0-0.4,0.2-0.4,0.4c0,0.2,0.2,0.4,0.4,0.4C35.8,19.7,36,19.5,36,19.3z M36,21.2
				c0-0.2-0.2-0.4-0.4-0.4c-0.2,0-0.4,0.2-0.4,0.4c0,0.2,0.2,0.4,0.4,0.4C35.8,21.6,36,21.4,36,21.2z M36,36.1
				c0-0.2-0.2-0.4-0.4-0.4c-0.2,0-0.4,0.2-0.4,0.4c0,0.2,0.2,0.4,0.4,0.4C35.8,36.5,36,36.3,36,36.1z M35,20.3
				c0-0.2-0.2-0.4-0.4-0.4c-0.2,0-0.4,0.2-0.4,0.4s0.2,0.4,0.4,0.4C34.8,20.6,35,20.5,35,20.3z M35,22.1c0-0.2-0.2-0.4-0.4-0.4
				c-0.2,0-0.4,0.2-0.4,0.4c0,0.2,0.2,0.4,0.4,0.4C34.8,22.5,35,22.3,35,22.1z M35,37c0-0.2-0.2-0.4-0.4-0.4c-0.2,0-0.4,0.2-0.4,0.4
				c0,0.2,0.2,0.4,0.4,0.4C34.8,37.4,35,37.2,35,37z M34.1,19.3c0-0.2-0.2-0.4-0.4-0.4c-0.1,0-0.2,0.1-0.3,0.1
				c0,0.1-0.1,0.1-0.1,0.3c0,0.2,0.2,0.4,0.4,0.4C33.9,19.7,34.1,19.5,34.1,19.3z M34.1,21.2c0-0.2-0.2-0.4-0.4-0.4
				c-0.2,0-0.4,0.2-0.4,0.4c0,0.1,0,0.2,0.1,0.3c0.1,0.1,0.2,0.1,0.3,0.1C33.9,21.6,34.1,21.4,34.1,21.2z M34.1,36.1
				c0-0.2-0.2-0.4-0.4-0.4c-0.1,0-0.2,0.1-0.3,0.1c0,0.1-0.1,0.2-0.1,0.3c0,0.2,0.2,0.4,0.4,0.4C33.9,36.5,34.1,36.3,34.1,36.1z
				 M33.2,20.3c0-0.2-0.2-0.4-0.4-0.4s-0.4,0.2-0.4,0.4s0.2,0.4,0.4,0.4S33.2,20.5,33.2,20.3z M33.2,22.1c0-0.2-0.2-0.4-0.4-0.4
				s-0.4,0.2-0.4,0.4c0,0.2,0.2,0.4,0.4,0.4S33.2,22.3,33.2,22.1z M33.2,35.1c0-0.2-0.2-0.4-0.4-0.4s-0.4,0.2-0.4,0.4
				s0.2,0.4,0.4,0.4S33.2,35.4,33.2,35.1z M33.2,37c0-0.2-0.2-0.4-0.4-0.4s-0.4,0.2-0.4,0.4c0,0.2,0.2,0.4,0.4,0.4
				S33.2,37.2,33.2,37z M32.3,33.7v-9.3h-1.3c0.1-0.1,0.2-0.2,0.2-0.4c0-0.2-0.2-0.4-0.4-0.4s-0.4,0.2-0.4,0.4
				c0,0.2,0.1,0.3,0.2,0.4h-1.5c0.1-0.1,0.2-0.2,0.2-0.4c0-0.2-0.2-0.4-0.4-0.4c-0.2,0-0.4,0.2-0.4,0.4c0,0.2,0.1,0.3,0.2,0.4h-1.5
				c0.1-0.1,0.2-0.2,0.2-0.4c0-0.2-0.2-0.4-0.4-0.4c-0.2,0-0.4,0.2-0.4,0.4c0,0.2,0.1,0.3,0.2,0.4h-1.6c0.1-0.1,0.2-0.2,0.2-0.4
				c0-0.2-0.2-0.4-0.4-0.4c-0.2,0-0.4,0.2-0.4,0.4c0,0.2,0.1,0.3,0.2,0.4h-1.5c0.1-0.1,0.2-0.2,0.2-0.4c0-0.2-0.2-0.4-0.4-0.4
				c-0.2,0-0.4,0.2-0.4,0.4c0,0.2,0.1,0.3,0.2,0.4h-1.5c0.1-0.1,0.2-0.2,0.2-0.4c0-0.2-0.2-0.4-0.4-0.4c-0.2,0-0.4,0.2-0.4,0.4
				c0,0.2,0.1,0.3,0.2,0.4h-1.2v9.3H32.3z M32.2,19.3c0-0.2-0.2-0.4-0.4-0.4c-0.2,0-0.4,0.2-0.4,0.4c0,0.2,0.2,0.4,0.4,0.4
				C32,19.7,32.2,19.5,32.2,19.3z M32.2,21.2c0-0.2-0.2-0.4-0.4-0.4c-0.2,0-0.4,0.2-0.4,0.4c0,0.2,0.2,0.4,0.4,0.4
				C32,21.6,32.2,21.4,32.2,21.2z M32.2,23c0-0.2-0.2-0.4-0.4-0.4c-0.2,0-0.4,0.2-0.4,0.4c0,0.2,0.2,0.4,0.4,0.4
				C32,23.4,32.2,23.3,32.2,23z M32.2,34.2c0-0.2-0.2-0.4-0.4-0.4c-0.2,0-0.4,0.2-0.4,0.4c0,0.2,0.2,0.4,0.4,0.4
				C32,34.6,32.2,34.4,32.2,34.2z M32.2,36.1c0-0.2-0.2-0.4-0.4-0.4c-0.2,0-0.4,0.2-0.4,0.4c0,0.2,0.2,0.4,0.4,0.4
				C32,36.5,32.2,36.3,32.2,36.1z M31.3,20.3c0-0.2-0.2-0.4-0.4-0.4s-0.4,0.2-0.4,0.4s0.2,0.4,0.4,0.4S31.3,20.5,31.3,20.3z
				 M31.3,22.1c0-0.2-0.2-0.4-0.4-0.4s-0.4,0.2-0.4,0.4c0,0.2,0.2,0.4,0.4,0.4S31.3,22.3,31.3,22.1z M31.3,35.1
				c0-0.2-0.2-0.4-0.4-0.4s-0.4,0.2-0.4,0.4s0.2,0.4,0.4,0.4S31.3,35.4,31.3,35.1z M31.3,37c0-0.2-0.2-0.4-0.4-0.4s-0.4,0.2-0.4,0.4
				c0,0.2,0.2,0.4,0.4,0.4S31.3,37.2,31.3,37z M30.4,19.3c0-0.2-0.2-0.4-0.4-0.4c-0.2,0-0.4,0.2-0.4,0.4c0,0.2,0.2,0.4,0.4,0.4
				C30.2,19.7,30.4,19.5,30.4,19.3z M30.4,21.2c0-0.2-0.2-0.4-0.4-0.4c-0.2,0-0.4,0.2-0.4,0.4c0,0.2,0.2,0.4,0.4,0.4
				C30.2,21.6,30.4,21.4,30.4,21.2z M30.4,23c0-0.2-0.2-0.4-0.4-0.4c-0.2,0-0.4,0.2-0.4,0.4c0,0.2,0.2,0.4,0.4,0.4
				C30.2,23.4,30.4,23.3,30.4,23z M30.4,34.2c0-0.2-0.2-0.4-0.4-0.4c-0.2,0-0.4,0.2-0.4,0.4c0,0.2,0.2,0.4,0.4,0.4
				C30.2,34.6,30.4,34.4,30.4,34.2z M30.4,36.1c0-0.2-0.2-0.4-0.4-0.4c-0.2,0-0.4,0.2-0.4,0.4c0,0.2,0.2,0.4,0.4,0.4
				C30.2,36.5,30.4,36.3,30.4,36.1z M29.4,20.3c0-0.2-0.2-0.4-0.4-0.4c-0.2,0-0.4,0.2-0.4,0.4s0.2,0.4,0.4,0.4
				C29.3,20.6,29.4,20.5,29.4,20.3z M29.4,22.1c0-0.2-0.2-0.4-0.4-0.4c-0.2,0-0.4,0.2-0.4,0.4c0,0.2,0.2,0.4,0.4,0.4
				C29.3,22.5,29.4,22.3,29.4,22.1z M29.4,35.1c0-0.2-0.2-0.4-0.4-0.4c-0.2,0-0.4,0.2-0.4,0.4s0.2,0.4,0.4,0.4
				C29.3,35.5,29.4,35.4,29.4,35.1z M29.4,37c0-0.2-0.2-0.4-0.4-0.4c-0.2,0-0.4,0.2-0.4,0.4c0,0.2,0.2,0.4,0.4,0.4
				C29.3,37.4,29.4,37.2,29.4,37z M28.5,19.3c0-0.2-0.2-0.4-0.4-0.4c-0.1,0-0.2,0.1-0.3,0.1c0,0.1-0.1,0.1-0.1,0.3
				c0,0.2,0.2,0.4,0.4,0.4C28.3,19.7,28.5,19.5,28.5,19.3z M28.5,21.2c0-0.2-0.2-0.4-0.4-0.4c-0.2,0-0.4,0.2-0.4,0.4
				c0,0.1,0,0.2,0.1,0.3c0.1,0.1,0.2,0.1,0.3,0.1C28.3,21.6,28.5,21.4,28.5,21.2z M28.5,23c0-0.2-0.2-0.4-0.4-0.4
				c-0.1,0-0.2,0.1-0.3,0.1c0,0.1-0.1,0.2-0.1,0.3c0,0.2,0.2,0.4,0.4,0.4C28.3,23.4,28.5,23.3,28.5,23z M28.5,34.2
				c0-0.2-0.2-0.4-0.4-0.4c-0.1,0-0.2,0.1-0.3,0.1c0,0.1-0.1,0.2-0.1,0.3c0,0.2,0.2,0.4,0.4,0.4C28.3,34.6,28.5,34.4,28.5,34.2z
				 M28.5,36.1c0-0.2-0.2-0.4-0.4-0.4c-0.1,0-0.2,0.1-0.3,0.1c0,0.1-0.1,0.2-0.1,0.3c0,0.2,0.2,0.4,0.4,0.4
				C28.3,36.5,28.5,36.3,28.5,36.1z M27.6,20.3c0-0.2-0.2-0.4-0.4-0.4c-0.2,0-0.4,0.2-0.4,0.4s0.2,0.4,0.4,0.4
				C27.4,20.6,27.6,20.5,27.6,20.3z M27.6,22.1c0-0.2-0.2-0.4-0.4-0.4c-0.2,0-0.4,0.2-0.4,0.4c0,0.2,0.2,0.4,0.4,0.4
				C27.4,22.5,27.6,22.3,27.6,22.1z M27.6,35.1c0-0.2-0.2-0.4-0.4-0.4c-0.2,0-0.4,0.2-0.4,0.4s0.2,0.4,0.4,0.4
				C27.4,35.5,27.6,35.4,27.6,35.1z M27.6,37c0-0.2-0.2-0.4-0.4-0.4c-0.2,0-0.4,0.2-0.4,0.4c0,0.2,0.2,0.4,0.4,0.4
				C27.4,37.4,27.6,37.2,27.6,37z M26.6,19.3c0-0.2-0.2-0.4-0.4-0.4c-0.2,0-0.4,0.2-0.4,0.4c0,0.2,0.2,0.4,0.4,0.4
				C26.5,19.7,26.6,19.5,26.6,19.3z M26.6,21.2c0-0.2-0.2-0.4-0.4-0.4c-0.2,0-0.4,0.2-0.4,0.4c0,0.2,0.2,0.4,0.4,0.4
				C26.5,21.6,26.6,21.4,26.6,21.2z M26.6,23c0-0.2-0.2-0.4-0.4-0.4c-0.2,0-0.4,0.2-0.4,0.4c0,0.2,0.2,0.4,0.4,0.4
				C26.5,23.4,26.6,23.3,26.6,23z M26.6,34.2c0-0.2-0.2-0.4-0.4-0.4c-0.2,0-0.4,0.2-0.4,0.4c0,0.2,0.2,0.4,0.4,0.4
				C26.5,34.6,26.6,34.4,26.6,34.2z M26.6,36.1c0-0.2-0.2-0.4-0.4-0.4c-0.2,0-0.4,0.2-0.4,0.4c0,0.2,0.2,0.4,0.4,0.4
				C26.5,36.5,26.6,36.3,26.6,36.1z M25.7,20.3c0-0.2-0.2-0.4-0.4-0.4c-0.2,0-0.4,0.2-0.4,0.4s0.2,0.4,0.4,0.4
				C25.5,20.6,25.7,20.5,25.7,20.3z M25.7,22.1c0-0.2-0.2-0.4-0.4-0.4c-0.2,0-0.4,0.2-0.4,0.4c0,0.2,0.2,0.4,0.4,0.4
				C25.5,22.5,25.7,22.3,25.7,22.1z M25.7,35.1c0-0.2-0.2-0.4-0.4-0.4c-0.2,0-0.4,0.2-0.4,0.4s0.2,0.4,0.4,0.4
				C25.5,35.5,25.7,35.4,25.7,35.1z M25.7,37c0-0.2-0.2-0.4-0.4-0.4c-0.2,0-0.4,0.2-0.4,0.4c0,0.2,0.2,0.4,0.4,0.4
				C25.5,37.4,25.7,37.2,25.7,37z M24.8,19.3c0-0.2-0.2-0.4-0.4-0.4c-0.2,0-0.4,0.2-0.4,0.4c0,0.2,0.2,0.4,0.4,0.4
				C24.6,19.7,24.8,19.5,24.8,19.3z M24.8,21.2c0-0.2-0.2-0.4-0.4-0.4c-0.2,0-0.4,0.2-0.4,0.4c0,0.2,0.2,0.4,0.4,0.4
				C24.6,21.6,24.8,21.4,24.8,21.2z M24.8,23c0-0.2-0.2-0.4-0.4-0.4c-0.2,0-0.4,0.2-0.4,0.4c0,0.2,0.2,0.4,0.4,0.4
				C24.6,23.4,24.8,23.3,24.8,23z M24.8,34.2c0-0.2-0.2-0.4-0.4-0.4c-0.2,0-0.4,0.2-0.4,0.4c0,0.2,0.2,0.4,0.4,0.4
				C24.6,34.6,24.8,34.4,24.8,34.2z M24.8,36.1c0-0.2-0.2-0.4-0.4-0.4c-0.2,0-0.4,0.2-0.4,0.4c0,0.2,0.2,0.4,0.4,0.4
				C24.6,36.5,24.8,36.3,24.8,36.1z M23.9,20.3c0-0.2-0.2-0.4-0.4-0.4c-0.2,0-0.4,0.2-0.4,0.4s0.2,0.4,0.4,0.4
				C23.7,20.6,23.9,20.5,23.9,20.3z M23.9,22.1c0-0.2-0.2-0.4-0.4-0.4c-0.2,0-0.4,0.2-0.4,0.4c0,0.2,0.2,0.4,0.4,0.4
				C23.7,22.5,23.9,22.3,23.9,22.1z M23.9,35.1c0-0.2-0.2-0.4-0.4-0.4c-0.2,0-0.4,0.2-0.4,0.4s0.2,0.4,0.4,0.4
				C23.7,35.5,23.9,35.4,23.9,35.1z M23.9,37c0-0.2-0.2-0.4-0.4-0.4c-0.2,0-0.4,0.2-0.4,0.4c0,0.2,0.2,0.4,0.4,0.4
				C23.7,37.4,23.9,37.2,23.9,37z M22.9,19.3c0-0.2-0.2-0.4-0.4-0.4c-0.2,0-0.4,0.2-0.4,0.4c0,0.2,0.2,0.4,0.4,0.4
				C22.8,19.7,22.9,19.5,22.9,19.3z M22.9,21.2c0-0.2-0.2-0.4-0.4-0.4c-0.2,0-0.4,0.2-0.4,0.4c0,0.2,0.2,0.4,0.4,0.4
				C22.8,21.6,22.9,21.4,22.9,21.2z M22.9,23c0-0.2-0.2-0.4-0.4-0.4c-0.2,0-0.4,0.2-0.4,0.4c0,0.2,0.2,0.4,0.4,0.4
				C22.8,23.4,22.9,23.3,22.9,23z M22.9,34.2c0-0.2-0.2-0.4-0.4-0.4c-0.2,0-0.4,0.2-0.4,0.4c0,0.2,0.2,0.4,0.4,0.4
				C22.8,34.6,22.9,34.4,22.9,34.2z M22.9,36.1c0-0.2-0.2-0.4-0.4-0.4c-0.2,0-0.4,0.2-0.4,0.4c0,0.2,0.2,0.4,0.4,0.4
				C22.8,36.5,22.9,36.3,22.9,36.1z M22,20.3c0-0.2-0.2-0.4-0.4-0.4c-0.2,0-0.4,0.2-0.4,0.4s0.2,0.4,0.4,0.4
				C21.8,20.6,22,20.5,22,20.3z M22,22.1c0-0.2-0.2-0.4-0.4-0.4c-0.2,0-0.4,0.2-0.4,0.4c0,0.2,0.2,0.4,0.4,0.4
				C21.8,22.5,22,22.3,22,22.1z M22,35.1c0-0.2-0.2-0.4-0.4-0.4c-0.2,0-0.4,0.2-0.4,0.4s0.2,0.4,0.4,0.4C21.8,35.5,22,35.4,22,35.1z
				 M22,37c0-0.2-0.2-0.4-0.4-0.4c-0.2,0-0.4,0.2-0.4,0.4c0,0.2,0.2,0.4,0.4,0.4C21.8,37.4,22,37.2,22,37z M21.1,19.3
				c0-0.2-0.2-0.4-0.4-0.4c-0.2,0-0.4,0.2-0.4,0.4c0,0.2,0.2,0.4,0.4,0.4C20.9,19.7,21.1,19.5,21.1,19.3z M21.1,21.2
				c0-0.2-0.2-0.4-0.4-0.4c-0.2,0-0.4,0.2-0.4,0.4c0,0.2,0.2,0.4,0.4,0.4C20.9,21.6,21.1,21.4,21.1,21.2z M21.1,23
				c0-0.2-0.2-0.4-0.4-0.4c-0.2,0-0.4,0.2-0.4,0.4c0,0.2,0.2,0.4,0.4,0.4C20.9,23.4,21.1,23.3,21.1,23z M21.1,34.2
				c0-0.2-0.2-0.4-0.4-0.4c-0.2,0-0.4,0.2-0.4,0.4c0,0.2,0.2,0.4,0.4,0.4C20.9,34.6,21.1,34.4,21.1,34.2z M21.1,36.1
				c0-0.2-0.2-0.4-0.4-0.4c-0.2,0-0.4,0.2-0.4,0.4c0,0.2,0.2,0.4,0.4,0.4C20.9,36.5,21.1,36.3,21.1,36.1z M20.1,20.3
				c0-0.2-0.2-0.4-0.4-0.4c-0.2,0-0.4,0.2-0.4,0.4s0.2,0.4,0.4,0.4C20,20.6,20.1,20.5,20.1,20.3z M20.1,22.1c0-0.2-0.2-0.4-0.4-0.4
				c-0.2,0-0.4,0.2-0.4,0.4c0,0.2,0.2,0.4,0.4,0.4C20,22.5,20.1,22.3,20.1,22.1z M20.1,24c0-0.2-0.2-0.4-0.4-0.4
				c-0.1,0-0.3,0.1-0.3,0.2v-0.6h-0.2c0,0,0-0.1,0-0.1c0-0.2-0.2-0.4-0.4-0.4c-0.2,0-0.4,0.2-0.4,0.4c0,0,0,0.1,0,0.1h-1.1
				c0,0,0-0.1,0-0.1c0-0.2-0.2-0.4-0.4-0.4c-0.2,0-0.4,0.2-0.4,0.4c0,0,0,0.1,0,0.1h-1.1c0,0,0-0.1,0-0.1c0-0.2-0.2-0.4-0.4-0.4
				s-0.4,0.2-0.4,0.4c0,0,0,0.1,0,0.1h-1.1c0,0,0-0.1,0-0.1c0-0.2-0.2-0.4-0.4-0.4c-0.2,0-0.4,0.2-0.4,0.4c0,0,0,0.1,0,0.1h-1.1
				c0,0,0-0.1,0-0.1c0-0.2-0.2-0.4-0.4-0.4c-0.1,0-0.2,0.1-0.3,0.1C11,22.9,11,23,11,23c0,0,0,0.1,0,0.1h-1c-1,0.9-1.8,2-2.3,3.2
				c0,0-0.1,0-0.1,0c-0.2,0-0.4,0.2-0.4,0.4c0,0.2,0.1,0.3,0.3,0.4c-0.2,0.6-0.3,1.2-0.3,1.9c0,0.4,0,0.8,0.1,1.2
				c-0.1,0.1-0.1,0.2-0.1,0.3c0,0.2,0.1,0.3,0.3,0.4c0.1,0.4,0.3,0.8,0.4,1.2C7.9,32,7.8,32,7.7,32c-0.2,0-0.4,0.2-0.4,0.4
				c0,0.2,0.2,0.4,0.4,0.4c0.2,0,0.4-0.2,0.4-0.4c0,0,0,0,0-0.1c0.5,1,1.2,1.9,2,2.6h0.2c-0.1,0.1-0.1,0.2-0.1,0.3
				c0,0.2,0.2,0.4,0.4,0.4c0.2,0,0.4-0.2,0.4-0.4c0-0.1-0.1-0.2-0.1-0.3h1.4c-0.1,0.1-0.1,0.2-0.1,0.3c0,0.2,0.2,0.4,0.4,0.4
				s0.4-0.2,0.4-0.4c0-0.1-0.1-0.2-0.1-0.3h1.3c-0.1,0.1-0.1,0.2-0.1,0.3c0,0.2,0.2,0.4,0.4,0.4c0.2,0,0.4-0.2,0.4-0.4
				c0-0.1-0.1-0.2-0.1-0.3h1.4c-0.1,0.1-0.1,0.2-0.1,0.3c0,0.2,0.2,0.4,0.4,0.4c0.2,0,0.4-0.2,0.4-0.4c0-0.1,0-0.2-0.1-0.3h1.3
				c-0.1,0.1-0.1,0.2-0.1,0.3c0,0.2,0.2,0.4,0.4,0.4c0.2,0,0.4-0.2,0.4-0.4c0-0.1-0.1-0.2-0.1-0.3h1.3v-1.3c0.1,0.1,0.2,0.2,0.3,0.2
				c0.2,0,0.4-0.2,0.4-0.4c0-0.2-0.2-0.4-0.4-0.4c-0.1,0-0.3,0.1-0.3,0.2v-1.4c0.1,0.1,0.2,0.2,0.3,0.2c0.2,0,0.4-0.2,0.4-0.4
				c0-0.2-0.2-0.4-0.4-0.4c-0.1,0-0.3,0.1-0.3,0.2v-1.4c0.1,0.1,0.2,0.2,0.3,0.2c0.2,0,0.4-0.2,0.4-0.4c0-0.2-0.2-0.4-0.4-0.4
				c-0.1,0-0.3,0.1-0.3,0.2v-1.4c0.1,0.1,0.2,0.2,0.3,0.2c0.2,0,0.4-0.2,0.4-0.4c0-0.2-0.2-0.4-0.4-0.4c-0.1,0-0.3,0.1-0.3,0.2v-1.4
				c0.1,0.1,0.2,0.2,0.3,0.2c0.2,0,0.4-0.2,0.4-0.4c0-0.2-0.2-0.4-0.4-0.4c-0.1,0-0.3,0.1-0.3,0.2v-1.4c0.1,0.1,0.2,0.2,0.3,0.2
				C20,24.4,20.1,24.2,20.1,24z M20.1,35.1c0-0.2-0.2-0.4-0.4-0.4c-0.2,0-0.4,0.2-0.4,0.4s0.2,0.4,0.4,0.4
				C20,35.5,20.1,35.4,20.1,35.1z M20.1,37c0-0.2-0.2-0.4-0.4-0.4c-0.2,0-0.4,0.2-0.4,0.4c0,0.2,0.2,0.4,0.4,0.4
				C20,37.4,20.1,37.2,20.1,37z M19.2,19.3c0-0.2-0.2-0.4-0.4-0.4c-0.2,0-0.4,0.2-0.4,0.4c0,0.2,0.2,0.4,0.4,0.4
				C19,19.7,19.2,19.5,19.2,19.3z M19.2,21.2c0-0.2-0.2-0.4-0.4-0.4c-0.2,0-0.4,0.2-0.4,0.4c0,0.2,0.2,0.4,0.4,0.4
				C19,21.6,19.2,21.4,19.2,21.2z M19.2,36.1c0-0.2-0.2-0.4-0.4-0.4c-0.2,0-0.4,0.2-0.4,0.4c0,0.2,0.2,0.4,0.4,0.4
				C19,36.5,19.2,36.3,19.2,36.1z M18.3,20.3c0-0.2-0.2-0.4-0.4-0.4c-0.2,0-0.4,0.2-0.4,0.4s0.2,0.4,0.4,0.4
				C18.1,20.6,18.3,20.5,18.3,20.3z M18.3,22.1c0-0.2-0.2-0.4-0.4-0.4c-0.2,0-0.4,0.2-0.4,0.4c0,0.2,0.2,0.4,0.4,0.4
				C18.1,22.5,18.3,22.3,18.3,22.1z M18.3,37c0-0.2-0.2-0.4-0.4-0.4c-0.2,0-0.4,0.2-0.4,0.4c0,0.2,0.2,0.4,0.4,0.4
				C18.1,37.4,18.3,37.2,18.3,37z M17.4,19.3c0-0.2-0.2-0.4-0.4-0.4c-0.2,0-0.4,0.2-0.4,0.4c0,0.2,0.2,0.4,0.4,0.4
				C17.2,19.7,17.4,19.5,17.4,19.3z M17.4,21.2c0-0.2-0.2-0.4-0.4-0.4c-0.2,0-0.4,0.2-0.4,0.4c0,0.2,0.2,0.4,0.4,0.4
				C17.2,21.6,17.4,21.4,17.4,21.2z M17.4,36.1c0-0.2-0.2-0.4-0.4-0.4c-0.2,0-0.4,0.2-0.4,0.4c0,0.2,0.2,0.4,0.4,0.4
				C17.2,36.5,17.4,36.3,17.4,36.1z M16.4,20.3c0-0.2-0.2-0.4-0.4-0.4c-0.2,0-0.4,0.2-0.4,0.4s0.2,0.4,0.4,0.4
				C16.2,20.6,16.4,20.5,16.4,20.3z M16.4,22.1c0-0.2-0.2-0.4-0.4-0.4c-0.2,0-0.4,0.2-0.4,0.4c0,0.2,0.2,0.4,0.4,0.4
				C16.2,22.5,16.4,22.3,16.4,22.1z M16.4,37c0-0.2-0.2-0.4-0.4-0.4c-0.2,0-0.4,0.2-0.4,0.4c0,0.2,0.2,0.4,0.4,0.4
				C16.2,37.4,16.4,37.2,16.4,37z M15.5,19.3c0-0.2-0.2-0.4-0.4-0.4s-0.4,0.2-0.4,0.4c0,0.2,0.2,0.4,0.4,0.4S15.5,19.5,15.5,19.3z
				 M15.5,21.2c0-0.2-0.2-0.4-0.4-0.4s-0.4,0.2-0.4,0.4c0,0.2,0.2,0.4,0.4,0.4S15.5,21.4,15.5,21.2z M15.5,36.1
				c0-0.2-0.2-0.4-0.4-0.4s-0.4,0.2-0.4,0.4c0,0.2,0.2,0.4,0.4,0.4S15.5,36.3,15.5,36.1z M14.6,20.3c0-0.2-0.2-0.4-0.4-0.4
				c-0.2,0-0.4,0.2-0.4,0.4s0.2,0.4,0.4,0.4C14.4,20.6,14.6,20.5,14.6,20.3z M14.6,22.1c0-0.2-0.2-0.4-0.4-0.4
				c-0.2,0-0.4,0.2-0.4,0.4c0,0.2,0.2,0.4,0.4,0.4C14.4,22.5,14.6,22.3,14.6,22.1z M14.6,37c0-0.2-0.2-0.4-0.4-0.4
				c-0.2,0-0.4,0.2-0.4,0.4c0,0.2,0.2,0.4,0.4,0.4C14.4,37.4,14.6,37.2,14.6,37z M13.6,19.3c0-0.2-0.2-0.4-0.4-0.4
				c-0.2,0-0.4,0.2-0.4,0.4c0,0.2,0.2,0.4,0.4,0.4C13.4,19.7,13.6,19.5,13.6,19.3z M13.6,21.2c0-0.2-0.2-0.4-0.4-0.4
				c-0.2,0-0.4,0.2-0.4,0.4c0,0.2,0.2,0.4,0.4,0.4C13.4,21.6,13.6,21.4,13.6,21.2z M13.6,36.1c0-0.2-0.2-0.4-0.4-0.4
				c-0.2,0-0.4,0.2-0.4,0.4c0,0.2,0.2,0.4,0.4,0.4C13.4,36.5,13.6,36.3,13.6,36.1z M12.7,20.3c0-0.2-0.2-0.4-0.4-0.4
				c-0.2,0-0.4,0.2-0.4,0.4s0.2,0.4,0.4,0.4C12.5,20.6,12.7,20.5,12.7,20.3z M12.7,22.1c0-0.2-0.2-0.4-0.4-0.4
				c-0.2,0-0.4,0.2-0.4,0.4c0,0.2,0.2,0.4,0.4,0.4C12.5,22.5,12.7,22.3,12.7,22.1z M12.7,37c0-0.2-0.2-0.4-0.4-0.4s-0.4,0.2-0.4,0.4
				c0,0.2,0.2,0.4,0.4,0.4C12.5,37.4,12.7,37.2,12.7,37z M11.8,19.3c0-0.2-0.2-0.4-0.4-0.4c-0.1,0-0.2,0.1-0.3,0.1
				C11,19.1,11,19.2,11,19.3c0,0.2,0.2,0.4,0.4,0.4S11.8,19.5,11.8,19.3z M11.8,21.2c0-0.2-0.2-0.4-0.4-0.4S11,21,11,21.2
				c0,0.1,0,0.2,0.1,0.3c0.1,0.1,0.2,0.1,0.3,0.1C11.6,21.6,11.8,21.4,11.8,21.2z M11.8,36.1c0-0.2-0.2-0.4-0.4-0.4
				c-0.1,0-0.2,0.1-0.3,0.1C11,35.9,11,36,11,36.1c0,0.2,0.2,0.4,0.4,0.4S11.8,36.3,11.8,36.1z M10.8,20.3c0-0.2-0.2-0.4-0.4-0.4
				c-0.2,0-0.4,0.2-0.4,0.4s0.2,0.4,0.4,0.4C10.7,20.6,10.8,20.5,10.8,20.3z M10.8,22.1c0-0.2-0.2-0.4-0.4-0.4
				c-0.2,0-0.4,0.2-0.4,0.4c0,0.2,0.2,0.4,0.4,0.4C10.7,22.5,10.8,22.3,10.8,22.1z M10.8,37c0-0.2-0.2-0.4-0.4-0.4
				c-0.2,0-0.4,0.2-0.4,0.4c0,0.2,0.2,0.4,0.4,0.4C10.7,37.4,10.8,37.2,10.8,37z M9.9,19.3c0-0.2-0.2-0.4-0.4-0.4
				c-0.2,0-0.4,0.2-0.4,0.4c0,0.2,0.2,0.4,0.4,0.4C9.7,19.7,9.9,19.5,9.9,19.3z M9.9,21.2c0-0.2-0.2-0.4-0.4-0.4
				c-0.2,0-0.4,0.2-0.4,0.4c0,0.2,0.2,0.4,0.4,0.4C9.7,21.6,9.9,21.4,9.9,21.2z M9.9,23c0-0.2-0.2-0.4-0.4-0.4
				c-0.2,0-0.4,0.2-0.4,0.4c0,0.2,0.2,0.4,0.4,0.4C9.7,23.4,9.9,23.3,9.9,23z M9.9,36.1c0-0.2-0.2-0.4-0.4-0.4
				c-0.2,0-0.4,0.2-0.4,0.4c0,0.2,0.2,0.4,0.4,0.4C9.7,36.5,9.9,36.3,9.9,36.1z M9,20.3c0-0.2-0.2-0.4-0.4-0.4S8.2,20,8.2,20.3
				s0.2,0.4,0.4,0.4S9,20.5,9,20.3z M9,22.1c0-0.2-0.2-0.4-0.4-0.4s-0.4,0.2-0.4,0.4c0,0.2,0.2,0.4,0.4,0.4S9,22.3,9,22.1z M9,24
				c0-0.2-0.2-0.4-0.4-0.4S8.2,23.8,8.2,24c0,0.2,0.2,0.4,0.4,0.4S9,24.2,9,24z M9,35.1c0-0.2-0.2-0.4-0.4-0.4s-0.4,0.2-0.4,0.4
				s0.2,0.4,0.4,0.4S9,35.4,9,35.1z M9,37c0-0.2-0.2-0.4-0.4-0.4S8.2,36.8,8.2,37c0,0.2,0.2,0.4,0.4,0.4S9,37.2,9,37z M8,23
				c0-0.2-0.2-0.4-0.4-0.4c-0.2,0-0.4,0.2-0.4,0.4c0,0.2,0.2,0.4,0.4,0.4C7.9,23.4,8,23.3,8,23z M8,24.9c0-0.2-0.2-0.4-0.4-0.4
				c-0.2,0-0.4,0.2-0.4,0.4c0,0.2,0.2,0.4,0.4,0.4C7.9,25.3,8,25.1,8,24.9z M8,34.2c0-0.2-0.2-0.4-0.4-0.4c-0.2,0-0.4,0.2-0.4,0.4
				c0,0.2,0.2,0.4,0.4,0.4C7.9,34.6,8,34.4,8,34.2z M8,36.1c0-0.2-0.2-0.4-0.4-0.4c-0.2,0-0.4,0.2-0.4,0.4c0,0.2,0.2,0.4,0.4,0.4
				C7.9,36.5,8,36.3,8,36.1z M7.1,22.1c0-0.2-0.2-0.4-0.4-0.4c-0.2,0-0.4,0.2-0.4,0.4c0,0.2,0.2,0.4,0.4,0.4
				C6.9,22.5,7.1,22.3,7.1,22.1z M7.1,24c0-0.2-0.2-0.4-0.4-0.4c-0.2,0-0.4,0.2-0.4,0.4c0,0.2,0.2,0.4,0.4,0.4
				C6.9,24.4,7.1,24.2,7.1,24z M7.1,25.8c0-0.2-0.2-0.4-0.4-0.4c-0.2,0-0.4,0.2-0.4,0.4c0,0.2,0.2,0.4,0.4,0.4
				C6.9,26.2,7.1,26,7.1,25.8z M7.1,27.7c0-0.2-0.2-0.4-0.4-0.4c-0.2,0-0.4,0.2-0.4,0.4c0,0.2,0.2,0.4,0.4,0.4
				C6.9,28.1,7.1,27.9,7.1,27.7z M7.1,29.6c0-0.2-0.2-0.4-0.4-0.4c-0.2,0-0.4,0.2-0.4,0.4c0,0.2,0.2,0.4,0.4,0.4
				C6.9,30,7.1,29.8,7.1,29.6z M7.1,31.4c0-0.2-0.2-0.4-0.4-0.4c-0.2,0-0.4,0.2-0.4,0.4c0,0.2,0.2,0.4,0.4,0.4
				C6.9,31.8,7.1,31.6,7.1,31.4z M7.1,33.3c0-0.2-0.2-0.4-0.4-0.4c-0.2,0-0.4,0.2-0.4,0.4c0,0.2,0.2,0.4,0.4,0.4
				C6.9,33.7,7.1,33.5,7.1,33.3z M7.1,35.1c0-0.2-0.2-0.4-0.4-0.4c-0.2,0-0.4,0.2-0.4,0.4s0.2,0.4,0.4,0.4
				C6.9,35.5,7.1,35.4,7.1,35.1z M7.1,37c0-0.2-0.2-0.4-0.4-0.4c-0.2,0-0.4,0.2-0.4,0.4c0,0.2,0.2,0.4,0.4,0.4
				C6.9,37.4,7.1,37.2,7.1,37z M6.2,23c0-0.2-0.2-0.4-0.4-0.4c-0.1,0-0.2,0.1-0.3,0.1C5.4,22.9,5.4,23,5.4,23c0,0.2,0.2,0.4,0.4,0.4
				C6,23.4,6.2,23.3,6.2,23z M6.2,24.9c0-0.2-0.2-0.4-0.4-0.4c-0.1,0-0.2,0-0.3,0.1c-0.1,0.1-0.1,0.2-0.1,0.3c0,0.2,0.2,0.4,0.4,0.4
				C6,25.3,6.2,25.1,6.2,24.9z M6.2,26.8c0-0.2-0.2-0.4-0.4-0.4c-0.2,0-0.4,0.2-0.4,0.4c0,0.1,0,0.2,0.1,0.3
				c0.1,0.1,0.2,0.1,0.3,0.1C6,27.2,6.2,27,6.2,26.8z M6.2,28.6c0-0.2-0.2-0.4-0.4-0.4c-0.1,0-0.2,0.1-0.3,0.1
				c-0.1,0.1-0.1,0.2-0.1,0.3c0,0.2,0.2,0.4,0.4,0.4C6,29,6.2,28.8,6.2,28.6z M6.2,30.5c0-0.2-0.2-0.4-0.4-0.4
				c-0.1,0-0.2,0.1-0.3,0.1c-0.1,0.1-0.1,0.2-0.1,0.3c0,0.2,0.2,0.4,0.4,0.4C6,30.9,6.2,30.7,6.2,30.5z M6.2,32.3
				C6.2,32.1,6,32,5.8,32c-0.2,0-0.4,0.2-0.4,0.4c0,0.1,0,0.2,0.1,0.3c0.1,0.1,0.2,0.1,0.3,0.1C6,32.7,6.2,32.6,6.2,32.3z M6.2,34.2
				c0-0.2-0.2-0.4-0.4-0.4c-0.1,0-0.2,0.1-0.3,0.1c-0.1,0.1-0.1,0.2-0.1,0.3c0,0.2,0.2,0.4,0.4,0.4C6,34.6,6.2,34.4,6.2,34.2z
				 M6.2,36.1c0-0.2-0.2-0.4-0.4-0.4c-0.1,0-0.2,0.1-0.3,0.1c-0.1,0.1-0.1,0.2-0.1,0.3c0,0.2,0.2,0.4,0.4,0.4
				C6,36.5,6.2,36.3,6.2,36.1z"/>
			<polygon class="st2" points="47.2,15.5 47.2,20.7 45.3,20.7 45.3,17.7 7.3,17.7 7.3,20.7 5.3,20.7 5.3,15.5 			"/>
			<path d="M46.7,22.6c0.2,0,0.4,0.2,0.4,0.4c0,0.2-0.2,0.4-0.4,0.4c-0.2,0-0.4-0.2-0.4-0.4C46.3,22.8,46.5,22.6,46.7,22.6z"/>
			<path d="M46.7,24.5c0.2,0,0.4,0.2,0.4,0.4c0,0.2-0.2,0.4-0.4,0.4c-0.2,0-0.4-0.2-0.4-0.4C46.3,24.7,46.5,24.5,46.7,24.5z"/>
			<path d="M46.7,26.4c0.2,0,0.4,0.2,0.4,0.4c0,0.2-0.2,0.4-0.4,0.4c-0.2,0-0.4-0.2-0.4-0.4C46.3,26.5,46.5,26.4,46.7,26.4z"/>
			<path d="M46.7,28.2c0.2,0,0.4,0.2,0.4,0.4c0,0.2-0.2,0.4-0.4,0.4c-0.2,0-0.4-0.2-0.4-0.4C46.3,28.4,46.5,28.2,46.7,28.2z"/>
			<path d="M46.7,30.1c0.2,0,0.4,0.2,0.4,0.4c0,0.2-0.2,0.4-0.4,0.4c-0.2,0-0.4-0.2-0.4-0.4C46.3,30.3,46.5,30.1,46.7,30.1z"/>
			<path d="M46.7,32c0.2,0,0.4,0.2,0.4,0.4c0,0.2-0.2,0.4-0.4,0.4c-0.2,0-0.4-0.2-0.4-0.4C46.3,32.1,46.5,32,46.7,32z"/>
			<path d="M46.7,33.8c0.2,0,0.4,0.2,0.4,0.4c0,0.2-0.2,0.4-0.4,0.4c-0.2,0-0.4-0.2-0.4-0.4C46.3,34,46.5,33.8,46.7,33.8z"/>
			<path d="M46.7,35.7c0.2,0,0.4,0.2,0.4,0.4c0,0.2-0.2,0.4-0.4,0.4c-0.2,0-0.4-0.2-0.4-0.4C46.3,35.8,46.5,35.7,46.7,35.7z"/>
			<path d="M45.8,21.7c0.2,0,0.4,0.2,0.4,0.4c0,0.2-0.2,0.4-0.4,0.4c-0.2,0-0.4-0.2-0.4-0.4C45.4,21.9,45.6,21.7,45.8,21.7z"/>
			<path d="M45.8,23.6c0.2,0,0.4,0.2,0.4,0.4c0,0.2-0.2,0.4-0.4,0.4c-0.2,0-0.4-0.2-0.4-0.4C45.4,23.8,45.6,23.6,45.8,23.6z"/>
			<path d="M45.8,25.4c0.2,0,0.4,0.2,0.4,0.4c0,0.2-0.2,0.4-0.4,0.4c-0.2,0-0.4-0.2-0.4-0.4C45.4,25.6,45.6,25.4,45.8,25.4z"/>
			<path d="M45.8,27.3c0.2,0,0.4,0.2,0.4,0.4c0,0.2-0.2,0.4-0.4,0.4c-0.2,0-0.4-0.2-0.4-0.4C45.4,27.5,45.6,27.3,45.8,27.3z"/>
			<path d="M45.8,29.2c0.2,0,0.4,0.2,0.4,0.4c0,0.2-0.2,0.4-0.4,0.4c-0.2,0-0.4-0.2-0.4-0.4C45.4,29.3,45.6,29.2,45.8,29.2z"/>
			<path d="M45.8,31c0.2,0,0.4,0.2,0.4,0.4c0,0.2-0.2,0.4-0.4,0.4c-0.2,0-0.4-0.2-0.4-0.4C45.4,31.2,45.6,31,45.8,31z"/>
			<path d="M45.8,32.9c0.2,0,0.4,0.2,0.4,0.4c0,0.2-0.2,0.4-0.4,0.4c-0.2,0-0.4-0.2-0.4-0.4C45.4,33.1,45.6,32.9,45.8,32.9z"/>
			<path d="M45.8,34.7c0.2,0,0.4,0.2,0.4,0.4s-0.2,0.4-0.4,0.4c-0.2,0-0.4-0.2-0.4-0.4S45.6,34.7,45.8,34.7z"/>
			<path d="M45.8,36.6c0.2,0,0.4,0.2,0.4,0.4c0,0.2-0.2,0.4-0.4,0.4c-0.2,0-0.4-0.2-0.4-0.4C45.4,36.8,45.6,36.6,45.8,36.6z"/>
			<path d="M45.3,29c0,0.4,0,0.9-0.1,1.3c0,0.1,0.1,0.1,0.1,0.2c0,0.1-0.1,0.3-0.2,0.3c-0.1,0.4-0.3,0.8-0.4,1.2
				c0.1,0,0.1-0.1,0.2-0.1c0.2,0,0.4,0.2,0.4,0.4c0,0.2-0.2,0.4-0.4,0.4c-0.2,0-0.4-0.2-0.4-0.4c-0.5,0.9-1.1,1.8-1.9,2.5h-0.2
				c0.1,0.1,0.1,0.2,0.1,0.3c0,0.2-0.2,0.4-0.4,0.4s-0.4-0.2-0.4-0.4c0-0.1,0-0.2,0.1-0.3h-1.3c0.1,0.1,0.1,0.2,0.1,0.3
				c0,0.2-0.2,0.4-0.4,0.4c-0.2,0-0.4-0.2-0.4-0.4c0-0.1,0-0.2,0.1-0.3h-1.3c0.1,0.1,0.1,0.2,0.1,0.3c0,0.2-0.2,0.4-0.4,0.4
				c-0.2,0-0.4-0.2-0.4-0.4c0-0.1,0-0.2,0.1-0.3h-1.3c0.1,0.1,0.1,0.2,0.1,0.3c0,0.2-0.2,0.4-0.4,0.4c-0.2,0-0.4-0.2-0.4-0.4
				c0-0.1,0.1-0.2,0.1-0.3h-1.3C35,34.9,35,35,35,35.1c0,0.2-0.2,0.4-0.4,0.4c-0.2,0-0.4-0.2-0.4-0.4c0-0.1,0-0.2,0.1-0.3h-1.2v-1.4
				c0,0.2-0.2,0.3-0.4,0.3c-0.2,0-0.4-0.2-0.4-0.4c0-0.2,0.2-0.4,0.4-0.4c0.2,0,0.3,0.1,0.4,0.3v-1.6c0,0.1-0.2,0.3-0.4,0.3
				c-0.2,0-0.4-0.2-0.4-0.4c0-0.2,0.2-0.4,0.4-0.4c0.2,0,0.3,0.1,0.4,0.3v-1.6c0,0.2-0.2,0.3-0.4,0.3c-0.2,0-0.4-0.2-0.4-0.4
				c0-0.2,0.2-0.4,0.4-0.4c0.2,0,0.3,0.1,0.4,0.3v-1.6c0,0.1-0.2,0.3-0.4,0.3c-0.2,0-0.4-0.2-0.4-0.4c0-0.2,0.2-0.4,0.4-0.4
				c0.2,0,0.3,0.1,0.4,0.3V26c0,0.2-0.2,0.3-0.4,0.3c-0.2,0-0.4-0.2-0.4-0.4s0.2-0.4,0.4-0.4c0.2,0,0.3,0.1,0.4,0.3v-1.6
				c0,0.2-0.2,0.3-0.4,0.3c-0.2,0-0.4-0.2-0.4-0.4c0-0.2,0.2-0.4,0.4-0.4c0.2,0,0.3,0.1,0.4,0.3v-0.7h0.2c0,0,0-0.1,0-0.1
				c0-0.1,0-0.2,0.1-0.3c0.1-0.1,0.2-0.1,0.3-0.1c0.2,0,0.4,0.2,0.4,0.4c0,0,0,0.1,0,0.1h1.1c0,0,0-0.1,0-0.1c0-0.2,0.2-0.4,0.4-0.4
				c0.2,0,0.4,0.2,0.4,0.4c0,0,0,0.1,0,0.1H37c0,0,0-0.1,0-0.1c0-0.2,0.2-0.4,0.4-0.4c0.2,0,0.4,0.2,0.4,0.4c0,0,0,0.1,0,0.1h1.1
				c0,0,0-0.1,0-0.1c0-0.2,0.2-0.4,0.4-0.4c0.2,0,0.4,0.2,0.4,0.4c0,0,0,0.1,0,0.1h1.1c0,0,0-0.1,0-0.1c0-0.2,0.2-0.4,0.4-0.4
				s0.4,0.2,0.4,0.4c0,0,0,0.1,0,0.1h1c0,0,0.1,0.1,0.2,0.1c-0.1-0.1-0.1-0.2-0.1-0.3c0-0.2,0.2-0.4,0.4-0.4s0.4,0.2,0.4,0.4
				c0,0.2-0.2,0.4-0.4,0.4c-0.1,0-0.2,0-0.3-0.1C44.3,24.8,45.3,26.9,45.3,29z M42.2,34c1.4-1.3,2.2-3.1,2.2-5c0-1.9-0.8-3.7-2.2-5
				h-1.4c0,0,0,4.7,0,5c0,2-1,3.8-2.5,5H42.2z M40,25.7V24h-1.5C39,24.5,39.5,25.1,40,25.7z M37.1,29c0-1.3-1.1-2.4-2.4-2.4
				c-0.2,0-0.4,0-0.6,0.1v4.7c0.2,0,0.4,0.1,0.6,0.1C36,31.4,37.1,30.4,37.1,29z"/>
			<path d="M44.9,22.6c0.2,0,0.4,0.2,0.4,0.4c0,0.2-0.2,0.4-0.4,0.4s-0.4-0.2-0.4-0.4C44.5,22.8,44.6,22.6,44.9,22.6z"/>
			<path d="M44.9,24.5c0.2,0,0.4,0.2,0.4,0.4c0,0.2-0.2,0.4-0.4,0.4s-0.4-0.2-0.4-0.4C44.5,24.7,44.6,24.5,44.9,24.5z"/>
			<path d="M44.9,33.8c0.2,0,0.4,0.2,0.4,0.4c0,0.2-0.2,0.4-0.4,0.4s-0.4-0.2-0.4-0.4C44.5,34,44.6,33.8,44.9,33.8z"/>
			<path d="M44.9,35.7c0.2,0,0.4,0.2,0.4,0.4c0,0.2-0.2,0.4-0.4,0.4s-0.4-0.2-0.4-0.4C44.5,35.8,44.6,35.7,44.9,35.7z"/>
			<path d="M43.9,19.9c0.2,0,0.4,0.2,0.4,0.4s-0.2,0.4-0.4,0.4s-0.4-0.2-0.4-0.4S43.7,19.9,43.9,19.9z"/>
			<path d="M43.9,21.7c0.2,0,0.4,0.2,0.4,0.4c0,0.2-0.2,0.4-0.4,0.4s-0.4-0.2-0.4-0.4C43.5,21.9,43.7,21.7,43.9,21.7z"/>
			<path d="M43.9,23.6c0.2,0,0.4,0.2,0.4,0.4c0,0.2-0.2,0.4-0.4,0.4s-0.4-0.2-0.4-0.4C43.5,23.8,43.7,23.6,43.9,23.6z"/>
			<path d="M43.9,34.7c0.2,0,0.4,0.2,0.4,0.4s-0.2,0.4-0.4,0.4s-0.4-0.2-0.4-0.4S43.7,34.7,43.9,34.7z"/>
			<path d="M43.9,36.6c0.2,0,0.4,0.2,0.4,0.4c0,0.2-0.2,0.4-0.4,0.4s-0.4-0.2-0.4-0.4C43.5,36.8,43.7,36.6,43.9,36.6z"/>
			<path d="M43,18.9c0.2,0,0.4,0.2,0.4,0.4c0,0.2-0.2,0.4-0.4,0.4s-0.4-0.2-0.4-0.4C42.6,19.1,42.8,18.9,43,18.9z"/>
			<path d="M43,20.8c0.2,0,0.4,0.2,0.4,0.4c0,0.2-0.2,0.4-0.4,0.4s-0.4-0.2-0.4-0.4C42.6,21,42.8,20.8,43,20.8z"/>
			<path d="M43,35.7c0.2,0,0.4,0.2,0.4,0.4c0,0.2-0.2,0.4-0.4,0.4s-0.4-0.2-0.4-0.4C42.6,35.8,42.8,35.7,43,35.7z"/>
			<path class="st2" d="M44.4,29c0,1.9-0.8,3.7-2.2,5h-3.8c1.5-1.1,2.5-2.9,2.5-5c0-0.2,0-5,0-5h1.4C43.6,25.3,44.4,27.1,44.4,29z"
				/>
			<path d="M42.1,19.9c0.2,0,0.4,0.2,0.4,0.4s-0.2,0.4-0.4,0.4s-0.4-0.2-0.4-0.4S41.8,19.9,42.1,19.9z"/>
			<path d="M42.1,21.7c0.2,0,0.4,0.2,0.4,0.4c0,0.2-0.2,0.4-0.4,0.4s-0.4-0.2-0.4-0.4C41.7,21.9,41.8,21.7,42.1,21.7z"/>
			<path d="M42.1,36.6c0.2,0,0.4,0.2,0.4,0.4c0,0.2-0.2,0.4-0.4,0.4s-0.4-0.2-0.4-0.4C41.7,36.8,41.8,36.6,42.1,36.6z"/>
			<path d="M41.1,18.9c0.2,0,0.4,0.2,0.4,0.4c0,0.2-0.2,0.4-0.4,0.4s-0.4-0.2-0.4-0.4C40.7,19.1,40.9,18.9,41.1,18.9z"/>
			<path d="M41.1,20.8c0.2,0,0.4,0.2,0.4,0.4c0,0.2-0.2,0.4-0.4,0.4s-0.4-0.2-0.4-0.4C40.7,21,40.9,20.8,41.1,20.8z"/>
			<path d="M41.1,35.7c0.2,0,0.4,0.2,0.4,0.4c0,0.2-0.2,0.4-0.4,0.4s-0.4-0.2-0.4-0.4C40.7,35.8,40.9,35.7,41.1,35.7z"/>
			<path d="M40.2,19.9c0.2,0,0.4,0.2,0.4,0.4s-0.2,0.4-0.4,0.4c-0.2,0-0.4-0.2-0.4-0.4S40,19.9,40.2,19.9z"/>
			<path d="M40.2,21.7c0.2,0,0.4,0.2,0.4,0.4c0,0.2-0.2,0.4-0.4,0.4c-0.2,0-0.4-0.2-0.4-0.4C39.8,21.9,40,21.7,40.2,21.7z"/>
			<path d="M40.2,36.6c0.2,0,0.4,0.2,0.4,0.4c0,0.2-0.2,0.4-0.4,0.4c-0.2,0-0.4-0.2-0.4-0.4C39.8,36.8,40,36.6,40.2,36.6z"/>
			<path class="st2" d="M40,24v1.7c-0.4-0.7-0.9-1.2-1.5-1.7H40z"/>
			<path d="M39.3,18.9c0.2,0,0.4,0.2,0.4,0.4c0,0.2-0.2,0.4-0.4,0.4c-0.2,0-0.4-0.2-0.4-0.4C38.9,19.1,39.1,18.9,39.3,18.9z"/>
			<path d="M39.3,20.8c0.2,0,0.4,0.2,0.4,0.4c0,0.2-0.2,0.4-0.4,0.4c-0.2,0-0.4-0.2-0.4-0.4C38.9,21,39.1,20.8,39.3,20.8z"/>
			<path d="M39.3,35.7c0.2,0,0.4,0.2,0.4,0.4c0,0.2-0.2,0.4-0.4,0.4c-0.2,0-0.4-0.2-0.4-0.4C38.9,35.8,39.1,35.7,39.3,35.7z"/>
			<path d="M38.3,19.9c0.2,0,0.4,0.2,0.4,0.4s-0.2,0.4-0.4,0.4c-0.2,0-0.4-0.2-0.4-0.4S38.1,19.9,38.3,19.9z"/>
			<path d="M38.3,21.7c0.2,0,0.4,0.2,0.4,0.4c0,0.2-0.2,0.4-0.4,0.4c-0.2,0-0.4-0.2-0.4-0.4C38,21.9,38.1,21.7,38.3,21.7z"/>
			<path d="M38.3,36.6c0.2,0,0.4,0.2,0.4,0.4c0,0.2-0.2,0.4-0.4,0.4c-0.2,0-0.4-0.2-0.4-0.4C38,36.8,38.1,36.6,38.3,36.6z"/>
			<path d="M37.4,18.9c0.2,0,0.4,0.2,0.4,0.4c0,0.2-0.2,0.4-0.4,0.4c-0.2,0-0.4-0.2-0.4-0.4C37,19.1,37.2,18.9,37.4,18.9z"/>
			<path d="M37.4,20.8c0.2,0,0.4,0.2,0.4,0.4c0,0.2-0.2,0.4-0.4,0.4c-0.2,0-0.4-0.2-0.4-0.4C37,21,37.2,20.8,37.4,20.8z"/>
			<path d="M37.4,35.7c0.2,0,0.4,0.2,0.4,0.4c0,0.2-0.2,0.4-0.4,0.4c-0.2,0-0.4-0.2-0.4-0.4C37,35.8,37.2,35.7,37.4,35.7z"/>
			<path d="M36.5,19.9c0.2,0,0.4,0.2,0.4,0.4s-0.2,0.4-0.4,0.4c-0.2,0-0.4-0.2-0.4-0.4S36.3,19.9,36.5,19.9z"/>
			<path d="M36.5,21.7c0.2,0,0.4,0.2,0.4,0.4c0,0.2-0.2,0.4-0.4,0.4c-0.2,0-0.4-0.2-0.4-0.4C36.1,21.9,36.3,21.7,36.5,21.7z"/>
			<path d="M36.5,36.6c0.2,0,0.4,0.2,0.4,0.4c0,0.2-0.2,0.4-0.4,0.4c-0.2,0-0.4-0.2-0.4-0.4C36.1,36.8,36.3,36.6,36.5,36.6z"/>
			<path class="st2" d="M34.6,26.6c1.3,0,2.4,1.1,2.4,2.4c0,1.4-1.1,2.4-2.4,2.4c-0.2,0-0.4,0-0.6-0.1v-4.7
				C34.2,26.6,34.4,26.6,34.6,26.6z"/>
			<path d="M35.6,18.9c0.2,0,0.4,0.2,0.4,0.4c0,0.2-0.2,0.4-0.4,0.4c-0.2,0-0.4-0.2-0.4-0.4C35.2,19.1,35.3,18.9,35.6,18.9z"/>
			<path d="M35.6,20.8c0.2,0,0.4,0.2,0.4,0.4c0,0.2-0.2,0.4-0.4,0.4c-0.2,0-0.4-0.2-0.4-0.4C35.2,21,35.3,20.8,35.6,20.8z"/>
			<path d="M35.6,35.7c0.2,0,0.4,0.2,0.4,0.4c0,0.2-0.2,0.4-0.4,0.4c-0.2,0-0.4-0.2-0.4-0.4C35.2,35.8,35.3,35.7,35.6,35.7z"/>
			<path d="M34.6,19.9c0.2,0,0.4,0.2,0.4,0.4s-0.2,0.4-0.4,0.4c-0.2,0-0.4-0.2-0.4-0.4S34.4,19.9,34.6,19.9z"/>
			<path d="M34.6,21.7c0.2,0,0.4,0.2,0.4,0.4c0,0.2-0.2,0.4-0.4,0.4c-0.2,0-0.4-0.2-0.4-0.4C34.2,21.9,34.4,21.7,34.6,21.7z"/>
			<path d="M34.6,36.6c0.2,0,0.4,0.2,0.4,0.4c0,0.2-0.2,0.4-0.4,0.4c-0.2,0-0.4-0.2-0.4-0.4C34.2,36.8,34.4,36.6,34.6,36.6z"/>
			<path d="M33.7,18.9c0.2,0,0.4,0.2,0.4,0.4c0,0.2-0.2,0.4-0.4,0.4c-0.2,0-0.4-0.2-0.4-0.4c0-0.1,0-0.2,0.1-0.3
				C33.5,19,33.6,18.9,33.7,18.9z"/>
			<path d="M33.7,20.8c0.2,0,0.4,0.2,0.4,0.4c0,0.2-0.2,0.4-0.4,0.4c-0.1,0-0.2,0-0.3-0.1c0-0.1-0.1-0.2-0.1-0.3
				C33.3,21,33.5,20.8,33.7,20.8z"/>
			<path d="M33.7,35.7c0.2,0,0.4,0.2,0.4,0.4c0,0.2-0.2,0.4-0.4,0.4c-0.2,0-0.4-0.2-0.4-0.4c0-0.1,0-0.2,0.1-0.3
				C33.5,35.7,33.6,35.7,33.7,35.7z"/>
			<path d="M32.8,19.9c0.2,0,0.4,0.2,0.4,0.4s-0.2,0.4-0.4,0.4s-0.4-0.2-0.4-0.4S32.5,19.9,32.8,19.9z"/>
			<path d="M32.8,21.7c0.2,0,0.4,0.2,0.4,0.4c0,0.2-0.2,0.4-0.4,0.4s-0.4-0.2-0.4-0.4C32.4,21.9,32.5,21.7,32.8,21.7z"/>
			<path d="M32.8,34.7c0.2,0,0.4,0.2,0.4,0.4s-0.2,0.4-0.4,0.4s-0.4-0.2-0.4-0.4S32.5,34.7,32.8,34.7z"/>
			<path d="M32.8,36.6c0.2,0,0.4,0.2,0.4,0.4c0,0.2-0.2,0.4-0.4,0.4s-0.4-0.2-0.4-0.4C32.4,36.8,32.5,36.6,32.8,36.6z"/>
			<path d="M32.3,24.3v9.3H20.3v-9.3h1.2c-0.1-0.1-0.2-0.2-0.2-0.4c0-0.2,0.2-0.4,0.4-0.4c0.2,0,0.4,0.2,0.4,0.4
				c0,0.2-0.1,0.3-0.2,0.4h1.5c-0.1-0.1-0.2-0.2-0.2-0.4c0-0.2,0.2-0.4,0.4-0.4c0.2,0,0.4,0.2,0.4,0.4c0,0.2-0.1,0.3-0.2,0.4h1.5
				c-0.1-0.1-0.2-0.2-0.2-0.4c0-0.2,0.2-0.4,0.4-0.4c0.2,0,0.4,0.2,0.4,0.4c0,0.2-0.1,0.3-0.2,0.4H27c-0.1-0.1-0.2-0.2-0.2-0.4
				c0-0.2,0.2-0.4,0.4-0.4c0.2,0,0.4,0.2,0.4,0.4c0,0.2-0.1,0.3-0.2,0.4h1.5c-0.1-0.1-0.2-0.2-0.2-0.4c0-0.2,0.2-0.4,0.4-0.4
				c0.2,0,0.4,0.2,0.4,0.4c0,0.2-0.1,0.3-0.2,0.4h1.5c-0.1-0.1-0.2-0.2-0.2-0.4c0-0.2,0.2-0.4,0.4-0.4s0.4,0.2,0.4,0.4
				c0,0.2-0.1,0.3-0.2,0.4H32.3z M31.4,32.8v-7.6H21.1v7.6H31.4z"/>
			<path d="M31.8,18.9c0.2,0,0.4,0.2,0.4,0.4c0,0.2-0.2,0.4-0.4,0.4c-0.2,0-0.4-0.2-0.4-0.4C31.4,19.1,31.6,18.9,31.8,18.9z"/>
			<path d="M31.8,20.8c0.2,0,0.4,0.2,0.4,0.4c0,0.2-0.2,0.4-0.4,0.4c-0.2,0-0.4-0.2-0.4-0.4C31.4,21,31.6,20.8,31.8,20.8z"/>
			<path d="M31.8,22.6c0.2,0,0.4,0.2,0.4,0.4c0,0.2-0.2,0.4-0.4,0.4c-0.2,0-0.4-0.2-0.4-0.4C31.4,22.8,31.6,22.6,31.8,22.6z"/>
			<path d="M31.8,33.8c0.2,0,0.4,0.2,0.4,0.4c0,0.2-0.2,0.4-0.4,0.4c-0.2,0-0.4-0.2-0.4-0.4C31.4,34,31.6,33.8,31.8,33.8z"/>
			<path d="M31.8,35.7c0.2,0,0.4,0.2,0.4,0.4c0,0.2-0.2,0.4-0.4,0.4c-0.2,0-0.4-0.2-0.4-0.4C31.4,35.8,31.6,35.7,31.8,35.7z"/>
			<rect x="21.1" y="25.2" class="st2" width="10.3" height="7.6"/>
			<path d="M30.9,19.9c0.2,0,0.4,0.2,0.4,0.4s-0.2,0.4-0.4,0.4s-0.4-0.2-0.4-0.4S30.7,19.9,30.9,19.9z"/>
			<path d="M30.9,21.7c0.2,0,0.4,0.2,0.4,0.4c0,0.2-0.2,0.4-0.4,0.4s-0.4-0.2-0.4-0.4C30.5,21.9,30.7,21.7,30.9,21.7z"/>
			<path d="M30.9,34.7c0.2,0,0.4,0.2,0.4,0.4s-0.2,0.4-0.4,0.4s-0.4-0.2-0.4-0.4S30.7,34.7,30.9,34.7z"/>
			<path d="M30.9,36.6c0.2,0,0.4,0.2,0.4,0.4c0,0.2-0.2,0.4-0.4,0.4s-0.4-0.2-0.4-0.4C30.5,36.8,30.7,36.6,30.9,36.6z"/>
			<path d="M30,18.9c0.2,0,0.4,0.2,0.4,0.4c0,0.2-0.2,0.4-0.4,0.4c-0.2,0-0.4-0.2-0.4-0.4C29.6,19.1,29.8,18.9,30,18.9z"/>
			<path d="M30,20.8c0.2,0,0.4,0.2,0.4,0.4c0,0.2-0.2,0.4-0.4,0.4c-0.2,0-0.4-0.2-0.4-0.4C29.6,21,29.8,20.8,30,20.8z"/>
			<path d="M30,22.6c0.2,0,0.4,0.2,0.4,0.4c0,0.2-0.2,0.4-0.4,0.4c-0.2,0-0.4-0.2-0.4-0.4C29.6,22.8,29.8,22.6,30,22.6z"/>
			<path d="M30,33.8c0.2,0,0.4,0.2,0.4,0.4c0,0.2-0.2,0.4-0.4,0.4c-0.2,0-0.4-0.2-0.4-0.4C29.6,34,29.8,33.8,30,33.8z"/>
			<path d="M30,35.7c0.2,0,0.4,0.2,0.4,0.4c0,0.2-0.2,0.4-0.4,0.4c-0.2,0-0.4-0.2-0.4-0.4C29.6,35.8,29.8,35.7,30,35.7z"/>
			<path d="M29,19.9c0.2,0,0.4,0.2,0.4,0.4s-0.2,0.4-0.4,0.4c-0.2,0-0.4-0.2-0.4-0.4S28.8,19.9,29,19.9z"/>
			<path d="M29,21.7c0.2,0,0.4,0.2,0.4,0.4c0,0.2-0.2,0.4-0.4,0.4c-0.2,0-0.4-0.2-0.4-0.4C28.6,21.9,28.8,21.7,29,21.7z"/>
			<path d="M29,34.7c0.2,0,0.4,0.2,0.4,0.4s-0.2,0.4-0.4,0.4c-0.2,0-0.4-0.2-0.4-0.4S28.8,34.7,29,34.7z"/>
			<path d="M29,36.6c0.2,0,0.4,0.2,0.4,0.4c0,0.2-0.2,0.4-0.4,0.4c-0.2,0-0.4-0.2-0.4-0.4C28.6,36.8,28.8,36.6,29,36.6z"/>
			<path d="M28.1,18.9c0.2,0,0.4,0.2,0.4,0.4c0,0.2-0.2,0.4-0.4,0.4c-0.2,0-0.4-0.2-0.4-0.4c0-0.1,0-0.2,0.1-0.3
				C27.9,19,28,18.9,28.1,18.9z"/>
			<path d="M28.1,20.8c0.2,0,0.4,0.2,0.4,0.4c0,0.2-0.2,0.4-0.4,0.4c-0.1,0-0.2,0-0.3-0.1c0-0.1-0.1-0.2-0.1-0.3
				C27.7,21,27.9,20.8,28.1,20.8z"/>
			<path d="M28.1,22.6c0.2,0,0.4,0.2,0.4,0.4c0,0.2-0.2,0.4-0.4,0.4c-0.2,0-0.4-0.2-0.4-0.4c0-0.1,0-0.2,0.1-0.3
				C27.9,22.7,28,22.6,28.1,22.6z"/>
			<path d="M28.1,33.8c0.2,0,0.4,0.2,0.4,0.4c0,0.2-0.2,0.4-0.4,0.4c-0.2,0-0.4-0.2-0.4-0.4c0-0.1,0-0.2,0.1-0.3
				C27.9,33.9,28,33.8,28.1,33.8z"/>
			<path d="M28.1,35.7c0.2,0,0.4,0.2,0.4,0.4c0,0.2-0.2,0.4-0.4,0.4c-0.2,0-0.4-0.2-0.4-0.4c0-0.1,0-0.2,0.1-0.3
				C27.9,35.7,28,35.7,28.1,35.7z"/>
			<path d="M27.2,19.9c0.2,0,0.4,0.2,0.4,0.4s-0.2,0.4-0.4,0.4c-0.2,0-0.4-0.2-0.4-0.4S27,19.9,27.2,19.9z"/>
			<path d="M27.2,21.7c0.2,0,0.4,0.2,0.4,0.4c0,0.2-0.2,0.4-0.4,0.4c-0.2,0-0.4-0.2-0.4-0.4C26.8,21.9,27,21.7,27.2,21.7z"/>
			<path d="M27.2,34.7c0.2,0,0.4,0.2,0.4,0.4s-0.2,0.4-0.4,0.4c-0.2,0-0.4-0.2-0.4-0.4S27,34.7,27.2,34.7z"/>
			<path d="M27.2,36.6c0.2,0,0.4,0.2,0.4,0.4c0,0.2-0.2,0.4-0.4,0.4c-0.2,0-0.4-0.2-0.4-0.4C26.8,36.8,27,36.6,27.2,36.6z"/>
			<path d="M26.3,18.9c0.2,0,0.4,0.2,0.4,0.4c0,0.2-0.2,0.4-0.4,0.4c-0.2,0-0.4-0.2-0.4-0.4C25.9,19.1,26,18.9,26.3,18.9z"/>
			<path d="M26.3,20.8c0.2,0,0.4,0.2,0.4,0.4c0,0.2-0.2,0.4-0.4,0.4c-0.2,0-0.4-0.2-0.4-0.4C25.9,21,26,20.8,26.3,20.8z"/>
			<path d="M26.3,22.6c0.2,0,0.4,0.2,0.4,0.4c0,0.2-0.2,0.4-0.4,0.4c-0.2,0-0.4-0.2-0.4-0.4C25.9,22.8,26,22.6,26.3,22.6z"/>
			<path d="M26.3,33.8c0.2,0,0.4,0.2,0.4,0.4c0,0.2-0.2,0.4-0.4,0.4c-0.2,0-0.4-0.2-0.4-0.4C25.9,34,26,33.8,26.3,33.8z"/>
			<path d="M26.3,35.7c0.2,0,0.4,0.2,0.4,0.4c0,0.2-0.2,0.4-0.4,0.4c-0.2,0-0.4-0.2-0.4-0.4C25.9,35.8,26,35.7,26.3,35.7z"/>
			<path d="M25.3,19.9c0.2,0,0.4,0.2,0.4,0.4s-0.2,0.4-0.4,0.4c-0.2,0-0.4-0.2-0.4-0.4S25.1,19.9,25.3,19.9z"/>
			<path d="M25.3,21.7c0.2,0,0.4,0.2,0.4,0.4c0,0.2-0.2,0.4-0.4,0.4c-0.2,0-0.4-0.2-0.4-0.4C24.9,21.9,25.1,21.7,25.3,21.7z"/>
			<path d="M25.3,34.7c0.2,0,0.4,0.2,0.4,0.4s-0.2,0.4-0.4,0.4c-0.2,0-0.4-0.2-0.4-0.4S25.1,34.7,25.3,34.7z"/>
			<path d="M25.3,36.6c0.2,0,0.4,0.2,0.4,0.4c0,0.2-0.2,0.4-0.4,0.4c-0.2,0-0.4-0.2-0.4-0.4C24.9,36.8,25.1,36.6,25.3,36.6z"/>
			<path d="M24.4,18.9c0.2,0,0.4,0.2,0.4,0.4c0,0.2-0.2,0.4-0.4,0.4c-0.2,0-0.4-0.2-0.4-0.4C24,19.1,24.2,18.9,24.4,18.9z"/>
			<path d="M24.4,20.8c0.2,0,0.4,0.2,0.4,0.4c0,0.2-0.2,0.4-0.4,0.4c-0.2,0-0.4-0.2-0.4-0.4C24,21,24.2,20.8,24.4,20.8z"/>
			<path d="M24.4,22.6c0.2,0,0.4,0.2,0.4,0.4c0,0.2-0.2,0.4-0.4,0.4c-0.2,0-0.4-0.2-0.4-0.4C24,22.8,24.2,22.6,24.4,22.6z"/>
			<path d="M24.4,33.8c0.2,0,0.4,0.2,0.4,0.4c0,0.2-0.2,0.4-0.4,0.4c-0.2,0-0.4-0.2-0.4-0.4C24,34,24.2,33.8,24.4,33.8z"/>
			<path d="M24.4,35.7c0.2,0,0.4,0.2,0.4,0.4c0,0.2-0.2,0.4-0.4,0.4c-0.2,0-0.4-0.2-0.4-0.4C24,35.8,24.2,35.7,24.4,35.7z"/>
			<path d="M23.5,19.9c0.2,0,0.4,0.2,0.4,0.4s-0.2,0.4-0.4,0.4c-0.2,0-0.4-0.2-0.4-0.4S23.3,19.9,23.5,19.9z"/>
			<path d="M23.5,21.7c0.2,0,0.4,0.2,0.4,0.4c0,0.2-0.2,0.4-0.4,0.4c-0.2,0-0.4-0.2-0.4-0.4C23.1,21.9,23.3,21.7,23.5,21.7z"/>
			<path d="M23.5,34.7c0.2,0,0.4,0.2,0.4,0.4s-0.2,0.4-0.4,0.4c-0.2,0-0.4-0.2-0.4-0.4S23.3,34.7,23.5,34.7z"/>
			<path d="M23.5,36.6c0.2,0,0.4,0.2,0.4,0.4c0,0.2-0.2,0.4-0.4,0.4c-0.2,0-0.4-0.2-0.4-0.4C23.1,36.8,23.3,36.6,23.5,36.6z"/>
			<path d="M22.5,18.9c0.2,0,0.4,0.2,0.4,0.4c0,0.2-0.2,0.4-0.4,0.4c-0.2,0-0.4-0.2-0.4-0.4C22.1,19.1,22.3,18.9,22.5,18.9z"/>
			<path d="M22.5,20.8c0.2,0,0.4,0.2,0.4,0.4c0,0.2-0.2,0.4-0.4,0.4c-0.2,0-0.4-0.2-0.4-0.4C22.1,21,22.3,20.8,22.5,20.8z"/>
			<path d="M22.5,22.6c0.2,0,0.4,0.2,0.4,0.4c0,0.2-0.2,0.4-0.4,0.4c-0.2,0-0.4-0.2-0.4-0.4C22.1,22.8,22.3,22.6,22.5,22.6z"/>
			<path d="M22.5,33.8c0.2,0,0.4,0.2,0.4,0.4c0,0.2-0.2,0.4-0.4,0.4c-0.2,0-0.4-0.2-0.4-0.4C22.1,34,22.3,33.8,22.5,33.8z"/>
			<path d="M22.5,35.7c0.2,0,0.4,0.2,0.4,0.4c0,0.2-0.2,0.4-0.4,0.4c-0.2,0-0.4-0.2-0.4-0.4C22.1,35.8,22.3,35.7,22.5,35.7z"/>
			<path d="M21.6,19.9c0.2,0,0.4,0.2,0.4,0.4s-0.2,0.4-0.4,0.4c-0.2,0-0.4-0.2-0.4-0.4S21.4,19.9,21.6,19.9z"/>
			<path d="M21.6,21.7c0.2,0,0.4,0.2,0.4,0.4c0,0.2-0.2,0.4-0.4,0.4c-0.2,0-0.4-0.2-0.4-0.4C21.2,21.9,21.4,21.7,21.6,21.7z"/>
			<path d="M21.6,34.7c0.2,0,0.4,0.2,0.4,0.4s-0.2,0.4-0.4,0.4c-0.2,0-0.4-0.2-0.4-0.4S21.4,34.7,21.6,34.7z"/>
			<path d="M21.6,36.6c0.2,0,0.4,0.2,0.4,0.4c0,0.2-0.2,0.4-0.4,0.4c-0.2,0-0.4-0.2-0.4-0.4C21.2,36.8,21.4,36.6,21.6,36.6z"/>
			<path d="M20.7,18.9c0.2,0,0.4,0.2,0.4,0.4c0,0.2-0.2,0.4-0.4,0.4c-0.2,0-0.4-0.2-0.4-0.4C20.3,19.1,20.5,18.9,20.7,18.9z"/>
			<path d="M20.7,20.8c0.2,0,0.4,0.2,0.4,0.4c0,0.2-0.2,0.4-0.4,0.4c-0.2,0-0.4-0.2-0.4-0.4C20.3,21,20.5,20.8,20.7,20.8z"/>
			<path d="M20.7,22.6c0.2,0,0.4,0.2,0.4,0.4c0,0.2-0.2,0.4-0.4,0.4c-0.2,0-0.4-0.2-0.4-0.4C20.3,22.8,20.5,22.6,20.7,22.6z"/>
			<path d="M20.7,33.8c0.2,0,0.4,0.2,0.4,0.4c0,0.2-0.2,0.4-0.4,0.4c-0.2,0-0.4-0.2-0.4-0.4C20.3,34,20.5,33.8,20.7,33.8z"/>
			<path d="M20.7,35.7c0.2,0,0.4,0.2,0.4,0.4c0,0.2-0.2,0.4-0.4,0.4c-0.2,0-0.4-0.2-0.4-0.4C20.3,35.8,20.5,35.7,20.7,35.7z"/>
			<path d="M19.8,19.9c0.2,0,0.4,0.2,0.4,0.4s-0.2,0.4-0.4,0.4c-0.2,0-0.4-0.2-0.4-0.4S19.5,19.9,19.8,19.9z"/>
			<path d="M19.8,21.7c0.2,0,0.4,0.2,0.4,0.4c0,0.2-0.2,0.4-0.4,0.4c-0.2,0-0.4-0.2-0.4-0.4C19.4,21.9,19.5,21.7,19.8,21.7z"/>
			<path d="M19.8,23.6c0.2,0,0.4,0.2,0.4,0.4c0,0.2-0.2,0.4-0.4,0.4c-0.1,0-0.3-0.1-0.3-0.2v1.4c0.1-0.1,0.2-0.2,0.3-0.2
				c0.2,0,0.4,0.2,0.4,0.4c0,0.2-0.2,0.4-0.4,0.4c-0.1,0-0.3-0.1-0.3-0.2v1.4c0.1-0.1,0.2-0.2,0.3-0.2c0.2,0,0.4,0.2,0.4,0.4
				c0,0.2-0.2,0.4-0.4,0.4c-0.1,0-0.3-0.1-0.3-0.2v1.4c0.1-0.1,0.2-0.2,0.3-0.2c0.2,0,0.4,0.2,0.4,0.4c0,0.2-0.2,0.4-0.4,0.4
				c-0.1,0-0.3-0.1-0.3-0.2v1.4c0.1-0.1,0.2-0.2,0.3-0.2c0.2,0,0.4,0.2,0.4,0.4c0,0.2-0.2,0.4-0.4,0.4c-0.1,0-0.3-0.1-0.3-0.2V33
				c0.1-0.1,0.2-0.2,0.3-0.2c0.2,0,0.4,0.2,0.4,0.4c0,0.2-0.2,0.4-0.4,0.4c-0.1,0-0.3-0.1-0.3-0.2v1.3h-1.3c0.1,0.1,0.1,0.2,0.1,0.3
				c0,0.2-0.2,0.4-0.4,0.4c-0.2,0-0.4-0.2-0.4-0.4c0-0.1,0.1-0.2,0.1-0.3h-1.3c0.1,0.1,0.1,0.2,0.1,0.3c0,0.2-0.2,0.4-0.4,0.4
				c-0.2,0-0.4-0.2-0.4-0.4c0-0.1,0.1-0.2,0.1-0.3h-1.4c0.1,0.1,0.1,0.2,0.1,0.3c0,0.2-0.2,0.4-0.4,0.4c-0.2,0-0.4-0.2-0.4-0.4
				c0-0.1,0-0.2,0.1-0.3h-1.3c0.1,0.1,0.1,0.2,0.1,0.3c0,0.2-0.2,0.4-0.4,0.4s-0.4-0.2-0.4-0.4c0-0.1,0.1-0.2,0.1-0.3h-1.4
				c0.1,0.1,0.1,0.2,0.1,0.3c0,0.2-0.2,0.4-0.4,0.4c-0.2,0-0.4-0.2-0.4-0.4c0-0.1,0.1-0.2,0.1-0.3H10c-0.8-0.7-1.5-1.6-2-2.6
				c0,0,0,0,0,0.1c0,0.2-0.2,0.4-0.4,0.4c-0.2,0-0.4-0.2-0.4-0.4c0-0.2,0.2-0.4,0.4-0.4c0.1,0,0.2,0.1,0.3,0.1
				c-0.2-0.4-0.3-0.8-0.4-1.2c-0.1-0.1-0.3-0.2-0.3-0.4c0-0.1,0-0.2,0.1-0.3c-0.1-0.4-0.1-0.8-0.1-1.2c0-0.6,0.1-1.3,0.3-1.9
				c-0.2-0.1-0.3-0.2-0.3-0.4c0-0.2,0.2-0.4,0.4-0.4c0,0,0.1,0,0.1,0C8.2,25.1,9,24,10,23.2h1c0,0,0-0.1,0-0.1c0-0.1,0-0.2,0.1-0.3
				c0.1-0.1,0.2-0.1,0.3-0.1c0.2,0,0.4,0.2,0.4,0.4c0,0,0,0.1,0,0.1h1.1c0,0,0-0.1,0-0.1c0-0.2,0.2-0.4,0.4-0.4
				c0.2,0,0.4,0.2,0.4,0.4c0,0,0,0.1,0,0.1h1.1c0,0,0-0.1,0-0.1c0-0.2,0.2-0.4,0.4-0.4s0.4,0.2,0.4,0.4c0,0,0,0.1,0,0.1h1.1
				c0,0,0-0.1,0-0.1c0-0.2,0.2-0.4,0.4-0.4c0.2,0,0.4,0.2,0.4,0.4c0,0,0,0.1,0,0.1h1.1c0,0,0-0.1,0-0.1c0-0.2,0.2-0.4,0.4-0.4
				c0.2,0,0.4,0.2,0.4,0.4c0,0,0,0.1,0,0.1h0.2v0.6C19.5,23.6,19.6,23.6,19.8,23.6z M18.5,31.4v-4.7c-0.2,0-0.4-0.1-0.6-0.1
				c-1.4,0-2.4,1.1-2.4,2.4c0,1.4,1.1,2.4,2.4,2.4C18.1,31.4,18.3,31.4,18.5,31.4z M14.1,24h-1.6v1.8C13,25.1,13.5,24.5,14.1,24z
				 M10.3,34h3.8c-1.5-1.1-2.4-2.9-2.5-4.9h0v-5h-1.3c-1.4,1.3-2.2,3.1-2.2,5C8.1,30.9,8.9,32.7,10.3,34z"/>
			<path d="M19.8,34.7c0.2,0,0.4,0.2,0.4,0.4s-0.2,0.4-0.4,0.4c-0.2,0-0.4-0.2-0.4-0.4S19.5,34.7,19.8,34.7z"/>
			<path d="M19.8,36.6c0.2,0,0.4,0.2,0.4,0.4c0,0.2-0.2,0.4-0.4,0.4c-0.2,0-0.4-0.2-0.4-0.4C19.4,36.8,19.5,36.6,19.8,36.6z"/>
			<path d="M18.8,18.9c0.2,0,0.4,0.2,0.4,0.4c0,0.2-0.2,0.4-0.4,0.4c-0.2,0-0.4-0.2-0.4-0.4C18.4,19.1,18.6,18.9,18.8,18.9z"/>
			<path d="M18.8,20.8c0.2,0,0.4,0.2,0.4,0.4c0,0.2-0.2,0.4-0.4,0.4c-0.2,0-0.4-0.2-0.4-0.4C18.4,21,18.6,20.8,18.8,20.8z"/>
			<path d="M18.8,35.7c0.2,0,0.4,0.2,0.4,0.4c0,0.2-0.2,0.4-0.4,0.4c-0.2,0-0.4-0.2-0.4-0.4C18.4,35.8,18.6,35.7,18.8,35.7z"/>
			<path class="st2" d="M18.5,26.6v4.7c-0.2,0-0.4,0.1-0.6,0.1c-1.4,0-2.4-1.1-2.4-2.4c0-1.3,1.1-2.4,2.4-2.4
				C18.1,26.6,18.3,26.6,18.5,26.6z"/>
			<path d="M17.9,19.9c0.2,0,0.4,0.2,0.4,0.4s-0.2,0.4-0.4,0.4c-0.2,0-0.4-0.2-0.4-0.4S17.7,19.9,17.9,19.9z"/>
			<path d="M17.9,21.7c0.2,0,0.4,0.2,0.4,0.4c0,0.2-0.2,0.4-0.4,0.4c-0.2,0-0.4-0.2-0.4-0.4C17.5,21.9,17.7,21.7,17.9,21.7z"/>
			<path d="M17.9,36.6c0.2,0,0.4,0.2,0.4,0.4c0,0.2-0.2,0.4-0.4,0.4c-0.2,0-0.4-0.2-0.4-0.4C17.5,36.8,17.7,36.6,17.9,36.6z"/>
			<path d="M17,18.9c0.2,0,0.4,0.2,0.4,0.4c0,0.2-0.2,0.4-0.4,0.4c-0.2,0-0.4-0.2-0.4-0.4C16.6,19.1,16.7,18.9,17,18.9z"/>
			<path d="M17,20.8c0.2,0,0.4,0.2,0.4,0.4c0,0.2-0.2,0.4-0.4,0.4c-0.2,0-0.4-0.2-0.4-0.4C16.6,21,16.7,20.8,17,20.8z"/>
			<path d="M17,35.7c0.2,0,0.4,0.2,0.4,0.4c0,0.2-0.2,0.4-0.4,0.4c-0.2,0-0.4-0.2-0.4-0.4C16.6,35.8,16.7,35.7,17,35.7z"/>
			<path d="M16,19.9c0.2,0,0.4,0.2,0.4,0.4s-0.2,0.4-0.4,0.4c-0.2,0-0.4-0.2-0.4-0.4S15.8,19.9,16,19.9z"/>
			<path d="M16,21.7c0.2,0,0.4,0.2,0.4,0.4c0,0.2-0.2,0.4-0.4,0.4c-0.2,0-0.4-0.2-0.4-0.4C15.6,21.9,15.8,21.7,16,21.7z"/>
			<path d="M16,36.6c0.2,0,0.4,0.2,0.4,0.4c0,0.2-0.2,0.4-0.4,0.4c-0.2,0-0.4-0.2-0.4-0.4C15.6,36.8,15.8,36.6,16,36.6z"/>
			<path d="M15.1,18.9c0.2,0,0.4,0.2,0.4,0.4c0,0.2-0.2,0.4-0.4,0.4s-0.4-0.2-0.4-0.4C14.7,19.1,14.9,18.9,15.1,18.9z"/>
			<path d="M15.1,20.8c0.2,0,0.4,0.2,0.4,0.4c0,0.2-0.2,0.4-0.4,0.4s-0.4-0.2-0.4-0.4C14.7,21,14.9,20.8,15.1,20.8z"/>
			<path d="M15.1,35.7c0.2,0,0.4,0.2,0.4,0.4c0,0.2-0.2,0.4-0.4,0.4s-0.4-0.2-0.4-0.4C14.7,35.8,14.9,35.7,15.1,35.7z"/>
			<path d="M14.2,19.9c0.2,0,0.4,0.2,0.4,0.4s-0.2,0.4-0.4,0.4c-0.2,0-0.4-0.2-0.4-0.4S13.9,19.9,14.2,19.9z"/>
			<path d="M14.2,21.7c0.2,0,0.4,0.2,0.4,0.4c0,0.2-0.2,0.4-0.4,0.4c-0.2,0-0.4-0.2-0.4-0.4C13.8,21.9,13.9,21.7,14.2,21.7z"/>
			<path d="M14.2,36.6c0.2,0,0.4,0.2,0.4,0.4c0,0.2-0.2,0.4-0.4,0.4c-0.2,0-0.4-0.2-0.4-0.4C13.8,36.8,13.9,36.6,14.2,36.6z"/>
			<path class="st2" d="M12.6,24h1.6c-0.6,0.5-1.2,1.1-1.6,1.8V24z"/>
			<path class="st2" d="M14.1,34h-3.8c-1.4-1.3-2.2-3.1-2.2-5c0-1.9,0.8-3.7,2.2-5h1.3v5h0C11.7,31.1,12.7,32.8,14.1,34z"/>
			<path d="M13.2,18.9c0.2,0,0.4,0.2,0.4,0.4c0,0.2-0.2,0.4-0.4,0.4c-0.2,0-0.4-0.2-0.4-0.4C12.8,19.1,13,18.9,13.2,18.9z"/>
			<path d="M13.2,20.8c0.2,0,0.4,0.2,0.4,0.4c0,0.2-0.2,0.4-0.4,0.4c-0.2,0-0.4-0.2-0.4-0.4C12.8,21,13,20.8,13.2,20.8z"/>
			<path d="M13.2,35.7c0.2,0,0.4,0.2,0.4,0.4c0,0.2-0.2,0.4-0.4,0.4c-0.2,0-0.4-0.2-0.4-0.4C12.8,35.8,13,35.7,13.2,35.7z"/>
			<path d="M12.3,19.9c0.2,0,0.4,0.2,0.4,0.4s-0.2,0.4-0.4,0.4c-0.2,0-0.4-0.2-0.4-0.4S12.1,19.9,12.3,19.9z"/>
			<path d="M12.3,21.7c0.2,0,0.4,0.2,0.4,0.4c0,0.2-0.2,0.4-0.4,0.4c-0.2,0-0.4-0.2-0.4-0.4C11.9,21.9,12.1,21.7,12.3,21.7z"/>
			<path d="M12.3,36.6c0.2,0,0.4,0.2,0.4,0.4c0,0.2-0.2,0.4-0.4,0.4c-0.2,0-0.4-0.2-0.4-0.4C11.9,36.8,12.1,36.6,12.3,36.6z"/>
			<path d="M11.4,18.9c0.2,0,0.4,0.2,0.4,0.4c0,0.2-0.2,0.4-0.4,0.4S11,19.5,11,19.3c0-0.1,0-0.2,0.1-0.3
				C11.1,19,11.3,18.9,11.4,18.9z"/>
			<path d="M11.4,20.8c0.2,0,0.4,0.2,0.4,0.4c0,0.2-0.2,0.4-0.4,0.4c-0.1,0-0.2,0-0.3-0.1C11,21.4,11,21.3,11,21.2
				C11,21,11.1,20.8,11.4,20.8z"/>
			<path d="M11.4,35.7c0.2,0,0.4,0.2,0.4,0.4c0,0.2-0.2,0.4-0.4,0.4S11,36.3,11,36.1c0-0.1,0-0.2,0.1-0.3
				C11.1,35.7,11.3,35.7,11.4,35.7z"/>
			<path d="M10.4,19.9c0.2,0,0.4,0.2,0.4,0.4s-0.2,0.4-0.4,0.4c-0.2,0-0.4-0.2-0.4-0.4S10.2,19.9,10.4,19.9z"/>
			<path d="M10.4,21.7c0.2,0,0.4,0.2,0.4,0.4c0,0.2-0.2,0.4-0.4,0.4c-0.2,0-0.4-0.2-0.4-0.4C10.1,21.9,10.2,21.7,10.4,21.7z"/>
			<path d="M10.4,36.6c0.2,0,0.4,0.2,0.4,0.4c0,0.2-0.2,0.4-0.4,0.4c-0.2,0-0.4-0.2-0.4-0.4C10.1,36.8,10.2,36.6,10.4,36.6z"/>
			<path d="M9.5,18.9c0.2,0,0.4,0.2,0.4,0.4c0,0.2-0.2,0.4-0.4,0.4c-0.2,0-0.4-0.2-0.4-0.4C9.1,19.1,9.3,18.9,9.5,18.9z"/>
			<path d="M9.5,20.8c0.2,0,0.4,0.2,0.4,0.4c0,0.2-0.2,0.4-0.4,0.4c-0.2,0-0.4-0.2-0.4-0.4C9.1,21,9.3,20.8,9.5,20.8z"/>
			<path d="M9.5,22.6c0.2,0,0.4,0.2,0.4,0.4c0,0.2-0.2,0.4-0.4,0.4c-0.2,0-0.4-0.2-0.4-0.4C9.1,22.8,9.3,22.6,9.5,22.6z"/>
			<path d="M9.5,35.7c0.2,0,0.4,0.2,0.4,0.4c0,0.2-0.2,0.4-0.4,0.4c-0.2,0-0.4-0.2-0.4-0.4C9.1,35.8,9.3,35.7,9.5,35.7z"/>
			<path d="M8.6,19.9C8.8,19.9,9,20,9,20.3s-0.2,0.4-0.4,0.4s-0.4-0.2-0.4-0.4S8.4,19.9,8.6,19.9z"/>
			<path d="M8.6,21.7c0.2,0,0.4,0.2,0.4,0.4c0,0.2-0.2,0.4-0.4,0.4s-0.4-0.2-0.4-0.4C8.2,21.9,8.4,21.7,8.6,21.7z"/>
			<path d="M8.6,23.6C8.8,23.6,9,23.8,9,24c0,0.2-0.2,0.4-0.4,0.4S8.2,24.2,8.2,24C8.2,23.8,8.4,23.6,8.6,23.6z"/>
			<path d="M8.6,34.7c0.2,0,0.4,0.2,0.4,0.4s-0.2,0.4-0.4,0.4s-0.4-0.2-0.4-0.4S8.4,34.7,8.6,34.7z"/>
			<path d="M8.6,36.6C8.8,36.6,9,36.8,9,37c0,0.2-0.2,0.4-0.4,0.4S8.2,37.2,8.2,37C8.2,36.8,8.4,36.6,8.6,36.6z"/>
			<path d="M7.7,22.6C7.9,22.6,8,22.8,8,23c0,0.2-0.2,0.4-0.4,0.4c-0.2,0-0.4-0.2-0.4-0.4C7.3,22.8,7.4,22.6,7.7,22.6z"/>
			<path d="M7.7,24.5c0.2,0,0.4,0.2,0.4,0.4c0,0.2-0.2,0.4-0.4,0.4c-0.2,0-0.4-0.2-0.4-0.4C7.3,24.7,7.4,24.5,7.7,24.5z"/>
			<path d="M7.7,33.8C7.9,33.8,8,34,8,34.2c0,0.2-0.2,0.4-0.4,0.4c-0.2,0-0.4-0.2-0.4-0.4C7.3,34,7.4,33.8,7.7,33.8z"/>
			<path d="M7.7,35.7c0.2,0,0.4,0.2,0.4,0.4c0,0.2-0.2,0.4-0.4,0.4c-0.2,0-0.4-0.2-0.4-0.4C7.3,35.8,7.4,35.7,7.7,35.7z"/>
			<path d="M6.7,21.7c0.2,0,0.4,0.2,0.4,0.4c0,0.2-0.2,0.4-0.4,0.4c-0.2,0-0.4-0.2-0.4-0.4C6.3,21.9,6.5,21.7,6.7,21.7z"/>
			<path d="M6.7,23.6c0.2,0,0.4,0.2,0.4,0.4c0,0.2-0.2,0.4-0.4,0.4c-0.2,0-0.4-0.2-0.4-0.4C6.3,23.8,6.5,23.6,6.7,23.6z"/>
			<path d="M6.7,25.4c0.2,0,0.4,0.2,0.4,0.4s-0.2,0.4-0.4,0.4c-0.2,0-0.4-0.2-0.4-0.4C6.3,25.6,6.5,25.4,6.7,25.4z"/>
			<path d="M6.7,27.3c0.2,0,0.4,0.2,0.4,0.4c0,0.2-0.2,0.4-0.4,0.4c-0.2,0-0.4-0.2-0.4-0.4C6.3,27.5,6.5,27.3,6.7,27.3z"/>
			<path d="M6.7,29.2c0.2,0,0.4,0.2,0.4,0.4c0,0.2-0.2,0.4-0.4,0.4c-0.2,0-0.4-0.2-0.4-0.4C6.3,29.3,6.5,29.2,6.7,29.2z"/>
			<path d="M6.7,31c0.2,0,0.4,0.2,0.4,0.4c0,0.2-0.2,0.4-0.4,0.4c-0.2,0-0.4-0.2-0.4-0.4C6.3,31.2,6.5,31,6.7,31z"/>
			<path d="M6.7,32.9c0.2,0,0.4,0.2,0.4,0.4c0,0.2-0.2,0.4-0.4,0.4c-0.2,0-0.4-0.2-0.4-0.4C6.3,33.1,6.5,32.9,6.7,32.9z"/>
			<path d="M6.7,34.7c0.2,0,0.4,0.2,0.4,0.4s-0.2,0.4-0.4,0.4c-0.2,0-0.4-0.2-0.4-0.4S6.5,34.7,6.7,34.7z"/>
			<path d="M6.7,36.6c0.2,0,0.4,0.2,0.4,0.4c0,0.2-0.2,0.4-0.4,0.4c-0.2,0-0.4-0.2-0.4-0.4C6.3,36.8,6.5,36.6,6.7,36.6z"/>
			<path d="M5.8,22.6c0.2,0,0.4,0.2,0.4,0.4c0,0.2-0.2,0.4-0.4,0.4c-0.2,0-0.4-0.2-0.4-0.4c0-0.1,0-0.2,0.1-0.3
				C5.6,22.7,5.7,22.6,5.8,22.6z"/>
			<path d="M5.8,24.5c0.2,0,0.4,0.2,0.4,0.4c0,0.2-0.2,0.4-0.4,0.4c-0.2,0-0.4-0.2-0.4-0.4c0-0.1,0-0.2,0.1-0.3
				C5.6,24.6,5.7,24.5,5.8,24.5z"/>
			<path d="M5.8,26.4c0.2,0,0.4,0.2,0.4,0.4c0,0.2-0.2,0.4-0.4,0.4c-0.1,0-0.2-0.1-0.3-0.1c-0.1-0.1-0.1-0.1-0.1-0.3
				C5.4,26.5,5.6,26.4,5.8,26.4z"/>
			<path d="M5.8,28.2c0.2,0,0.4,0.2,0.4,0.4C6.2,28.8,6,29,5.8,29c-0.2,0-0.4-0.2-0.4-0.4c0-0.1,0-0.2,0.1-0.3
				C5.6,28.3,5.7,28.2,5.8,28.2z"/>
			<path d="M5.8,30.1c0.2,0,0.4,0.2,0.4,0.4c0,0.2-0.2,0.4-0.4,0.4c-0.2,0-0.4-0.2-0.4-0.4c0-0.1,0-0.2,0.1-0.3
				C5.6,30.1,5.7,30.1,5.8,30.1z"/>
			<path d="M5.8,32c0.2,0,0.4,0.2,0.4,0.4c0,0.2-0.2,0.4-0.4,0.4c-0.1,0-0.2-0.1-0.3-0.1c-0.1-0.1-0.1-0.2-0.1-0.3
				C5.4,32.1,5.6,32,5.8,32z"/>
			<path d="M5.8,33.8c0.2,0,0.4,0.2,0.4,0.4c0,0.2-0.2,0.4-0.4,0.4c-0.2,0-0.4-0.2-0.4-0.4c0-0.1,0-0.2,0.1-0.3
				C5.6,33.9,5.7,33.8,5.8,33.8z"/>
			<path d="M5.8,35.7c0.2,0,0.4,0.2,0.4,0.4c0,0.2-0.2,0.4-0.4,0.4c-0.2,0-0.4-0.2-0.4-0.4c0-0.1,0-0.2,0.1-0.3
				C5.6,35.7,5.7,35.7,5.8,35.7z"/>
		</g>
	</g>
</g>
</svg>
