<?xml version="1.0" encoding="utf-8"?>
<!-- Generator: Adobe Illustrator 23.0.1, SVG Export Plug-In . SVG Version: 6.00 Build 0)  -->
<svg version="1.1" id="Layer_1" xmlns="http://www.w3.org/2000/svg" xmlns:xlink="http://www.w3.org/1999/xlink" x="0px" y="0px"
	 viewBox="0 0 54 54" style="enable-background:new 0 0 54 54;" xml:space="preserve">
<style type="text/css">
	.st0{fill-rule:evenodd;clip-rule:evenodd;}
	.st1{fill:#FF0303;}
	.st2{fill:#FFFFFF;}
</style>
<path d="M12,49.8l32.5-21.9c0.4-0.3,0.7-0.8,0.7-1.3s-0.3-1-0.7-1.3L12,3.3c-0.5-0.3-1.1-0.4-1.7-0.1C9.8,3.5,9.4,4,9.4,4.6v43.8
	c0,0.6,0.3,1.2,0.9,1.4C10.8,50.2,11.5,50.1,12,49.8z"/>
<g>
	<path class="st2" d="M24.2,31.5c-3.5,0-6.5-2-7.9-5.1c1.4-3.1,4.5-5.1,7.9-5.1c3.5,0,6.5,2,7.9,5.1C30.7,29.5,27.7,31.5,24.2,31.5z
		"/>
	<path d="M24.2,22.5c-2.1,0-3.8,1.7-3.8,3.8c0,2.1,1.7,3.8,3.8,3.8s3.8-1.7,3.8-3.8S26.3,22.5,24.2,22.5z"/>
</g>
</svg>
