<?xml version="1.0" encoding="utf-8"?>
<!-- Generator: Adobe Illustrator 23.0.1, SVG Export Plug-In . SVG Version: 6.00 Build 0)  -->
<svg version="1.1" id="Layer_1" xmlns="http://www.w3.org/2000/svg" xmlns:xlink="http://www.w3.org/1999/xlink" x="0px" y="0px"
	 viewBox="0 0 2737 389" style="enable-background:new 0 0 2737 389;" xml:space="preserve">
<style type="text/css">
	.st0{fill:#FC0000;}
	.st1{fill:#FF0000;}
</style>
<g>
	<rect x="0.5" y="0.5" width="2736" height="388"/>
	<path d="M2736,1v387H1V1H2736 M2737,0H0v389h2737V0L2737,0z"/>
</g>
<g id="XMLID_1_">
	<g>
		<rect x="80" y="83" class="st0" width="395" height="107"/>
		<path class="st0" d="M475,190V83H80v107H475z M476,82v109H79V82H476z"/>
	</g>
	<g>
	</g>
</g>
<g>
	<g>
		<path d="M120.2,165.5c-0.3-0.6-0.5-1.6-0.6-2.9c-0.1-1.6-0.2-3.8-0.2-6.7v-12.1c0-2.7-0.7-4.1-2.1-4.1h-2.9v25.9h-5.3V110h8.6
			c2,0,3.6,0.6,5,2c1.4,1.3,2.1,3.2,2.1,5.6v14.7c0,1.6-0.2,2.8-0.7,3.6c-0.5,0.7-1,1.2-1.7,1.5l-1.6,0.5l1.6,0.4
			c0.7,0.2,1.2,0.6,1.7,1.4c0.5,0.8,0.7,2,0.7,3.6v12.7c0,1.8,0,3.4,0.1,4.6c0.1,1.3,0.2,2.3,0.3,3.1c0.1,0.8,0.2,1.4,0.3,1.8
			c0,0,0,0.1,0,0.1H120.2z M114.4,136h2.9c1.4,0,2.1-1.4,2.1-4.1v-13.3c0-2.8-0.8-4.2-2.4-4.2h-2.7V136z"/>
		<path d="M117.7,110.5c1.8,0,3.4,0.6,4.7,1.8c1.3,1.2,1.9,2.9,1.9,5.3v14.7c0,1.9-0.3,2.8-0.6,3.3c-0.4,0.6-0.9,1.1-1.5,1.2l-3.1,1
			l3.2,0.9c0.6,0.2,1,0.5,1.4,1.1c0.3,0.5,0.6,1.4,0.6,3.3v12.7c0,1.9,0,3.4,0.1,4.7c0.1,1.3,0.2,2.3,0.3,3.1c0.1,0.5,0.1,1,0.2,1.3
			h-4.3c-0.2-0.5-0.3-1.2-0.4-2.4c-0.1-1.5-0.2-3.8-0.2-6.7v-12.1c0-3.1-0.9-4.6-2.6-4.6h-2.4h-1v1V165h-4.3v-54.5H117.7
			 M113.9,136.5h1h2.4c1.2,0,2.6-0.8,2.6-4.6v-13.3c0-3.9-1.6-4.7-2.9-4.7h-2.2h-1v1v20.6V136.5 M117.7,109.5h-9.1V166h6.3v-25.9
			h2.4c1.1,0,1.6,1.2,1.6,3.6v12.1c0,2.9,0.1,5.2,0.2,6.8c0.1,1.6,0.4,2.7,0.8,3.4h6.3c-0.1-0.1-0.1-0.3-0.2-0.7
			c-0.1-0.4-0.2-1-0.3-1.7c-0.1-0.8-0.2-1.8-0.3-3c-0.1-1.2-0.1-2.8-0.1-4.6v-12.7c0-1.7-0.3-3-0.8-3.8c-0.5-0.8-1.2-1.4-2-1.6
			c0.8-0.3,1.5-0.8,2-1.7c0.5-0.8,0.8-2.1,0.8-3.8v-14.7c0-2.6-0.7-4.6-2.2-6C121.5,110.2,119.7,109.5,117.7,109.5L117.7,109.5z
			 M114.9,135.5v-20.6h2.2c1.2,0,1.9,1.2,1.9,3.7v13.3c0,2.4-0.5,3.6-1.6,3.6H114.9L114.9,135.5z"/>
	</g>
	<g>
		<polygon points="128.8,165.5 128.8,110 141.1,110 141.1,114.3 134.1,114.3 134.1,135.9 139.6,135.9 139.6,139.6 134.1,139.6 
			134.1,161.2 141.6,161.2 141.6,165.5 		"/>
		<path d="M140.6,110.5v3.3h-6h-1v1v20.5v1h1h4.5v2.8h-4.5h-1v1v20.5v1h1h6.5v3.3h-11.8v-54.5H140.6 M141.6,109.5h-13.3V166h13.8
			v-5.3h-7.5v-20.5h5.5v-4.8h-5.5v-20.5h7V109.5L141.6,109.5z"/>
	</g>
	<g>
		<polygon points="148.7,165.5 143.6,110 148.6,110 151.9,149.1 153.1,149.1 156.4,110 160.9,110 155.9,165.5 		"/>
		<path d="M160.3,110.5l-4.9,54.5h-6.3l-5.1-54.5h4l3.2,38.2l0.1,0.9h0.9h0.2h0.9l0.1-0.9l3.2-38.2H160.3 M161.4,109.5h-5.5
			l-3.3,39.1h-0.2l-3.3-39.1H143l5.3,56.5h8.1L161.4,109.5L161.4,109.5z"/>
	</g>
	<g>
		<path d="M170.4,166c-0.9,0-1.7-0.2-2.6-0.5c-0.8-0.3-1.6-0.8-2.3-1.4c-0.7-0.6-1.2-1.4-1.6-2.3c-0.4-1-0.6-2.1-0.6-3.5v-41.2
			c0-1.4,0.2-2.6,0.6-3.5c0.4-0.9,0.9-1.7,1.6-2.3c0.7-0.6,1.5-1.1,2.3-1.4c0.9-0.3,1.7-0.5,2.6-0.5h1.5c0.9,0,1.7,0.2,2.6,0.5
			c0.9,0.3,1.6,0.8,2.3,1.4c0.7,0.6,1.2,1.4,1.6,2.3c0.4,1,0.6,2.1,0.6,3.5v41.2c0,1.4-0.2,2.6-0.6,3.5c-0.4,1-0.9,1.7-1.6,2.3
			c-0.7,0.6-1.4,1.1-2.3,1.4c-0.9,0.3-1.7,0.5-2.6,0.5H170.4z M171,113.8c-1.6,0-2.4,1.4-2.4,4.3v39.2c0,1.5,0.2,2.5,0.6,3.2
			c0.4,0.7,1,1.1,1.8,1.1h0.3c0.8,0,1.4-0.4,1.8-1.1c0.4-0.6,0.6-1.7,0.6-3.2v-39.2c0-2.9-0.8-4.3-2.4-4.3H171z"/>
		<path d="M171.9,110c0.8,0,1.6,0.1,2.4,0.4c0.8,0.3,1.5,0.7,2.1,1.3c0.6,0.5,1.1,1.3,1.5,2.1c0.4,0.9,0.6,2,0.6,3.3v41.2
			c0,1.3-0.2,2.4-0.6,3.3c-0.4,0.9-0.9,1.6-1.5,2.1c-0.6,0.6-1.3,1-2.1,1.3c-0.8,0.3-1.6,0.4-2.4,0.4h-1.5c-0.8,0-1.6-0.1-2.4-0.4
			c-0.8-0.3-1.5-0.7-2.1-1.3c-0.6-0.5-1.1-1.3-1.5-2.1c-0.4-0.9-0.6-2-0.6-3.3v-41.2c0-1.3,0.2-2.4,0.6-3.3c0.4-0.9,0.9-1.6,1.5-2.1
			c0.6-0.6,1.3-1,2.1-1.3c0.8-0.3,1.6-0.4,2.4-0.4H171.9 M171,162.2h0.3c0.9,0,1.7-0.5,2.2-1.4c0.4-0.7,0.6-1.8,0.6-3.4v-39.2
			c0-4-1.6-4.8-2.9-4.8H171c-1.3,0-2.9,0.8-2.9,4.8v39.2c0,1.6,0.2,2.7,0.6,3.4C169.2,161.7,170,162.2,171,162.2 M171.9,109h-1.5
			c-0.9,0-1.8,0.2-2.7,0.5c-0.9,0.3-1.7,0.8-2.5,1.5c-0.7,0.6-1.3,1.5-1.7,2.5c-0.4,1-0.6,2.3-0.6,3.7v41.2c0,1.5,0.2,2.7,0.6,3.7
			c0.4,1,1,1.9,1.7,2.5c0.7,0.6,1.5,1.1,2.5,1.5c0.9,0.3,1.8,0.5,2.7,0.5h1.5c0.9,0,1.8-0.2,2.7-0.5c0.9-0.3,1.7-0.8,2.5-1.5
			c0.7-0.6,1.3-1.5,1.7-2.5c0.4-1,0.6-2.3,0.6-3.7v-41.2c0-1.5-0.2-2.7-0.6-3.7c-0.4-1-1-1.9-1.7-2.5c-0.7-0.6-1.5-1.1-2.5-1.5
			C173.7,109.2,172.8,109,171.9,109L171.9,109z M171,161.2c-0.6,0-1.1-0.3-1.4-0.8s-0.5-1.5-0.5-3v-39.2c0-2.5,0.6-3.8,1.9-3.8h0.3
			c1.2,0,1.9,1.3,1.9,3.8v39.2c0,1.4-0.2,2.4-0.5,3s-0.8,0.8-1.4,0.8H171L171,161.2z"/>
	</g>
	<g>
		<polygon points="182.5,165.5 182.5,110 187.8,110 187.8,161.7 194.5,161.7 194.5,165.5 		"/>
		<path d="M187.3,110.5v50.7v1h1h5.7v2.8h-11v-54.5H187.3 M188.3,109.5H182V166h13v-4.8h-6.7V109.5L188.3,109.5z"/>
	</g>
	<g>
		<path d="M204.2,166c-0.9,0-1.7-0.1-2.6-0.4c-0.8-0.3-1.6-0.7-2.3-1.3c-0.7-0.6-1.2-1.4-1.7-2.4c-0.4-1-0.6-2.1-0.6-3.5V110h5.3
			v47.4c0,1.5,0.2,2.6,0.6,3.2c0.4,0.7,1,1.1,1.8,1.1h0.4c0.5,0,1.2-0.2,1.7-1.1c0.4-0.6,0.6-1.7,0.6-3.2V110h5.3v48.3
			c0,1.4-0.2,2.6-0.6,3.5c-0.4,1-0.9,1.7-1.6,2.3c-0.7,0.6-1.4,1.1-2.3,1.4c-0.9,0.3-1.7,0.5-2.6,0.5H204.2z"/>
		<path d="M212.2,110.5v47.8c0,1.3-0.2,2.4-0.6,3.3c-0.4,0.9-0.9,1.6-1.5,2.1c-0.6,0.6-1.3,1-2.1,1.3c-0.8,0.3-1.6,0.4-2.5,0.4h-1.4
			c-0.8,0-1.6-0.1-2.4-0.4c-0.8-0.2-1.5-0.7-2.1-1.2c-0.6-0.6-1.1-1.3-1.5-2.2c-0.4-0.9-0.6-2-0.6-3.3v-47.8h4.3v46.9
			c0,1.6,0.2,2.7,0.6,3.4c0.5,0.9,1.3,1.4,2.2,1.4h0.4c0.9,0,1.7-0.5,2.2-1.4c0.4-0.7,0.6-1.8,0.6-3.4v-46.9H212.2 M213.2,109.5
			h-6.3v47.9c0,1.4-0.2,2.4-0.5,3s-0.8,0.8-1.3,0.8h-0.4c-0.6,0-1.1-0.3-1.4-0.8c-0.3-0.6-0.5-1.5-0.5-3v-47.9h-6.3v48.8
			c0,1.5,0.2,2.7,0.7,3.7c0.5,1,1,1.9,1.8,2.5c0.7,0.7,1.5,1.2,2.5,1.5c0.9,0.3,1.8,0.4,2.7,0.4h1.4c1,0,1.9-0.2,2.8-0.5
			s1.7-0.8,2.5-1.5c0.7-0.6,1.3-1.5,1.7-2.5c0.4-1,0.6-2.3,0.6-3.7V109.5L213.2,109.5z"/>
	</g>
	<g>
		<path d="M223.1,175.2c-0.5,0-1,0-1.4-0.1c-0.9-0.2-1.6-0.4-2.2-0.8l0.4-1.9c0.4,0.2,0.8,0.3,1.3,0.4c0.5,0.1,1,0.2,1.4,0.2
			c0.2,0,0.5,0,0.7,0c0.7-0.1,1.2-0.3,1.7-0.7c0.5-0.4,0.7-1,0.7-1.7c-0.1-0.5-0.4-1.1-1.2-1.5l0.9-0.5c0.4-0.2,0.8-0.3,1.3-0.3
			c0.4,0,0.8,0.1,1.1,0.3c0.7,0.4,1.1,1,1.1,1.9c0,1.3-0.4,2.3-1.1,3c-0.8,0.7-1.7,1.2-2.8,1.4C224.3,175.2,223.7,175.2,223.1,175.2
			z M221.4,169.1l1.1-2.1h0.1l0-0.2l0-0.1l0,0l0-0.8c-1.7-0.1-3.2-0.8-4.5-2c-1.3-1.2-2-3.1-2-5.7v-41.2c0-1.4,0.2-2.6,0.6-3.5
			c0.4-0.9,0.9-1.7,1.6-2.3c0.7-0.6,1.5-1.1,2.3-1.4c0.9-0.3,1.7-0.5,2.6-0.5h1.5c0.9,0,1.7,0.2,2.6,0.5c0.9,0.3,1.6,0.8,2.3,1.4
			c0.7,0.6,1.2,1.4,1.6,2.3c0.4,1,0.6,2.1,0.6,3.5v14.6h-5.3v-13.7c0-1.5-0.2-2.5-0.6-3.2c-0.4-0.7-1-1.1-1.8-1.1h-0.3
			c-0.8,0-1.4,0.4-1.8,1.1c-0.4,0.6-0.6,1.7-0.6,3.2v39.2c0,1.5,0.2,2.5,0.6,3.2c0.4,0.7,1,1.1,1.8,1.1h0.3c0.8,0,1.4-0.4,1.8-1.1
			c0.4-0.6,0.6-1.7,0.6-3.2v-13.7h5.3v14.7c0,2.6-0.7,4.5-2,5.7c-1.4,1.2-2.9,1.9-4.5,2l0,0.4l-1,2.7c-0.1,0-0.1,0-0.2-0.1
			c-0.2-0.1-0.5-0.1-0.7-0.1c-0.5,0-0.9,0.1-1.3,0.3L221.4,169.1z"/>
		<path d="M224.7,110c0.8,0,1.6,0.1,2.4,0.4c0.8,0.3,1.5,0.7,2.1,1.3c0.6,0.5,1.1,1.3,1.5,2.1c0.4,0.9,0.6,2,0.6,3.3v14.1H227v-13.2
			c0-1.6-0.2-2.7-0.6-3.4c-0.5-0.8-1.3-1.3-2.2-1.3h-0.3c-0.9,0-1.7,0.5-2.2,1.4c-0.4,0.7-0.6,1.9-0.6,3.4v39.2
			c0,1.6,0.2,2.7,0.6,3.4c0.5,0.9,1.3,1.4,2.2,1.4h0.3c0.9,0,1.7-0.5,2.2-1.4c0.4-0.7,0.6-1.8,0.6-3.4v-13.2h4.3v14.2
			c0,2.4-0.6,4.2-1.8,5.3c-1.3,1.2-2.7,1.8-4.2,1.9l0,0.8l-0.4-0.2l-0.6,1.8l-0.2,0.6c-0.2,0-0.4-0.1-0.6-0.1
			c-0.4,0-0.7,0.1-1.1,0.2l0.9-1.7l-0.5-0.2l0-1.2c-1.6-0.1-3-0.7-4.2-1.9c-1.2-1.1-1.8-2.9-1.8-5.3v-41.2c0-1.3,0.2-2.4,0.6-3.3
			c0.4-0.9,0.9-1.6,1.5-2.1c0.6-0.6,1.3-1,2.1-1.3c0.8-0.3,1.6-0.4,2.4-0.4H224.7 M226.5,168.9c0.3,0,0.6,0.1,0.9,0.2
			c0.4,0.2,0.8,0.5,0.8,1.5c0,1.2-0.3,2-1,2.6c-0.7,0.7-1.6,1.1-2.5,1.3c-0.6,0.1-1.1,0.2-1.7,0.2c-0.4,0-0.9,0-1.4-0.1
			c-0.7-0.1-1.3-0.3-1.7-0.5l0.2-0.9c0.2,0.1,0.5,0.2,0.8,0.2c0.5,0.1,1,0.2,1.5,0.2c0.3,0,0.5,0,0.7,0c0.8-0.1,1.4-0.4,1.9-0.8
			c0.6-0.5,0.9-1.3,0.9-2.1l0,0l0,0c-0.1-0.5-0.3-0.9-0.7-1.3l0.1-0.1C225.9,169,226.2,168.9,226.5,168.9 M224.7,109h-1.5
			c-0.9,0-1.8,0.2-2.7,0.5c-0.9,0.3-1.7,0.8-2.5,1.5c-0.7,0.6-1.3,1.5-1.7,2.5c-0.4,1-0.6,2.3-0.6,3.7v41.2c0,2.7,0.7,4.8,2.2,6.1
			c1.5,1.3,3.1,2,4.9,2.1h-0.4l-1.5,2.9l1.3,0.5c0.4-0.3,0.8-0.4,1.3-0.4c0.2,0,0.4,0,0.6,0.1c0.7,0.2,1.1,0.5,1.2,1.1
			c0.1,0.5-0.1,1-0.5,1.3c-0.4,0.3-0.9,0.5-1.5,0.6c-0.2,0-0.4,0-0.6,0c-0.4,0-0.8-0.1-1.3-0.2c-0.7-0.2-1.3-0.4-1.7-0.7l-0.6,2.8
			c0.6,0.5,1.5,0.9,2.6,1.1c0.5,0.1,1,0.1,1.5,0.1c0.6,0,1.3-0.1,1.9-0.2c1.1-0.2,2.1-0.8,3-1.5c0.9-0.8,1.3-1.9,1.3-3.4
			c0-1.1-0.5-1.9-1.4-2.4c-0.4-0.2-0.9-0.3-1.4-0.3c-0.5,0-1,0.1-1.5,0.4l0.6-1.8h-0.5c1.8-0.1,3.4-0.8,4.9-2.1
			c1.5-1.3,2.2-3.3,2.2-6.1v-15.2H226v14.2c0,1.4-0.2,2.4-0.5,3s-0.8,0.8-1.4,0.8h-0.3c-0.6,0-1.1-0.3-1.4-0.8s-0.5-1.5-0.5-3v-39.2
			c0-1.4,0.2-2.4,0.5-3c0.3-0.6,0.8-0.8,1.4-0.8h0.3c0.6,0,1.1,0.3,1.4,0.8c0.3,0.5,0.5,1.5,0.5,2.9v14.2h6.3v-15.1
			c0-1.5-0.2-2.7-0.6-3.7c-0.4-1-1-1.9-1.7-2.5c-0.7-0.6-1.5-1.1-2.5-1.5C226.5,109.2,225.6,109,224.7,109L224.7,109z"/>
	</g>
	<g>
		<path d="M246.5,165.5l-1.3-15h-5.4l-1.2,15h-4.4l4.9-55.5h7.2l5.2,55.5H246.5z M240.2,146.9h4.7l-1.8-20.4H242L240.2,146.9z
			 M245.8,104.8c-0.9,0-1.7-0.2-2.4-0.7c-0.9-0.5-1.8-0.8-2.6-0.8c-0.5,0-1,0.1-1.4,0.3c-0.3,0.1-0.7,0.4-1.1,0.7l-1.9-1.3
			c0.4-0.8,0.9-1.4,1.5-1.7c0.6-0.4,1.2-0.6,1.8-0.6c0.8,0,1.6,0.2,2.4,0.7c0.9,0.6,1.9,0.8,3,0.8c0.7,0,1.4-0.3,2.2-1l2.1,1.4
			c-0.5,0.8-1,1.3-1.6,1.6C247.1,104.6,246.5,104.8,245.8,104.8z"/>
		<path d="M239.7,101.2c0.7,0,1.4,0.2,2.1,0.6c1,0.6,2.1,0.9,3.2,0.9c0.7,0,1.5-0.3,2.2-0.9l1.3,0.9c-0.4,0.5-0.7,0.9-1.1,1.1
			c-0.5,0.3-1.1,0.5-1.6,0.5c-0.8,0-1.5-0.2-2.2-0.6c-1-0.6-1.9-0.9-2.9-0.9c-0.6,0-1.1,0.1-1.6,0.3c-0.3,0.1-0.6,0.3-0.9,0.5
			l-1.2-0.8c0.3-0.5,0.7-0.9,1.1-1.2C238.7,101.4,239.2,101.2,239.7,101.2 M245.9,110.5l5.1,54.5h-4l-1.2-14l-0.1-0.9h-0.9h-4.4
			h-0.9l-0.1,0.9l-1.1,14h-3.4l4.8-54.5H245.9 M239.7,147.4h1.1h3.6h1.1l-0.1-1.1l-1.7-19.4l-0.1-0.9h-0.9h-0.2h-0.9l-0.1,0.9
			l-1.7,19.4L239.7,147.4 M239.7,100.2c-0.7,0-1.4,0.2-2.1,0.7c-0.7,0.5-1.3,1.2-1.8,2.3l2.6,1.8c0.4-0.4,0.8-0.7,1.2-0.9
			c0.4-0.2,0.8-0.2,1.2-0.2c0.8,0,1.5,0.2,2.3,0.7c0.8,0.5,1.7,0.7,2.7,0.7c0.8,0,1.5-0.2,2.1-0.6c0.7-0.4,1.3-1.1,2-2.2l-2.8-1.9
			c-0.8,0.8-1.5,1.1-2.1,1.1c-1,0-1.9-0.3-2.7-0.8C241.5,100.5,240.6,100.2,239.7,100.2L239.7,100.2z M246.8,109.5h-8.1l-5,56.5h5.4
			l1.2-15h4.4l1.3,15h6.1L246.8,109.5L246.8,109.5z M240.8,146.4l1.7-19.4h0.2l1.7,19.4H240.8L240.8,146.4z"/>
	</g>
	<g>
		<path d="M261.1,166c-0.9,0-1.7-0.2-2.6-0.5c-0.8-0.3-1.6-0.8-2.3-1.4c-0.7-0.6-1.2-1.4-1.6-2.3c-0.4-1-0.6-2.1-0.6-3.5v-41.2
			c0-1.4,0.2-2.6,0.6-3.5c0.4-0.9,0.9-1.7,1.6-2.3c0.7-0.6,1.5-1.1,2.3-1.4c0.9-0.3,1.7-0.5,2.6-0.5h1.5c0.9,0,1.7,0.2,2.6,0.5
			c0.9,0.3,1.6,0.8,2.3,1.4c0.7,0.6,1.2,1.4,1.6,2.3c0.4,1,0.6,2.1,0.6,3.5v41.2c0,1.4-0.2,2.6-0.6,3.5c-0.4,1-0.9,1.7-1.6,2.3
			c-0.7,0.6-1.4,1.1-2.3,1.4c-0.9,0.3-1.7,0.5-2.6,0.5H261.1z M261.7,113.8c-1.6,0-2.4,1.4-2.4,4.3v39.2c0,1.5,0.2,2.5,0.6,3.2
			c0.4,0.7,1,1.1,1.8,1.1h0.3c0.8,0,1.4-0.4,1.8-1.1c0.4-0.6,0.6-1.7,0.6-3.2v-39.2c0-2.9-0.8-4.3-2.4-4.3H261.7z"/>
		<path d="M262.6,110c0.8,0,1.6,0.1,2.4,0.4c0.8,0.3,1.5,0.7,2.1,1.3c0.6,0.5,1.1,1.3,1.5,2.1c0.4,0.9,0.6,2,0.6,3.3v41.2
			c0,1.3-0.2,2.4-0.6,3.3c-0.4,0.9-0.9,1.6-1.5,2.1c-0.6,0.6-1.3,1-2.1,1.3c-0.8,0.3-1.6,0.4-2.4,0.4h-1.5c-0.8,0-1.6-0.1-2.4-0.4
			c-0.8-0.3-1.5-0.7-2.1-1.3c-0.6-0.5-1.1-1.3-1.5-2.1c-0.4-0.9-0.6-2-0.6-3.3v-41.2c0-1.3,0.2-2.4,0.6-3.3c0.4-0.9,0.9-1.6,1.5-2.1
			c0.6-0.6,1.3-1,2.1-1.3c0.8-0.3,1.6-0.4,2.4-0.4H262.6 M261.7,162.2h0.3c0.9,0,1.7-0.5,2.2-1.4c0.4-0.7,0.6-1.8,0.6-3.4v-39.2
			c0-4-1.6-4.8-2.9-4.8h-0.3c-1.3,0-2.9,0.8-2.9,4.8v39.2c0,1.6,0.2,2.7,0.6,3.4C259.9,161.7,260.7,162.2,261.7,162.2 M262.6,109
			h-1.5c-0.9,0-1.8,0.2-2.7,0.5c-0.9,0.3-1.7,0.8-2.5,1.5c-0.7,0.6-1.3,1.5-1.7,2.5c-0.4,1-0.6,2.3-0.6,3.7v41.2
			c0,1.5,0.2,2.7,0.6,3.7c0.4,1,1,1.9,1.7,2.5c0.7,0.6,1.5,1.1,2.5,1.5c0.9,0.3,1.8,0.5,2.7,0.5h1.5c0.9,0,1.8-0.2,2.7-0.5
			c0.9-0.3,1.7-0.8,2.5-1.5c0.7-0.6,1.3-1.5,1.7-2.5c0.4-1,0.6-2.3,0.6-3.7v-41.2c0-1.5-0.2-2.7-0.6-3.7c-0.4-1-1-1.9-1.7-2.5
			c-0.7-0.6-1.5-1.1-2.5-1.5C264.4,109.2,263.5,109,262.6,109L262.6,109z M261.7,161.2c-0.6,0-1.1-0.3-1.4-0.8s-0.5-1.5-0.5-3v-39.2
			c0-2.5,0.6-3.8,1.9-3.8h0.3c1.2,0,1.9,1.3,1.9,3.8v39.2c0,1.4-0.2,2.4-0.5,3s-0.8,0.8-1.4,0.8H261.7L261.7,161.2z"/>
	</g>
	<g>
		<rect x="281.9" y="110" width="5.3" height="55.5"/>
		<path d="M286.7,110.5V165h-4.3v-54.5H286.7 M287.7,109.5h-6.3V166h6.3V109.5L287.7,109.5z"/>
	</g>
	<g>
		<polygon points="302.8,165.5 296.1,128.6 295,128.6 295,165.5 290.7,165.5 290.7,110 296.9,110 303.2,145.8 304.2,145.7 
			304.2,110 308.9,110 308.9,165.5 		"/>
		<path d="M308.4,110.5V165h-5.2l-6.6-36.1l-0.1-0.8h-0.8h-0.2h-1v1v36h-3.3v-54.5h5.3l6.2,35.4l2-0.2v-35.2H308.4 M309.4,109.5
			h-5.7v36.2l-6.3-36.2h-7.1V166h5.3v-37h0.2l6.7,37h7V109.5L309.4,109.5z"/>
	</g>
	<g>
		<path d="M312.4,165.5V110h8.5c0.9,0,1.8,0.1,2.7,0.4c0.8,0.3,1.6,0.7,2.3,1.3c0.7,0.6,1.2,1.4,1.6,2.3c0.4,0.9,0.6,2.1,0.6,3.5
			V158c0,1.4-0.2,2.6-0.6,3.5c-0.4,0.9-0.9,1.7-1.6,2.3c-0.7,0.6-1.4,1-2.3,1.3c-0.9,0.3-1.8,0.4-2.7,0.4H312.4z M317.7,161.2h2.8
			c0.7,0,1.3-0.3,1.7-1c0.4-0.6,0.6-1.6,0.6-3.1v-38.6c0-1.5-0.2-2.5-0.6-3.1c-0.5-0.9-1.2-1.1-1.7-1.1h-2.8V161.2z"/>
		<path d="M320.9,110.5c0.9,0,1.7,0.1,2.5,0.4c0.8,0.3,1.5,0.7,2.1,1.2c0.6,0.5,1.1,1.3,1.5,2.1c0.4,0.9,0.6,2,0.6,3.3V158
			c0,1.3-0.2,2.4-0.6,3.3c-0.4,0.9-0.9,1.6-1.5,2.1c-0.6,0.6-1.3,1-2.1,1.2c-0.8,0.3-1.6,0.4-2.5,0.4h-8v-54.5H320.9 M317.2,161.7h1
			h2.3c0.9,0,1.6-0.4,2.1-1.2c0.4-0.7,0.6-1.8,0.6-3.4v-38.6c0-1.6-0.2-2.6-0.6-3.3c-0.5-0.8-1.3-1.3-2.2-1.3h-2.3h-1v1v45.8V161.7
			 M320.9,109.5h-9V166h9c1,0,1.9-0.1,2.8-0.4c0.9-0.3,1.7-0.8,2.5-1.4c0.7-0.6,1.3-1.5,1.7-2.5c0.4-1,0.6-2.2,0.6-3.7v-40.5
			c0-1.5-0.2-2.7-0.6-3.7c-0.4-1-1-1.8-1.7-2.5c-0.7-0.6-1.5-1.1-2.5-1.4C322.8,109.6,321.9,109.5,320.9,109.5L320.9,109.5z
			 M318.2,160.7v-45.8h2.3c0.5,0,1,0.3,1.3,0.8s0.5,1.5,0.5,2.8V157c0,1.4-0.2,2.4-0.5,2.9c-0.3,0.5-0.8,0.8-1.3,0.8H318.2
			L318.2,160.7z"/>
	</g>
	<g>
		<path d="M338.7,166c-0.9,0-1.7-0.1-2.6-0.4c-0.8-0.3-1.6-0.7-2.3-1.3c-0.7-0.6-1.2-1.4-1.7-2.4c-0.4-1-0.6-2.1-0.6-3.5V110h5.3
			v47.4c0,1.5,0.2,2.6,0.6,3.2c0.4,0.7,1,1.1,1.8,1.1h0.4c0.5,0,1.2-0.2,1.7-1.1c0.4-0.6,0.6-1.7,0.6-3.2V110h5.3v48.3
			c0,1.4-0.2,2.6-0.6,3.5c-0.4,1-0.9,1.7-1.6,2.3c-0.7,0.6-1.4,1.1-2.3,1.4c-0.9,0.3-1.7,0.5-2.6,0.5H338.7z"/>
		<path d="M346.7,110.5v47.8c0,1.3-0.2,2.4-0.6,3.3c-0.4,0.9-0.9,1.6-1.5,2.1c-0.6,0.6-1.3,1-2.1,1.3c-0.8,0.3-1.6,0.4-2.5,0.4h-1.4
			c-0.8,0-1.6-0.1-2.4-0.4c-0.8-0.2-1.5-0.7-2.1-1.2c-0.6-0.6-1.1-1.3-1.5-2.2c-0.4-0.9-0.6-2-0.6-3.3v-47.8h4.3v46.9
			c0,1.6,0.2,2.7,0.6,3.4c0.5,0.9,1.3,1.4,2.2,1.4h0.4c0.9,0,1.7-0.5,2.2-1.4c0.4-0.7,0.6-1.8,0.6-3.4v-46.9H346.7 M347.7,109.5
			h-6.3v47.9c0,1.4-0.2,2.4-0.5,3s-0.8,0.8-1.3,0.8h-0.4c-0.6,0-1.1-0.3-1.4-0.8c-0.3-0.6-0.5-1.5-0.5-3v-47.9h-6.3v48.8
			c0,1.5,0.2,2.7,0.7,3.7c0.5,1,1,1.9,1.8,2.5c0.7,0.7,1.5,1.2,2.5,1.5c0.9,0.3,1.8,0.4,2.7,0.4h1.4c1,0,1.9-0.2,2.8-0.5
			s1.7-0.8,2.5-1.5c0.7-0.6,1.3-1.5,1.7-2.5c0.4-1,0.6-2.3,0.6-3.7V109.5L347.7,109.5z"/>
	</g>
	<g>
		<path d="M358,166c-0.9,0-1.8-0.1-2.7-0.4c-0.8-0.3-1.6-0.7-2.3-1.4c-0.7-0.6-1.3-1.4-1.7-2.4c-0.4-1-0.6-2.1-0.6-3.5v-14.6h4.7
			v13.6c0,1.5,0.2,2.6,0.8,3.3c0.5,0.7,1.2,1,1.9,1h0.3c0.8,0,1.4-0.4,1.9-1.1c0.5-0.7,0.7-1.7,0.7-3.2v-6.8c0-2.7-0.6-5.1-1.7-7
			c-1.1-1.9-2.3-3.8-3.6-5.5c-1.3-1.7-2.5-3.6-3.5-5.4c-1-1.8-1.6-4.1-1.6-6.7v-8.7c0-1.4,0.2-2.6,0.6-3.5c0.4-1,1-1.7,1.7-2.3
			c0.7-0.6,1.4-1.1,2.3-1.4c0.9-0.3,1.7-0.5,2.6-0.5h0.8c0.9,0,1.8,0.2,2.6,0.5c0.8,0.3,1.6,0.8,2.3,1.4c0.7,0.6,1.2,1.4,1.6,2.3
			c0.4,1,0.6,2.1,0.6,3.5v14.5H361v-13.7c0-1.5-0.2-2.5-0.6-3.2c-0.4-0.7-1-1.1-1.8-1.1h-0.3c-0.8,0-1.4,0.4-1.8,1.1
			c-0.4,0.6-0.6,1.7-0.6,3.2v6.8c0,2.7,0.6,5.1,1.7,7c1.1,1.9,2.3,3.7,3.6,5.5c1.3,1.7,2.5,3.6,3.5,5.4c1,1.8,1.6,4.1,1.6,6.7v8.7
			c0,1.4-0.2,2.6-0.6,3.5c-0.4,1-0.9,1.7-1.6,2.3c-0.6,0.6-1.4,1.1-2.3,1.4c-0.9,0.3-1.8,0.5-2.7,0.5H358z"/>
		<path d="M358.6,110c0.8,0,1.7,0.1,2.4,0.4c0.8,0.3,1.5,0.7,2.1,1.3c0.6,0.5,1.1,1.3,1.5,2.1c0.4,0.9,0.6,2,0.6,3.3v14h-3.7v-13.2
			c0-1.6-0.2-2.7-0.6-3.4c-0.5-0.8-1.3-1.3-2.2-1.3h-0.3c-0.9,0-1.7,0.5-2.2,1.4c-0.4,0.7-0.6,1.9-0.6,3.4v6.8
			c0,2.8,0.6,5.3,1.7,7.3c1.1,1.9,2.3,3.8,3.6,5.6c1.3,1.7,2.4,3.5,3.5,5.4c1,1.8,1.5,3.9,1.5,6.4v8.7c0,1.3-0.2,2.4-0.6,3.3
			c-0.4,0.9-0.9,1.6-1.5,2.2c-0.6,0.6-1.3,1-2.1,1.2c-0.8,0.3-1.6,0.4-2.5,0.4H358c-0.9,0-1.7-0.1-2.5-0.4c-0.8-0.3-1.5-0.7-2.1-1.3
			c-0.6-0.6-1.2-1.3-1.6-2.2c-0.4-0.9-0.6-2-0.6-3.3v-14.1h3.7v13.1c0,1.6,0.3,2.8,0.9,3.6c0.8,1,1.7,1.2,2.3,1.2h0.3
			c0.6,0,1.6-0.2,2.3-1.3c0.5-0.7,0.8-1.9,0.8-3.5v-6.8c0-2.8-0.6-5.3-1.7-7.3c-1.1-1.9-2.3-3.8-3.6-5.6c-1.3-1.7-2.4-3.5-3.5-5.4
			c-1-1.8-1.5-3.9-1.5-6.4v-8.7c0-1.3,0.2-2.4,0.6-3.3c0.4-0.9,0.9-1.6,1.5-2.2c0.6-0.6,1.3-1,2.1-1.3c0.8-0.3,1.6-0.4,2.4-0.4
			H358.6 M358.6,109h-0.8c-0.9,0-1.8,0.2-2.7,0.5c-0.9,0.3-1.7,0.8-2.5,1.5c-0.7,0.6-1.3,1.5-1.8,2.5c-0.5,1-0.7,2.3-0.7,3.7v8.7
			c0,2.7,0.5,5,1.6,6.9c1.1,1.9,2.3,3.7,3.6,5.5c1.3,1.8,2.5,3.6,3.6,5.5c1.1,1.9,1.6,4.2,1.6,6.8v6.8c0,1.4-0.2,2.4-0.6,3
			s-0.9,0.8-1.5,0.8h-0.3c-0.6,0-1.1-0.3-1.5-0.8c-0.4-0.6-0.6-1.5-0.6-3v-14.1h-5.7v15.1c0,1.5,0.2,2.7,0.7,3.7
			c0.5,1,1.1,1.9,1.8,2.5c0.8,0.7,1.6,1.2,2.5,1.5c0.9,0.3,1.9,0.4,2.8,0.4h1.2c1,0,1.9-0.2,2.8-0.5c0.9-0.3,1.7-0.8,2.4-1.5
			c0.7-0.6,1.3-1.5,1.7-2.5c0.4-1,0.6-2.3,0.6-3.7v-8.7c0-2.7-0.5-5-1.6-6.9c-1.1-1.9-2.3-3.7-3.6-5.5s-2.5-3.6-3.6-5.5
			c-1.1-1.9-1.6-4.2-1.6-6.8v-6.8c0-1.4,0.2-2.4,0.5-3c0.3-0.6,0.8-0.8,1.4-0.8h0.3c0.6,0,1.1,0.3,1.4,0.8c0.3,0.5,0.5,1.5,0.5,2.9
			v14.2h5.7v-15c0-1.5-0.2-2.7-0.6-3.7c-0.4-1-1-1.9-1.7-2.5c-0.7-0.6-1.5-1.1-2.4-1.5S359.6,109,358.6,109L358.6,109z"/>
	</g>
	<g>
		<polygon points="374.3,165.5 374.3,114.3 368.8,114.3 368.8,110 385,110 385,114.3 379.6,114.3 379.6,165.5 		"/>
		<path d="M384.5,110.5v3.3h-4.4h-1v1V165h-4.3v-50.2v-1h-1h-4.5v-3.3H384.5 M385.5,109.5h-17.2v5.3h5.5V166h6.3v-51.2h5.4V109.5
			L385.5,109.5z"/>
	</g>
	<g>
		<path d="M398.6,165.5c-0.3-0.6-0.5-1.6-0.6-2.9c-0.1-1.6-0.2-3.8-0.2-6.7v-12.1c0-2.7-0.7-4.1-2.1-4.1h-2.9v25.9h-5.3V110h8.6
			c2,0,3.6,0.6,5,2c1.4,1.3,2.1,3.2,2.1,5.6v14.7c0,1.6-0.2,2.8-0.7,3.6c-0.5,0.7-1,1.2-1.7,1.5l-1.6,0.5l1.6,0.4
			c0.7,0.2,1.2,0.6,1.7,1.4c0.5,0.8,0.7,2,0.7,3.6v12.7c0,1.8,0,3.4,0.1,4.6c0.1,1.3,0.2,2.3,0.3,3.1c0.1,0.8,0.2,1.4,0.3,1.8
			c0,0,0,0.1,0,0.1H398.6z M392.8,136h2.9c1.4,0,2.1-1.4,2.1-4.1v-13.3c0-2.8-0.8-4.2-2.4-4.2h-2.7V136z"/>
		<path d="M396.1,110.5c1.8,0,3.4,0.6,4.7,1.8c1.3,1.2,1.9,2.9,1.9,5.3v14.7c0,1.9-0.3,2.8-0.6,3.3c-0.4,0.6-0.9,1.1-1.5,1.2l-3.1,1
			l3.2,0.9c0.6,0.2,1,0.5,1.4,1.1c0.3,0.5,0.6,1.4,0.6,3.3v12.7c0,1.9,0,3.4,0.1,4.7c0.1,1.3,0.2,2.3,0.3,3.1c0.1,0.5,0.1,1,0.2,1.3
			H399c-0.2-0.5-0.3-1.2-0.4-2.4c-0.1-1.5-0.2-3.8-0.2-6.7v-12.1c0-3.1-0.9-4.6-2.6-4.6h-2.4h-1v1V165H388v-54.5H396.1 M392.3,136.5
			h1h2.4c1.2,0,2.6-0.8,2.6-4.6v-13.3c0-3.9-1.6-4.7-2.9-4.7h-2.2h-1v1v20.6V136.5 M396.1,109.5H387V166h6.3v-25.9h2.4
			c1.1,0,1.6,1.2,1.6,3.6v12.1c0,2.9,0.1,5.2,0.2,6.8c0.1,1.6,0.4,2.7,0.8,3.4h6.3c-0.1-0.1-0.1-0.3-0.2-0.7c-0.1-0.4-0.2-1-0.3-1.7
			c-0.1-0.8-0.2-1.8-0.3-3c-0.1-1.2-0.1-2.8-0.1-4.6v-12.7c0-1.7-0.3-3-0.8-3.8c-0.5-0.8-1.2-1.4-2-1.6c0.8-0.3,1.5-0.8,2-1.7
			c0.5-0.8,0.8-2.1,0.8-3.8v-14.7c0-2.6-0.7-4.6-2.2-6C400,110.2,398.2,109.5,396.1,109.5L396.1,109.5z M393.3,135.5v-20.6h2.2
			c1.2,0,1.9,1.2,1.9,3.7v13.3c0,2.4-0.5,3.6-1.6,3.6H393.3L393.3,135.5z"/>
	</g>
	<g>
		<rect x="407.2" y="110" width="5.3" height="55.5"/>
		<path d="M412,110.5V165h-4.3v-54.5H412 M413,109.5h-6.3V166h6.3V109.5L413,109.5z"/>
	</g>
	<g>
		<path d="M427.4,165.5l-1.3-15h-5.4l-1.2,15h-4.4l4.9-55.5h7.2l5.2,55.5H427.4z M421.1,146.9h4.7l-1.8-20.4h-1.2L421.1,146.9z"/>
		<path d="M426.8,110.5l5.1,54.5h-4l-1.2-14l-0.1-0.9h-0.9h-4.4h-0.9l-0.1,0.9l-1.1,14h-3.4l4.8-54.5H426.8 M420.5,147.4h1.1h3.6
			h1.1l-0.1-1.1l-1.7-19.4l-0.1-0.9h-0.9h-0.2h-0.9l-0.1,0.9l-1.7,19.4L420.5,147.4 M427.7,109.5h-8.1l-5,56.5h5.4l1.2-15h4.4
			l1.3,15h6.1L427.7,109.5L427.7,109.5z M421.6,146.4l1.7-19.4h0.2l1.7,19.4H421.6L421.6,146.4z"/>
	</g>
	<g>
		<polygon points="435,165.5 435,110 440.3,110 440.3,161.7 447,161.7 447,165.5 		"/>
		<path d="M439.8,110.5v50.7v1h1h5.7v2.8h-11v-54.5H439.8 M440.8,109.5h-6.3V166h13v-4.8h-6.7V109.5L440.8,109.5z"/>
	</g>
</g>
<path class="st0" d="M1008.8,83v107h-371V83H1008.8 M1009.8,82h-373v109h373V82L1009.8,82z"/>
<g>
	<path class="st1" d="M694.5,140.3h8.4v22.9h-3.1l-0.7-1.9c-1.7,1.6-3.3,2.3-4.8,2.3h-0.5c-0.9,0-1.8-0.2-2.7-0.5
		c-0.9-0.3-1.7-0.8-2.5-1.5c-0.7-0.6-1.3-1.5-1.7-2.5c-0.4-1-0.6-2.3-0.6-3.7v-41.2c0-1.5,0.2-2.7,0.6-3.7c0.4-1,1-1.9,1.7-2.5
		c0.7-0.6,1.5-1.1,2.5-1.5c0.9-0.3,1.8-0.5,2.7-0.5h1.5c0.9,0,1.8,0.2,2.7,0.5c0.9,0.3,1.7,0.8,2.5,1.5c0.7,0.6,1.3,1.5,1.7,2.5
		c0.4,1,0.6,2.3,0.6,3.7v15.1h-6.3v-14.2c0-1.4-0.2-2.4-0.5-2.9c-0.3-0.5-0.8-0.8-1.4-0.8h-0.3c-0.6,0-1.1,0.3-1.4,0.8
		c-0.3,0.6-0.5,1.6-0.5,3v39.2c0,1.4,0.2,2.4,0.5,3s0.8,0.8,1.4,0.8h0.3c0.6,0,1.1-0.3,1.4-0.8s0.5-1.5,0.5-3v-8.9h-2.1V140.3z"/>
	<path class="st1" d="M713,163.6c-0.9,0-1.8-0.1-2.7-0.4c-0.9-0.3-1.7-0.8-2.5-1.5c-0.7-0.7-1.3-1.5-1.8-2.5c-0.5-1-0.7-2.3-0.7-3.7
		v-48.8h6.3v47.9c0,1.4,0.2,2.4,0.5,3c0.3,0.6,0.8,0.8,1.4,0.8h0.4c0.5,0,1-0.3,1.3-0.8s0.5-1.5,0.5-3v-47.9h6.3v48.8
		c0,1.5-0.2,2.7-0.6,3.7c-0.4,1-1,1.9-1.7,2.5c-0.7,0.6-1.5,1.1-2.5,1.5s-1.9,0.5-2.8,0.5H713z"/>
	<path class="st1" d="M730.9,112v20.5h5.5v4.8h-5.5v20.5h7.5v5.3h-13.8v-56.5h13.3v5.3H730.9z"/>
	<path class="st1" d="M757,129.4c0,1.7-0.3,3-0.8,3.8c-0.5,0.8-1.2,1.4-2,1.7c0.8,0.2,1.5,0.7,2,1.6c0.5,0.8,0.8,2.1,0.8,3.8v12.7
		c0,1.8,0,3.4,0.1,4.6c0.1,1.2,0.2,2.3,0.3,3c0.1,0.8,0.2,1.4,0.3,1.7c0.1,0.4,0.2,0.6,0.2,0.7h-6.3c-0.4-0.6-0.6-1.8-0.8-3.4
		c-0.1-1.6-0.2-3.8-0.2-6.8v-12.1c0-2.4-0.5-3.6-1.6-3.6h-2.4v25.9h-6.3v-56.5h9.1c2.1,0,3.9,0.7,5.4,2.1c1.5,1.4,2.2,3.4,2.2,6
		V129.4z M749.1,132.6c1.1,0,1.6-1.2,1.6-3.6v-13.3c0-2.5-0.6-3.7-1.9-3.7h-2.2v20.6H749.1z"/>
	<path class="st1" d="M776.7,129.4c0,1.7-0.3,3-0.8,3.8c-0.5,0.8-1.2,1.4-2,1.7c0.8,0.2,1.5,0.7,2,1.6c0.5,0.8,0.8,2.1,0.8,3.8v12.7
		c0,1.8,0,3.4,0.1,4.6c0.1,1.2,0.2,2.3,0.3,3c0.1,0.8,0.2,1.4,0.3,1.7c0.1,0.4,0.2,0.6,0.2,0.7h-6.3c-0.4-0.6-0.6-1.8-0.8-3.4
		c-0.1-1.6-0.2-3.8-0.2-6.8v-12.1c0-2.4-0.5-3.6-1.6-3.6h-2.4v25.9H760v-56.5h9.1c2.1,0,3.9,0.7,5.4,2.1c1.5,1.4,2.2,3.4,2.2,6
		V129.4z M768.8,132.6c1.1,0,1.6-1.2,1.6-3.6v-13.3c0-2.5-0.6-3.7-1.9-3.7h-2.2v20.6H768.8z"/>
	<path class="st1" d="M789.8,148.2h-4.4l-1.2,15h-5.4l5-56.5h8.1l5.3,56.5h-6.1L789.8,148.2z M785.8,143.5h3.6l-1.7-19.4h-0.2
		L785.8,143.5z"/>
	<path class="st1" d="M808.9,129.4v-14.2c0-1.4-0.2-2.4-0.5-2.9c-0.3-0.5-0.8-0.8-1.4-0.8h-0.3c-0.6,0-1.1,0.3-1.4,0.8
		c-0.3,0.6-0.5,1.6-0.5,3v6.8c0,2.6,0.5,4.9,1.6,6.8c1.1,1.9,2.3,3.7,3.6,5.5s2.5,3.6,3.6,5.5c1.1,1.9,1.6,4.2,1.6,6.9v8.7
		c0,1.5-0.2,2.7-0.6,3.7c-0.4,1-1,1.9-1.7,2.5c-0.7,0.6-1.5,1.1-2.4,1.5c-0.9,0.3-1.9,0.5-2.8,0.5h-1.2c-1,0-1.9-0.1-2.8-0.4
		c-0.9-0.3-1.8-0.8-2.5-1.5c-0.8-0.7-1.4-1.5-1.8-2.5c-0.5-1-0.7-2.3-0.7-3.7v-15.1h5.7v14.1c0,1.4,0.2,2.4,0.6,3
		c0.4,0.6,0.9,0.8,1.5,0.8h0.3c0.6,0,1.1-0.3,1.5-0.8s0.6-1.5,0.6-3v-6.8c0-2.6-0.5-4.9-1.6-6.8c-1.1-1.9-2.3-3.7-3.6-5.5
		c-1.3-1.8-2.5-3.6-3.6-5.5c-1.1-1.9-1.6-4.2-1.6-6.9v-8.7c0-1.5,0.2-2.7,0.7-3.7c0.5-1,1.1-1.9,1.8-2.5c0.7-0.6,1.5-1.1,2.5-1.5
		c0.9-0.3,1.8-0.5,2.7-0.5h0.8c1,0,1.9,0.2,2.8,0.5s1.7,0.8,2.4,1.5c0.7,0.6,1.3,1.5,1.7,2.5c0.4,1,0.6,2.3,0.6,3.7v15H808.9z"/>
	<path class="st1" d="M849.7,106.6v56.5h-5.3v-37h-0.1l-4,37h-4.6l-4-37h-0.2v37h-5.3v-56.5h8.2l3.4,32.3h0.2l3.6-32.3H849.7z"/>
	<path class="st1" d="M859.9,163.6c-0.9,0-1.8-0.1-2.7-0.4c-0.9-0.3-1.7-0.8-2.5-1.5c-0.7-0.7-1.3-1.5-1.8-2.5
		c-0.5-1-0.7-2.3-0.7-3.7v-48.8h6.3v47.9c0,1.4,0.2,2.4,0.5,3c0.3,0.6,0.8,0.8,1.4,0.8h0.4c0.5,0,1-0.3,1.3-0.8s0.5-1.5,0.5-3v-47.9
		h6.3v48.8c0,1.5-0.2,2.7-0.6,3.7c-0.4,1-1,1.9-1.7,2.5c-0.7,0.6-1.5,1.1-2.5,1.5s-1.9,0.5-2.8,0.5H859.9z"/>
	<path class="st1" d="M883.5,163.2l-6.7-37h-0.2v37h-5.3v-56.5h7.1l6.3,36.2v-36.2h5.7v56.5H883.5z"/>
	<path class="st1" d="M893,163.2v-56.5h9c1,0,1.9,0.1,2.8,0.4c0.9,0.3,1.7,0.8,2.5,1.4c0.7,0.6,1.3,1.5,1.7,2.5
		c0.4,1,0.6,2.2,0.6,3.7v40.5c0,1.5-0.2,2.7-0.6,3.7c-0.4,1-1,1.8-1.7,2.5c-0.7,0.6-1.5,1.1-2.5,1.4c-0.9,0.3-1.9,0.4-2.8,0.4H893z
		 M899.4,112v45.8h2.3c0.5,0,1-0.3,1.3-0.8c0.3-0.5,0.5-1.5,0.5-2.9v-38.6c0-1.3-0.2-2.3-0.5-2.8s-0.8-0.8-1.3-0.8H899.4z"/>
	<path class="st1" d="M918.5,106.6v56.5h-6.3v-56.5H918.5z"/>
	<path class="st1" d="M931.1,148.2h-4.4l-1.2,15h-5.4l5-56.5h8.1l5.3,56.5h-6.1L931.1,148.2z M927.1,143.5h3.6l-1.7-19.4h-0.2
		L927.1,143.5z"/>
	<path class="st1" d="M946.3,106.6v56.5h-6.3v-56.5H946.3z"/>
	<path class="st1" d="M959.1,129.4v-14.2c0-1.4-0.2-2.4-0.5-2.9c-0.3-0.5-0.8-0.8-1.4-0.8h-0.3c-0.6,0-1.1,0.3-1.4,0.8
		c-0.3,0.6-0.5,1.6-0.5,3v6.8c0,2.6,0.5,4.9,1.6,6.8c1.1,1.9,2.3,3.7,3.6,5.5s2.5,3.6,3.6,5.5c1.1,1.9,1.6,4.2,1.6,6.9v8.7
		c0,1.5-0.2,2.7-0.6,3.7c-0.4,1-1,1.9-1.7,2.5c-0.7,0.6-1.5,1.1-2.4,1.5c-0.9,0.3-1.9,0.5-2.8,0.5h-1.2c-1,0-1.9-0.1-2.8-0.4
		c-0.9-0.3-1.8-0.8-2.5-1.5c-0.8-0.7-1.4-1.5-1.8-2.5c-0.5-1-0.7-2.3-0.7-3.7v-15.1h5.7v14.1c0,1.4,0.2,2.4,0.6,3
		c0.4,0.6,0.9,0.8,1.5,0.8h0.3c0.6,0,1.1-0.3,1.5-0.8s0.6-1.5,0.6-3v-6.8c0-2.6-0.5-4.9-1.6-6.8c-1.1-1.9-2.3-3.7-3.6-5.5
		c-1.3-1.8-2.5-3.6-3.6-5.5c-1.1-1.9-1.6-4.2-1.6-6.9v-8.7c0-1.5,0.2-2.7,0.7-3.7c0.5-1,1.1-1.9,1.8-2.5c0.7-0.6,1.5-1.1,2.5-1.5
		c0.9-0.3,1.8-0.5,2.7-0.5h0.8c1,0,1.9,0.2,2.8,0.5s1.7,0.8,2.4,1.5c0.7,0.6,1.3,1.5,1.7,2.5c0.4,1,0.6,2.3,0.6,3.7v15H959.1z"/>
</g>
<path class="st0" d="M1554.5,83v107h-371V83H1554.5 M1555.5,82h-373v109h373V82L1555.5,82z"/>
<g>
	<path class="st1" d="M1248.7,128.6c0,1.7-0.3,3-0.8,3.8c-0.5,0.8-1.2,1.4-2,1.7c0.8,0.2,1.5,0.7,2,1.6c0.5,0.8,0.8,2.1,0.8,3.8
		v15.8c0,1.4-0.2,2.6-0.6,3.6c-0.4,1-1,1.8-1.7,2.4c-0.7,0.6-1.5,1.1-2.5,1.4c-0.9,0.3-1.9,0.4-2.8,0.4h-9v-56.5h9
		c1,0,1.9,0.2,2.8,0.5s1.7,0.8,2.5,1.5c0.7,0.6,1.3,1.5,1.7,2.5c0.4,1,0.6,2.3,0.6,3.7V128.6z M1240.9,131.8c1,0,1.5-1.2,1.5-3.6
		v-12.5c0-2.5-0.6-3.8-1.8-3.8h-2.3v19.8H1240.9z M1242.4,140c0-2.4-0.5-3.6-1.6-3.6h-2.4v21.3h2.2c1.2,0,1.9-1.2,1.9-3.5V140z"/>
	<path class="st1" d="M1267.8,129.4c0,1.7-0.3,3-0.8,3.8c-0.5,0.8-1.2,1.4-2,1.7c0.8,0.2,1.5,0.7,2,1.6c0.5,0.8,0.8,2.1,0.8,3.8
		v12.7c0,1.8,0,3.4,0.1,4.6c0.1,1.2,0.2,2.3,0.3,3c0.1,0.8,0.2,1.4,0.3,1.7c0.1,0.4,0.2,0.6,0.2,0.7h-6.3c-0.4-0.6-0.6-1.8-0.8-3.4
		c-0.1-1.6-0.2-3.8-0.2-6.8v-12.1c0-2.4-0.5-3.6-1.6-3.6h-2.4v25.9h-6.3v-56.5h9.1c2.1,0,3.9,0.7,5.4,2.1c1.5,1.4,2.2,3.4,2.2,6
		V129.4z M1259.9,132.6c1.1,0,1.6-1.2,1.6-3.6v-13.3c0-2.5-0.6-3.7-1.9-3.7h-2.2v20.6H1259.9z"/>
	<path class="st1" d="M1280.9,148.2h-4.4l-1.2,15h-5.4l5-56.5h8.1l5.3,56.5h-6.1L1280.9,148.2z M1276.9,143.5h3.6l-1.7-19.4h-0.2
		L1276.9,143.5z"/>
	<path class="st1" d="M1300,129.4v-14.2c0-1.4-0.2-2.4-0.5-2.9c-0.3-0.5-0.8-0.8-1.4-0.8h-0.3c-0.6,0-1.1,0.3-1.4,0.8
		c-0.3,0.6-0.5,1.6-0.5,3v6.8c0,2.6,0.5,4.9,1.6,6.8c1.1,1.9,2.3,3.7,3.6,5.5s2.5,3.6,3.6,5.5c1.1,1.9,1.6,4.2,1.6,6.9v8.7
		c0,1.5-0.2,2.7-0.6,3.7c-0.4,1-1,1.9-1.7,2.5c-0.7,0.6-1.5,1.1-2.4,1.5c-0.9,0.3-1.9,0.5-2.8,0.5h-1.2c-1,0-1.9-0.1-2.8-0.4
		c-0.9-0.3-1.8-0.8-2.5-1.5c-0.8-0.7-1.4-1.5-1.8-2.5c-0.5-1-0.7-2.3-0.7-3.7v-15.1h5.7v14.1c0,1.4,0.2,2.4,0.6,3
		c0.4,0.6,0.9,0.8,1.5,0.8h0.3c0.6,0,1.1-0.3,1.5-0.8s0.6-1.5,0.6-3v-6.8c0-2.6-0.5-4.9-1.6-6.8c-1.1-1.9-2.3-3.7-3.6-5.5
		c-1.3-1.8-2.5-3.6-3.6-5.5c-1.1-1.9-1.6-4.2-1.6-6.9v-8.7c0-1.5,0.2-2.7,0.7-3.7c0.5-1,1.1-1.9,1.8-2.5c0.7-0.6,1.5-1.1,2.5-1.5
		c0.9-0.3,1.8-0.5,2.7-0.5h0.8c1,0,1.9,0.2,2.8,0.5s1.7,0.8,2.4,1.5c0.7,0.6,1.3,1.5,1.7,2.5c0.4,1,0.6,2.3,0.6,3.7v15H1300z"/>
	<path class="st1" d="M1315.1,106.6v56.5h-6.3v-56.5H1315.1z"/>
	<path class="st1" d="M1324,106.6v51.7h6.7v4.8h-13v-56.5H1324z"/>
	<path class="st1" d="M1357.1,112h-5.4v51.2h-6.3V112h-5.5v-5.3h17.2V112z"/>
	<path class="st1" d="M1375.3,129.4c0,1.7-0.3,3-0.8,3.8c-0.5,0.8-1.2,1.4-2,1.7c0.8,0.2,1.5,0.7,2,1.6c0.5,0.8,0.8,2.1,0.8,3.8
		v12.7c0,1.8,0,3.4,0.1,4.6c0.1,1.2,0.2,2.3,0.3,3c0.1,0.8,0.2,1.4,0.3,1.7c0.1,0.4,0.2,0.6,0.2,0.7h-6.3c-0.4-0.6-0.6-1.8-0.8-3.4
		c-0.1-1.6-0.2-3.8-0.2-6.8v-12.1c0-2.4-0.5-3.6-1.6-3.6h-2.4v25.9h-6.3v-56.5h9.1c2.1,0,3.9,0.7,5.4,2.1c1.5,1.4,2.2,3.4,2.2,6
		V129.4z M1367.4,132.6c1.1,0,1.6-1.2,1.6-3.6v-13.3c0-2.5-0.6-3.7-1.9-3.7h-2.2v20.6H1367.4z"/>
	<path class="st1" d="M1385.9,163.6c-0.9,0-1.8-0.2-2.7-0.5c-0.9-0.3-1.7-0.8-2.5-1.5c-0.7-0.6-1.3-1.5-1.7-2.5
		c-0.4-1-0.6-2.3-0.6-3.7v-41.2c0-1.5,0.2-2.7,0.6-3.7c0.4-1,1-1.9,1.7-2.5c0.7-0.6,1.5-1.1,2.5-1.5c0.9-0.3,1.8-0.5,2.7-0.5h1.5
		c0.9,0,1.8,0.2,2.7,0.5c0.9,0.3,1.7,0.8,2.5,1.5c0.7,0.6,1.3,1.5,1.7,2.5c0.4,1,0.6,2.3,0.6,3.7v41.2c0,1.5-0.2,2.7-0.6,3.7
		c-0.4,1-1,1.9-1.7,2.5c-0.7,0.6-1.5,1.1-2.5,1.5c-0.9,0.3-1.8,0.5-2.7,0.5H1385.9z M1386.5,111.5c-1.2,0-1.9,1.3-1.9,3.8v39.2
		c0,1.4,0.2,2.4,0.5,3s0.8,0.8,1.4,0.8h0.3c0.6,0,1.1-0.3,1.4-0.8s0.5-1.5,0.5-3v-39.2c0-2.5-0.6-3.8-1.9-3.8H1386.5z"/>
	<path class="st1" d="M1406.6,106.6c2.1,0,3.9,0.7,5.4,2.1c1.5,1.4,2.2,3.4,2.2,6v18.4c0,2.5-0.7,4.2-2.1,5.3
		c-1.4,1.1-3.2,1.6-5.3,1.6h-3.1v23.1h-6.3v-56.5H1406.6z M1407.8,115.7c0-2.5-0.6-3.7-1.9-3.7h-2.2v22.8h2.4c1.1,0,1.6-1.2,1.6-3.6
		V115.7z"/>
	<path class="st1" d="M1423,106.6v56.5h-6.3v-56.5H1423z"/>
	<path class="st1" d="M1433.1,163.6c-0.9,0-1.8-0.2-2.7-0.5c-0.9-0.3-1.7-0.8-2.5-1.5c-0.7-0.6-1.3-1.5-1.7-2.5
		c-0.4-1-0.6-2.3-0.6-3.7v-41.2c0-1.5,0.2-2.7,0.6-3.7c0.4-1,1-1.9,1.7-2.5c0.7-0.6,1.5-1.1,2.5-1.5c0.9-0.3,1.8-0.5,2.7-0.5h1.5
		c0.9,0,1.8,0.2,2.7,0.5c0.9,0.3,1.7,0.8,2.5,1.5c0.7,0.6,1.3,1.5,1.7,2.5c0.4,1,0.6,2.3,0.6,3.7v15.1h-6.3v-14.2
		c0-1.4-0.2-2.4-0.5-2.9c-0.3-0.5-0.8-0.8-1.4-0.8h-0.3c-0.6,0-1.1,0.3-1.4,0.8c-0.3,0.6-0.5,1.6-0.5,3v39.2c0,1.4,0.2,2.4,0.5,3
		s0.8,0.8,1.4,0.8h0.3c0.6,0,1.1-0.3,1.4-0.8s0.5-1.5,0.5-3v-14.2h6.3v15.2c0,1.5-0.2,2.7-0.6,3.7c-0.4,1-1,1.9-1.7,2.5
		c-0.7,0.6-1.5,1.1-2.5,1.5c-0.9,0.3-1.8,0.5-2.7,0.5H1433.1z"/>
	<path class="st1" d="M1454.6,148.2h-4.4l-1.2,15h-5.4l5-56.5h8.1l5.3,56.5h-6.1L1454.6,148.2z M1450.6,143.5h3.6l-1.7-19.4h-0.2
		L1450.6,143.5z M1450.7,103.5l3.1-7h5.6l-4.8,7H1450.7z"/>
	<path class="st1" d="M1469.8,106.6v51.7h6.7v4.8h-13v-56.5H1469.8z"/>
	<path class="st1" d="M1484.3,106.6v56.5h-6.3v-56.5H1484.3z"/>
	<path class="st1" d="M1496.9,148.2h-4.4l-1.2,15h-5.4l5-56.5h8.1l5.3,56.5h-6.1L1496.9,148.2z M1492.9,143.5h3.6l-1.7-19.4h-0.2
		L1492.9,143.5z"/>
</g>
<path class="st0" d="M2100.3,83v107h-371V83H2100.3 M2101.3,82h-373v109h373V82L2101.3,82z"/>
<g>
	<path class="st1" d="M1796.4,148.2h-4.4l-1.2,15h-5.4l5-56.5h8.1l5.3,56.5h-6.1L1796.4,148.2z M1792.4,143.5h3.6l-1.7-19.4h-0.2
		L1792.4,143.5z"/>
	<path class="st1" d="M1821.5,163.6c-0.9,0-1.8-0.2-2.7-0.5c-0.9-0.3-1.7-0.8-2.5-1.5c-0.7-0.6-1.3-1.5-1.7-2.5
		c-0.4-1-0.6-2.3-0.6-3.7v-41.2c0-1.5,0.2-2.7,0.6-3.7c0.4-1,1-1.9,1.7-2.5c0.7-0.6,1.5-1.1,2.5-1.5c0.9-0.3,1.8-0.5,2.7-0.5h1.5
		c0.9,0,1.8,0.2,2.7,0.5c0.9,0.3,1.7,0.8,2.5,1.5c0.7,0.6,1.3,1.5,1.7,2.5c0.4,1,0.6,2.3,0.6,3.7v41.2c0,1.5-0.2,2.8-0.7,3.8
		c-0.5,1-1.1,1.9-1.8,2.5l2.4,2.4l-3.2,3.2l-3.7-3.7h-0.6H1821.5z M1822.1,111.5c-1.2,0-1.9,1.3-1.9,3.8v39.2c0,1.4,0.2,2.4,0.5,3
		s0.8,0.8,1.4,0.8h0.3c0.6,0,1.1-0.3,1.4-0.8s0.5-1.5,0.5-3v-39.2c0-2.5-0.6-3.8-1.9-3.8H1822.1z"/>
	<path class="st1" d="M1840.9,163.6c-0.9,0-1.8-0.1-2.7-0.4c-0.9-0.3-1.7-0.8-2.5-1.5c-0.7-0.7-1.3-1.5-1.8-2.5
		c-0.5-1-0.7-2.3-0.7-3.7v-48.8h6.3v47.9c0,1.4,0.2,2.4,0.5,3c0.3,0.6,0.8,0.8,1.4,0.8h0.4c0.5,0,1-0.3,1.3-0.8s0.5-1.5,0.5-3v-47.9
		h6.3v48.8c0,1.5-0.2,2.7-0.6,3.7c-0.4,1-1,1.9-1.7,2.5c-0.7,0.6-1.5,1.1-2.5,1.5s-1.9,0.5-2.8,0.5H1840.9z"/>
	<path class="st1" d="M1858.7,112v20.5h5.5v4.8h-5.5v20.5h7.5v5.3h-13.8v-56.5h13.3v5.3H1858.7z"/>
	<path class="st1" d="M1868.1,163.2v-56.5h9c1,0,1.9,0.1,2.8,0.4c0.9,0.3,1.7,0.8,2.5,1.4c0.7,0.6,1.3,1.5,1.7,2.5
		c0.4,1,0.6,2.2,0.6,3.7v40.5c0,1.5-0.2,2.7-0.6,3.7c-0.4,1-1,1.8-1.7,2.5c-0.7,0.6-1.5,1.1-2.5,1.4c-0.9,0.3-1.9,0.4-2.8,0.4
		H1868.1z M1874.4,112v45.8h2.3c0.5,0,1-0.3,1.3-0.8c0.3-0.5,0.5-1.5,0.5-2.9v-38.6c0-1.3-0.2-2.3-0.5-2.8s-0.8-0.8-1.3-0.8H1874.4z
		"/>
	<path class="st1" d="M1897.3,148.2h-4.4l-1.2,15h-5.4l5-56.5h8.1l5.3,56.5h-6.1L1897.3,148.2z M1893.3,143.5h3.6l-1.7-19.4h-0.2
		L1893.3,143.5z"/>
	<path class="st1" d="M1914.9,163.2v-56.5h9c1,0,1.9,0.1,2.8,0.4c0.9,0.3,1.7,0.8,2.5,1.4c0.7,0.6,1.3,1.5,1.7,2.5
		c0.4,1,0.6,2.2,0.6,3.7v40.5c0,1.5-0.2,2.7-0.6,3.7c-0.4,1-1,1.8-1.7,2.5c-0.7,0.6-1.5,1.1-2.5,1.4c-0.9,0.3-1.9,0.4-2.8,0.4
		H1914.9z M1921.2,112v45.8h2.3c0.5,0,1-0.3,1.3-0.8c0.3-0.5,0.5-1.5,0.5-2.9v-38.6c0-1.3-0.2-2.3-0.5-2.8s-0.8-0.8-1.3-0.8H1921.2z
		"/>
	<path class="st1" d="M1941.6,163.6c-0.9,0-1.8-0.2-2.7-0.5c-0.9-0.3-1.7-0.8-2.5-1.5c-0.7-0.6-1.3-1.5-1.7-2.5
		c-0.4-1-0.6-2.3-0.6-3.7v-41.2c0-1.5,0.2-2.7,0.6-3.7c0.4-1,1-1.9,1.7-2.5c0.7-0.6,1.5-1.1,2.5-1.5c0.9-0.3,1.8-0.5,2.7-0.5h1.5
		c0.9,0,1.8,0.2,2.7,0.5c0.9,0.3,1.7,0.8,2.5,1.5c0.7,0.6,1.3,1.5,1.7,2.5c0.4,1,0.6,2.3,0.6,3.7v41.2c0,1.5-0.2,2.7-0.6,3.7
		c-0.4,1-1,1.9-1.7,2.5c-0.7,0.6-1.5,1.1-2.5,1.5c-0.9,0.3-1.8,0.5-2.7,0.5H1941.6z M1942.1,111.5c-1.2,0-1.9,1.3-1.9,3.8v39.2
		c0,1.4,0.2,2.4,0.5,3s0.8,0.8,1.4,0.8h0.3c0.6,0,1.1-0.3,1.4-0.8s0.5-1.5,0.5-3v-39.2c0-2.5-0.6-3.8-1.9-3.8H1942.1z"/>
	<path class="st1" d="M1985.1,106.6v56.5h-5.3v-37h-0.1l-4,37h-4.6l-4-37h-0.2v37h-5.3v-56.5h8.2l3.4,32.3h0.2l3.6-32.3H1985.1z"/>
	<path class="st1" d="M1995.4,163.6c-0.9,0-1.8-0.1-2.7-0.4c-0.9-0.3-1.7-0.8-2.5-1.5c-0.7-0.7-1.3-1.5-1.8-2.5
		c-0.5-1-0.7-2.3-0.7-3.7v-48.8h6.3v47.9c0,1.4,0.2,2.4,0.5,3c0.3,0.6,0.8,0.8,1.4,0.8h0.4c0.5,0,1-0.3,1.3-0.8s0.5-1.5,0.5-3v-47.9
		h6.3v48.8c0,1.5-0.2,2.7-0.6,3.7c-0.4,1-1,1.9-1.7,2.5c-0.7,0.6-1.5,1.1-2.5,1.5s-1.9,0.5-2.8,0.5H1995.4z"/>
	<path class="st1" d="M2023.5,129.4c0,1.7-0.3,3-0.8,3.8c-0.5,0.8-1.2,1.4-2,1.7c0.8,0.2,1.5,0.7,2,1.6c0.5,0.8,0.8,2.1,0.8,3.8
		v12.7c0,1.8,0,3.4,0.1,4.6c0.1,1.2,0.2,2.3,0.3,3c0.1,0.8,0.2,1.4,0.3,1.7c0.1,0.4,0.2,0.6,0.2,0.7h-6.3c-0.4-0.6-0.6-1.8-0.8-3.4
		c-0.1-1.6-0.2-3.8-0.2-6.8v-12.1c0-2.4-0.5-3.6-1.6-3.6h-2.4v25.9h-6.3v-56.5h9.1c2.1,0,3.9,0.7,5.4,2.1c1.5,1.4,2.2,3.4,2.2,6
		V129.4z M2015.6,132.6c1.1,0,1.6-1.2,1.6-3.6v-13.3c0-2.5-0.6-3.7-1.9-3.7h-2.2v20.6H2015.6z"/>
	<path class="st1" d="M2034.1,163.6c-0.9,0-1.8-0.2-2.7-0.5c-0.9-0.3-1.7-0.8-2.5-1.5c-0.7-0.6-1.3-1.5-1.7-2.5
		c-0.4-1-0.6-2.3-0.6-3.7v-41.2c0-1.5,0.2-2.7,0.6-3.7c0.4-1,1-1.9,1.7-2.5c0.7-0.6,1.5-1.1,2.5-1.5c0.9-0.3,1.8-0.5,2.7-0.5h1.5
		c0.9,0,1.8,0.2,2.7,0.5c0.9,0.3,1.7,0.8,2.5,1.5c0.7,0.6,1.3,1.5,1.7,2.5c0.4,1,0.6,2.3,0.6,3.7v41.2c0,1.5-0.2,2.7-0.6,3.7
		c-0.4,1-1,1.9-1.7,2.5c-0.7,0.6-1.5,1.1-2.5,1.5c-0.9,0.3-1.8,0.5-2.7,0.5H2034.1z M2034.7,111.5c-1.2,0-1.9,1.3-1.9,3.8v39.2
		c0,1.4,0.2,2.4,0.5,3s0.8,0.8,1.4,0.8h0.3c0.6,0,1.1-0.3,1.4-0.8s0.5-1.5,0.5-3v-39.2c0-2.5-0.6-3.8-1.9-3.8H2034.7z"/>
</g>
<path class="st0" d="M2646,83v107h-371V83H2646 M2647,82h-373v109h373V82L2647,82z"/>
<g>
	<path class="st1" d="M2317.8,129.4c0,1.7-0.3,3-0.8,3.8c-0.5,0.8-1.2,1.4-2,1.7c0.8,0.2,1.5,0.7,2,1.6c0.5,0.8,0.8,2.1,0.8,3.8
		v12.7c0,1.8,0,3.4,0.1,4.6c0.1,1.2,0.2,2.3,0.3,3c0.1,0.8,0.2,1.4,0.3,1.7c0.1,0.4,0.2,0.6,0.2,0.7h-6.3c-0.4-0.6-0.6-1.8-0.8-3.4
		c-0.1-1.6-0.2-3.8-0.2-6.8v-12.1c0-2.4-0.5-3.6-1.6-3.6h-2.4v25.9h-6.3v-56.5h9.1c2.1,0,3.9,0.7,5.4,2.1c1.5,1.4,2.2,3.4,2.2,6
		V129.4z M2309.9,132.6c1.1,0,1.6-1.2,1.6-3.6v-13.3c0-2.5-0.6-3.7-1.9-3.7h-2.2v20.6H2309.9z"/>
	<path class="st1" d="M2327.2,112v20.5h5.5v4.8h-5.5v20.5h7.5v5.3h-13.8v-56.5h13.3v5.3H2327.2z"/>
	<path class="st1" d="M2348.5,106.6h5.5l-5.1,56.5h-8.1l-5.3-56.5h6.1l3.3,39.1h0.2L2348.5,106.6z"/>
	<path class="st1" d="M2363,163.6c-0.9,0-1.8-0.2-2.7-0.5c-0.9-0.3-1.7-0.8-2.5-1.5c-0.7-0.6-1.3-1.5-1.7-2.5
		c-0.4-1-0.6-2.3-0.6-3.7v-41.2c0-1.5,0.2-2.7,0.6-3.7c0.4-1,1-1.9,1.7-2.5c0.7-0.6,1.5-1.1,2.5-1.5c0.9-0.3,1.8-0.5,2.7-0.5h1.5
		c0.9,0,1.8,0.2,2.7,0.5c0.9,0.3,1.7,0.8,2.5,1.5c0.7,0.6,1.3,1.5,1.7,2.5c0.4,1,0.6,2.3,0.6,3.7v41.2c0,1.5-0.2,2.7-0.6,3.7
		c-0.4,1-1,1.9-1.7,2.5c-0.7,0.6-1.5,1.1-2.5,1.5c-0.9,0.3-1.8,0.5-2.7,0.5H2363z M2363.6,111.5c-1.2,0-1.9,1.3-1.9,3.8v39.2
		c0,1.4,0.2,2.4,0.5,3s0.8,0.8,1.4,0.8h0.3c0.6,0,1.1-0.3,1.4-0.8s0.5-1.5,0.5-3v-39.2c0-2.5-0.6-3.8-1.9-3.8H2363.6z"/>
	<path class="st1" d="M2380.9,106.6v51.7h6.7v4.8h-13v-56.5H2380.9z"/>
	<path class="st1" d="M2396.8,163.6c-0.9,0-1.8-0.1-2.7-0.4c-0.9-0.3-1.7-0.8-2.5-1.5c-0.7-0.7-1.3-1.5-1.8-2.5
		c-0.5-1-0.7-2.3-0.7-3.7v-48.8h6.3v47.9c0,1.4,0.2,2.4,0.5,3c0.3,0.6,0.8,0.8,1.4,0.8h0.4c0.5,0,1-0.3,1.3-0.8s0.5-1.5,0.5-3v-47.9
		h6.3v48.8c0,1.5-0.2,2.7-0.6,3.7c-0.4,1-1,1.9-1.7,2.5c-0.7,0.6-1.5,1.1-2.5,1.5s-1.9,0.5-2.8,0.5H2396.8z"/>
	<path class="st1" d="M2411.5,171.7l0.6-2.8c0.5,0.3,1.1,0.6,1.7,0.7c0.7,0.2,1.3,0.2,1.9,0.1c0.6-0.1,1.1-0.3,1.5-0.6
		c0.4-0.3,0.5-0.7,0.5-1.3c-0.1-0.6-0.5-1-1.2-1.1s-1.3-0.1-1.9,0.3l-1.3-0.5l1.5-2.9h0.4c-1.8-0.1-3.4-0.8-4.9-2.1
		c-1.5-1.3-2.2-3.3-2.2-6.1v-41.2c0-1.5,0.2-2.7,0.6-3.7c0.4-1,1-1.9,1.7-2.5c0.7-0.6,1.5-1.1,2.5-1.5c0.9-0.3,1.8-0.5,2.7-0.5h1.5
		c0.9,0,1.8,0.2,2.7,0.5c0.9,0.3,1.7,0.8,2.5,1.5c0.7,0.6,1.3,1.5,1.7,2.5c0.4,1,0.6,2.3,0.6,3.7v15.1h-6.3v-14.2
		c0-1.4-0.2-2.4-0.5-2.9c-0.3-0.5-0.8-0.8-1.4-0.8h-0.3c-0.6,0-1.1,0.3-1.4,0.8c-0.3,0.6-0.5,1.6-0.5,3v39.2c0,1.4,0.2,2.4,0.5,3
		s0.8,0.8,1.4,0.8h0.3c0.6,0,1.1-0.3,1.4-0.8s0.5-1.5,0.5-3v-14.2h6.3v15.2c0,2.7-0.7,4.8-2.2,6.1c-1.5,1.3-3.1,2-4.9,2.1h0.5
		l-0.6,1.8c1-0.5,1.9-0.5,2.8,0c0.9,0.5,1.4,1.3,1.4,2.4c0,1.5-0.4,2.6-1.3,3.4c-0.9,0.8-1.9,1.3-3,1.5c-1.1,0.2-2.3,0.3-3.4,0.1
		C2413,172.6,2412.1,172.2,2411.5,171.7z"/>
	<path class="st1" d="M2437.4,148.2h-4.4l-1.2,15h-5.4l5-56.5h8.1l5.3,56.5h-6.1L2437.4,148.2z M2431,102.1c0.4-0.4,0.8-0.7,1.2-0.9
		c0.4-0.2,0.8-0.2,1.2-0.2c0.8,0,1.5,0.2,2.3,0.7c0.8,0.5,1.7,0.7,2.7,0.7c0.8,0,1.5-0.2,2.1-0.6c0.7-0.4,1.3-1.1,2-2.2l-2.8-1.9
		c-0.8,0.8-1.5,1.1-2.1,1.1c-1,0-1.9-0.3-2.7-0.8c-0.8-0.5-1.7-0.8-2.6-0.8c-0.7,0-1.4,0.2-2.1,0.7c-0.7,0.5-1.3,1.2-1.8,2.3
		L2431,102.1z M2433.3,143.5h3.6l-1.7-19.4h-0.2L2433.3,143.5z"/>
	<path class="st1" d="M2453.7,163.6c-0.9,0-1.8-0.2-2.7-0.5c-0.9-0.3-1.7-0.8-2.5-1.5c-0.7-0.6-1.3-1.5-1.7-2.5
		c-0.4-1-0.6-2.3-0.6-3.7v-41.2c0-1.5,0.2-2.7,0.6-3.7c0.4-1,1-1.9,1.7-2.5c0.7-0.6,1.5-1.1,2.5-1.5c0.9-0.3,1.8-0.5,2.7-0.5h1.5
		c0.9,0,1.8,0.2,2.7,0.5c0.9,0.3,1.7,0.8,2.5,1.5c0.7,0.6,1.3,1.5,1.7,2.5c0.4,1,0.6,2.3,0.6,3.7v41.2c0,1.5-0.2,2.7-0.6,3.7
		c-0.4,1-1,1.9-1.7,2.5c-0.7,0.6-1.5,1.1-2.5,1.5c-0.9,0.3-1.8,0.5-2.7,0.5H2453.7z M2454.3,111.5c-1.2,0-1.9,1.3-1.9,3.8v39.2
		c0,1.4,0.2,2.4,0.5,3s0.8,0.8,1.4,0.8h0.3c0.6,0,1.1-0.3,1.4-0.8s0.5-1.5,0.5-3v-39.2c0-2.5-0.6-3.8-1.9-3.8H2454.3z"/>
	<path class="st1" d="M2481.5,163.6c-0.9,0-1.8-0.2-2.7-0.5c-0.9-0.3-1.7-0.8-2.5-1.5c-0.7-0.6-1.3-1.5-1.7-2.5
		c-0.4-1-0.6-2.3-0.6-3.7v-41.2c0-1.5,0.2-2.7,0.6-3.7c0.4-1,1-1.9,1.7-2.5c0.7-0.6,1.5-1.1,2.5-1.5c0.9-0.3,1.8-0.5,2.7-0.5h1.5
		c0.9,0,1.8,0.2,2.7,0.5c0.9,0.3,1.7,0.8,2.5,1.5c0.7,0.6,1.3,1.5,1.7,2.5c0.4,1,0.6,2.3,0.6,3.7v15.1h-6.3v-14.2
		c0-1.4-0.2-2.4-0.5-2.9c-0.3-0.5-0.8-0.8-1.4-0.8h-0.3c-0.6,0-1.1,0.3-1.4,0.8c-0.3,0.6-0.5,1.6-0.5,3v39.2c0,1.4,0.2,2.4,0.5,3
		s0.8,0.8,1.4,0.8h0.3c0.6,0,1.1-0.3,1.4-0.8s0.5-1.5,0.5-3v-14.2h6.3v15.2c0,1.5-0.2,2.7-0.6,3.7c-0.4,1-1,1.9-1.7,2.5
		c-0.7,0.6-1.5,1.1-2.5,1.5c-0.9,0.3-1.8,0.5-2.7,0.5H2481.5z"/>
	<path class="st1" d="M2500.6,163.6c-0.9,0-1.8-0.2-2.7-0.5c-0.9-0.3-1.7-0.8-2.5-1.5c-0.7-0.6-1.3-1.5-1.7-2.5
		c-0.4-1-0.6-2.3-0.6-3.7v-41.2c0-1.5,0.2-2.7,0.6-3.7c0.4-1,1-1.9,1.7-2.5c0.7-0.6,1.5-1.1,2.5-1.5c0.9-0.3,1.8-0.5,2.7-0.5h1.5
		c0.9,0,1.8,0.2,2.7,0.5c0.9,0.3,1.7,0.8,2.5,1.5c0.7,0.6,1.3,1.5,1.7,2.5c0.4,1,0.6,2.3,0.6,3.7v41.2c0,1.5-0.2,2.7-0.6,3.7
		c-0.4,1-1,1.9-1.7,2.5c-0.7,0.6-1.5,1.1-2.5,1.5c-0.9,0.3-1.8,0.5-2.7,0.5H2500.6z M2501.2,111.5c-1.2,0-1.9,1.3-1.9,3.8v39.2
		c0,1.4,0.2,2.4,0.5,3s0.8,0.8,1.4,0.8h0.3c0.6,0,1.1-0.3,1.4-0.8s0.5-1.5,0.5-3v-39.2c0-2.5-0.6-3.8-1.9-3.8H2501.2z"/>
	<path class="st1" d="M2520.3,140.3h8.4v22.9h-3.1l-0.7-1.9c-1.7,1.6-3.3,2.3-4.8,2.3h-0.5c-0.9,0-1.8-0.2-2.7-0.5
		c-0.9-0.3-1.7-0.8-2.5-1.5c-0.7-0.6-1.3-1.5-1.7-2.5c-0.4-1-0.6-2.3-0.6-3.7v-41.2c0-1.5,0.2-2.7,0.6-3.7c0.4-1,1-1.9,1.7-2.5
		c0.7-0.6,1.5-1.1,2.5-1.5c0.9-0.3,1.8-0.5,2.7-0.5h1.5c0.9,0,1.8,0.2,2.7,0.5c0.9,0.3,1.7,0.8,2.5,1.5c0.7,0.6,1.3,1.5,1.7,2.5
		c0.4,1,0.6,2.3,0.6,3.7v15.1h-6.3v-14.2c0-1.4-0.2-2.4-0.5-2.9c-0.3-0.5-0.8-0.8-1.4-0.8h-0.3c-0.6,0-1.1,0.3-1.4,0.8
		c-0.3,0.6-0.5,1.6-0.5,3v39.2c0,1.4,0.2,2.4,0.5,3s0.8,0.8,1.4,0.8h0.3c0.6,0,1.1-0.3,1.4-0.8s0.5-1.5,0.5-3v-8.9h-2.1V140.3z"/>
	<path class="st1" d="M2543.3,163.2l-6.7-37h-0.2v37h-5.3v-56.5h7.1l6.3,36.2v-36.2h5.7v56.5H2543.3z"/>
	<path class="st1" d="M2559.1,106.6v56.5h-6.3v-56.5H2559.1z"/>
	<path class="st1" d="M2577.9,112h-5.4v51.2h-6.3V112h-5.5v-5.3h17.2V112z"/>
	<path class="st1" d="M2585.7,106.6v56.5h-6.3v-56.5H2585.7z"/>
	<path class="st1" d="M2600.2,106.6h5.5l-5.1,56.5h-8.1l-5.3-56.5h6.1l3.3,39.1h0.2L2600.2,106.6z"/>
	<path class="st1" d="M2614.6,148.2h-4.4l-1.2,15h-5.4l5-56.5h8.1l5.3,56.5h-6.1L2614.6,148.2z M2610.6,143.5h3.6l-1.7-19.4h-0.2
		L2610.6,143.5z"/>
</g>
<circle class="st1" cx="277.5" cy="243" r="8"/>
<circle class="st1" cx="823.3" cy="243" r="8"/>
<circle class="st1" cx="1368" cy="243" r="8"/>
<circle class="st1" cx="1914.8" cy="243" r="8"/>
<circle class="st1" cx="2460.5" cy="243" r="8"/>
<g>
	<rect x="822" y="243" class="st1" width="2" height="50"/>
</g>
<g>
	<rect x="277" y="292" class="st1" width="2184" height="2"/>
</g>
<g>
	<rect x="276" y="243" class="st1" width="2" height="50"/>
</g>
<g>
	<rect x="1368" y="243" class="st1" width="2" height="50"/>
</g>
<g>
	<rect x="822" y="243" class="st1" width="2" height="50"/>
</g>
<g>
	<rect x="1913" y="243" class="st1" width="2" height="50"/>
</g>
<g>
	<rect x="1367" y="243" class="st1" width="2" height="50"/>
</g>
<g>
	<rect x="2459" y="243" class="st1" width="2" height="50"/>
</g>
<g>
	<rect x="1913" y="243" class="st1" width="2" height="50"/>
</g>
</svg>
