<?xml version="1.0" encoding="utf-8"?>
<!-- Generator: Adobe Illustrator 23.0.1, SVG Export Plug-In . SVG Version: 6.00 Build 0)  -->
<svg version="1.1" xmlns="http://www.w3.org/2000/svg" xmlns:xlink="http://www.w3.org/1999/xlink" x="0px" y="0px"
	 viewBox="0 0 1029.4 318.6" style="enable-background:new 0 0 1029.4 318.6;" xml:space="preserve">
<style type="text/css">
	.st0{fill:url(#XMLID_34_);stroke:url(#XMLID_35_);stroke-width:0.5;stroke-miterlimit:10;}
	.st1{fill:url(#XMLID_36_);}
	.st2{fill:url(#XMLID_37_);}
	.st3{fill:url(#XMLID_38_);}
	.st4{fill:url(#XMLID_39_);}
	.st5{fill:url(#XMLID_40_);}
	.st6{fill:url(#XMLID_41_);}
	.st7{fill:url(#XMLID_42_);}
	.st8{fill:url(#XMLID_46_);stroke:url(#XMLID_47_);stroke-width:0.5;stroke-miterlimit:10;}
	.st9{fill:url(#XMLID_48_);}
	.st10{fill:url(#XMLID_49_);}
	.st11{fill:#606060;}
	.st12{fill:url(#XMLID_50_);}
	.st13{fill:url(#XMLID_51_);stroke:url(#XMLID_53_);stroke-width:0.5;stroke-miterlimit:10;}
	.st14{fill:url(#XMLID_54_);}
	.st15{fill:url(#XMLID_55_);}
	.st16{fill:url(#XMLID_56_);}
	.st17{fill:url(#XMLID_77_);stroke:url(#XMLID_78_);stroke-width:0.5;stroke-miterlimit:10;}
	.st18{fill:url(#XMLID_79_);}
	.st19{fill:url(#XMLID_80_);}
	.st20{fill:#F70303;}
	.st21{fill:url(#XMLID_82_);}
	.st22{fill:url(#XMLID_83_);stroke:url(#XMLID_84_);stroke-width:0.5;stroke-miterlimit:10;}
	.st23{fill:url(#XMLID_85_);}
	.st24{fill:url(#XMLID_86_);}
	.st25{fill:url(#XMLID_96_);}
	.st26{fill:url(#XMLID_97_);stroke:url(#XMLID_98_);stroke-width:0.5;stroke-miterlimit:10;}
	.st27{fill:url(#XMLID_99_);}
	.st28{fill:url(#XMLID_100_);}
	.st29{fill:#666666;}
	.st30{fill:url(#XMLID_101_);stroke:url(#XMLID_102_);stroke-width:0.5;stroke-miterlimit:10;}
	.st31{fill:url(#XMLID_103_);}
	.st32{fill:url(#XMLID_104_);}
	.st33{fill:url(#XMLID_105_);}
	.st34{fill:url(#XMLID_106_);}
	.st35{fill:url(#XMLID_112_);}
	.st36{fill:url(#XMLID_113_);}
	.st37{fill:url(#XMLID_114_);stroke:url(#XMLID_115_);stroke-width:0.5;stroke-miterlimit:10;}
	.st38{fill:url(#XMLID_116_);}
	.st39{fill:url(#XMLID_117_);}
	.st40{fill:url(#XMLID_118_);}
	.st41{fill:url(#XMLID_119_);}
	.st42{fill:url(#XMLID_128_);}
	.st43{fill:url(#XMLID_137_);}
	.st44{fill:url(#XMLID_138_);stroke:url(#XMLID_139_);stroke-width:0.5;stroke-miterlimit:10;}
	.st45{fill:url(#XMLID_140_);}
	.st46{fill:url(#XMLID_141_);}
	.st47{fill:url(#XMLID_142_);}
	.st48{fill:url(#XMLID_143_);}
	.st49{fill:url(#XMLID_145_);}
	.st50{fill:url(#XMLID_146_);}
	.st51{fill:url(#XMLID_147_);stroke:url(#XMLID_148_);stroke-width:0.5;stroke-miterlimit:10;}
	.st52{fill:url(#XMLID_149_);}
	.st53{fill:url(#XMLID_150_);}
	.st54{fill:url(#XMLID_151_);}
	.st55{fill:url(#XMLID_152_);}
	.st56{fill:url(#XMLID_153_);}
	.st57{fill:url(#XMLID_154_);}
	.st58{fill:url(#XMLID_173_);stroke:url(#XMLID_174_);stroke-width:0.5;stroke-miterlimit:10;}
	.st59{fill:url(#XMLID_175_);}
	.st60{fill:url(#XMLID_196_);}
	.st61{fill:url(#XMLID_197_);}
	.st62{fill:url(#XMLID_198_);}
	.st63{fill:url(#XMLID_199_);}
	.st64{fill:url(#XMLID_200_);}
	.st65{fill:url(#XMLID_201_);}
	.st66{fill:url(#XMLID_202_);stroke:url(#XMLID_203_);stroke-width:0.5;stroke-miterlimit:10;}
	.st67{fill:url(#XMLID_204_);}
	.st68{fill:url(#XMLID_205_);}
</style>
<g id="Background">
</g>
<g id="Objects">
	<g id="XMLID_155_">
		
			<image style="overflow:visible;opacity:0.75;" width="2596" height="541" xlink:href="11269922.png"  transform="matrix(0.24 0 0 0.24 319.2408 103.3801)">
		</image>
		<g>
			<g>
				<g id="XMLID_157_">
					
						<radialGradient id="XMLID_34_" cx="627.7089" cy="165.2759" r="343.0421" gradientTransform="matrix(1 0 0 0.3937 0 100.2053)" gradientUnits="userSpaceOnUse">
						<stop  offset="0" style="stop-color:#FFFFFF"/>
						<stop  offset="0.2495" style="stop-color:#FCFCFC"/>
						<stop  offset="0.4566" style="stop-color:#F1F3F4"/>
						<stop  offset="0.6486" style="stop-color:#E0E3E6"/>
						<stop  offset="0.8303" style="stop-color:#C8CDD2"/>
						<stop  offset="1" style="stop-color:#AAB1B9"/>
					</radialGradient>
					<path id="XMLID_164_" style="fill:url(#XMLID_34_);" d="M885,115H370.4c-21.9,0-39.7,17.8-39.7,39.7v21.3
						c0,21.9,17.8,39.7,39.7,39.7H885c21.9,0,39.7-17.8,39.7-39.7v-21.3C924.7,132.8,906.9,115,885,115z"/>
					<linearGradient id="XMLID_35_" gradientUnits="userSpaceOnUse" x1="627.7089" y1="110.5455" x2="627.7089" y2="221.538">
						<stop  offset="0" style="stop-color:#FFFFFF"/>
						<stop  offset="4.782766e-02" style="stop-color:#F8F8F9"/>
						<stop  offset="0.1188" style="stop-color:#E4E6E8"/>
						<stop  offset="0.182" style="stop-color:#CCD0D5"/>
						<stop  offset="0.1894" style="stop-color:#BDC2C8"/>
						<stop  offset="0.1964" style="stop-color:#AAB1B9"/>
						<stop  offset="0.8994" style="stop-color:#DFE1E4"/>
						<stop  offset="0.9109" style="stop-color:#FBFBFB"/>
						<stop  offset="0.9338" style="stop-color:#F1F2F3"/>
						<stop  offset="0.9727" style="stop-color:#D6D9DD"/>
						<stop  offset="1" style="stop-color:#BFC4CA"/>
					</linearGradient>
					<linearGradient id="XMLID_36_" gradientUnits="userSpaceOnUse" x1="325.2957" y1="165.2759" x2="930.1221" y2="165.2759">
						<stop  offset="0" style="stop-color:#AAB1B9"/>
						<stop  offset="0.2097" style="stop-color:#C3C8CD"/>
						<stop  offset="0.5397" style="stop-color:#E4E6E8"/>
						<stop  offset="0.8149" style="stop-color:#F8F8F9"/>
						<stop  offset="1" style="stop-color:#FFFFFF"/>
					</linearGradient>
					<path id="XMLID_161_" style="fill:url(#XMLID_35_);stroke:url(#XMLID_36_);stroke-width:0.5;stroke-miterlimit:10;" d="
						M885,109.8H370.4c-24.7,0-44.9,20.1-44.9,44.9v21.3c0,24.7,20.1,44.9,44.9,44.9H885c24.7,0,44.9-20.1,44.9-44.9v-21.3
						C929.9,129.9,909.8,109.8,885,109.8z M924.7,175.9c0,21.9-17.8,39.7-39.7,39.7H370.4c-21.9,0-39.7-17.8-39.7-39.7v-21.3
						c0-21.9,17.8-39.7,39.7-39.7H885c21.9,0,39.7,17.8,39.7,39.7V175.9z"/>
					<g id="XMLID_158_">
						
							<radialGradient id="XMLID_37_" cx="627.7089" cy="135.1758" r="339.0059" gradientTransform="matrix(1 0 0 0.3937 0 81.9559)" gradientUnits="userSpaceOnUse">
							<stop  offset="0" style="stop-color:#FFFFFF"/>
							<stop  offset="0.2495" style="stop-color:#FCFCFC"/>
							<stop  offset="0.4566" style="stop-color:#F1F3F4"/>
							<stop  offset="0.6486" style="stop-color:#E0E3E6"/>
							<stop  offset="0.8303" style="stop-color:#C8CDD2"/>
							<stop  offset="1" style="stop-color:#AAB1B9"/>
						</radialGradient>
						<path id="XMLID_160_" class="st2" d="M885,115H370.4c-21.9,0-39.7,17.8-39.7,39.7v0.7c0-20.3,17.8-36.9,39.7-36.9H885
							c21.9,0,39.7,16.5,39.7,36.9v-0.7C924.7,132.8,906.9,115,885,115z"/>
						
							<radialGradient id="XMLID_38_" cx="627.7089" cy="195.3758" r="339.0059" gradientTransform="matrix(1 0 0 0.3937 0 118.4546)" gradientUnits="userSpaceOnUse">
							<stop  offset="0" style="stop-color:#FFFFFF"/>
							<stop  offset="0.2495" style="stop-color:#FCFCFC"/>
							<stop  offset="0.4566" style="stop-color:#F1F3F4"/>
							<stop  offset="0.6486" style="stop-color:#E0E3E6"/>
							<stop  offset="0.8303" style="stop-color:#C8CDD2"/>
							<stop  offset="1" style="stop-color:#AAB1B9"/>
						</radialGradient>
						<path id="XMLID_159_" class="st3" d="M885,212H370.4c-21.9,0-39.7-16.5-39.7-36.9v0.7c0,21.9,17.8,39.7,39.7,39.7H885
							c21.9,0,39.7-17.8,39.7-39.7v-0.7C924.7,195.5,906.9,212,885,212z"/>
					</g>
				</g>
			</g>
		</g>
	</g>
	<g>
		<path class="st20" d="M419.4,164.5v-18.4c0-1.8-0.2-3.1-0.6-3.8c-0.4-0.7-1-1.1-1.7-1.1h-0.4c-0.7,0-1.3,0.4-1.7,1.1
			c-0.4,0.7-0.6,2-0.6,3.8v8.8c0,3.4,0.7,6.4,2,8.8c1.4,2.5,2.9,4.8,4.5,7.1c1.6,2.3,3.1,4.7,4.5,7.2c1.4,2.5,2,5.5,2,9v11.4
			c0,1.9-0.3,3.5-0.8,4.8c-0.5,1.3-1.3,2.4-2.1,3.3c-0.9,0.8-1.9,1.5-3.1,1.9c-1.2,0.4-2.3,0.6-3.6,0.6h-1.5c-1.2,0-2.4-0.2-3.6-0.6
			c-1.2-0.4-2.2-1-3.2-1.9c-1-0.9-1.7-2-2.3-3.3c-0.6-1.3-0.9-2.9-0.9-4.8v-19.7h7.2v18.4c0,1.8,0.3,3.1,0.8,3.8
			c0.5,0.7,1.2,1.1,1.9,1.1h0.4c0.7,0,1.4-0.4,1.9-1.1c0.5-0.7,0.8-2,0.8-3.8v-8.8c0-3.4-0.7-6.4-2-8.8c-1.4-2.5-2.9-4.8-4.5-7.1
			c-1.6-2.3-3.1-4.7-4.5-7.2c-1.4-2.5-2-5.5-2-9v-11.4c0-1.9,0.3-3.5,0.9-4.8c0.6-1.3,1.3-2.4,2.2-3.3c0.9-0.8,2-1.5,3.1-1.9
			c1.2-0.4,2.3-0.6,3.5-0.6h1c1.2,0,2.4,0.2,3.5,0.6c1.1,0.4,2.1,1.1,3.1,1.9c0.9,0.8,1.6,1.9,2.2,3.3c0.5,1.3,0.8,2.9,0.8,4.8v19.6
			H419.4z"/>
		<path class="st20" d="M450.7,141.9v26.7h6.9v6.2h-6.9v26.7h9.5v6.9h-17.5v-73.6h16.8v6.9H450.7z"/>
		<path class="st20" d="M490.1,208.5l-8.5-48.1h-0.2v48.1h-6.6v-73.6h9l8,47.1v-47.1h7.2v73.6H490.1z"/>
		<path class="st20" d="M527.4,164.5v-18.4c0-1.8-0.2-3.1-0.6-3.8c-0.4-0.7-1-1.1-1.7-1.1h-0.4c-0.7,0-1.3,0.4-1.7,1.1
			c-0.4,0.7-0.6,2-0.6,3.8v8.8c0,3.4,0.7,6.4,2,8.8c1.4,2.5,2.9,4.8,4.5,7.1c1.6,2.3,3.1,4.7,4.5,7.2c1.4,2.5,2,5.5,2,9v11.4
			c0,1.9-0.3,3.5-0.8,4.8c-0.5,1.3-1.3,2.4-2.1,3.3c-0.9,0.8-1.9,1.5-3.1,1.9c-1.2,0.4-2.3,0.6-3.6,0.6h-1.5c-1.2,0-2.4-0.2-3.6-0.6
			c-1.2-0.4-2.2-1-3.2-1.9c-1-0.9-1.7-2-2.3-3.3c-0.6-1.3-0.9-2.9-0.9-4.8v-19.7h7.2v18.4c0,1.8,0.3,3.1,0.8,3.8
			c0.5,0.7,1.2,1.1,1.9,1.1h0.4c0.7,0,1.4-0.4,1.9-1.1c0.5-0.7,0.8-2,0.8-3.8v-8.8c0-3.4-0.7-6.4-2-8.8c-1.4-2.5-2.9-4.8-4.5-7.1
			c-1.6-2.3-3.1-4.7-4.5-7.2c-1.4-2.5-2-5.5-2-9v-11.4c0-1.9,0.3-3.5,0.9-4.8c0.6-1.3,1.3-2.4,2.2-3.3c0.9-0.8,2-1.5,3.1-1.9
			c1.2-0.4,2.3-0.6,3.5-0.6h1c1.2,0,2.4,0.2,3.5,0.6s2.1,1.1,3.1,1.9c0.9,0.8,1.6,1.9,2.2,3.3c0.5,1.3,0.8,2.9,0.8,4.8v19.6H527.4z"
			/>
		<path class="st20" d="M560.2,209.1c-1.2,0-2.3-0.2-3.5-0.6c-1.2-0.4-2.2-1.1-3.1-1.9c-0.9-0.8-1.7-1.9-2.2-3.3
			c-0.5-1.3-0.8-2.9-0.8-4.8v-53.6c0-1.9,0.3-3.5,0.8-4.8c0.5-1.3,1.3-2.4,2.2-3.3c0.9-0.8,2-1.5,3.1-1.9c1.2-0.4,2.3-0.6,3.5-0.6
			h1.8c1.2,0,2.3,0.2,3.5,0.6c1.2,0.4,2.2,1.1,3.1,1.9c0.9,0.8,1.6,1.9,2.2,3.3c0.5,1.3,0.8,2.9,0.8,4.8v53.6c0,1.9-0.3,3.5-0.8,4.8
			c-0.5,1.3-1.3,2.4-2.2,3.3c-0.9,0.8-2,1.5-3.1,1.9c-1.2,0.4-2.3,0.6-3.5,0.6H560.2z M561,141.2c-1.6,0-2.3,1.6-2.3,4.9v51
			c0,1.8,0.2,3.1,0.6,3.8c0.4,0.7,1,1.1,1.7,1.1h0.4c0.7,0,1.3-0.4,1.7-1.1c0.4-0.7,0.6-2,0.6-3.8v-51c0-3.3-0.8-4.9-2.3-4.9H561z"
			/>
		<path class="st20" d="M609,168.9v5.6h-21.9v-5.6H609z"/>
		<path class="st20" d="M634,209.1c-1.2,0-2.3-0.2-3.5-0.6c-1.2-0.4-2.2-1.1-3.1-1.9c-0.9-0.8-1.7-1.9-2.2-3.3
			c-0.5-1.3-0.8-2.9-0.8-4.8v-53.6c0-1.9,0.3-3.5,0.8-4.8c0.5-1.3,1.3-2.4,2.2-3.3c0.9-0.8,2-1.5,3.1-1.9c1.2-0.4,2.3-0.6,3.5-0.6
			h1.8c1.2,0,2.3,0.2,3.5,0.6c1.2,0.4,2.2,1.1,3.1,1.9c0.9,0.8,1.6,1.9,2.2,3.3c0.5,1.3,0.8,2.9,0.8,4.8v19.7h-8v-18.5
			c0-1.8-0.2-3.1-0.6-3.8c-0.4-0.7-1-1.1-1.7-1.1h-0.4c-0.8,0-1.3,0.4-1.7,1.1c-0.4,0.7-0.6,2-0.6,3.8v51c0,1.8,0.2,3.1,0.6,3.8
			c0.4,0.7,1,1.1,1.7,1.1h0.4c0.7,0,1.3-0.4,1.7-1.1c0.4-0.7,0.6-2,0.6-3.8v-18.5h8v19.8c0,1.9-0.3,3.5-0.8,4.8
			c-0.5,1.3-1.3,2.4-2.2,3.3c-0.9,0.8-2,1.5-3.1,1.9c-1.2,0.4-2.3,0.6-3.5,0.6H634z"/>
		<path class="st20" d="M681.9,164.6c0,2.2-0.3,3.9-1,5c-0.7,1.1-1.5,1.8-2.5,2.2c1,0.3,1.8,1,2.5,2.1c0.7,1.1,1,2.8,1,5v16.5
			c0,2.4,0.1,4.4,0.2,6c0.1,1.6,0.2,2.9,0.4,3.9c0.1,1,0.3,1.8,0.4,2.3c0.1,0.5,0.2,0.8,0.3,0.9h-8c-0.5-0.8-0.8-2.3-1-4.4
			c-0.2-2.1-0.3-5-0.3-8.8v-15.8c0-3.2-0.7-4.7-2-4.7h-3.1v33.7h-8v-73.6h11.5c2.6,0,4.9,0.9,6.8,2.7c1.9,1.8,2.8,4.4,2.8,7.8V164.6
			z M671.9,168.7c1.4,0,2-1.5,2-4.6v-17.4c0-3.2-0.8-4.8-2.3-4.8h-2.8v26.8H671.9z"/>
		<path class="st20" d="M706,134.9v73.6h-8v-73.6H706z M699.5,130.5l3.9-9h7l-6,9H699.5z"/>
		<path class="st20" d="M741.9,141.9h-6.8v66.6h-8v-66.6h-6.9v-6.9h21.7V141.9z"/>
		<path class="st20" d="M764.1,134.9v73.6h-8v-73.6H764.1z"/>
		<path class="st20" d="M789.1,209.1c-1.2,0-2.3-0.2-3.5-0.6c-1.2-0.4-2.2-1.1-3.1-1.9c-0.9-0.8-1.7-1.9-2.2-3.3
			c-0.5-1.3-0.8-2.9-0.8-4.8v-53.6c0-1.9,0.3-3.5,0.8-4.8c0.5-1.3,1.3-2.4,2.2-3.3c0.9-0.8,2-1.5,3.1-1.9c1.2-0.4,2.3-0.6,3.5-0.6
			h1.8c1.2,0,2.3,0.2,3.5,0.6c1.2,0.4,2.2,1.1,3.1,1.9c0.9,0.8,1.6,1.9,2.2,3.3c0.5,1.3,0.8,2.9,0.8,4.8v19.7h-8v-18.5
			c0-1.8-0.2-3.1-0.6-3.8c-0.4-0.7-1-1.1-1.7-1.1h-0.4c-0.8,0-1.3,0.4-1.7,1.1c-0.4,0.7-0.6,2-0.6,3.8v51c0,1.8,0.2,3.1,0.6,3.8
			c0.4,0.7,1,1.1,1.7,1.1h0.4c0.7,0,1.3-0.4,1.7-1.1c0.4-0.7,0.6-2,0.6-3.8v-18.5h8v19.8c0,1.9-0.3,3.5-0.8,4.8
			c-0.5,1.3-1.3,2.4-2.2,3.3c-0.9,0.8-2,1.5-3.1,1.9c-1.2,0.4-2.3,0.6-3.5,0.6H789.1z"/>
		<path class="st20" d="M825.4,209.1c-1.2,0-2.3-0.2-3.5-0.6c-1.2-0.4-2.2-1.1-3.1-1.9c-0.9-0.8-1.7-1.9-2.2-3.3
			c-0.5-1.3-0.8-2.9-0.8-4.8v-53.6c0-1.9,0.3-3.5,0.8-4.8c0.5-1.3,1.3-2.4,2.2-3.3c0.9-0.8,2-1.5,3.1-1.9c1.2-0.4,2.3-0.6,3.5-0.6
			h1.8c1.2,0,2.3,0.2,3.5,0.6c1.2,0.4,2.2,1.1,3.1,1.9c0.9,0.8,1.6,1.9,2.2,3.3c0.5,1.3,0.8,2.9,0.8,4.8v53.6c0,1.9-0.3,3.5-0.8,4.8
			c-0.5,1.3-1.3,2.4-2.2,3.3c-0.9,0.8-2,1.5-3.1,1.9c-1.2,0.4-2.3,0.6-3.5,0.6H825.4z M826.1,141.2c-1.6,0-2.3,1.6-2.3,4.9v51
			c0,1.8,0.2,3.1,0.6,3.8c0.4,0.7,1,1.1,1.7,1.1h0.4c0.7,0,1.3-0.4,1.7-1.1c0.4-0.7,0.6-2,0.6-3.8v-51c0-3.3-0.8-4.9-2.3-4.9H826.1z
			"/>
	</g>
	<g id="XMLID_253_">
		
			<image style="overflow:visible;opacity:0.75;" width="584" height="584" xlink:href="11269921.png"  transform="matrix(0.24 0 0 0.24 97.4043 98.16)">
		</image>
		<g>
			<g>
				<g id="XMLID_428_">
					<linearGradient id="XMLID_39_" gradientUnits="userSpaceOnUse" x1="164.5263" y1="103.9223" x2="164.5263" y2="235.2508">
						<stop  offset="0" style="stop-color:#FFFFFF"/>
						<stop  offset="0.1851" style="stop-color:#F8F8F9"/>
						<stop  offset="0.4603" style="stop-color:#E4E6E8"/>
						<stop  offset="0.7903" style="stop-color:#C3C8CD"/>
						<stop  offset="1" style="stop-color:#AAB1B9"/>
					</linearGradient>
					<linearGradient id="XMLID_40_" gradientUnits="userSpaceOnUse" x1="103.4908" y1="165.2759" x2="225.5619" y2="165.2759">
						<stop  offset="0" style="stop-color:#FFFFFF"/>
						<stop  offset="8.335739e-02" style="stop-color:#F8F8F9"/>
						<stop  offset="0.2074" style="stop-color:#E4E6E8"/>
						<stop  offset="0.356" style="stop-color:#C3C8CD"/>
						<stop  offset="0.4504" style="stop-color:#AAB1B9"/>
						<stop  offset="0.9109" style="stop-color:#FBFBFB"/>
						<stop  offset="0.9338" style="stop-color:#F1F2F3"/>
						<stop  offset="0.9727" style="stop-color:#D6D9DD"/>
						<stop  offset="1" style="stop-color:#BFC4CA"/>
					</linearGradient>
					<path id="XMLID_431_" style="fill:url(#XMLID_39_);stroke:url(#XMLID_40_);stroke-width:0.5;stroke-miterlimit:10;" d="
						M164.5,104.5c-33.6,0-60.8,27.2-60.8,60.8s27.2,60.8,60.8,60.8s60.8-27.2,60.8-60.8S198.1,104.5,164.5,104.5z M164.5,220.7
						c-30.6,0-55.4-24.8-55.4-55.4s24.8-55.4,55.4-55.4s55.4,24.8,55.4,55.4S195.1,220.7,164.5,220.7z"/>
					<linearGradient id="XMLID_41_" gradientUnits="userSpaceOnUse" x1="164.5264" y1="103.9223" x2="164.5264" y2="235.2508">
						<stop  offset="0" style="stop-color:#FFFFFF"/>
						<stop  offset="0.1851" style="stop-color:#F8F8F9"/>
						<stop  offset="0.4603" style="stop-color:#E4E6E8"/>
						<stop  offset="0.7903" style="stop-color:#C3C8CD"/>
						<stop  offset="1" style="stop-color:#AAB1B9"/>
					</linearGradient>
					<circle id="XMLID_430_" class="st6" cx="164.5" cy="165.3" r="55.4"/>
					<linearGradient id="XMLID_42_" gradientUnits="userSpaceOnUse" x1="164.5264" y1="109.3373" x2="164.5264" y2="229.075">
						<stop  offset="0" style="stop-color:#AAB1B9"/>
						<stop  offset="0.2097" style="stop-color:#C3C8CD"/>
						<stop  offset="0.5397" style="stop-color:#E4E6E8"/>
						<stop  offset="0.8149" style="stop-color:#F8F8F9"/>
						<stop  offset="1" style="stop-color:#FFFFFF"/>
					</linearGradient>
					<circle id="XMLID_429_" class="st7" cx="164.5" cy="165.3" r="55.4"/>
				</g>
				<g id="XMLID_397_">
					<g id="XMLID_399_">
						<g id="XMLID_404_">
							<g id="XMLID_423_">
								<g id="XMLID_424_">
									<g id="XMLID_425_">
										<linearGradient id="XMLID_46_" gradientUnits="userSpaceOnUse" x1="164.5263" y1="115.0087" x2="164.5263" y2="238.4322">
											<stop  offset="0" style="stop-color:#FC3F04"/>
											<stop  offset="0.2061" style="stop-color:#F93D04"/>
											<stop  offset="0.3815" style="stop-color:#EE3804"/>
											<stop  offset="0.5458" style="stop-color:#DD2F04"/>
											<stop  offset="0.7032" style="stop-color:#C42304"/>
											<stop  offset="0.8543" style="stop-color:#A41304"/>
											<stop  offset="1" style="stop-color:#7E0004"/>
										</linearGradient>
										<circle id="XMLID_427_" style="fill:url(#XMLID_46_);" cx="164.5" cy="165.3" r="53.4"/>
										<radialGradient id="XMLID_47_" cx="163.6257" cy="164.7631" r="58.2786" gradientUnits="userSpaceOnUse">
											<stop  offset="0" style="stop-color:#FC3F04"/>
											<stop  offset="0.3144" style="stop-color:#FA3E04"/>
											<stop  offset="0.4829" style="stop-color:#F23A04"/>
											<stop  offset="0.6169" style="stop-color:#E43304"/>
											<stop  offset="0.7326" style="stop-color:#D12904"/>
											<stop  offset="0.8365" style="stop-color:#B81D04"/>
											<stop  offset="0.9307" style="stop-color:#9A0E04"/>
											<stop  offset="1" style="stop-color:#7E0004"/>
										</radialGradient>
										<path id="XMLID_426_" style="fill:url(#XMLID_47_);" d="M213.2,163.7c0.9,28.1-22.1,51.1-50.2,50.2
											c-25.5-0.8-46.2-21.6-47-47c-0.9-28.1,22.1-51.1,50.2-50.2C191.6,117.4,212.4,138.2,213.2,163.7z"/>
									</g>
								</g>
							</g>
						</g>
						<g id="XMLID_400_">
							<linearGradient id="XMLID_48_" gradientUnits="userSpaceOnUse" x1="115.6026" y1="165.1374" x2="213.0498" y2="165.1374">
								<stop  offset="0" style="stop-color:#FC3F04"/>
								<stop  offset="0.2061" style="stop-color:#F93D04"/>
								<stop  offset="0.3815" style="stop-color:#EE3804"/>
								<stop  offset="0.5458" style="stop-color:#DD2F04"/>
								<stop  offset="0.7032" style="stop-color:#C42304"/>
								<stop  offset="0.8543" style="stop-color:#A41304"/>
								<stop  offset="1" style="stop-color:#7E0004"/>
							</linearGradient>
							<path id="XMLID_401_" class="st9" d="M164.3,213.9c-26.9,0-48.7-21.9-48.7-48.7c0-26.9,21.9-48.7,48.7-48.7
								c26.9,0,48.7,21.9,48.7,48.7C213,192,191.2,213.9,164.3,213.9z M164.3,116.8c-26.7,0-48.3,21.7-48.3,48.3
								c0,26.7,21.7,48.3,48.3,48.3c26.7,0,48.3-21.7,48.3-48.3C212.7,138.5,191,116.8,164.3,116.8z"/>
						</g>
					</g>
					<radialGradient id="XMLID_49_" cx="168.1308" cy="177.1792" r="72.6682" gradientUnits="userSpaceOnUse">
						<stop  offset="0" style="stop-color:#FC3F04"/>
						<stop  offset="0.3144" style="stop-color:#FA3E04"/>
						<stop  offset="0.4829" style="stop-color:#F23A04"/>
						<stop  offset="0.6169" style="stop-color:#E43304"/>
						<stop  offset="0.7326" style="stop-color:#D12904"/>
						<stop  offset="0.8365" style="stop-color:#B81D04"/>
						<stop  offset="0.9307" style="stop-color:#9A0E04"/>
						<stop  offset="1" style="stop-color:#7E0004"/>
					</radialGradient>
					<path id="XMLID_398_" class="st10" d="M145.2,189.3c-8.7,0-17-1.3-24.9-3.6c7.5,16.3,23.7,27.7,42.7,28.3
						c30.4,0.9,54.8-26,49.5-57.2C197.1,176.5,172.7,189.3,145.2,189.3z"/>
				</g>
			</g>
		</g>
	</g>
</g>
</svg>
