<?xml version="1.0" encoding="utf-8"?>
<!-- Generator: Adobe Illustrator 23.0.1, SVG Export Plug-In . SVG Version: 6.00 Build 0)  -->
<svg version="1.1" xmlns="http://www.w3.org/2000/svg" xmlns:xlink="http://www.w3.org/1999/xlink" x="0px" y="0px"
	 viewBox="0 0 1029.4 318.6" style="enable-background:new 0 0 1029.4 318.6;" xml:space="preserve">
<style type="text/css">
	.st0{fill:url(#XMLID_34_);stroke:url(#XMLID_35_);stroke-width:0.5;stroke-miterlimit:10;}
	.st1{fill:url(#XMLID_36_);}
	.st2{fill:url(#XMLID_37_);}
	.st3{fill:url(#XMLID_38_);}
	.st4{fill:url(#XMLID_39_);}
	.st5{fill:url(#XMLID_40_);}
	.st6{fill:url(#XMLID_41_);}
	.st7{fill:url(#XMLID_42_);}
	.st8{fill:url(#XMLID_46_);stroke:url(#XMLID_47_);stroke-width:0.5;stroke-miterlimit:10;}
	.st9{fill:url(#XMLID_48_);}
	.st10{fill:url(#XMLID_49_);}
	.st11{fill:#606060;}
	.st12{fill:url(#XMLID_50_);}
	.st13{fill:url(#XMLID_51_);stroke:url(#XMLID_53_);stroke-width:0.5;stroke-miterlimit:10;}
	.st14{fill:url(#XMLID_54_);}
	.st15{fill:url(#XMLID_55_);}
	.st16{fill:url(#XMLID_56_);}
	.st17{fill:url(#XMLID_77_);stroke:url(#XMLID_78_);stroke-width:0.5;stroke-miterlimit:10;}
	.st18{fill:url(#XMLID_79_);}
	.st19{fill:url(#XMLID_80_);}
	.st20{fill:#F70303;}
	.st21{fill:url(#XMLID_82_);}
	.st22{fill:url(#XMLID_83_);stroke:url(#XMLID_84_);stroke-width:0.5;stroke-miterlimit:10;}
	.st23{fill:url(#XMLID_85_);}
	.st24{fill:url(#XMLID_86_);}
	.st25{fill:url(#XMLID_96_);}
	.st26{fill:url(#XMLID_97_);stroke:url(#XMLID_98_);stroke-width:0.5;stroke-miterlimit:10;}
	.st27{fill:url(#XMLID_99_);}
	.st28{fill:url(#XMLID_100_);}
	.st29{fill:#666666;}
	.st30{fill:url(#XMLID_101_);stroke:url(#XMLID_102_);stroke-width:0.5;stroke-miterlimit:10;}
	.st31{fill:url(#XMLID_103_);}
	.st32{fill:url(#XMLID_104_);}
	.st33{fill:url(#XMLID_105_);}
	.st34{fill:url(#XMLID_106_);}
	.st35{fill:url(#XMLID_112_);}
	.st36{fill:url(#XMLID_113_);}
	.st37{fill:url(#XMLID_114_);stroke:url(#XMLID_115_);stroke-width:0.5;stroke-miterlimit:10;}
	.st38{fill:url(#XMLID_116_);}
	.st39{fill:url(#XMLID_117_);}
	.st40{fill:url(#XMLID_118_);}
	.st41{fill:url(#XMLID_119_);}
	.st42{fill:url(#XMLID_128_);}
	.st43{fill:url(#XMLID_137_);}
	.st44{fill:url(#XMLID_138_);stroke:url(#XMLID_139_);stroke-width:0.5;stroke-miterlimit:10;}
	.st45{fill:url(#XMLID_140_);}
	.st46{fill:url(#XMLID_141_);}
	.st47{fill:url(#XMLID_142_);}
	.st48{fill:url(#XMLID_143_);}
	.st49{fill:url(#XMLID_145_);}
	.st50{fill:url(#XMLID_146_);}
	.st51{fill:url(#XMLID_147_);stroke:url(#XMLID_148_);stroke-width:0.5;stroke-miterlimit:10;}
	.st52{fill:url(#XMLID_149_);}
	.st53{fill:url(#XMLID_150_);}
	.st54{fill:url(#XMLID_151_);}
	.st55{fill:url(#XMLID_152_);}
	.st56{fill:url(#XMLID_153_);}
	.st57{fill:url(#XMLID_154_);}
	.st58{fill:url(#XMLID_173_);stroke:url(#XMLID_174_);stroke-width:0.5;stroke-miterlimit:10;}
	.st59{fill:url(#XMLID_175_);}
	.st60{fill:url(#XMLID_196_);}
	.st61{fill:url(#XMLID_197_);}
	.st62{fill:url(#XMLID_198_);}
	.st63{fill:url(#XMLID_199_);}
	.st64{fill:url(#XMLID_200_);}
	.st65{fill:url(#XMLID_201_);}
	.st66{fill:url(#XMLID_202_);stroke:url(#XMLID_203_);stroke-width:0.5;stroke-miterlimit:10;}
	.st67{fill:url(#XMLID_204_);}
	.st68{fill:url(#XMLID_205_);}
</style>
<g id="Background">
</g>
<g id="Objects">
	<g id="XMLID_291_">
		
			<image style="overflow:visible;opacity:0.75;" width="2596" height="541" xlink:href="9D09F090.png"  transform="matrix(0.24 0 0 0.24 319.2408 93.4849)">
		</image>
		<g>
			<g>
				<g id="XMLID_293_">
					
						<radialGradient id="XMLID_34_" cx="627.7089" cy="155.3808" r="343.0421" gradientTransform="matrix(1 0 0 0.3937 0 94.2059)" gradientUnits="userSpaceOnUse">
						<stop  offset="0" style="stop-color:#FFFFFF"/>
						<stop  offset="0.2495" style="stop-color:#FCFCFC"/>
						<stop  offset="0.4566" style="stop-color:#F1F3F4"/>
						<stop  offset="0.6486" style="stop-color:#E0E3E6"/>
						<stop  offset="0.8303" style="stop-color:#C8CDD2"/>
						<stop  offset="1" style="stop-color:#AAB1B9"/>
					</radialGradient>
					<path id="XMLID_300_" style="fill:url(#XMLID_34_);" d="M885,105.1H370.4c-21.9,0-39.7,17.8-39.7,39.7V166
						c0,21.9,17.8,39.7,39.7,39.7H885c21.9,0,39.7-17.8,39.7-39.7v-21.3C924.7,122.9,906.9,105.1,885,105.1z"/>
					<linearGradient id="XMLID_35_" gradientUnits="userSpaceOnUse" x1="627.7089" y1="100.6503" x2="627.7089" y2="211.6428">
						<stop  offset="0" style="stop-color:#FFFFFF"/>
						<stop  offset="4.782766e-02" style="stop-color:#F8F8F9"/>
						<stop  offset="0.1188" style="stop-color:#E4E6E8"/>
						<stop  offset="0.182" style="stop-color:#CCD0D5"/>
						<stop  offset="0.1894" style="stop-color:#BDC2C8"/>
						<stop  offset="0.1964" style="stop-color:#AAB1B9"/>
						<stop  offset="0.8994" style="stop-color:#DFE1E4"/>
						<stop  offset="0.9109" style="stop-color:#FBFBFB"/>
						<stop  offset="0.9338" style="stop-color:#F1F2F3"/>
						<stop  offset="0.9727" style="stop-color:#D6D9DD"/>
						<stop  offset="1" style="stop-color:#BFC4CA"/>
					</linearGradient>
					<linearGradient id="XMLID_36_" gradientUnits="userSpaceOnUse" x1="325.2957" y1="155.3807" x2="930.1221" y2="155.3807">
						<stop  offset="0" style="stop-color:#AAB1B9"/>
						<stop  offset="0.2097" style="stop-color:#C3C8CD"/>
						<stop  offset="0.5397" style="stop-color:#E4E6E8"/>
						<stop  offset="0.8149" style="stop-color:#F8F8F9"/>
						<stop  offset="1" style="stop-color:#FFFFFF"/>
					</linearGradient>
					<path id="XMLID_297_" style="fill:url(#XMLID_35_);stroke:url(#XMLID_36_);stroke-width:0.5;stroke-miterlimit:10;" d="
						M885,99.9H370.4c-24.7,0-44.9,20.1-44.9,44.9V166c0,24.7,20.1,44.9,44.9,44.9H885c24.7,0,44.9-20.1,44.9-44.9v-21.3
						C929.9,120,909.8,99.9,885,99.9z M924.7,166c0,21.9-17.8,39.7-39.7,39.7H370.4c-21.9,0-39.7-17.8-39.7-39.7v-21.3
						c0-21.9,17.8-39.7,39.7-39.7H885c21.9,0,39.7,17.8,39.7,39.7V166z"/>
					<g id="XMLID_294_">
						
							<radialGradient id="XMLID_37_" cx="627.7089" cy="125.2806" r="339.0059" gradientTransform="matrix(1 0 0 0.3937 0 75.9565)" gradientUnits="userSpaceOnUse">
							<stop  offset="0" style="stop-color:#FFFFFF"/>
							<stop  offset="0.2495" style="stop-color:#FCFCFC"/>
							<stop  offset="0.4566" style="stop-color:#F1F3F4"/>
							<stop  offset="0.6486" style="stop-color:#E0E3E6"/>
							<stop  offset="0.8303" style="stop-color:#C8CDD2"/>
							<stop  offset="1" style="stop-color:#AAB1B9"/>
						</radialGradient>
						<path id="XMLID_296_" class="st2" d="M885,105.1H370.4c-21.9,0-39.7,17.8-39.7,39.7v0.7c0-20.3,17.8-36.9,39.7-36.9H885
							c21.9,0,39.7,16.5,39.7,36.9v-0.7C924.7,122.9,906.9,105.1,885,105.1z"/>
						
							<radialGradient id="XMLID_38_" cx="627.7089" cy="185.4806" r="339.0059" gradientTransform="matrix(1 0 0 0.3937 0 112.4552)" gradientUnits="userSpaceOnUse">
							<stop  offset="0" style="stop-color:#FFFFFF"/>
							<stop  offset="0.2495" style="stop-color:#FCFCFC"/>
							<stop  offset="0.4566" style="stop-color:#F1F3F4"/>
							<stop  offset="0.6486" style="stop-color:#E0E3E6"/>
							<stop  offset="0.8303" style="stop-color:#C8CDD2"/>
							<stop  offset="1" style="stop-color:#AAB1B9"/>
						</radialGradient>
						<path id="XMLID_295_" class="st3" d="M885,202.2H370.4c-21.9,0-39.7-16.5-39.7-36.9v0.7c0,21.9,17.8,39.7,39.7,39.7H885
							c21.9,0,39.7-17.8,39.7-39.7v-0.7C924.7,185.6,906.9,202.2,885,202.2z"/>
					</g>
				</g>
			</g>
		</g>
	</g>
	<g>
		<path class="st20" d="M495.8,192.8c-1.2,0-2.3-0.2-3.5-0.6c-1.2-0.4-2.2-1.1-3.1-1.9s-1.7-1.9-2.2-3.3c-0.5-1.3-0.8-2.9-0.8-4.8
			v-53.6c0-1.9,0.3-3.5,0.8-4.8c0.5-1.3,1.3-2.4,2.2-3.3s2-1.5,3.1-1.9c1.2-0.4,2.3-0.6,3.5-0.6h1.8c1.2,0,2.3,0.2,3.5,0.6
			c1.2,0.4,2.2,1.1,3.1,1.9c0.9,0.8,1.6,1.9,2.2,3.3c0.5,1.3,0.8,2.9,0.8,4.8v19.7h-8v-18.5c0-1.8-0.2-3.1-0.6-3.8
			c-0.4-0.7-1-1.1-1.7-1.1h-0.4c-0.8,0-1.3,0.4-1.7,1.1s-0.6,2-0.6,3.8v51c0,1.8,0.2,3.1,0.6,3.8s1,1.1,1.7,1.1h0.4
			c0.7,0,1.3-0.4,1.7-1.1s0.6-2,0.6-3.8v-18.5h8v19.8c0,1.9-0.3,3.5-0.8,4.8c-0.5,1.3-1.3,2.4-2.2,3.3c-0.9,0.8-2,1.5-3.1,1.9
			c-1.2,0.4-2.3,0.6-3.5,0.6H495.8z"/>
		<path class="st20" d="M532.2,192.8c-1.2,0-2.3-0.2-3.5-0.6c-1.2-0.4-2.2-1.1-3.1-1.9s-1.7-1.9-2.2-3.3c-0.5-1.3-0.8-2.9-0.8-4.8
			v-53.6c0-1.9,0.3-3.5,0.8-4.8c0.5-1.3,1.3-2.4,2.2-3.3s2-1.5,3.1-1.9c1.2-0.4,2.3-0.6,3.5-0.6h1.8c1.2,0,2.3,0.2,3.5,0.6
			c1.2,0.4,2.2,1.1,3.1,1.9c0.9,0.8,1.6,1.9,2.2,3.3c0.5,1.3,0.8,2.9,0.8,4.8v53.6c0,1.9-0.3,3.5-0.8,4.8c-0.5,1.3-1.3,2.4-2.2,3.3
			c-0.9,0.8-2,1.5-3.1,1.9c-1.2,0.4-2.3,0.6-3.5,0.6H532.2z M532.9,124.9c-1.6,0-2.3,1.6-2.3,4.9v51c0,1.8,0.2,3.1,0.6,3.8
			s1,1.1,1.7,1.1h0.4c0.7,0,1.3-0.4,1.7-1.1s0.6-2,0.6-3.8v-51c0-3.3-0.8-4.9-2.3-4.9H532.9z"/>
		<path class="st20" d="M574.2,192.2l-8.5-48.1h-0.2v48.1h-6.6v-73.5h9l8,47.1v-47.1h7.2v73.5H574.2z"/>
		<path class="st20" d="M618.9,125.6h-6.8v66.6h-8v-66.6h-6.9v-6.9h21.7V125.6z"/>
		<path class="st20" d="M641.1,125.6v26.7h6.9v6.2h-6.9v26.7h9.5v6.9h-17.5v-73.5H650v6.9H641.1z"/>
		<path class="st20" d="M679.8,155.3l7.6,36.8h-8.2l-4-20.2l-3.6,20.2h-7.7l7.5-39.4l-7.5-34.2h7.9l3.9,17.5l3.4-17.5h8L679.8,155.3
			z"/>
		<path class="st20" d="M721.8,125.6H715v66.6h-8v-66.6h-6.9v-6.9h21.7V125.6z"/>
		<path class="st20" d="M745.5,192.8c-1.2,0-2.3-0.2-3.5-0.6c-1.2-0.4-2.2-1.1-3.1-1.9c-0.9-0.8-1.7-1.9-2.2-3.3
			c-0.5-1.3-0.8-2.9-0.8-4.8v-53.6c0-1.9,0.3-3.5,0.8-4.8c0.5-1.3,1.3-2.4,2.2-3.3c0.9-0.8,2-1.5,3.1-1.9c1.2-0.4,2.3-0.6,3.5-0.6
			h1.8c1.2,0,2.3,0.2,3.5,0.6c1.2,0.4,2.2,1.1,3.1,1.9c0.9,0.8,1.6,1.9,2.2,3.3c0.5,1.3,0.8,2.9,0.8,4.8v53.6c0,1.9-0.3,3.5-0.8,4.8
			c-0.5,1.3-1.3,2.4-2.2,3.3c-0.9,0.8-2,1.5-3.1,1.9c-1.2,0.4-2.3,0.6-3.5,0.6H745.5z M746.2,124.9c-1.6,0-2.3,1.6-2.3,4.9v51
			c0,1.8,0.2,3.1,0.6,3.8s1,1.1,1.7,1.1h0.4c0.7,0,1.3-0.4,1.7-1.1s0.6-2,0.6-3.8v-51c0-3.3-0.8-4.9-2.3-4.9H746.2z"/>
	</g>
	<g id="XMLID_136_">
		
			<image style="overflow:visible;opacity:0.75;" width="584" height="584" xlink:href="9D09F093.png"  transform="matrix(0.24 0 0 0.24 97.4043 88.3149)">
		</image>
		<g>
			<g>
				<g id="XMLID_468_">
					<linearGradient id="XMLID_39_" gradientUnits="userSpaceOnUse" x1="164.5263" y1="94.0271" x2="164.5263" y2="225.3556">
						<stop  offset="0" style="stop-color:#FFFFFF"/>
						<stop  offset="0.1851" style="stop-color:#F8F8F9"/>
						<stop  offset="0.4603" style="stop-color:#E4E6E8"/>
						<stop  offset="0.7903" style="stop-color:#C3C8CD"/>
						<stop  offset="1" style="stop-color:#AAB1B9"/>
					</linearGradient>
					<linearGradient id="XMLID_40_" gradientUnits="userSpaceOnUse" x1="103.4908" y1="155.3807" x2="225.5619" y2="155.3807">
						<stop  offset="0" style="stop-color:#FFFFFF"/>
						<stop  offset="8.335739e-02" style="stop-color:#F8F8F9"/>
						<stop  offset="0.2074" style="stop-color:#E4E6E8"/>
						<stop  offset="0.356" style="stop-color:#C3C8CD"/>
						<stop  offset="0.4504" style="stop-color:#AAB1B9"/>
						<stop  offset="0.9109" style="stop-color:#FBFBFB"/>
						<stop  offset="0.9338" style="stop-color:#F1F2F3"/>
						<stop  offset="0.9727" style="stop-color:#D6D9DD"/>
						<stop  offset="1" style="stop-color:#BFC4CA"/>
					</linearGradient>
					<path id="XMLID_471_" style="fill:url(#XMLID_39_);stroke:url(#XMLID_40_);stroke-width:0.5;stroke-miterlimit:10;" d="
						M164.5,94.6c-33.6,0-60.8,27.2-60.8,60.8s27.2,60.8,60.8,60.8s60.8-27.2,60.8-60.8S198.1,94.6,164.5,94.6z M164.5,210.8
						c-30.6,0-55.4-24.8-55.4-55.4s24.8-55.4,55.4-55.4s55.4,24.8,55.4,55.4S195.1,210.8,164.5,210.8z"/>
					<linearGradient id="XMLID_41_" gradientUnits="userSpaceOnUse" x1="164.5264" y1="94.0271" x2="164.5264" y2="225.3556">
						<stop  offset="0" style="stop-color:#FFFFFF"/>
						<stop  offset="0.1851" style="stop-color:#F8F8F9"/>
						<stop  offset="0.4603" style="stop-color:#E4E6E8"/>
						<stop  offset="0.7903" style="stop-color:#C3C8CD"/>
						<stop  offset="1" style="stop-color:#AAB1B9"/>
					</linearGradient>
					<circle id="XMLID_470_" class="st6" cx="164.5" cy="155.4" r="55.4"/>
					<linearGradient id="XMLID_42_" gradientUnits="userSpaceOnUse" x1="164.5264" y1="99.4421" x2="164.5264" y2="219.1798">
						<stop  offset="0" style="stop-color:#AAB1B9"/>
						<stop  offset="0.2097" style="stop-color:#C3C8CD"/>
						<stop  offset="0.5397" style="stop-color:#E4E6E8"/>
						<stop  offset="0.8149" style="stop-color:#F8F8F9"/>
						<stop  offset="1" style="stop-color:#FFFFFF"/>
					</linearGradient>
					<circle id="XMLID_469_" class="st7" cx="164.5" cy="155.4" r="55.4"/>
				</g>
				<g id="XMLID_455_">
					<g id="XMLID_457_">
						<g id="XMLID_462_">
							<g id="XMLID_463_">
								<g id="XMLID_464_">
									<g id="XMLID_465_">
										<linearGradient id="XMLID_46_" gradientUnits="userSpaceOnUse" x1="164.5263" y1="105.1135" x2="164.5263" y2="228.537">
											<stop  offset="0" style="stop-color:#FC3F04"/>
											<stop  offset="0.2061" style="stop-color:#F93D04"/>
											<stop  offset="0.3815" style="stop-color:#EE3804"/>
											<stop  offset="0.5458" style="stop-color:#DD2F04"/>
											<stop  offset="0.7032" style="stop-color:#C42304"/>
											<stop  offset="0.8543" style="stop-color:#A41304"/>
											<stop  offset="1" style="stop-color:#7E0004"/>
										</linearGradient>
										<circle id="XMLID_467_" style="fill:url(#XMLID_46_);" cx="164.5" cy="155.4" r="53.4"/>
										<radialGradient id="XMLID_47_" cx="163.6257" cy="154.8679" r="58.2786" gradientUnits="userSpaceOnUse">
											<stop  offset="0" style="stop-color:#FC3F04"/>
											<stop  offset="0.3144" style="stop-color:#FA3E04"/>
											<stop  offset="0.4829" style="stop-color:#F23A04"/>
											<stop  offset="0.6169" style="stop-color:#E43304"/>
											<stop  offset="0.7326" style="stop-color:#D12904"/>
											<stop  offset="0.8365" style="stop-color:#B81D04"/>
											<stop  offset="0.9307" style="stop-color:#9A0E04"/>
											<stop  offset="1" style="stop-color:#7E0004"/>
										</radialGradient>
										<path id="XMLID_466_" style="fill:url(#XMLID_47_);" d="M213.2,153.8c0.9,28.1-22.1,51.1-50.2,50.2
											c-25.5-0.8-46.2-21.6-47-47c-0.9-28.1,22.1-51.1,50.2-50.2C191.6,107.6,212.4,128.3,213.2,153.8z"/>
									</g>
								</g>
							</g>
						</g>
						<g id="XMLID_458_">
							<linearGradient id="XMLID_48_" gradientUnits="userSpaceOnUse" x1="115.6026" y1="155.2422" x2="213.0498" y2="155.2422">
								<stop  offset="0" style="stop-color:#FC3F04"/>
								<stop  offset="0.2061" style="stop-color:#F93D04"/>
								<stop  offset="0.3815" style="stop-color:#EE3804"/>
								<stop  offset="0.5458" style="stop-color:#DD2F04"/>
								<stop  offset="0.7032" style="stop-color:#C42304"/>
								<stop  offset="0.8543" style="stop-color:#A41304"/>
								<stop  offset="1" style="stop-color:#7E0004"/>
							</linearGradient>
							<path id="XMLID_459_" class="st9" d="M164.3,204c-26.9,0-48.7-21.9-48.7-48.7c0-26.9,21.9-48.7,48.7-48.7
								c26.9,0,48.7,21.9,48.7,48.7C213,182.1,191.2,204,164.3,204z M164.3,106.9c-26.7,0-48.3,21.7-48.3,48.3
								c0,26.7,21.7,48.3,48.3,48.3c26.7,0,48.3-21.7,48.3-48.3C212.7,128.6,191,106.9,164.3,106.9z"/>
						</g>
					</g>
					<radialGradient id="XMLID_49_" cx="168.1308" cy="167.284" r="72.6682" gradientUnits="userSpaceOnUse">
						<stop  offset="0" style="stop-color:#FC3F04"/>
						<stop  offset="0.3144" style="stop-color:#FA3E04"/>
						<stop  offset="0.4829" style="stop-color:#F23A04"/>
						<stop  offset="0.6169" style="stop-color:#E43304"/>
						<stop  offset="0.7326" style="stop-color:#D12904"/>
						<stop  offset="0.8365" style="stop-color:#B81D04"/>
						<stop  offset="0.9307" style="stop-color:#9A0E04"/>
						<stop  offset="1" style="stop-color:#7E0004"/>
					</radialGradient>
					<path id="XMLID_456_" class="st10" d="M145.2,179.4c-8.7,0-17-1.3-24.9-3.6C127.8,192,144,203.4,163,204
						c30.4,0.9,54.8-26,49.5-57.2C197.1,166.6,172.7,179.4,145.2,179.4z"/>
				</g>
			</g>
		</g>
	</g>
</g>
</svg>
