<?xml version="1.0" encoding="utf-8"?>
<!-- Generator: Adobe Illustrator 23.0.1, SVG Export Plug-In . SVG Version: 6.00 Build 0)  -->
<svg version="1.1" id="Layer_1" xmlns="http://www.w3.org/2000/svg" xmlns:xlink="http://www.w3.org/1999/xlink" x="0px" y="0px"
	 viewBox="0 0 364.94 120.51" style="enable-background:new 0 0 364.94 120.51;" xml:space="preserve">
<style type="text/css">
	.st0{fill:#871D00;}
	.st1{fill:#CF2253;}
	.st2{fill:#BD0C00;}
	.st3{fill:#E41913;}
	.st4{fill:#F76E6D;}
	.st5{fill:#FBAFAE;}
	.st6{fill:#FFF2F2;}
	.st7{fill:#ED3A6D;}
	.st8{fill:#FFC1C3;}
	.st9{fill:#F05C86;}
	.st10{fill:#E13857;}
	.st11{fill:#FF315D;}
	.st12{fill:#FF0000;}
</style>
<g>
	<path class="st0" d="M191.45,74.07h-3.97l-1.08,13.34h-4.83l4.47-50.4h7.21l4.76,50.4h-5.41L191.45,74.07z M187.85,69.89h3.25
		l-1.51-17.31h-0.22L187.85,69.89z M187.92,34.19l2.74-6.2h4.98l-4.25,6.2H187.92z"/>
	<path class="st0" d="M215.25,67h7.5v20.41h-2.74l-0.65-1.66c-1.49,1.39-2.91,2.09-4.25,2.09h-0.43c-0.82,0-1.63-0.14-2.45-0.43
		c-0.82-0.29-1.55-0.72-2.2-1.3c-0.65-0.58-1.17-1.32-1.55-2.24c-0.38-0.91-0.58-2.02-0.58-3.32v-36.7c0-1.3,0.19-2.4,0.58-3.32
		c0.38-0.91,0.9-1.66,1.55-2.24c0.65-0.58,1.38-1.01,2.2-1.3c0.82-0.29,1.63-0.43,2.45-0.43h1.3c0.82,0,1.63,0.14,2.45,0.43
		c0.82,0.29,1.55,0.72,2.2,1.3c0.65,0.58,1.17,1.32,1.55,2.24c0.38,0.91,0.58,2.02,0.58,3.32v13.48h-5.62V44.65
		c0-1.25-0.14-2.11-0.43-2.6c-0.29-0.48-0.7-0.72-1.23-0.72h-0.29c-0.53,0-0.94,0.25-1.23,0.76c-0.29,0.5-0.43,1.38-0.43,2.63v34.97
		c0,1.25,0.14,2.13,0.43,2.63c0.29,0.5,0.7,0.76,1.23,0.76h0.29c0.53,0,0.94-0.25,1.23-0.76c0.29-0.5,0.43-1.38,0.43-2.63v-7.93
		h-1.88V67z"/>
	<path class="st0" d="M239.26,37.01v50.4h-5.63v-50.4H239.26z"/>
	<path class="st0" d="M255.84,37.01v46.15h5.98v4.25h-11.61v-50.4H255.84z"/>
</g>
<g>
	<polygon class="st1" points="307.72,53.55 307.72,48.51 294.17,48.51 294.17,63.51 311.2,63.51 311.2,53.55 	"/>
	<rect x="289.6" y="55.77" class="st2" width="10.8" height="14.66"/>
	<polygon class="st3" points="308.05,71.64 308.05,62.25 300.08,62.25 300.08,74.94 313.09,74.94 313.09,71.64 	"/>
	<rect x="305.68" y="74.94" class="st3" width="12.44" height="8.78"/>
	<polygon class="st4" points="327.77,68.6 322.94,58.69 307.85,58.69 307.85,71.77 325.77,71.77 	"/>
	<polygon class="st5" points="322.94,58.69 315.63,58.69 315.63,64.25 325.65,64.25 	"/>
	<polygon class="st0" points="321.12,54.96 321.39,54.03 311.2,54.03 311.2,55.44 321.36,55.44 	"/>
	<polygon class="st2" points="321.36,55.44 311.2,55.44 311.2,58.69 322.94,58.69 	"/>
	<path class="st6" d="M321.45,81.35l1.98-2.13c-0.73-1.26-1.33-1.98-1.4-2.07h-9.81v7.53h8.27
		C320.51,82.26,321.45,81.35,321.45,81.35z"/>
	<path class="st2" d="M320.47,84.82c0-1.45,0.32-2.38,0.6-2.91h-13.52v7.62h12.9C320.45,89.53,320.47,87.34,320.47,84.82z"/>
	<path class="st7" d="M321.77,52.7c-0.52-2.67-1.28-5.52-1.95-7.84h-12.69v9.17h14.27L321.77,52.7z"/>
	<path class="st2" d="M318.33,40.06c-0.68-0.97-1.35-1.9-1.99-2.76h-11.01v6.06h14.04C318.78,41.38,318.33,40.06,318.33,40.06z"/>
	<rect x="285.49" y="67.77" class="st1" width="7.98" height="7.17"/>
	<rect x="295.24" y="38.32" class="st2" width="7.98" height="7.84"/>
	<rect x="282.3" y="61.43" class="st2" width="4.27" height="3.8"/>
	<rect x="274.19" y="55.77" class="st2" width="4.27" height="3.8"/>
	<rect x="279.23" y="49.37" class="st2" width="4.27" height="3.8"/>
	<rect x="287.83" y="44.11" class="st2" width="4.65" height="3.8"/>
	<rect x="278.85" y="39.21" class="st8" width="4.65" height="3.8"/>
	<rect x="289.01" y="34.43" class="st4" width="4.03" height="3.8"/>
	<rect x="298.38" y="28.48" class="st6" width="4.3" height="3.8"/>
	<rect x="294.17" y="55.77" class="st4" width="9.27" height="7.74"/>
	<rect x="285.49" y="50.1" class="st6" width="9.58" height="8.59"/>
	<rect x="307.85" y="58.69" class="st6" width="7.47" height="13.07"/>
	<rect x="300.4" y="62.25" class="st7" width="10.8" height="1.35"/>
	<rect x="305.68" y="67.38" class="st7" width="7.41" height="7.56"/>
	<rect x="303.44" y="85.72" class="st0" width="4.1" height="3.81"/>
	<rect x="298.81" y="89.53" class="st0" width="4.67" height="3.81"/>
	<rect x="298.47" y="77.6" class="st3" width="4.49" height="3.81"/>
	<rect x="315.32" y="55.17" class="st0" width="2.56" height="3.52"/>
	<rect x="317.89" y="55.17" class="st0" width="1.87" height="3.52"/>
	<rect x="315.32" y="58.69" class="st5" width="4.43" height="5.56"/>
	<rect x="307.12" y="48.51" class="st9" width="4.07" height="5.52"/>
	<rect x="307.85" y="63.61" class="st7" width="5.23" height="9.5"/>
	<rect x="289.6" y="55.77" class="st2" width="5.47" height="2.92"/>
	<path class="st7" d="M321.07,81.91h-8.86v2.76h8.27C320.5,83.31,320.8,82.42,321.07,81.91z"/>
	<path class="st6" d="M323.42,79.22c-0.73-1.26-1.33-1.98-1.4-2.07h-4.18v2.36h5.31L323.42,79.22z"/>
	<path class="st7" d="M322.01,77.13l1.35-1.93l-0.06-0.26h-5.45v2.2h4.18C322.02,77.14,322.01,77.13,322.01,77.13z"/>
	<polygon class="st7" points="322.86,73.11 325.77,71.77 313.09,71.77 313.09,74.94 323.3,74.94 	"/>
	<polygon class="st7" points="322.86,73.11 325.77,71.77 319.75,71.77 319.75,73.33 322.91,73.33 	"/>
	<path class="st3" d="M328.45,70.26c-0.35-0.88-0.68-1.66-0.68-1.66l-1.12-2.3h-6.89v5.47h6.02
		C325.77,71.77,328.15,70.58,328.45,70.26z"/>
	<path class="st1" d="M319.82,44.86h-6.73v3.65h7.73C320.49,47.22,320.14,45.98,319.82,44.86z"/>
	<path class="st10" d="M318.33,40.06c-0.29-0.41-0.57-0.81-0.85-1.19h-4.4v4.5h6.29C318.78,41.38,318.33,40.06,318.33,40.06z"/>
	<path class="st11" d="M319.38,43.36h-6.29v1.5h6.73C319.67,44.33,319.52,43.83,319.38,43.36z"/>
	<path class="st2" d="M311.11,30.72h-5.77v6.58h11.01C313.88,33.99,311.84,31.58,311.11,30.72z"/>
</g>
<g>
	<path class="st12" d="M55.45,37.01v50.4h-4.69V54.45h-0.07l-3.61,32.95h-4.11l-3.53-32.95H39.3v32.95h-4.69v-50.4h7.28l3.03,28.77
		h0.14l3.17-28.77H55.45z"/>
	<path class="st12" d="M70.6,37.01v50.4h-5.63v-50.4H70.6z"/>
	<path class="st12" d="M90.86,87.41l-5.98-32.95h-0.14v32.95h-4.69v-50.4h6.34l5.62,32.3v-32.3h5.12v50.4H90.86z"/>
	<path class="st12" d="M106.57,87.41v-50.4h8.04c0.86,0,1.7,0.13,2.51,0.4c0.81,0.26,1.54,0.69,2.19,1.26
		c0.65,0.58,1.16,1.31,1.54,2.2c0.38,0.89,0.58,1.98,0.58,3.28v36.13c0,1.3-0.19,2.39-0.58,3.28c-0.38,0.89-0.9,1.62-1.54,2.2
		c-0.65,0.58-1.38,1-2.19,1.26c-0.81,0.26-1.65,0.4-2.51,0.4H106.57z M112.2,41.76v40.88h2.02c0.48,0,0.87-0.23,1.15-0.69
		c0.29-0.46,0.43-1.31,0.43-2.56V45.01c0-1.2-0.14-2.04-0.43-2.52c-0.29-0.48-0.67-0.72-1.15-0.72H112.2z"/>
	<path class="st12" d="M140.03,57.27V44.65c0-1.25-0.14-2.11-0.43-2.6c-0.29-0.48-0.7-0.72-1.23-0.72h-0.29
		c-0.53,0-0.94,0.25-1.23,0.76c-0.29,0.5-0.43,1.38-0.43,2.63v6.06c0,2.36,0.48,4.38,1.44,6.06c0.96,1.68,2.02,3.31,3.17,4.87
		c1.15,1.56,2.21,3.2,3.17,4.9c0.96,1.71,1.44,3.76,1.44,6.17v7.79c0,1.3-0.19,2.4-0.58,3.32c-0.38,0.91-0.89,1.66-1.51,2.24
		c-0.63,0.58-1.35,1.01-2.16,1.3c-0.82,0.29-1.66,0.43-2.52,0.43h-1.08c-0.87,0-1.71-0.13-2.52-0.4s-1.56-0.7-2.24-1.3
		c-0.67-0.6-1.21-1.36-1.62-2.27c-0.41-0.91-0.61-2.02-0.61-3.32V67.07h5.12v12.62c0,1.25,0.19,2.13,0.58,2.63
		c0.38,0.5,0.84,0.76,1.37,0.76h0.29c0.53,0,0.97-0.25,1.33-0.76c0.36-0.5,0.54-1.38,0.54-2.63v-6.06c0-2.35-0.48-4.37-1.44-6.06
		c-0.96-1.68-2.02-3.3-3.17-4.87c-1.15-1.56-2.21-3.2-3.17-4.9c-0.96-1.71-1.44-3.76-1.44-6.17v-7.79c0-1.3,0.2-2.4,0.61-3.32
		c0.41-0.91,0.94-1.66,1.59-2.24c0.65-0.58,1.38-1.01,2.2-1.3c0.82-0.29,1.63-0.43,2.45-0.43h0.72c0.87,0,1.7,0.14,2.49,0.43
		c0.79,0.29,1.51,0.72,2.16,1.3c0.65,0.58,1.17,1.32,1.55,2.24c0.38,0.91,0.58,2.02,0.58,3.32v13.41H140.03z"/>
	<path class="st12" d="M160.73,41.76v18.31h4.9v4.25h-4.9v18.31h6.71v4.76H155.1v-50.4H167v4.76H160.73z"/>
	<path class="st12" d="M190.79,41.76h-4.83v45.64h-5.63V41.76h-4.9v-4.76h15.36V41.76z"/>
</g>
</svg>
