<?xml version="1.0" encoding="utf-8"?>
<!-- Generator: Adobe Illustrator 23.0.4, SVG Export Plug-In . SVG Version: 6.00 Build 0)  -->
<svg version="1.1" id="Layer_1" xmlns="http://www.w3.org/2000/svg" xmlns:xlink="http://www.w3.org/1999/xlink" x="0px" y="0px"
	 viewBox="0 0 93.3 80.7" style="enable-background:new 0 0 93.3 80.7;" xml:space="preserve">
<style type="text/css">
	.st0{fill:#FFFFFF;stroke:#FFFFFF;stroke-miterlimit:10;}
	.st1{fill:none;stroke:#FFFFFF;stroke-miterlimit:10;}
</style>
<g>
	<g>
		<path class="st0" d="M46.6,43.1l-23-39.9c-0.1-0.3-0.7-1.1-1.1-1.3c-0.4-0.1-2-0.1-3-0.1c0,0,0,0-8,0.1c-3.2,0-3.8,1.4-3.8,2.4
			l-0.8,9.1l-1-0.1l0.8-9.1c0.1-2.2,1.8-3.2,4.9-3.2c0,0,7.9-0.1,8-0.1c0.3,0,2.4,0,3.2,0.3c0.8,0.3,1.4,1.1,1.8,1.7l22.1,38.4
			l1.7-2.8l0.8,0.6L46.6,43.1z"/>
	</g>
	<g>
		<path class="st0" d="M54.6,65.7h-16c-1.5,0-3.1-0.8-3.9-2.2L23.8,44.6l0.8-0.6l10.8,18.8c0.6,1.1,1.8,1.7,3,1.7h15.9
			c1.3,0,2.2-0.6,3-1.7l2.7-4.4l0.8,0.6l-2.7,4.4C57.6,65,56.1,65.7,54.6,65.7z"/>
	</g>
	<g>
		<g>
			<path class="st1" d="M21.6,47.3"/>
		</g>
	</g>
	<g>
		<g>
			<path class="st1" d="M3.7,16.2"/>
		</g>
	</g>
	<g>
		<path class="st0" d="M17.5,80.2c-0.1,0-0.3,0-0.4,0H4.7c-2.5-0.3-4.4-3.5-4.2-6L6.7,3.9c0.1-2.2,1.8-3.2,4.9-3.2l8-0.1
			c0.3,0,2.4,0,3.2,0.3c0.8,0.3,1.4,1.1,1.8,1.7l0,0l3.4,6l-5.9,67.4c-0.1,1.3-0.7,2.2-1.5,3.1C19.6,79.7,18.6,80.2,17.5,80.2z
			 M19.6,1.6L19.6,1.6l-8,0.1c-3.2,0-3.8,1.4-3.8,2.4L1.6,74.4c-0.1,2,1.3,4.8,3.2,4.9h12.4c1,0.1,1.8-0.1,2.5-0.8
			c0.7-0.6,1.1-1.4,1.3-2.4l5.9-67.2l-3.2-5.8C23.5,2.9,23,2,22.6,1.9C22,1.6,20.5,1.5,19.6,1.6z"/>
	</g>
	<g>
		<path class="st0" d="M54.7,65.7h-16c-1.5,0-3-0.8-3.8-2.1l-0.7-1.1l11.9-20.8l0.4,0.3l0.4-0.4l0.3,0.4l-0.1,0.4L35.5,62.6l0.3,0.6
			c0.7,1,1.7,1.7,3,1.7h15.9c1.3,0,2.4-0.7,3-1.7l0.4-0.7l0.8,0.6l-0.3,0.4C57.8,64.8,56.3,65.7,54.7,65.7z"/>
	</g>
	<g>
		<rect x="53.3" y="52.9" transform="matrix(0.5001 -0.866 0.866 0.5001 -14.3736 81.903)" class="st0" width="20.9" height="1"/>
	</g>
	<g>
		
			<rect x="68.5" y="44.3" transform="matrix(0.9964 -8.518802e-02 8.518802e-02 0.9964 -3.5325 6.0396)" class="st0" width="1" height="0.1"/>
	</g>
	<g>
		<g>
			<path class="st1" d="M74.3,47.7"/>
		</g>
	</g>
	<g>
		<g>
			<path class="st1" d="M92.3,16.7"/>
		</g>
	</g>
	<g>
		<path class="st0" d="M47.2,42.2l-0.8-0.6L68.9,2.6c0.4-0.7,1-1.5,1.8-1.7c0.8-0.3,3-0.3,3.2-0.3l8,0.1c3.1,0,4.6,1.1,4.8,3.2
			l0.8,9.1l-1,0.1l-0.8-9.1c-0.1-1-0.6-2.4-3.8-2.4l-8.1-0.1c-0.8,0-2.4,0-2.8,0.1c-0.6,0.1-1,1-1.1,1.3L47.2,42.2z"/>
	</g>
	<g>
		<path class="st0" d="M75.8,80.2c-1,0-2.1-0.4-2.8-1.1c-1-0.8-1.5-1.8-1.5-3.1l-2.8-31.5l1-0.1l2.8,31.5c0.1,2,1.8,3.4,3.8,3.2
			h12.5c1.8-0.1,3.2-3,3.1-4.9l-5.3-61l1-0.1l5.3,61c0.1,1.3-0.3,2.7-1,3.8c-0.8,1.3-2,2.1-3.1,2.2H76.2C76,80.2,76,80.2,75.8,80.2z
			"/>
	</g>
	<g>
		<path class="st0" d="M68.5,44.6l-3.1-36l3.4-5.9c0.4-0.7,0.8-1.5,1.7-1.8c0.8-0.3,3-0.3,3.2-0.3c0.1,0,8,0.1,8,0.1
			c3,0,4.6,1.1,4.8,3.2l0.8,9.1l-1,0.1L85.7,4c-0.1-1-0.6-2.4-3.8-2.4c-8-0.1-8-0.1-8.1-0.1c-0.7,0-2.2,0-2.8,0.1
			c-0.4,0.1-0.8,0.8-1.1,1.4l-3.2,5.6l3.1,35.7L68.5,44.6z"/>
	</g>
</g>
</svg>
