<?xml version="1.0" encoding="utf-8"?>
<!-- Generator: Adobe Illustrator 24.0.3, SVG Export Plug-In . SVG Version: 6.00 Build 0)  -->
<svg version="1.1" id="Camada_1" xmlns="http://www.w3.org/2000/svg" xmlns:xlink="http://www.w3.org/1999/xlink" x="0px" y="0px"
	 viewBox="0 0 438.1 100.1" style="enable-background:new 0 0 438.1 100.1;" xml:space="preserve">
<style type="text/css">
	.st0{fill:#FFFFFF;}
</style>
<g>
	<path class="st0" d="M24.6,42V22c0-1.7-0.1-2.9-0.4-3.6c-0.2-0.7-0.7-1-1.3-1h-0.2c-0.6,0-1.1,0.3-1.3,1c-0.2,0.7-0.4,1.9-0.4,3.7
		V31c0,2.7,0.4,5.2,1.1,7.3c0.8,2.1,1.7,4,2.9,5.9c1.2,1.8,2.4,3.5,3.7,5.1c1.3,1.6,2.6,3.3,3.7,5.1c1.2,1.8,2.1,3.8,2.9,5.9
		c0.8,2.1,1.1,4.6,1.1,7.3v12.7c0,2.3-0.3,4.2-1,5.9c-0.7,1.7-1.6,3-2.8,4c-1.2,1-2.5,1.8-4,2.3c-1.5,0.5-3.1,0.7-4.7,0.7h-2.1
		c-1.6,0-3.2-0.2-4.7-0.7c-1.5-0.5-2.9-1.2-4.1-2.3c-1.2-1-2.2-2.4-3-4C9.4,84.5,9,82.6,9,80.3V58.5h10.9v20.1
		c0,1.7,0.2,2.9,0.6,3.6c0.4,0.7,1,1.1,1.7,1.1h0.2c0.7,0,1.3-0.4,1.6-1.1c0.4-0.7,0.5-1.9,0.5-3.6v-9.1c0-2.7-0.4-5.2-1.1-7.3
		c-0.8-2.1-1.7-4-2.9-5.8c-1.2-1.8-2.4-3.5-3.7-5.1c-1.3-1.6-2.6-3.3-3.7-5.1c-1.2-1.8-2.1-3.8-2.9-5.9C9.4,38.2,9,35.8,9,32.9V20.3
		c0-2.3,0.4-4.2,1.1-5.9c0.7-1.7,1.7-3,2.9-4c1.2-1,2.6-1.8,4-2.3c1.5-0.5,3-0.7,4.7-0.7h1.2c1.6,0,3.2,0.2,4.7,0.7
		c1.5,0.5,2.8,1.3,4,2.3c1.2,1,2.1,2.4,2.8,4c0.7,1.7,1.1,3.6,1.1,5.9V42H24.6z"/>
	<path class="st0" d="M55.1,71.3h-5.1l-1.6,21.3H38.2l7.1-84.5h15.3l7.6,84.5H56.8L55.1,71.3z M50.8,62.3h3.6l-1.6-21.5h-0.4
		L50.8,62.3z"/>
	<path class="st0" d="M88.6,92.5l-8.3-46.9H80v46.9H70V8.1h13.3l7.5,45.4h0.1V8.1h10.9v84.5H88.6z"/>
	<path class="st0" d="M131.4,8.1c3.6,0,6.6,1.1,9,3.4c2.4,2.3,3.6,5.4,3.6,9.4v27.4c0,3.9-1.2,6.7-3.5,8.3c-2.3,1.6-5.3,2.4-8.9,2.4
		h-3.3v33.5h-12V8.1H131.4z M131.9,22.7c0-3.1-0.6-4.6-1.7-4.6h-1.9V49h2.1c0.6,0,1.1-0.4,1.3-1.1c0.2-0.7,0.3-1.9,0.3-3.5V22.7z"/>
	<path class="st0" d="M160,71.3H155l-1.6,21.3h-10.3l7.1-84.5h15.3l7.6,84.5h-11.5L160,71.3z M155.7,62.3h3.6l-1.6-21.5h-0.4
		L155.7,62.3z"/>
	<path class="st0" d="M187.6,93.3c-1.5,0-3.1-0.2-4.6-0.7c-1.5-0.5-2.9-1.2-4.1-2.3c-1.2-1-2.2-2.4-2.9-4c-0.7-1.7-1.1-3.6-1.1-5.9
		V8.1h12v70.5c0,1.7,0.1,2.9,0.4,3.6c0.2,0.7,0.7,1.1,1.3,1.1h0.4c0.6,0,1.1-0.4,1.3-1.1c0.2-0.7,0.3-1.9,0.3-3.6V8.1h12v72.3
		c0,2.3-0.4,4.2-1.1,5.9c-0.7,1.7-1.7,3-2.8,4c-1.2,1-2.5,1.8-4,2.3c-1.5,0.5-3.1,0.7-4.7,0.7H187.6z"/>
	<path class="st0" d="M217.3,8.1v75.5h9.8v8.9h-21.8V8.1H217.3z"/>
	<path class="st0" d="M253.1,93.3c-1.6,0-3.2-0.2-4.7-0.7c-1.5-0.5-2.8-1.2-4-2.3c-1.2-1-2.1-2.4-2.8-4c-0.7-1.7-1.1-3.6-1.1-5.9
		V20.3c0-2.3,0.4-4.2,1.1-5.9c0.7-1.7,1.7-3,2.8-4c1.2-1,2.5-1.8,4-2.3c1.5-0.5,3-0.7,4.7-0.7h2.4c1.5,0,3.1,0.2,4.6,0.7
		c1.5,0.5,2.9,1.3,4,2.3c1.2,1,2.1,2.4,2.8,4c0.7,1.7,1.1,3.6,1.1,5.9V42h-12V22c0-1.7-0.1-2.9-0.4-3.6c-0.2-0.7-0.7-1-1.3-1h-0.2
		c-0.6,0-1.1,0.3-1.3,1c-0.2,0.7-0.4,1.9-0.4,3.7v56.4c0,1.7,0.1,2.9,0.4,3.6c0.2,0.7,0.7,1.1,1.3,1.1h0.2c0.6,0,1.1-0.4,1.3-1.1
		c0.2-0.7,0.4-1.9,0.4-3.6V68.4h-2.3v-10h14.3v17.8v0.7v15.7h-5.8l-1.3-2.8c-1.3,1.1-2.6,2-3.9,2.6c-1.3,0.6-2.5,0.9-3.5,0.9H253.1z
		"/>
	<path class="st0" d="M286.7,71.3h-5.1l-1.6,21.3h-10.3l7.1-84.5h15.3l7.6,84.5h-11.5L286.7,71.3z M282.4,62.3h3.6l-1.6-21.5H284
		L282.4,62.3z"/>
	<path class="st0" d="M313.5,8.1v75.5h9.8v8.9h-21.8V8.1H313.5z"/>
	<path class="st0" d="M337.1,8.1v75.5h9.8v8.9h-21.8V8.1H337.1z"/>
	<path class="st0" d="M360.7,18.1v27.8h8v8.9h-8v27.7h11v10h-23V8.1h22v10H360.7z"/>
	<path class="st0" d="M401.4,42.1c0,2.6-0.4,4.5-1.2,5.7c-0.8,1.3-1.8,2.1-3,2.5c1.2,0.3,2.2,1.1,3,2.4c0.8,1.2,1.2,3.2,1.2,5.7V76
		c0,3.1,0.1,5.8,0.2,7.9c0.2,2.1,0.3,3.8,0.5,5c0.2,1.2,0.4,2.2,0.5,2.7c0.2,0.6,0.3,0.9,0.4,1h-12c-0.6-1-1.1-2.8-1.3-5.4
		c-0.2-2.6-0.4-6.3-0.4-11.2V59.5c0-1.6-0.1-2.8-0.3-3.6c-0.2-0.8-0.6-1.1-1.3-1.1h-2.1v37.7h-12V8.1h15.1c3.6,0,6.6,1.1,8.9,3.4
		c2.4,2.3,3.5,5.4,3.5,9.4V42.1z M387.9,45.9c0.6,0,1.1-0.4,1.3-1.1c0.2-0.7,0.3-1.9,0.3-3.4V22.7c0-3.1-0.6-4.6-1.7-4.6h-1.9v27.8
		H387.9z"/>
	<path class="st0" d="M423.6,62.3l-0.1,30.2h-12V62.3l-9.3-54.3h12.1l3,27.1h0.4l3-27.1h12.1L423.6,62.3z"/>
</g>
</svg>
