<?xml version="1.0" encoding="utf-8"?>
<!-- Generator: Adobe Illustrator 23.0.4, SVG Export Plug-In . SVG Version: 6.00 Build 0)  -->
<svg version="1.1" id="Слой_1" xmlns="http://www.w3.org/2000/svg" xmlns:xlink="http://www.w3.org/1999/xlink" x="0px" y="0px"
	 viewBox="0 0 672.2 1134" style="enable-background:new 0 0 672.2 1134;" xml:space="preserve">
<style type="text/css">
	.st0{fill:#FF5722;}
	.st1{fill:#FF9100;}
	.st2{fill:#FF3D00;}
	.st3{fill:#FFFFFF;}
	.st4{opacity:0.5;fill:#CFD1D2;enable-background:new    ;}
</style>
<g>
	<g>
		<path class="st0" d="M336.1,1110.1c-71.8,0-139.3-28-190-78.7c-50.7-50.7-78.7-118.3-78.7-190s28-139.3,78.7-190
			s118.3-78.7,190-78.7s139.3,28,190,78.7c50.7,50.7,78.7,118.3,78.7,190s-28,139.3-78.7,190
			C475.3,1082.1,407.9,1110.1,336.1,1110.1z M336.1,577.1c-145.7,0-264.3,118.6-264.3,264.3s118.6,264.3,264.3,264.3
			s264.3-118.6,264.3-264.3C600.4,695.6,481.8,577.1,336.1,577.1z"/>
	</g>
	<path class="st0" d="M336.1,641.5C446.5,641.5,536,731,536,841.4h55.5c0-141.1-114.3-255.4-255.4-255.4S80.7,700.3,80.7,841.4h55.5
		C136.2,730.9,225.7,641.5,336.1,641.5z"/>
	<path class="st1" d="M336.1,641.5c-110.4,0-199.9,89.5-199.9,199.9h133.3c0-36.8,29.9-66.6,66.6-66.6s66.6,29.9,66.6,66.6H536
		C536,730.9,446.4,641.5,336.1,641.5z"/>
	<path class="st2" d="M402.7,841.4c0-36.8-29.9-66.6-66.6-66.6s-66.6,29.9-66.6,66.6H402.7z"/>
	<path class="st3" d="M407.2,841.4h-8.9c0-34.3-27.9-62.2-62.2-62.2s-62.2,27.9-62.2,62.2H265c0-39.2,31.9-71.1,71.1-71.1
		S407.2,802.1,407.2,841.4z"/>
	<path class="st0" d="M336.1,976.7c141.1,0,255.4-60.6,255.4-135.4H536c0,58.5-89.5,106-199.9,106s-199.9-47.4-199.9-106H80.7
		C80.7,916.1,195,976.7,336.1,976.7z"/>
	<path class="st1" d="M336.1,876.6c-36.8,0-66.6-15.8-66.6-35.4H136.2c0,58.5,89.5,106,199.9,106S536,899.8,536,841.3H402.7
		C402.7,860.8,372.9,876.6,336.1,876.6z"/>
	<path class="st2" d="M269.5,841.4c0,19.5,29.9,35.4,66.6,35.4s66.6-15.8,66.6-35.4H269.5z"/>
	<path class="st3" d="M336.1,881.1c-39.9,0-71.1-17.5-71.1-39.8h8.9c0,16.7,28.5,30.9,62.2,30.9s62.2-14.1,62.2-30.9h8.9
		C407.2,863.6,375.9,881.1,336.1,881.1z"/>
	<path class="st4" d="M80.7,841.4c0,74.8,114.3,135.4,255.4,135.4s255.4-60.6,255.4-135.4H80.7L80.7,841.4z"/>
</g>
<g>
	<g>
		<g>
			<g>
				<g>
					<rect x="335.5" y="84" class="st3" width="1" height="735.3"/>
				</g>
				<g>
					<path class="st3" d="M332.3,819.1c0,3,3.4,5.2,6.6,2.8c2.4-3.1,0.2-6.6-2.8-6.6C333.9,815.4,332.3,817,332.3,819.1z"/>
				</g>
			</g>
		</g>
	</g>
	<g>
		<rect x="259.3" y="83" class="st3" width="76.7" height="1"/>
	</g>
</g>
<g>
	<path class="st3" d="M58.8,104.6c-0.7,0-1.3-0.1-2.1-0.3c-0.8-0.2-1.3-0.6-1.9-1.1c-0.6-0.4-1-1.1-1.3-1.9s-0.4-1.7-0.4-2.8v-31
		c0-1.1,0.1-2,0.4-2.8c0.3-0.8,0.8-1.4,1.3-1.9c0.6-0.4,1.2-0.9,1.9-1.1s1.3-0.3,2.1-0.3h1.1c0.7,0,1.3,0.1,2.1,0.3s1.3,0.6,1.9,1.1
		c0.6,0.4,1,1.1,1.3,1.9s0.4,1.7,0.4,2.8v11.4h-4.8V68.2c0-1.1-0.1-1.8-0.3-2.2c-0.2-0.4-0.6-0.6-1-0.6h-0.3c-0.4,0-0.8,0.2-1,0.7
		c-0.2,0.4-0.3,1.2-0.3,2.2v29.4c0,1.1,0.1,1.8,0.3,2.2c0.2,0.4,0.6,0.7,1,0.7h0.2c0.4,0,0.8-0.2,1-0.7c0.2-0.4,0.3-1.2,0.3-2.2V87
		h4.8v11.4c0,1.1-0.1,2-0.4,2.8s-0.8,1.4-1.3,1.9c-0.6,0.4-1.2,0.9-1.9,1.1s-1.3,0.3-2.1,0.3L58.8,104.6L58.8,104.6z"/>
	<path class="st3" d="M78.1,104.6c-0.7,0-1.3-0.1-2.1-0.3c-0.8-0.2-1.3-0.6-1.9-1.1c-0.6-0.4-1-1.1-1.3-1.9s-0.4-1.7-0.4-2.8v-31
		c0-1.1,0.1-2,0.4-2.8c0.3-0.8,0.8-1.4,1.3-1.9c0.6-0.4,1.2-0.9,1.9-1.1c0.7-0.2,1.3-0.3,2.1-0.3h1.1c0.7,0,1.3,0.1,2.1,0.3
		s1.3,0.6,1.9,1.1c0.6,0.4,1,1.1,1.3,1.9s0.4,1.7,0.4,2.8v31c0,1.1-0.1,2-0.4,2.8s-0.8,1.4-1.3,1.9s-1.2,0.9-1.9,1.1
		c-0.7,0.2-1.3,0.3-2.1,0.3H78.1z M78.5,65.3c-0.9,0-1.4,1-1.4,2.9v29.4c0,1.1,0.1,1.8,0.3,2.2s0.6,0.7,1,0.7h0.2
		c0.4,0,0.8-0.2,1-0.7s0.3-1.2,0.3-2.2V68.2C80,66.3,79.5,65.3,78.5,65.3L78.5,65.3z"/>
	<path class="st3" d="M100.6,104.1l-5.1-27.8h-0.1v27.8h-4V61.7h5.4l4.8,27.2V61.7h4.3v42.5C105.9,104.1,100.6,104.1,100.6,104.1z"
		/>
	<path class="st3" d="M120.3,78.8V68.2c0-1.1-0.1-1.8-0.3-2.2c-0.2-0.4-0.6-0.6-1-0.6h-0.2c-0.4,0-0.8,0.2-1,0.7
		c-0.2,0.4-0.3,1.2-0.3,2.2v5.1c0,2,0.4,3.6,1.2,5.1c0.8,1.4,1.7,2.8,2.7,4.1s1.9,2.7,2.7,4.1c0.8,1.4,1.2,3.2,1.2,5.2v6.5
		c0,1.1-0.1,2-0.4,2.8s-0.8,1.4-1.3,1.9s-1.1,0.9-1.8,1.1s-1.4,0.3-2.1,0.3h-0.9c-0.8,0-1.4-0.1-2.1-0.3c-0.7-0.2-1.3-0.6-1.9-1.1
		c-0.6-0.6-1-1.1-1.3-1.9s-0.6-1.7-0.6-2.8V87h4.3v10.6c0,1.1,0.1,1.8,0.4,2.2s0.7,0.7,1.1,0.7h0.2c0.4,0,0.8-0.2,1.1-0.7
		c0.3-0.4,0.4-1.2,0.4-2.2v-5.1c0-2-0.4-3.6-1.2-5.1c-0.8-1.4-1.7-2.8-2.7-4.1s-1.9-2.7-2.7-4.1c-0.8-1.4-1.2-3.2-1.2-5.2v-6.5
		c0-1.1,0.2-2,0.6-2.8c0.3-0.8,0.8-1.4,1.3-1.9s1.2-0.9,1.9-1.1c0.7-0.2,1.3-0.3,2.1-0.3h0.4c0.8,0,1.4,0.1,2.1,0.3s1.3,0.6,1.8,1.1
		c0.6,0.4,1,1.1,1.3,1.9s0.4,1.7,0.4,2.8v11.3C124.5,78.8,120.3,78.8,120.3,78.8z"/>
	<path class="st3" d="M137.4,104.6c-0.7,0-1.3-0.1-2.1-0.3c-0.8-0.2-1.3-0.6-1.9-1.1c-0.6-0.4-1-1.1-1.3-1.9s-0.4-1.7-0.4-2.8v-31
		c0-1.1,0.1-2,0.4-2.8c0.3-0.8,0.8-1.4,1.3-1.9c0.6-0.4,1.2-0.9,1.9-1.1s1.3-0.3,2.1-0.3h1.1c0.7,0,1.3,0.1,2.1,0.3s1.3,0.6,1.9,1.1
		c0.6,0.4,1,1.1,1.3,1.9s0.4,1.7,0.4,2.8v11.4h-4.8V68.2c0-1.1-0.1-1.8-0.3-2.2s-0.6-0.6-1-0.6H138c-0.4,0-0.8,0.2-1,0.7
		s-0.3,1.2-0.3,2.2v29.4c0,1.1,0.1,1.8,0.3,2.2s0.6,0.7,1,0.7h0.2c0.4,0,0.8-0.2,1-0.7c0.2-0.4,0.3-1.2,0.3-2.2V87h4.8v11.4
		c0,1.1-0.1,2-0.4,2.8c-0.3,0.8-0.8,1.4-1.3,1.9c-0.6,0.4-1.2,0.9-1.9,1.1s-1.3,0.3-2.1,0.3h-1.1v0.1H137.4z"/>
	<path class="st3" d="M155.8,61.7v42.5H151V61.7H155.8z"/>
	<path class="st3" d="M167.3,65.8v15.4h4.1v3.5h-4.1V100h5.6v4h-10.4V61.7h10.1v4h-5.3L167.3,65.8L167.3,65.8z"/>
	<path class="st3" d="M188.3,104.1l-5.1-27.8h-0.1v27.8h-4V61.7h5.3l4.8,27.2V61.7h4.3v42.5C193.5,104.1,188.3,104.1,188.3,104.1z"
		/>
	<path class="st3" d="M206,104.6c-0.7,0-1.3-0.1-2.1-0.3c-0.8-0.2-1.3-0.6-1.9-1.1c-0.6-0.4-1-1.1-1.3-1.9s-0.4-1.7-0.4-2.8v-31
		c0-1.1,0.1-2,0.4-2.8c0.3-0.8,0.8-1.4,1.3-1.9c0.6-0.4,1.2-0.9,1.9-1.1s1.3-0.3,2.1-0.3h1.1c0.7,0,1.3,0.1,2.1,0.3s1.3,0.6,1.9,1.1
		c0.6,0.4,1,1.1,1.3,1.9s0.4,1.7,0.4,2.8v11.4H208V68.2c0-1.1-0.1-1.8-0.3-2.2c-0.2-0.4-0.6-0.6-1-0.6h-0.2c-0.4,0-0.8,0.2-1,0.7
		c-0.2,0.4-0.3,1.2-0.3,2.2v29.4c0,1.1,0.1,1.8,0.3,2.2c0.2,0.4,0.6,0.7,1,0.7h0.2c0.4,0,0.8-0.2,1-0.7c0.2-0.4,0.3-1.2,0.3-2.2V87
		h4.8v11.4c0,1.1-0.1,2-0.4,2.8c-0.3,0.8-0.8,1.4-1.3,1.9c-0.6,0.4-1.2,0.9-1.9,1.1s-1.3,0.3-2.1,0.3L206,104.6L206,104.6z"/>
	<path class="st3" d="M224.2,61.7v42.5h-4.8V61.7H224.2z"/>
	<path class="st3" d="M238.6,93h-3.3l-0.9,11.3h-4.1l3.6-42.6h6.1l4,42.5h-4.5L238.6,93z M235.5,89.4h2.8L237,74.8h-0.2L235.5,89.4z
		"/>
</g>
<g>
	<path class="st2" d="M60.2,141.7h-1.3v-14.9l-4.5,1.7v-1.2l5.6-2.1h0.2V141.7z"/>
	<path class="st2" d="M81.7,137.1h-7.5l-1.7,4.6h-1.4l6.2-16.5h1.3l6.2,16.5h-1.4L81.7,137.1z M74.6,135.9h6.6l-3.3-9L74.6,135.9z"
		/>
	<path class="st2" d="M89.6,138.9l0.2,1.1l0.2-1.1l3-9.4h1.1l2.9,9.3l0.3,1.3l0.2-1.2l2.5-9.4h1.4L98,141.7h-1.1l-3.2-9.7l-0.1-0.7
		l-0.1,0.7l-3.1,9.7h-1.1l-3.5-12.3h1.4L89.6,138.9z"/>
	<path class="st2" d="M111.9,141.7c-0.1-0.2-0.1-0.4-0.2-0.8c0-0.3-0.1-0.7-0.1-0.9c-0.2,0.2-0.4,0.6-0.8,0.8
		c-0.3,0.2-0.6,0.4-1,0.7s-0.8,0.3-1.1,0.4c-0.3,0.1-0.9,0.1-1.3,0.1c-0.6,0-1.1-0.1-1.7-0.2c-0.4-0.2-0.9-0.4-1.2-0.8
		c-0.3-0.3-0.7-0.7-0.8-1.1s-0.2-1-0.2-1.5s0.1-1.1,0.3-1.7c0.2-0.4,0.7-0.9,1.1-1.2s1.1-0.6,1.8-0.8s1.4-0.2,2.3-0.2h2.5v-1.4
		c0-0.9-0.2-1.5-0.8-2.1s-1.3-0.8-2.3-0.8c-0.4,0-0.9,0.1-1.3,0.2c-0.4,0.1-0.8,0.3-1,0.6c-0.3,0.2-0.6,0.4-0.7,0.8
		c-0.1,0.3-0.2,0.7-0.2,1h-1.3c0-0.4,0.1-0.9,0.3-1.3c0.2-0.4,0.6-0.8,1-1.1s0.9-0.6,1.4-0.8s1.2-0.3,1.9-0.3c0.7,0,1.2,0.1,1.8,0.2
		c0.6,0.2,1,0.4,1.4,0.8c0.4,0.3,0.7,0.8,0.9,1.2c0.2,0.4,0.3,1.1,0.3,1.8v6c0,0.2,0,0.4,0,0.7s0,0.4,0.1,0.7c0,0.2,0.1,0.4,0.1,0.6
		c0,0.2,0.1,0.3,0.1,0.6v0.1C113.3,141.7,111.9,141.7,111.9,141.7z M107.6,140.7c0.4,0,1-0.1,1.3-0.2c0.4-0.1,0.8-0.3,1.1-0.6
		c0.3-0.2,0.7-0.4,0.9-0.8c0.2-0.3,0.4-0.6,0.6-1v-2.7h-2.3c-0.7,0-1.3,0.1-1.9,0.2s-1,0.3-1.4,0.6c-0.4,0.2-0.7,0.6-0.9,0.9
		c-0.2,0.3-0.3,0.7-0.3,1.1c0,0.3,0.1,0.7,0.2,0.9s0.3,0.6,0.6,0.8c0.2,0.2,0.6,0.3,0.9,0.6C106.8,140.6,107.3,140.7,107.6,140.7z"
		/>
	<path class="st2" d="M122.3,130.6c-0.3,0-0.6-0.1-0.9-0.1c-0.4,0-0.9,0.1-1.2,0.2s-0.7,0.3-1,0.6c-0.3,0.2-0.6,0.6-0.7,0.9
		c-0.2,0.3-0.3,0.7-0.4,1.1v8.4h-1.3v-12.2h1.1v2c0.3-0.7,0.8-1.2,1.3-1.5s1.3-0.6,2.1-0.6c0.2,0,0.3,0,0.6,0c0.2,0,0.3,0.1,0.3,0.1
		L122.3,130.6z"/>
	<path class="st2" d="M128.9,141.9c-0.8,0-1.5-0.1-2.2-0.4c-0.7-0.3-1.2-0.7-1.8-1.2c-0.4-0.6-0.9-1.2-1.1-1.9s-0.4-1.7-0.4-2.5
		v-0.4c0-1,0.1-1.8,0.4-2.5c0.3-0.8,0.7-1.4,1.1-2s1-1,1.7-1.2s1.3-0.4,2-0.4c0.8,0,1.4,0.1,2.1,0.4c0.7,0.3,1.1,0.7,1.5,1.2
		s0.8,1.1,0.9,1.8s0.3,1.4,0.3,2.2v0.8h-8.7v0.2c0,0.7,0.1,1.3,0.3,1.9c0.2,0.6,0.4,1.1,0.9,1.5s0.8,0.8,1.3,1
		c0.6,0.2,1.1,0.3,1.7,0.3c0.8,0,1.3-0.1,1.9-0.4c0.6-0.2,1.1-0.7,1.5-1.2l0.9,0.7c-0.2,0.3-0.4,0.6-0.7,0.9
		c-0.2,0.2-0.6,0.4-0.9,0.7c-0.3,0.2-0.8,0.3-1.2,0.4C130,141.7,129.5,141.9,128.9,141.9z M128.7,130.3c-0.6,0-1,0.1-1.4,0.3
		s-0.8,0.4-1.2,0.9c-0.4,0.4-0.7,0.8-0.8,1.3c-0.2,0.6-0.3,1.1-0.4,1.7h7.4v-0.1c0-0.6-0.1-1-0.2-1.4c-0.1-0.4-0.3-0.9-0.7-1.3
		c-0.3-0.3-0.7-0.7-1.1-0.9S129.3,130.3,128.7,130.3z"/>
	<path class="st2" d="M137.4,129.5v2.1c0.2-0.3,0.4-0.7,0.8-1c0.3-0.3,0.6-0.6,0.9-0.8c0.3-0.2,0.7-0.3,1.1-0.4
		c0.4-0.1,0.8-0.1,1.2-0.1c0.7,0,1.1,0.1,1.7,0.2s0.9,0.4,1.2,0.8c0.3,0.3,0.6,0.9,0.8,1.4s0.2,1.2,0.2,2.1v8H144v-8.1
		c0-0.7-0.1-1.2-0.2-1.5s-0.3-0.8-0.6-1c-0.2-0.2-0.6-0.4-0.9-0.6s-0.8-0.1-1.2-0.1s-0.9,0.1-1.3,0.2c-0.4,0.1-0.8,0.3-1,0.7
		c-0.2,0.3-0.6,0.6-0.8,0.9c-0.2,0.3-0.4,0.7-0.6,1.1v8.4h-1.3v-12.3L137.4,129.5L137.4,129.5z"/>
	<path class="st2" d="M153.7,141.9c-0.8,0-1.5-0.1-2.2-0.4s-1.2-0.7-1.8-1.2c-0.4-0.6-0.9-1.2-1.1-1.9c-0.2-0.7-0.4-1.5-0.4-2.4
		v-0.4c0-1,0.1-1.8,0.4-2.5c0.3-0.8,0.7-1.4,1.1-2s1-1,1.7-1.2s1.3-0.4,2-0.4c0.8,0,1.4,0.1,2.1,0.4s1.1,0.7,1.5,1.2
		s0.8,1.1,0.9,1.8c0.1,0.7,0.3,1.4,0.3,2.2v0.8h-8.7v0.1c0,0.7,0.1,1.3,0.3,1.9c0.2,0.6,0.4,1.1,0.9,1.5c0.4,0.4,0.8,0.8,1.3,1
		c0.6,0.2,1.1,0.3,1.7,0.3c0.8,0,1.3-0.1,1.9-0.4c0.6-0.2,1.1-0.7,1.5-1.2l0.9,0.7c-0.2,0.3-0.4,0.6-0.7,0.9
		c-0.2,0.2-0.6,0.4-0.9,0.7c-0.3,0.2-0.8,0.3-1.2,0.4C154.8,141.7,154.3,141.9,153.7,141.9z M153.5,130.3c-0.6,0-1,0.1-1.4,0.3
		s-0.8,0.4-1.2,0.9s-0.7,0.8-0.8,1.3c-0.2,0.6-0.3,1.1-0.4,1.7h7.4v-0.1c0-0.6-0.1-1-0.2-1.4c-0.1-0.4-0.3-0.9-0.7-1.3
		c-0.3-0.3-0.7-0.7-1.1-0.9S154,130.3,153.5,130.3z"/>
	<path class="st2" d="M168.3,138.5c0-0.2,0-0.6-0.1-0.8s-0.2-0.4-0.4-0.7s-0.6-0.4-1-0.7s-1-0.3-1.7-0.6s-1.3-0.3-1.8-0.6
		c-0.6-0.2-1-0.4-1.3-0.7c-0.3-0.2-0.7-0.6-0.9-1s-0.3-0.8-0.3-1.3c0-0.4,0.1-0.9,0.3-1.3c0.2-0.4,0.4-0.8,0.9-1.1
		c0.3-0.3,0.8-0.6,1.3-0.8s1.1-0.2,1.8-0.2s1.3,0.1,1.9,0.3s1,0.4,1.4,0.8s0.7,0.7,0.9,1.2s0.3,0.9,0.3,1.4h-1.3
		c0-0.3-0.1-0.7-0.2-0.9c-0.1-0.3-0.3-0.6-0.7-0.8c-0.2-0.2-0.6-0.4-1-0.6s-0.9-0.2-1.3-0.2c-0.6,0-1,0.1-1.3,0.2s-0.7,0.3-0.9,0.6
		c-0.2,0.2-0.4,0.4-0.6,0.7s-0.1,0.6-0.1,0.8s0,0.6,0.1,0.8s0.2,0.4,0.4,0.7s0.6,0.3,1,0.6c0.4,0.1,1,0.3,1.7,0.4
		c0.8,0.2,1.3,0.3,1.9,0.6s1,0.4,1.3,0.8s0.7,0.7,0.8,1c0.2,0.3,0.2,0.8,0.2,1.3s-0.1,1-0.3,1.4s-0.6,0.8-0.9,1.1
		c-0.4,0.3-0.9,0.6-1.4,0.7c-0.6,0.1-1.2,0.2-1.9,0.2c-0.8,0-1.4-0.1-2.1-0.3c-0.6-0.2-1.1-0.4-1.5-0.8c-0.4-0.3-0.7-0.8-0.9-1.2
		s-0.3-0.9-0.3-1.3h1.3c0,0.4,0.1,0.9,0.3,1.2s0.4,0.6,0.8,0.8c0.3,0.2,0.7,0.3,1.1,0.4c0.4,0.1,0.8,0.1,1.2,0.1
		c0.6,0,1-0.1,1.3-0.2c0.3-0.1,0.8-0.3,1-0.4c0.2-0.1,0.4-0.4,0.6-0.7C168,139.3,168.3,138.9,168.3,138.5z"/>
	<path class="st2" d="M180,138.5c0-0.2,0-0.6-0.1-0.8s-0.2-0.4-0.4-0.7s-0.6-0.4-1-0.7c-0.4-0.2-1-0.3-1.7-0.6
		c-0.7-0.2-1.3-0.3-1.8-0.6c-0.6-0.2-1-0.4-1.3-0.7c-0.3-0.2-0.7-0.6-0.9-1s-0.3-0.8-0.3-1.3c0-0.4,0.1-0.9,0.3-1.3
		c0.2-0.4,0.4-0.8,0.9-1.1c0.3-0.3,0.8-0.6,1.3-0.8s1.1-0.2,1.8-0.2s1.3,0.1,1.9,0.3s1,0.4,1.4,0.8s0.7,0.7,0.9,1.2
		c0.2,0.6,0.3,0.9,0.3,1.4H180c0-0.3-0.1-0.7-0.2-0.9c-0.1-0.3-0.3-0.6-0.7-0.8c-0.2-0.2-0.6-0.4-1-0.6c-0.4-0.1-0.9-0.2-1.3-0.2
		c-0.6,0-1,0.1-1.3,0.2s-0.7,0.3-0.9,0.6s-0.4,0.4-0.6,0.7c-0.1,0.2-0.1,0.6-0.1,0.8s0,0.6,0.1,0.8s0.2,0.4,0.4,0.7
		c0.2,0.2,0.6,0.3,1,0.6c0.4,0.1,1,0.3,1.7,0.4c0.8,0.2,1.3,0.3,1.9,0.6c0.6,0.2,1,0.4,1.3,0.8s0.7,0.7,0.8,1
		c0.2,0.3,0.2,0.8,0.2,1.3s-0.1,1-0.3,1.4s-0.6,0.8-0.9,1.1c-0.4,0.3-0.9,0.6-1.4,0.7c-0.6,0.1-1.2,0.2-1.9,0.2
		c-0.8,0-1.4-0.1-2.1-0.3c-0.6-0.2-1.1-0.4-1.5-0.8c-0.4-0.3-0.7-0.8-0.9-1.2s-0.3-0.9-0.3-1.3h1.3c0,0.4,0.1,0.9,0.3,1.2
		s0.4,0.6,0.8,0.8c0.3,0.2,0.7,0.3,1.1,0.4c0.4,0.1,0.8,0.1,1.2,0.1c0.6,0,1-0.1,1.3-0.2c0.3-0.1,0.8-0.3,1-0.4
		c0.2-0.1,0.4-0.4,0.6-0.7C179.7,139.3,180,138.9,180,138.5z"/>
	<path class="st2" d="M64.1,169.6H53.7v-1l5.4-6.1c0.6-0.6,0.9-1.1,1.3-1.5c0.3-0.4,0.7-0.9,0.9-1.3c0.2-0.4,0.3-0.8,0.4-1.1
		s0.1-0.7,0.1-1c0-0.6-0.1-1-0.2-1.3c-0.1-0.4-0.3-0.8-0.7-1.1c-0.3-0.3-0.7-0.6-1.1-0.7s-0.9-0.2-1.4-0.2s-1.1,0.1-1.5,0.3
		s-0.9,0.4-1.2,0.8c-0.3,0.3-0.6,0.8-0.8,1.2s-0.2,1-0.2,1.5h-1.3c0-0.7,0.1-1.3,0.3-1.9c0.2-0.6,0.6-1.1,1-1.5s1-0.8,1.5-1.1
		c0.7-0.2,1.3-0.4,2.1-0.4s1.4,0.1,2,0.3s1.1,0.4,1.5,0.9c0.4,0.4,0.8,0.9,1,1.4s0.3,1.2,0.3,1.9c0,0.6-0.1,1-0.2,1.5
		c-0.1,0.6-0.4,1-0.8,1.5c-0.3,0.6-0.7,1-1,1.4s-0.8,1-1.2,1.4l-4.6,5.2H64v0.8h0.1V169.6z"/>
	<path class="st2" d="M82.2,165.5c0-0.4-0.1-0.9-0.2-1.2s-0.4-0.7-0.8-1s-0.8-0.6-1.4-0.8c-0.7-0.2-1.3-0.4-2.1-0.8
		c-0.9-0.2-1.5-0.4-2.2-0.8c-0.7-0.2-1.2-0.6-1.7-1c-0.4-0.3-0.8-0.8-1.1-1.3c-0.2-0.4-0.3-1.1-0.3-1.7c0-0.7,0.1-1.2,0.4-1.8
		s0.7-1,1.1-1.3s1.1-0.7,1.8-0.9c0.7-0.2,1.4-0.3,2.2-0.3c0.9,0,1.7,0.1,2.3,0.3c0.7,0.2,1.3,0.7,1.8,1.1c0.4,0.4,0.9,1,1.1,1.5
		s0.4,1.2,0.4,1.9h-1.4c0-0.6-0.1-1-0.3-1.4s-0.4-0.9-0.8-1.2c-0.3-0.3-0.8-0.6-1.3-0.8c-0.6-0.2-1.1-0.3-1.8-0.3
		c-0.7,0-1.3,0.1-1.8,0.2c-0.6,0.1-1,0.3-1.3,0.7s-0.6,0.6-0.8,1c-0.2,0.3-0.2,0.8-0.2,1.2s0.1,0.8,0.2,1.1s0.4,0.7,0.8,0.9
		c0.3,0.3,0.8,0.6,1.3,0.8c0.6,0.2,1.2,0.4,2.1,0.7c0.9,0.2,1.7,0.6,2.3,0.8c0.7,0.2,1.2,0.7,1.8,1c0.4,0.4,0.8,0.9,1.1,1.3
		c0.3,0.4,0.3,1.1,0.3,1.8s-0.1,1.3-0.4,1.8c-0.3,0.6-0.7,1-1.2,1.3c-0.6,0.3-1.1,0.7-1.8,0.9c-0.7,0.2-1.4,0.3-2.3,0.3
		c-0.4,0-1,0-1.4-0.1s-1-0.2-1.4-0.3c-0.4-0.2-0.9-0.4-1.3-0.7c-0.4-0.2-0.8-0.6-1-1c-0.3-0.3-0.6-0.8-0.7-1.2
		c-0.2-0.4-0.2-1-0.2-1.5h1.4c0,0.7,0.1,1.3,0.4,1.8c0.3,0.4,0.7,0.9,1.1,1.2s1,0.6,1.5,0.7s1.1,0.2,1.7,0.2c0.7,0,1.2-0.1,1.8-0.2
		s1-0.3,1.3-0.7c0.3-0.2,0.7-0.6,0.9-1C82.1,166.4,82.2,165.9,82.2,165.5z"/>
	<path class="st2" d="M91,169.8c-0.8,0-1.5-0.1-2.2-0.4c-0.7-0.3-1.2-0.7-1.8-1.2c-0.4-0.6-0.9-1.2-1.1-1.9s-0.4-1.5-0.4-2.4v-0.4
		c0-1,0.1-1.8,0.4-2.5c0.3-0.8,0.7-1.4,1.1-2s1-1,1.7-1.2s1.3-0.4,2-0.4c0.8,0,1.4,0.1,2.1,0.4s1.1,0.7,1.5,1.2s0.8,1.1,0.9,1.8
		s0.3,1.4,0.3,2.2v0.7h-8.6v0.2c0,0.7,0.1,1.3,0.3,1.9s0.4,1.1,0.9,1.5s0.8,0.8,1.3,1c0.6,0.2,1.1,0.3,1.7,0.3
		c0.8,0,1.3-0.1,1.9-0.4c0.6-0.2,1.1-0.7,1.5-1.2l0.9,0.7c-0.2,0.3-0.4,0.6-0.7,0.9c-0.2,0.2-0.6,0.4-0.9,0.7
		c-0.3,0.2-0.8,0.3-1.2,0.4C92.2,169.6,91.6,169.8,91,169.8z M90.8,158.2c-0.6,0-1,0.1-1.4,0.3s-0.8,0.4-1.2,0.9
		c-0.4,0.4-0.7,0.8-0.8,1.3c-0.2,0.6-0.3,1.1-0.4,1.7h7.4v-0.1c0-0.6-0.1-1-0.2-1.4s-0.3-0.9-0.7-1.3c-0.3-0.3-0.7-0.7-1.1-0.9
		S91.3,158.2,90.8,158.2z"/>
	<path class="st2" d="M99.5,157.3v2.1c0.2-0.3,0.4-0.7,0.8-1c0.3-0.3,0.6-0.6,0.9-0.8s0.7-0.3,1.1-0.4c0.4-0.1,0.8-0.1,1.2-0.1
		c0.7,0,1.1,0.1,1.7,0.2s0.9,0.4,1.2,0.8c0.3,0.3,0.6,0.9,0.8,1.4c0.2,0.6,0.2,1.2,0.2,2.1v8H106v-8c0-0.7-0.1-1.2-0.2-1.5
		s-0.3-0.8-0.6-1c-0.2-0.2-0.6-0.4-0.9-0.6c-0.3-0.1-0.8-0.1-1.2-0.1s-0.9,0.1-1.3,0.2c-0.4,0.1-0.8,0.3-1,0.7
		c-0.2,0.3-0.6,0.6-0.8,0.9c-0.2,0.3-0.4,0.7-0.6,1.1v8.4h-1.3v-12.4L99.5,157.3L99.5,157.3z"/>
	<path class="st2" d="M118.3,166.4c0-0.2,0-0.6-0.1-0.8s-0.2-0.4-0.4-0.7s-0.6-0.4-1-0.7c-0.4-0.2-1-0.3-1.7-0.6
		c-0.7-0.2-1.3-0.3-1.8-0.6c-0.6-0.2-1-0.4-1.3-0.7c-0.3-0.2-0.7-0.6-0.9-1c-0.2-0.4-0.3-0.8-0.3-1.3c0-0.4,0.1-0.9,0.3-1.3
		c0.2-0.4,0.4-0.8,0.9-1.1c0.3-0.3,0.8-0.6,1.3-0.8s1.1-0.2,1.8-0.2c0.7,0,1.3,0.1,1.9,0.3s1,0.4,1.4,0.8c0.4,0.3,0.7,0.7,0.9,1.2
		c0.2,0.6,0.3,0.9,0.3,1.4h-1.3c0-0.3-0.1-0.7-0.2-0.9c-0.1-0.3-0.3-0.6-0.7-0.8c-0.2-0.2-0.6-0.4-1-0.6c-0.4-0.1-0.9-0.2-1.3-0.2
		c-0.6,0-1,0.1-1.3,0.2c-0.3,0.1-0.7,0.3-0.9,0.6c-0.2,0.2-0.4,0.4-0.6,0.7c-0.1,0.2-0.1,0.6-0.1,0.8s0,0.6,0.1,0.8s0.2,0.4,0.4,0.7
		c0.2,0.2,0.6,0.3,1,0.6c0.4,0.1,1,0.3,1.7,0.4c0.8,0.2,1.3,0.3,1.9,0.6c0.6,0.2,1,0.4,1.3,0.8c0.3,0.3,0.7,0.7,0.8,1
		c0.2,0.3,0.2,0.8,0.2,1.3s-0.1,1-0.3,1.4s-0.6,0.8-0.9,1.1c-0.4,0.3-0.9,0.6-1.4,0.7s-1.2,0.2-1.9,0.2c-0.8,0-1.4-0.1-2.1-0.3
		c-0.6-0.2-1.1-0.4-1.5-0.8c-0.4-0.3-0.7-0.8-0.9-1.2c-0.2-0.4-0.3-0.9-0.3-1.3h1.3c0,0.4,0.1,0.9,0.3,1.2c0.2,0.3,0.4,0.6,0.8,0.8
		c0.3,0.2,0.7,0.3,1.1,0.4s0.8,0.1,1.2,0.1c0.6,0,1-0.1,1.3-0.2s0.8-0.3,1-0.4c0.2-0.1,0.4-0.4,0.6-0.7S118.3,166.7,118.3,166.4z"/>
	<path class="st2" d="M122.7,153.8c0-0.2,0.1-0.4,0.2-0.7c0.1-0.2,0.4-0.2,0.7-0.2c0.2,0,0.6,0.1,0.7,0.2c0.2,0.2,0.2,0.4,0.2,0.7
		s-0.1,0.4-0.2,0.7c-0.2,0.2-0.4,0.2-0.7,0.2c-0.2,0-0.6-0.1-0.7-0.2C122.8,154.3,122.7,154,122.7,153.8z M124.3,169.6H123v-12.3
		h1.3V169.6z"/>
	<path class="st2" d="M137.9,163.5c0,0.9-0.1,1.8-0.3,2.5s-0.6,1.4-0.9,2c-0.4,0.6-0.9,1-1.4,1.3s-1.2,0.4-2,0.4
		c-0.9,0-1.7-0.2-2.3-0.6c-0.7-0.3-1.2-0.8-1.5-1.4l-0.1,1.7H128V152h1.3v7c0.4-0.7,0.9-1.1,1.5-1.4c0.7-0.3,1.4-0.6,2.3-0.6
		c0.8,0,1.4,0.1,2,0.4s1.1,0.7,1.4,1.2c0.3,0.6,0.7,1.2,0.9,2s0.3,1.7,0.3,2.5v0.4H137.9z M136.4,163.3c0-0.7-0.1-1.3-0.2-2
		c-0.1-0.7-0.3-1.1-0.7-1.7c-0.3-0.6-0.7-0.8-1.1-1.1c-0.4-0.2-1-0.4-1.7-0.4c-0.6,0-1,0.1-1.3,0.2c-0.4,0.1-0.8,0.3-1,0.6
		s-0.6,0.6-0.8,0.8s-0.3,0.7-0.4,1v5.5c0.1,0.3,0.3,0.7,0.6,0.9c0.2,0.3,0.4,0.6,0.8,0.8s0.7,0.3,1,0.4s0.8,0.2,1.3,0.2
		c0.7,0,1.1-0.1,1.5-0.3s0.8-0.7,1.1-1.1c0.3-0.4,0.6-1,0.7-1.7C136.3,164.7,136.4,164.1,136.4,163.3L136.4,163.3L136.4,163.3z"/>
	<path class="st2" d="M140.8,153.8c0-0.2,0.1-0.4,0.2-0.7c0.1-0.2,0.4-0.2,0.7-0.2s0.6,0.1,0.7,0.2c0.2,0.2,0.2,0.4,0.2,0.7
		s-0.1,0.4-0.2,0.7c-0.2,0.2-0.4,0.2-0.7,0.2s-0.6-0.1-0.7-0.2S140.8,154,140.8,153.8z M142.4,169.6h-1.3v-12.3h1.3V169.6z"/>
	<path class="st2" d="M147.6,169.6h-1.3v-17.5h1.3V169.6z"/>
	<path class="st2" d="M151.2,153.8c0-0.2,0.1-0.4,0.2-0.7c0.1-0.2,0.4-0.2,0.7-0.2c0.2,0,0.6,0.1,0.7,0.2c0.2,0.2,0.2,0.4,0.2,0.7
		s-0.1,0.4-0.2,0.7c-0.2,0.2-0.4,0.2-0.7,0.2c-0.2,0-0.6-0.1-0.7-0.2S151.2,154,151.2,153.8z M152.8,169.6h-1.3v-12.3h1.3V169.6z"/>
	<path class="st2" d="M157.3,168.4h8v1.1h-9.6v-1l7.4-10.1h-7.2v-1.2h9v1L157.3,168.4z"/>
	<path class="st2" d="M175.5,169.6c-0.1-0.2-0.1-0.4-0.2-0.8c0-0.3-0.1-0.7-0.1-0.9c-0.2,0.2-0.4,0.6-0.8,0.8
		c-0.3,0.2-0.6,0.4-1,0.7c-0.4,0.2-0.8,0.3-1.1,0.4c-0.3,0.1-0.9,0.1-1.3,0.1c-0.6,0-1.1-0.1-1.7-0.2c-0.4-0.2-0.9-0.4-1.2-0.8
		c-0.3-0.3-0.7-0.7-0.8-1.1c-0.1-0.4-0.3-0.9-0.3-1.4s0.1-1.1,0.3-1.7c0.2-0.4,0.7-0.9,1.1-1.2c0.4-0.3,1.1-0.6,1.8-0.8
		s1.4-0.2,2.3-0.2h2.5v-1.4c0-0.9-0.2-1.5-0.8-2.1s-1.3-0.8-2.3-0.8c-0.4,0-0.9,0.1-1.3,0.2c-0.4,0.1-0.8,0.3-1,0.6
		c-0.3,0.2-0.6,0.4-0.7,0.8s-0.2,0.7-0.2,1h-1.3c0-0.4,0.1-0.9,0.3-1.3c0.2-0.4,0.6-0.8,1-1.1s0.9-0.6,1.4-0.8
		c0.6-0.2,1.2-0.3,1.9-0.3s1.2,0.1,1.8,0.2c0.6,0.2,1,0.4,1.4,0.8c0.4,0.3,0.7,0.8,0.9,1.2s0.3,1.1,0.3,1.8v6c0,0.2,0,0.4,0,0.7
		s0,0.4,0.1,0.7c0,0.2,0.1,0.4,0.1,0.6c0,0.2,0.1,0.3,0.1,0.6v0.1h-1.3v-0.4H175.5z M171.3,168.6c0.4,0,1-0.1,1.3-0.2
		c0.4-0.1,0.8-0.3,1.1-0.6c0.3-0.2,0.7-0.4,0.9-0.8s0.4-0.6,0.6-1v-2.5h-2.3c-0.7,0-1.3,0.1-1.9,0.2c-0.6,0.1-1,0.3-1.4,0.6
		c-0.4,0.2-0.7,0.6-0.9,0.9c-0.2,0.3-0.3,0.7-0.3,1.1c0,0.3,0.1,0.7,0.2,0.9s0.3,0.6,0.6,0.8c0.2,0.2,0.6,0.3,0.9,0.6
		C170.4,168.5,170.8,168.6,171.3,168.6z"/>
	<path class="st2" d="M184.8,168.6c0.4,0,0.9-0.1,1.2-0.2c0.4-0.1,0.8-0.3,1.1-0.6c0.3-0.2,0.6-0.6,0.8-0.9c0.2-0.3,0.3-0.8,0.3-1.2
		h1.3c0,0.6-0.2,1.1-0.4,1.7c-0.2,0.4-0.6,0.9-1,1.2s-0.9,0.7-1.4,0.9c-0.6,0.2-1.1,0.3-1.8,0.3c-0.9,0-1.7-0.1-2.3-0.4
		c-0.7-0.3-1.2-0.8-1.7-1.3c-0.4-0.6-0.8-1.2-1-2s-0.3-1.5-0.3-2.4v-0.4c0-0.9,0.1-1.7,0.3-2.4c0.2-0.8,0.6-1.4,1-2s1-1,1.7-1.3
		s1.4-0.4,2.2-0.4c0.7,0,1.2,0.1,1.9,0.3s1.1,0.4,1.4,0.9c0.4,0.3,0.8,0.9,1,1.3c0.2,0.4,0.4,1.1,0.4,1.8h-1.3c0-0.6-0.1-1-0.3-1.3
		s-0.4-0.8-0.8-1c-0.3-0.3-0.7-0.4-1.1-0.7c-0.4-0.1-0.9-0.2-1.3-0.2c-0.7,0-1.3,0.1-1.8,0.4c-0.4,0.2-0.9,0.7-1.2,1.1
		s-0.6,1-0.7,1.5c-0.1,0.6-0.2,1.2-0.2,1.9v0.4c0,0.7,0.1,1.3,0.2,1.9c0.1,0.6,0.3,1.1,0.7,1.5s0.7,0.8,1.2,1.1
		C183.4,168.5,184,168.6,184.8,168.6z M185.1,169.7l-0.1,0.8c0.2,0,0.4,0.1,0.7,0.1c0.2,0.1,0.4,0.2,0.6,0.3
		c0.1,0.1,0.3,0.3,0.4,0.6c0.1,0.2,0.1,0.6,0.1,0.9s-0.1,0.7-0.2,0.9s-0.3,0.6-0.7,0.7c-0.3,0.2-0.7,0.3-1,0.4
		c-0.4,0.1-0.9,0.1-1.4,0.1l-0.1-0.9c0.3,0,0.6,0,0.9-0.1s0.6-0.1,0.8-0.2c0.2-0.1,0.4-0.2,0.6-0.4c0.1-0.2,0.2-0.3,0.2-0.7
		s-0.1-0.8-0.4-0.9c-0.3-0.2-0.9-0.3-1.5-0.3l0.3-1.4h1v0.1H185.1z"/>
	<path class="st2" d="M199.9,169.6c-0.1-0.2-0.1-0.4-0.2-0.8c0-0.3-0.1-0.7-0.1-0.9c-0.2,0.2-0.4,0.6-0.8,0.8
		c-0.3,0.2-0.6,0.4-1,0.7c-0.4,0.2-0.8,0.3-1.1,0.4c-0.3,0.1-0.9,0.1-1.3,0.1c-0.6,0-1.1-0.1-1.7-0.2c-0.4-0.2-0.9-0.4-1.2-0.8
		c-0.3-0.3-0.7-0.7-0.8-1.1c-0.1-0.4-0.3-0.9-0.3-1.4s0.1-1.1,0.3-1.7c0.2-0.4,0.7-0.9,1.1-1.2c0.4-0.3,1.1-0.6,1.8-0.8
		s1.4-0.2,2.3-0.2h2.5v-1.4c0-0.9-0.2-1.5-0.8-2.1s-1.3-0.8-2.3-0.8c-0.4,0-0.9,0.1-1.3,0.2c-0.4,0.1-0.8,0.3-1,0.6
		c-0.3,0.2-0.6,0.4-0.7,0.8c-0.1,0.3-0.2,0.7-0.2,1h-1.3c0-0.4,0.1-0.9,0.3-1.3c0.2-0.4,0.6-0.8,1-1.1s0.9-0.6,1.4-0.8
		c0.6-0.2,1.2-0.3,1.9-0.3s1.2,0.1,1.8,0.2c0.6,0.2,1,0.4,1.4,0.8c0.4,0.3,0.7,0.8,0.9,1.2s0.3,1.1,0.3,1.8v6c0,0.2,0,0.4,0,0.7
		s0,0.4,0.1,0.7c0,0.2,0.1,0.4,0.1,0.6c0,0.2,0.1,0.3,0.1,0.6v0.1h-1.3v-0.4H199.9z M195.6,168.6c0.4,0,1-0.1,1.3-0.2
		c0.4-0.1,0.8-0.3,1.1-0.6c0.3-0.2,0.7-0.4,0.9-0.8s0.4-0.6,0.6-1v-2.5h-2.3c-0.7,0-1.3,0.1-1.9,0.2c-0.6,0.1-1,0.3-1.4,0.6
		c-0.4,0.2-0.7,0.6-0.9,0.9s-0.3,0.7-0.3,1.1c0,0.3,0.1,0.7,0.2,0.9c0.1,0.2,0.3,0.6,0.6,0.8c0.2,0.2,0.6,0.3,0.9,0.6
		C194.8,168.5,195.2,168.6,195.6,168.6z M200.8,152.6c0,0.3-0.1,0.7-0.2,1c-0.1,0.3-0.2,0.6-0.4,0.8s-0.4,0.3-0.7,0.4
		c-0.2,0.1-0.6,0.2-0.9,0.2c-0.2,0-0.4,0-0.7-0.1s-0.3-0.1-0.6-0.2c-0.1-0.1-0.3-0.2-0.4-0.3c-0.1-0.1-0.3-0.2-0.4-0.3
		c-0.1-0.1-0.3-0.2-0.4-0.2s-0.3-0.1-0.6-0.1s-0.7,0.1-0.9,0.3s-0.3,0.6-0.3,1h-1c0-0.3,0.1-0.7,0.2-1c0.1-0.3,0.2-0.6,0.4-0.8
		s0.4-0.3,0.7-0.4s0.6-0.2,0.9-0.2s0.7,0.1,0.9,0.2s0.6,0.2,0.8,0.4s0.4,0.3,0.7,0.4c0.2,0.1,0.6,0.2,0.8,0.2c0.3,0,0.7-0.1,0.9-0.3
		s0.3-0.6,0.3-1L200.8,152.6L200.8,152.6z"/>
	<path class="st2" d="M203.9,163.3c0-0.9,0.1-1.8,0.4-2.4c0.2-0.8,0.7-1.4,1.1-2c0.4-0.6,1.1-1,1.8-1.3s1.4-0.4,2.2-0.4
		c0.9,0,1.5,0.1,2.3,0.4c0.8,0.3,1.2,0.8,1.8,1.3c0.4,0.6,0.9,1.2,1.1,2c0.2,0.8,0.3,1.5,0.3,2.4v0.3c0,0.9-0.1,1.8-0.3,2.4
		s-0.7,1.4-1.1,2c-0.4,0.6-1.1,1-1.8,1.3s-1.4,0.4-2.2,0.4s-1.5-0.1-2.2-0.4c-0.7-0.3-1.2-0.8-1.8-1.3c-0.4-0.6-0.9-1.2-1.1-2
		s-0.4-1.5-0.4-2.4v-0.3H203.9z M205.2,163.6c0,0.7,0.1,1.3,0.2,1.9c0.1,0.6,0.4,1.1,0.8,1.5s0.8,0.8,1.3,1.1
		c0.6,0.3,1.1,0.4,1.8,0.4s1.2-0.1,1.8-0.4c0.6-0.2,0.9-0.7,1.3-1.1c0.3-0.4,0.7-1,0.8-1.5s0.2-1.2,0.2-1.9v-0.3
		c0-0.7-0.1-1.3-0.2-1.9s-0.4-1.1-0.8-1.7s-0.8-0.9-1.3-1.1s-1.1-0.4-1.8-0.4s-1.2,0.1-1.8,0.4s-0.9,0.7-1.3,1.1
		c-0.4,0.4-0.7,1-0.8,1.7s-0.2,1.2-0.2,1.9V163.6z"/>
</g>
<g>
	<path class="st3" d="M58.8,424.4c-0.7,0-1.3-0.1-2.1-0.3c-0.8-0.2-1.3-0.6-1.9-1.1s-1-1.1-1.3-1.9s-0.4-1.7-0.4-2.8v-31
		c0-1.1,0.1-2,0.4-2.8c0.3-0.8,0.8-1.4,1.3-1.9s1.2-0.9,1.9-1.1s1.3-0.3,2.1-0.3h1.1c0.7,0,1.3,0.1,2.1,0.3s1.3,0.6,1.9,1.1
		c0.6,0.4,1,1.1,1.3,1.9s0.4,1.7,0.4,2.8v11.4h-4.8V388c0-1.1-0.1-1.8-0.3-2.2c-0.2-0.4-0.6-0.6-1-0.6h-0.3c-0.4,0-0.8,0.2-1,0.7
		s-0.3,1.2-0.3,2.2v29.4c0,1.1,0.1,1.8,0.3,2.2s0.6,0.7,1,0.7h0.2c0.4,0,0.8-0.2,1-0.7c0.2-0.4,0.3-1.2,0.3-2.2v-10.7h4.8v11.4
		c0,1.1-0.1,2-0.4,2.8s-0.8,1.4-1.3,1.9c-0.6,0.4-1.2,0.9-1.9,1.1s-1.3,0.3-2.1,0.3h-1V424.4z"/>
	<path class="st3" d="M78,424.4c-0.7,0-1.3-0.1-2.1-0.3c-0.8-0.2-1.3-0.6-1.9-1.1s-1-1.1-1.3-1.9s-0.4-1.7-0.4-2.8v-31
		c0-1.1,0.1-2,0.4-2.8s0.8-1.4,1.3-1.9s1.2-0.9,1.9-1.1c0.7-0.2,1.3-0.3,2.1-0.3h1.1c0.7,0,1.3,0.1,2.1,0.3s1.3,0.6,1.9,1.1
		c0.6,0.4,1,1.1,1.3,1.9s0.4,1.7,0.4,2.8v31c0,1.1-0.1,2-0.4,2.8s-0.8,1.4-1.3,1.9c-0.6,0.4-1.2,0.9-1.9,1.1
		c-0.7,0.2-1.3,0.3-2.1,0.3H78z M78.4,385.2c-0.9,0-1.4,1-1.4,2.9v29.4c0,1.1,0.1,1.8,0.3,2.2c0.2,0.4,0.6,0.7,1,0.7h0.2
		c0.4,0,0.8-0.2,1-0.7c0.2-0.4,0.3-1.2,0.3-2.2v-29.4C79.8,386.2,79.4,385.2,78.4,385.2L78.4,385.2z"/>
	<path class="st3" d="M100.6,424l-5.1-27.8h-0.1V424h-4v-42.5h5.3l4.8,27.2v-27.2h4.3V424H100.6z"/>
	<path class="st3" d="M120.3,398.6V388c0-1.1-0.1-1.8-0.3-2.2c-0.2-0.4-0.6-0.6-1-0.6h-0.2c-0.4,0-0.8,0.2-1,0.7s-0.3,1.2-0.3,2.2
		v5.1c0,2,0.4,3.6,1.2,5.1c0.8,1.4,1.7,2.8,2.7,4.1c1,1.3,1.9,2.7,2.7,4.1c0.8,1.4,1.2,3.2,1.2,5.2v6.5c0,1.1-0.1,2-0.4,2.8
		s-0.8,1.4-1.3,1.9c-0.6,0.4-1.1,0.9-1.8,1.1c-0.7,0.2-1.4,0.3-2.1,0.3h-0.9c-0.8,0-1.4-0.1-2.1-0.3c-0.7-0.2-1.3-0.6-1.9-1.1
		s-1-1.1-1.3-1.9s-0.6-1.7-0.6-2.8v-11.4h4.3v10.6c0,1.1,0.1,1.8,0.4,2.2c0.3,0.4,0.7,0.7,1.1,0.7h0.2c0.4,0,0.8-0.2,1.1-0.7
		c0.3-0.4,0.4-1.2,0.4-2.2v-5.1c0-2-0.4-3.6-1.2-5.1c-0.8-1.4-1.7-2.8-2.7-4.1c-1-1.3-1.9-2.7-2.7-4.1c-0.8-1.4-1.2-3.2-1.2-5.2
		v-6.5c0-1.1,0.2-2,0.6-2.8c0.3-0.8,0.8-1.4,1.3-1.9c0.6-0.4,1.2-0.9,1.9-1.1c0.7-0.2,1.3-0.3,2.1-0.3h0.6c0.8,0,1.4,0.1,2.1,0.3
		c0.7,0.2,1.3,0.6,1.8,1.1c0.4,0.6,1,1.1,1.3,1.9s0.4,1.7,0.4,2.8v11.3H120.3z"/>
	<path class="st3" d="M137.4,424.4c-0.7,0-1.3-0.1-2.1-0.3c-0.8-0.2-1.3-0.6-1.9-1.1s-1-1.1-1.3-1.9s-0.4-1.7-0.4-2.8v-31
		c0-1.1,0.1-2,0.4-2.8c0.3-0.8,0.8-1.4,1.3-1.9s1.2-0.9,1.9-1.1s1.3-0.3,2.1-0.3h1.1c0.7,0,1.3,0.1,2.1,0.3c0.8,0.2,1.3,0.6,1.9,1.1
		c0.6,0.4,1,1.1,1.3,1.9s0.4,1.7,0.4,2.8v31c0,1.1-0.1,2-0.4,2.8c-0.3,0.8-0.8,1.4-1.3,1.9c-0.6,0.4-1.2,0.9-1.9,1.1
		s-1.3,0.3-2.1,0.3H137.4z M137.9,385.2c-0.9,0-1.4,1-1.4,2.9v29.4c0,1.1,0.1,1.8,0.3,2.2s0.6,0.7,1,0.7h0.2c0.4,0,0.8-0.2,1-0.7
		s0.3-1.2,0.3-2.2v-29.4C139.3,386.2,138.9,385.2,137.9,385.2L137.9,385.2z"/>
	<path class="st3" d="M155.7,381.6v38.8h5.1v3.5H151v-42.5h4.6L155.7,381.6L155.7,381.6z"/>
	<path class="st3" d="M171.5,381.6V424h-4.8v-42.5h4.8V381.6z"/>
	<path class="st3" d="M178.4,424v-42.5h6.7c0.8,0,1.4,0.1,2.1,0.3c0.7,0.2,1.3,0.6,1.9,1.1c0.6,0.4,1,1.1,1.3,1.9s0.4,1.7,0.4,2.8
		V418c0,1.1-0.1,2-0.4,2.8s-0.8,1.3-1.3,1.9c-0.6,0.4-1.1,0.9-1.9,1.1c-0.7,0.2-1.4,0.3-2.1,0.3L178.4,424L178.4,424z M183,385.6
		V420h1.7c0.4,0,0.8-0.2,1-0.6c0.2-0.3,0.3-1.1,0.3-2.2v-29c0-1-0.1-1.8-0.3-2.1c-0.2-0.3-0.6-0.6-1-0.6H183V385.6z"/>
	<path class="st3" d="M205.1,412.8h-3.3l-0.9,11.3h-4.1l3.8-42.5h6.1l4,42.5h-4.5L205.1,412.8z M202,409.2h2.8l-1.3-14.6h-0.2
		L202,409.2z"/>
	<path class="st3" d="M222.2,424.4c-0.7,0-1.3-0.1-2.1-0.3c-0.8-0.2-1.3-0.6-1.9-1.1s-1-1.1-1.3-1.9s-0.4-1.7-0.4-2.8v-31
		c0-1.1,0.1-2,0.4-2.8c0.3-0.8,0.8-1.4,1.3-1.9s1.2-0.9,1.9-1.1s1.3-0.3,2.1-0.3h1.1c0.7,0,1.3,0.1,2.1,0.3s1.3,0.6,1.9,1.1
		c0.6,0.4,1,1.1,1.3,1.9s0.4,1.7,0.4,2.8v11.4h-4.8V388c0-1.1-0.1-1.8-0.3-2.2c-0.2-0.4-0.6-0.6-1-0.6h-0.2c-0.4,0-0.8,0.2-1,0.7
		s-0.3,1.2-0.3,2.2v29.4c0,1.1,0.1,1.8,0.3,2.2s0.6,0.7,1,0.7h0.2c0.4,0,0.8-0.2,1-0.7s0.3-1.2,0.3-2.2v-10.7h4.8v11.4
		c0,1.1-0.1,2-0.4,2.8s-0.8,1.4-1.3,1.9s-1.2,0.9-1.9,1.1s-1.3,0.3-2.1,0.3h-1.1V424.4z"/>
	<path class="st3" d="M243.3,412.8H240l-0.9,11.3H235l3.8-42.5h6.1l4,42.5h-4.5L243.3,412.8z M240.3,409.2h2.8l-1.3-14.6h-0.2
		L240.3,409.2z"/>
	<path class="st3" d="M260.4,424.4c-0.7,0-1.3-0.1-2.1-0.3c-0.8-0.2-1.3-0.6-1.9-1.1s-1-1.1-1.3-1.9s-0.4-1.7-0.4-2.8v-31
		c0-1.1,0.1-2,0.4-2.8c0.3-0.8,0.8-1.4,1.3-1.9s1.2-0.9,1.9-1.1c0.7-0.2,1.3-0.3,2.1-0.3h1.1c0.7,0,1.3,0.1,2.1,0.3s1.3,0.6,1.9,1.1
		c0.6,0.4,1,1.1,1.3,1.9s0.4,1.7,0.4,2.8v31c0,1.1-0.1,2-0.4,2.8s-0.8,1.4-1.3,1.9c-0.6,0.4-1.2,0.9-1.9,1.1
		c-0.7,0.2-1.3,0.3-2.1,0.3H260.4z M260.8,385.2c-0.9,0-1.4,1-1.4,2.9v29.4c0,1.1,0.1,1.8,0.3,2.2c0.2,0.4,0.6,0.7,1,0.7h0.2
		c0.4,0,0.8-0.2,1-0.7s0.3-1.2,0.3-2.2v-29.4C262.3,386.2,261.8,385.2,260.8,385.2L260.8,385.2z"/>
</g>
<g>
	<path class="st0" d="M61.7,450.9v1.2h-0.1c-1,0-1.9,0.1-2.7,0.4s-1.4,0.8-2,1.3c-0.6,0.6-1,1.2-1.3,2.1s-0.6,1.8-0.6,2.8
		c0.4-0.7,1-1.1,1.8-1.4c0.7-0.3,1.5-0.6,2.3-0.6s1.4,0.1,2.1,0.4c0.6,0.3,1.1,0.7,1.4,1.2c0.4,0.6,0.7,1.1,0.9,1.8s0.3,1.3,0.3,2.1
		s-0.1,1.5-0.3,2.2s-0.6,1.3-1,1.8c-0.4,0.6-0.9,0.9-1.5,1.2c-0.6,0.3-1.3,0.4-2,0.4c-0.9,0-1.5-0.1-2.2-0.4s-1.2-0.8-1.7-1.3
		s-0.8-1.2-1.1-1.9c-0.2-0.8-0.3-1.5-0.3-2.3v-1.7c0-1.4,0.1-2.7,0.4-3.9c0.3-1.1,0.8-2.1,1.4-3c0.7-0.9,1.4-1.4,2.4-1.9
		c1-0.4,2.1-0.7,3.4-0.7L61.7,450.9L61.7,450.9z M58.9,457.9c-0.4,0-0.9,0.1-1.3,0.2s-0.8,0.3-1.1,0.6c-0.3,0.2-0.7,0.6-0.9,0.9
		s-0.4,0.7-0.6,1.1v1.1c0,0.8,0.1,1.4,0.3,2.1c0.2,0.6,0.4,1.1,0.9,1.5c0.3,0.4,0.8,0.8,1.2,1s1,0.3,1.5,0.3s1-0.1,1.4-0.3
		c0.4-0.2,0.8-0.6,1.1-1s0.6-0.9,0.7-1.4c0.1-0.6,0.2-1.1,0.2-1.8c0-0.6-0.1-1.1-0.2-1.7s-0.3-1-0.7-1.3s-0.7-0.7-1.1-0.9
		C60,458,59.5,457.9,58.9,457.9z"/>
	<path class="st0" d="M73.8,455.3v2c0.2-0.3,0.4-0.7,0.7-0.9c0.2-0.3,0.6-0.6,0.9-0.7c0.3-0.2,0.7-0.3,1.1-0.4s0.8-0.1,1.2-0.1
		c0.9,0,1.7,0.2,2.3,0.6s1.1,1,1.3,1.8c0.2-0.3,0.4-0.7,0.7-1c0.2-0.3,0.6-0.6,1-0.8c0.3-0.2,0.8-0.3,1.2-0.6s0.9-0.2,1.3-0.2
		c0.7,0,1.2,0.1,1.7,0.2c0.6,0.2,0.9,0.4,1.2,0.8s0.6,0.9,0.8,1.4s0.2,1.2,0.2,2v8H88v-8c0-0.7-0.1-1.2-0.2-1.7
		c-0.1-0.4-0.3-0.8-0.7-1c-0.2-0.2-0.6-0.4-1-0.6c-0.3-0.1-0.8-0.1-1.2-0.1c-0.6,0-1.1,0.1-1.5,0.3c-0.4,0.2-0.8,0.4-1.1,0.8
		s-0.6,0.7-0.7,1s-0.2,0.8-0.3,1.1v8.1H80v-8.1c0-0.7-0.1-1.1-0.2-1.5s-0.3-0.8-0.7-1c-0.3-0.2-0.6-0.4-1-0.6
		c-0.3-0.1-0.8-0.1-1.2-0.1c-0.6,0-1,0.1-1.3,0.2c-0.4,0.1-0.8,0.3-1,0.7c-0.3,0.2-0.6,0.6-0.8,0.9c-0.2,0.3-0.3,0.7-0.4,1.1v8.4H72
		V455h1.8V455.3z"/>
	<path class="st0" d="M93,451.8c0-0.2,0.1-0.4,0.2-0.7c0.2-0.2,0.4-0.2,0.7-0.2c0.2,0,0.6,0.1,0.7,0.2c0.2,0.2,0.2,0.4,0.2,0.7
		c0,0.2-0.1,0.4-0.2,0.7c-0.2,0.2-0.4,0.2-0.7,0.2c-0.2,0-0.6-0.1-0.7-0.2S93,452,93,451.8z M94.5,467.6h-1.3v-12.3h1.3V467.6z"/>
	<path class="st0" d="M99.5,455.3v2.1c0.2-0.3,0.4-0.7,0.8-1c0.3-0.3,0.6-0.6,0.9-0.8c0.3-0.2,0.7-0.3,1.1-0.4s0.8-0.1,1.2-0.1
		c0.7,0,1.1,0.1,1.7,0.2s0.9,0.4,1.2,0.8c0.3,0.3,0.6,0.9,0.8,1.4s0.2,1.2,0.2,2.1v8H106v-8c0-0.7-0.1-1.2-0.2-1.5s-0.3-0.8-0.6-1
		c-0.2-0.2-0.6-0.4-0.9-0.6c-0.3-0.1-0.8-0.1-1.2-0.1s-0.9,0.1-1.3,0.2s-0.8,0.3-1,0.7c-0.2,0.3-0.6,0.6-0.8,0.9
		c-0.2,0.3-0.4,0.7-0.6,1.1v8.4h-1.3v-12.3h1.3L99.5,455.3L99.5,455.3z"/>
	<path class="st0" d="M110.5,461.3c0-1,0.1-1.8,0.3-2.5s0.6-1.4,1-2s0.9-1,1.4-1.2c0.6-0.3,1.2-0.4,2-0.4c0.9,0,1.7,0.2,2.2,0.6
		c0.7,0.3,1.1,0.8,1.5,1.4v-6.9h1.3v17.5H119l-0.1-1.7c-0.4,0.6-0.9,1-1.5,1.3c-0.7,0.3-1.4,0.4-2.3,0.4c-0.8,0-1.3-0.1-2-0.4
		c-0.6-0.3-1.1-0.8-1.4-1.3c-0.4-0.6-0.8-1.2-1-2s-0.3-1.7-0.3-2.5L110.5,461.3L110.5,461.3L110.5,461.3z M111.8,461.6
		c0,0.7,0.1,1.4,0.2,2c0.1,0.7,0.3,1.1,0.7,1.7s0.7,0.8,1.1,1.1c0.4,0.3,1,0.3,1.7,0.3c0.4,0,0.9,0,1.2-0.1c0.3-0.1,0.7-0.2,1-0.4
		c0.3-0.2,0.6-0.4,0.8-0.7c0.2-0.2,0.4-0.6,0.6-0.9v-5.7c-0.1-0.3-0.3-0.6-0.6-0.9c-0.2-0.3-0.4-0.6-0.8-0.8c-0.3-0.2-0.7-0.4-1-0.6
		c-0.3-0.1-0.8-0.2-1.3-0.2c-0.7,0-1.2,0.1-1.7,0.4c-0.4,0.2-0.8,0.7-1.1,1.1s-0.6,1-0.7,1.7s-0.2,1.3-0.2,2l0,0H111.8z"/>
	<path class="st0" d="M131.3,464.5c0-0.2,0-0.6-0.1-0.8c-0.1-0.2-0.2-0.4-0.4-0.7c-0.2-0.2-0.6-0.4-1-0.7c-0.4-0.2-1-0.3-1.7-0.6
		c-0.7-0.2-1.3-0.3-1.8-0.6c-0.6-0.2-1-0.4-1.3-0.7c-0.3-0.2-0.7-0.6-0.9-1c-0.2-0.4-0.3-0.8-0.3-1.3c0-0.4,0.1-0.9,0.3-1.3
		c0.2-0.4,0.4-0.8,0.9-1.1c0.3-0.3,0.8-0.6,1.3-0.8c0.6-0.2,1.1-0.2,1.8-0.2c0.7,0,1.3,0.1,1.9,0.3s1,0.4,1.4,0.8
		c0.4,0.3,0.7,0.7,0.9,1.2c0.2,0.6,0.3,0.9,0.3,1.4h-1.3c0-0.3-0.1-0.7-0.2-0.9c-0.1-0.3-0.3-0.6-0.7-0.8c-0.2-0.2-0.6-0.4-1-0.6
		s-0.9-0.2-1.3-0.2c-0.6,0-1,0.1-1.3,0.2s-0.7,0.3-0.9,0.6c-0.2,0.2-0.4,0.4-0.6,0.7c-0.1,0.2-0.1,0.6-0.1,0.8c0,0.2,0,0.6,0.1,0.8
		c0.1,0.2,0.2,0.4,0.4,0.7c0.2,0.2,0.6,0.3,1,0.6c0.4,0.1,1,0.3,1.7,0.4c0.8,0.2,1.3,0.3,1.9,0.6c0.6,0.2,1,0.4,1.3,0.8
		s0.7,0.7,0.8,1c0.2,0.3,0.2,0.8,0.2,1.3s-0.1,1-0.3,1.4s-0.6,0.8-0.9,1.1c-0.4,0.3-0.9,0.6-1.4,0.7s-1.2,0.2-1.9,0.2
		c-0.8,0-1.4-0.1-2.1-0.3c-0.6-0.2-1.1-0.4-1.5-0.8c-0.4-0.3-0.7-0.8-0.9-1.2c-0.2-0.4-0.3-0.9-0.3-1.3h1.3c0,0.4,0.1,0.9,0.3,1.2
		c0.2,0.3,0.4,0.6,0.8,0.8c0.3,0.2,0.7,0.3,1.1,0.4s0.8,0.1,1.2,0.1c0.6,0,1-0.1,1.3-0.2s0.8-0.3,1-0.4s0.4-0.4,0.6-0.7
		C130.9,465.3,131.3,464.7,131.3,464.5z"/>
	<path class="st0" d="M140.4,467.8c-0.8,0-1.5-0.1-2.2-0.4s-1.2-0.7-1.8-1.2c-0.4-0.6-0.9-1.2-1.1-1.9c-0.2-0.7-0.4-1.5-0.4-2.4
		v-0.4c0-1,0.1-1.8,0.4-2.5c0.3-0.8,0.7-1.4,1.1-2s1-1,1.7-1.2s1.3-0.4,2-0.4c0.8,0,1.4,0.1,2.1,0.4c0.7,0.3,1.1,0.7,1.5,1.2
		s0.8,1.1,0.9,1.8c0.1,0.7,0.3,1.4,0.3,2.2v0.8h-8.7v0.2c0,0.7,0.1,1.3,0.3,1.9s0.4,1.1,0.9,1.5s0.8,0.8,1.3,1s1.1,0.3,1.7,0.3
		c0.8,0,1.3-0.1,1.9-0.4c0.6-0.2,1.1-0.7,1.5-1.2l0.9,0.7c-0.2,0.3-0.4,0.6-0.7,0.9c-0.2,0.2-0.6,0.4-0.9,0.7
		c-0.3,0.2-0.8,0.3-1.2,0.4S141,467.8,140.4,467.8z M140.2,456.2c-0.6,0-1,0.1-1.4,0.3c-0.4,0.2-0.8,0.4-1.2,0.9s-0.7,0.8-0.8,1.3
		c-0.2,0.6-0.3,1.1-0.4,1.7h7.4v-0.1c0-0.6-0.1-1-0.2-1.4c-0.1-0.4-0.3-0.9-0.7-1.3c-0.3-0.3-0.7-0.7-1.1-0.9
		C141.2,456.3,140.8,456.2,140.2,456.2z"/>
	<path class="st0" d="M149.8,452.2v3.1h2.5v1.1h-2.5v8.2c0,0.4,0,0.8,0.1,1s0.2,0.4,0.3,0.7c0.1,0.1,0.3,0.2,0.6,0.3
		c0.2,0,0.4,0.1,0.6,0.1c0.2,0,0.4,0,0.6,0c0.2,0,0.3,0,0.6-0.1l0.1,1.1c-0.2,0.1-0.3,0.1-0.7,0.1c-0.2,0-0.6,0-0.8,0
		c-0.3,0-0.8,0-1.1-0.1s-0.7-0.3-0.9-0.6c-0.2-0.2-0.4-0.6-0.6-1c-0.1-0.4-0.2-0.9-0.2-1.5v-8.2h-2.2v-1.1h2.2v-3.1H149.8z"/>
	<path class="st0" d="M168.5,467.6c-0.1-0.2-0.1-0.4-0.2-0.8c0-0.3-0.1-0.7-0.1-0.9c-0.2,0.2-0.4,0.6-0.8,0.8
		c-0.3,0.2-0.6,0.4-1,0.7c-0.4,0.2-0.8,0.3-1.1,0.4s-0.9,0.1-1.3,0.1c-0.6,0-1.1-0.1-1.7-0.2c-0.4-0.2-0.9-0.4-1.2-0.8
		s-0.7-0.7-0.8-1.1s-0.3-0.9-0.3-1.4s0.1-1.1,0.3-1.7c0.2-0.4,0.7-0.9,1.1-1.2c0.4-0.3,1.1-0.6,1.8-0.8c0.7-0.2,1.4-0.2,2.3-0.2h2.5
		v-1.4c0-0.9-0.2-1.5-0.8-2.1s-1.3-0.8-2.3-0.8c-0.4,0-0.9,0.1-1.3,0.2c-0.4,0.1-0.8,0.3-1,0.6c-0.3,0.2-0.6,0.4-0.7,0.8
		c-0.1,0.3-0.2,0.7-0.2,1h-1.3c0-0.4,0.1-0.9,0.3-1.3s0.6-0.8,1-1.1c0.4-0.3,0.9-0.6,1.4-0.8c0.6-0.2,1.2-0.3,1.9-0.3
		s1.2,0.1,1.8,0.2c0.6,0.2,1,0.4,1.4,0.8s0.7,0.8,0.9,1.2c0.2,0.4,0.3,1.1,0.3,1.8v6c0,0.2,0,0.4,0,0.7s0,0.4,0.1,0.7
		c0,0.2,0.1,0.4,0.1,0.6s0.1,0.3,0.1,0.6v0.1h-1.3v-0.4H168.5z M164.2,466.6c0.4,0,1-0.1,1.3-0.2c0.4-0.1,0.8-0.3,1.1-0.6
		c0.3-0.2,0.7-0.4,0.9-0.8c0.2-0.3,0.4-0.6,0.6-1v-2.7h-2.3c-0.7,0-1.3,0.1-1.9,0.2c-0.6,0.1-1,0.3-1.4,0.6
		c-0.4,0.2-0.7,0.6-0.9,0.9s-0.3,0.7-0.3,1.1c0,0.3,0.1,0.7,0.2,0.9c0.1,0.3,0.3,0.6,0.6,0.8c0.2,0.2,0.6,0.3,0.9,0.6
		C163.4,466.6,163.9,466.6,164.2,466.6z"/>
	<path class="st0" d="M172.7,461.3c0-1,0.1-1.8,0.3-2.5s0.6-1.4,1-2s0.9-1,1.4-1.2c0.6-0.3,1.2-0.4,2-0.4c0.9,0,1.7,0.2,2.2,0.6
		c0.7,0.3,1.1,0.8,1.5,1.4v-6.9h1.3v17.5h-1.2l-0.1-1.7c-0.4,0.6-0.9,1-1.5,1.3c-0.7,0.3-1.4,0.4-2.3,0.4c-0.8,0-1.3-0.1-2-0.4
		c-0.6-0.3-1.1-0.8-1.4-1.3c-0.4-0.6-0.8-1.2-1-2s-0.3-1.7-0.3-2.5v-0.2L172.7,461.3L172.7,461.3z M174,461.6c0,0.7,0.1,1.4,0.2,2
		c0.1,0.7,0.3,1.1,0.7,1.7s0.7,0.8,1.1,1.1c0.4,0.3,1,0.3,1.7,0.3c0.4,0,0.9,0,1.2-0.1s0.7-0.2,1-0.4c0.3-0.2,0.6-0.4,0.8-0.7
		c0.2-0.2,0.4-0.6,0.6-0.9v-5.7c-0.1-0.3-0.3-0.6-0.6-0.9c-0.2-0.3-0.4-0.6-0.8-0.8c-0.3-0.2-0.7-0.4-1-0.6
		c-0.3-0.1-0.8-0.2-1.3-0.2c-0.7,0-1.2,0.1-1.7,0.4c-0.4,0.2-0.8,0.7-1.1,1.1s-0.6,1-0.7,1.7s-0.2,1.3-0.2,2l0,0H174z"/>
	<path class="st0" d="M193.8,467.6c-0.1-0.2-0.1-0.4-0.2-0.8c0-0.3-0.1-0.7-0.1-0.9c-0.2,0.2-0.4,0.6-0.8,0.8
		c-0.3,0.2-0.6,0.4-1,0.7c-0.4,0.2-0.8,0.3-1.1,0.4s-0.9,0.1-1.3,0.1c-0.6,0-1.1-0.1-1.7-0.2c-0.4-0.2-0.9-0.4-1.2-0.8
		s-0.7-0.7-0.8-1.1s-0.3-0.9-0.3-1.4s0.1-1.1,0.3-1.7c0.2-0.4,0.7-0.9,1.1-1.2c0.4-0.3,1.1-0.6,1.8-0.8c0.7-0.2,1.4-0.2,2.3-0.2h2.5
		v-1.4c0-0.9-0.2-1.5-0.8-2.1s-1.3-0.8-2.3-0.8c-0.4,0-0.9,0.1-1.3,0.2c-0.4,0.1-0.8,0.3-1,0.6c-0.3,0.2-0.6,0.4-0.7,0.8
		c-0.1,0.3-0.2,0.7-0.2,1h-1.3c0-0.4,0.1-0.9,0.3-1.3s0.6-0.8,1-1.1c0.4-0.3,0.9-0.6,1.4-0.8c0.6-0.2,1.2-0.3,1.9-0.3
		s1.2,0.1,1.8,0.2c0.6,0.2,1,0.4,1.4,0.8c0.4,0.3,0.7,0.8,0.9,1.2c0.2,0.4,0.3,1.1,0.3,1.8v6c0,0.2,0,0.4,0,0.7s0,0.4,0.1,0.7
		c0,0.2,0.1,0.4,0.1,0.6s0.1,0.3,0.1,0.6v0.1h-1.3v-0.4H193.8z M189.6,466.6c0.4,0,1-0.1,1.3-0.2c0.4-0.1,0.8-0.3,1.1-0.6
		c0.3-0.2,0.7-0.4,0.9-0.8c0.2-0.3,0.4-0.6,0.6-1v-2.7h-2.3c-0.7,0-1.3,0.1-1.9,0.2c-0.6,0.1-1,0.3-1.4,0.6
		c-0.4,0.2-0.7,0.6-0.9,0.9s-0.3,0.7-0.3,1.1c0,0.3,0.1,0.7,0.2,0.9c0.1,0.3,0.3,0.6,0.6,0.8c0.2,0.2,0.6,0.3,0.9,0.6
		C188.7,466.6,189.2,466.6,189.6,466.6z"/>
	<path class="st0" d="M208.4,461.6c0,0.9-0.1,1.8-0.3,2.5c-0.2,0.8-0.6,1.4-0.9,2c-0.4,0.6-0.9,1-1.4,1.3c-0.6,0.3-1.2,0.4-2,0.4
		c-0.9,0-1.7-0.1-2.3-0.4c-0.7-0.3-1.2-0.8-1.5-1.3v6.3h-1.3v-17h1.2l0.1,1.8c0.4-0.7,1-1.1,1.5-1.4c0.6-0.3,1.4-0.6,2.3-0.6
		c0.8,0,1.4,0.1,2,0.4s1.1,0.7,1.4,1.2c0.3,0.6,0.7,1.2,0.9,2s0.3,1.7,0.3,2.5V461.6L208.4,461.6z M207.1,461.3c0-0.7-0.1-1.3-0.2-2
		c-0.1-0.7-0.3-1.1-0.7-1.7c-0.3-0.4-0.7-0.8-1.1-1.1c-0.4-0.2-1-0.4-1.7-0.4c-0.4,0-0.9,0.1-1.3,0.2c-0.4,0.1-0.7,0.3-1,0.6
		c-0.3,0.2-0.6,0.4-0.8,0.8s-0.3,0.6-0.4,0.9v5.9c0.1,0.3,0.3,0.6,0.6,0.9c0.2,0.2,0.4,0.4,0.8,0.7c0.3,0.2,0.7,0.3,1,0.4
		s0.8,0.1,1.2,0.1c0.7,0,1.1-0.1,1.7-0.4c0.4-0.2,0.9-0.7,1.1-1.1c0.3-0.4,0.6-1,0.7-1.7C207,462.6,207.1,462,207.1,461.3
		L207.1,461.3L207.1,461.3z"/>
	<path class="st0" d="M213.5,452.2v3.1h2.5v1.1h-2.5v8.2c0,0.4,0,0.8,0.1,1s0.2,0.4,0.3,0.7c0.1,0.1,0.3,0.2,0.6,0.3
		c0.2,0,0.4,0.1,0.6,0.1c0.2,0,0.4,0,0.6,0c0.2,0,0.3,0,0.6-0.1l0.1,1.1c-0.2,0.1-0.3,0.1-0.7,0.1c-0.2,0-0.6,0-0.8,0
		c-0.3,0-0.8,0-1.1-0.1s-0.7-0.3-0.9-0.6c-0.2-0.2-0.4-0.6-0.6-1c-0.1-0.4-0.2-0.9-0.2-1.5v-8.2h-2.2v-1.1h2.2v-3.1H213.5z"/>
	<path class="st0" d="M226.7,467.6c-0.1-0.2-0.1-0.4-0.2-0.8c0-0.3-0.1-0.7-0.1-0.9c-0.2,0.2-0.4,0.6-0.8,0.8
		c-0.3,0.2-0.6,0.4-1,0.7c-0.4,0.2-0.8,0.3-1.1,0.4s-0.9,0.1-1.3,0.1c-0.6,0-1.1-0.1-1.7-0.2c-0.4-0.2-0.9-0.4-1.2-0.8
		s-0.7-0.7-0.8-1.1s-0.3-0.9-0.3-1.4s0.1-1.1,0.3-1.7c0.2-0.4,0.7-0.9,1.1-1.2c0.4-0.3,1.1-0.6,1.8-0.8c0.7-0.2,1.4-0.2,2.3-0.2h2.5
		v-1.4c0-0.9-0.2-1.5-0.8-2.1s-1.3-0.8-2.3-0.8c-0.4,0-0.9,0.1-1.3,0.2c-0.4,0.1-0.8,0.3-1,0.6c-0.3,0.2-0.6,0.4-0.7,0.8
		c-0.1,0.3-0.2,0.7-0.2,1h-1.3c0-0.4,0.1-0.9,0.3-1.3s0.6-0.8,1-1.1c0.4-0.3,0.9-0.6,1.4-0.8c0.6-0.2,1.2-0.3,1.9-0.3
		s1.2,0.1,1.8,0.2c0.6,0.2,1,0.4,1.4,0.8c0.4,0.3,0.7,0.8,0.9,1.2s0.3,1.1,0.3,1.8v6c0,0.2,0,0.4,0,0.7s0,0.4,0.1,0.7
		c0,0.2,0.1,0.4,0.1,0.6s0.1,0.3,0.1,0.6v0.1h-1.3v-0.4H226.7z M222.4,466.6c0.4,0,1-0.1,1.3-0.2c0.4-0.1,0.8-0.3,1.1-0.6
		c0.3-0.2,0.7-0.4,0.9-0.8c0.2-0.3,0.4-0.6,0.6-1v-2.7H224c-0.7,0-1.3,0.1-1.9,0.2c-0.6,0.1-1,0.3-1.4,0.6c-0.4,0.2-0.7,0.6-0.9,0.9
		s-0.3,0.7-0.3,1.1c0,0.3,0.1,0.7,0.2,0.9c0.1,0.3,0.3,0.6,0.6,0.8c0.2,0.2,0.6,0.3,0.9,0.6C221.6,466.6,221.9,466.6,222.4,466.6z"
		/>
	<path class="st0" d="M233.4,452.2v3.1h2.5v1.1h-2.5v8.2c0,0.4,0,0.8,0.1,1s0.2,0.4,0.3,0.7c0.1,0.1,0.3,0.2,0.6,0.3
		c0.2,0,0.4,0.1,0.6,0.1c0.2,0,0.4,0,0.6,0c0.2,0,0.3,0,0.6-0.1l0.1,1.1c-0.2,0.1-0.3,0.1-0.7,0.1c-0.2,0-0.6,0-0.8,0
		c-0.3,0-0.8,0-1.1-0.1s-0.7-0.3-0.9-0.6c-0.2-0.2-0.4-0.6-0.6-1c-0.1-0.4-0.2-0.9-0.2-1.5v-8.2h-2.2v-1.1h2.2v-3.1H233.4z"/>
	<path class="st0" d="M238.7,451.8c0-0.2,0.1-0.4,0.2-0.7c0.2-0.2,0.4-0.2,0.7-0.2s0.6,0.1,0.7,0.2c0.2,0.2,0.2,0.4,0.2,0.7
		c0,0.2-0.1,0.4-0.2,0.7c-0.2,0.2-0.4,0.2-0.7,0.2s-0.6-0.1-0.7-0.2S238.7,452,238.7,451.8z M240.3,467.6H239v-12.3h1.3V467.6z"/>
	<path class="st0" d="M247.8,465.7l3.8-10.4h1.4l-4.5,12.3h-1.1l-4.6-12.3h1.4L247.8,465.7z"/>
	<path class="st0" d="M254.2,461.3c0-0.9,0.1-1.8,0.4-2.4c0.2-0.8,0.7-1.4,1.1-2s1.1-1,1.8-1.3s1.4-0.4,2.2-0.4
		c0.9,0,1.5,0.1,2.3,0.4s1.2,0.8,1.8,1.3c0.4,0.6,0.9,1.2,1.1,2s0.3,1.5,0.3,2.4v0.3c0,0.9-0.1,1.8-0.3,2.4s-0.7,1.4-1.1,2
		s-1.1,1-1.8,1.3c-0.7,0.3-1.4,0.4-2.2,0.4s-1.5-0.1-2.2-0.4s-1.2-0.8-1.8-1.3c-0.4-0.6-0.9-1.2-1.1-2c-0.2-0.8-0.4-1.5-0.4-2.4
		L254.2,461.3L254.2,461.3z M255.6,461.6c0,0.7,0.1,1.3,0.2,1.9c0.2,0.6,0.4,1.1,0.8,1.5c0.3,0.4,0.8,0.8,1.3,1.1
		c0.6,0.3,1.1,0.4,1.8,0.4c0.7,0,1.2-0.1,1.8-0.4c0.6-0.2,0.9-0.7,1.3-1.1c0.3-0.4,0.7-1,0.8-1.5c0.2-0.7,0.2-1.2,0.2-1.9v-0.3
		c0-0.7-0.1-1.3-0.2-1.9c-0.2-0.7-0.4-1.1-0.8-1.7c-0.3-0.6-0.8-0.9-1.3-1.1c-0.6-0.2-1.1-0.4-1.8-0.4c-0.7,0-1.2,0.1-1.8,0.4
		c-0.6,0.3-0.9,0.7-1.3,1.1s-0.7,1-0.8,1.7c-0.2,0.6-0.2,1.2-0.2,1.9V461.6z"/>
	<path class="st0" d="M63.9,479.8l-7.1,15.7h-1.4l7-15.4h-9.3V479h10.8V479.8z"/>
	<path class="st0" d="M77,494.6c0.4,0,0.9-0.1,1.2-0.2c0.4-0.1,0.8-0.3,1.1-0.6c0.3-0.2,0.6-0.6,0.8-0.9s0.3-0.8,0.3-1.2h1.3
		c0,0.6-0.2,1.1-0.4,1.7c-0.2,0.4-0.6,0.9-1,1.2c-0.4,0.3-0.9,0.7-1.4,0.9c-0.6,0.2-1.1,0.3-1.8,0.3c-0.9,0-1.7-0.1-2.3-0.4
		c-0.7-0.3-1.2-0.8-1.7-1.3s-0.8-1.2-1-2s-0.3-1.5-0.3-2.4v-0.6c0-0.9,0.1-1.7,0.3-2.4c0.2-0.8,0.6-1.4,1-2s1-1,1.7-1.3
		s1.4-0.4,2.2-0.4c0.7,0,1.2,0.1,1.9,0.3c0.7,0.2,1.1,0.4,1.4,0.9c0.4,0.3,0.8,0.9,1,1.3c0.2,0.6,0.4,1.1,0.4,1.8h-1.3
		c0-0.6-0.1-1-0.3-1.3c-0.2-0.3-0.4-0.8-0.8-1c-0.3-0.3-0.7-0.4-1.1-0.7c-0.4-0.1-0.9-0.2-1.3-0.2c-0.7,0-1.3,0.1-1.8,0.4
		c-0.4,0.2-0.9,0.7-1.2,1.1c-0.3,0.4-0.6,1-0.7,1.5S73,488.3,73,489v0.4c0,0.7,0.1,1.3,0.2,1.9s0.3,1.1,0.7,1.5
		c0.3,0.4,0.7,0.8,1.2,1.1C75.7,494.4,76.3,494.6,77,494.6z"/>
	<path class="st0" d="M92.3,493.9c-0.3,0.6-0.9,1-1.5,1.3c-0.7,0.3-1.4,0.4-2.3,0.4c-0.6,0-1.1-0.1-1.7-0.2
		c-0.4-0.2-0.9-0.4-1.2-0.8s-0.7-0.9-0.8-1.4c-0.2-0.6-0.3-1.3-0.3-2.1v-7.9h1.3v7.9c0,0.7,0.1,1.2,0.2,1.7c0.1,0.4,0.3,0.8,0.7,1.1
		c0.3,0.3,0.6,0.4,0.9,0.6s0.7,0.2,1.1,0.2c0.6,0,1-0.1,1.4-0.2s0.8-0.3,1.1-0.6c0.3-0.2,0.6-0.4,0.8-0.8c0.2-0.3,0.3-0.7,0.4-1
		v-8.8h1.3v12.3h-1.3L92.3,493.9z"/>
	<path class="st0" d="M98.7,495.5h-1.3V478h1.3V495.5z"/>
	<path class="st0" d="M104.5,480.1v3.1h2.5v1.1h-2.5v8.2c0,0.4,0,0.8,0.1,1s0.2,0.4,0.3,0.7c0.1,0.1,0.3,0.2,0.6,0.3
		c0.2,0,0.4,0.1,0.6,0.1s0.4,0,0.6,0s0.3,0,0.6-0.1l0.1,1.1c-0.2,0.1-0.3,0.1-0.7,0.1c-0.2,0-0.6,0-0.8,0c-0.3,0-0.8,0-1.1-0.1
		c-0.3-0.1-0.7-0.3-0.9-0.6c-0.2-0.2-0.4-0.6-0.6-1s-0.2-0.9-0.2-1.5v-8.2h-2.2v-1.1h2.2v-3.1H104.5z"/>
	<path class="st0" d="M117.8,493.9c-0.3,0.6-0.9,1-1.5,1.3s-1.4,0.4-2.3,0.4c-0.6,0-1.1-0.1-1.7-0.2c-0.4-0.2-0.9-0.4-1.2-0.8
		c-0.3-0.3-0.7-0.9-0.8-1.4c-0.2-0.6-0.3-1.3-0.3-2.1v-7.9h1.3v7.9c0,0.7,0.1,1.2,0.2,1.7c0.1,0.4,0.3,0.8,0.7,1.1
		c0.3,0.3,0.6,0.4,0.9,0.6s0.7,0.2,1.1,0.2c0.6,0,1-0.1,1.4-0.2s0.8-0.3,1.1-0.6c0.3-0.2,0.6-0.4,0.8-0.8c0.2-0.3,0.3-0.7,0.4-1
		v-8.8h1.3v12.3h-1.3L117.8,493.9z"/>
	<path class="st0" d="M128.3,484.3c-0.3,0-0.6-0.1-0.9-0.1c-0.4,0-0.9,0.1-1.2,0.2c-0.3,0.1-0.7,0.3-1,0.6c-0.3,0.2-0.6,0.6-0.7,0.9
		c-0.2,0.3-0.3,0.7-0.4,1.1v8.4h-1.3v-12.3h1.3v2c0.3-0.7,0.8-1.2,1.3-1.5c0.6-0.4,1.3-0.6,2.1-0.6c0.2,0,0.3,0,0.6,0
		c0.2,0,0.3,0.1,0.3,0.1L128.3,484.3z"/>
	<path class="st0" d="M137.7,495.5c-0.1-0.2-0.1-0.4-0.2-0.8c0-0.3-0.1-0.7-0.1-0.9c-0.2,0.2-0.4,0.6-0.8,0.8
		c-0.3,0.2-0.6,0.4-1,0.7c-0.4,0.2-0.8,0.3-1.1,0.4s-0.9,0.1-1.3,0.1c-0.6,0-1.1-0.1-1.7-0.2c-0.4-0.2-0.9-0.4-1.2-0.8
		c-0.3-0.3-0.7-0.7-0.8-1.1s-0.3-0.9-0.3-1.4s0.1-1.1,0.3-1.7c0.2-0.4,0.7-0.9,1.1-1.2c0.4-0.3,1.1-0.6,1.8-0.8
		c0.7-0.2,1.4-0.2,2.3-0.2h2.5V487c0-0.9-0.2-1.5-0.8-2.1s-1.3-0.8-2.3-0.8c-0.4,0-0.9,0.1-1.3,0.2c-0.4,0.1-0.8,0.3-1,0.6
		c-0.3,0.2-0.6,0.4-0.7,0.8c-0.1,0.3-0.2,0.7-0.2,1h-1.3c0-0.4,0.1-0.9,0.3-1.3s0.6-0.8,1-1.1c0.4-0.3,0.9-0.6,1.4-0.8
		s1.2-0.3,1.9-0.3s1.2,0.1,1.8,0.2c0.6,0.2,1,0.4,1.4,0.8c0.4,0.3,0.7,0.8,0.9,1.2c0.2,0.4,0.3,1.1,0.3,1.8v6c0,0.2,0,0.4,0,0.7
		c0,0.2,0,0.4,0.1,0.7c0,0.2,0.1,0.4,0.1,0.6s0.1,0.3,0.1,0.6v0.1h-1.3v-0.4H137.7z M133.5,494.5c0.4,0,1-0.1,1.3-0.2
		c0.4-0.1,0.8-0.3,1.1-0.6c0.3-0.2,0.7-0.4,0.9-0.8c0.2-0.3,0.4-0.6,0.6-1v-2.7h-2.2c-0.7,0-1.3,0.1-1.9,0.2s-1,0.3-1.4,0.6
		c-0.4,0.2-0.7,0.6-0.9,0.9s-0.3,0.7-0.3,1.1c0,0.3,0.1,0.7,0.2,0.9c0.1,0.3,0.3,0.6,0.6,0.8c0.2,0.2,0.6,0.3,0.9,0.6
		C132.7,494.5,133,494.5,133.5,494.5z"/>
	<path class="st0" d="M152.8,495.7c-0.8,0-1.5-0.1-2.2-0.4s-1.2-0.7-1.8-1.2c-0.4-0.6-0.9-1.2-1.1-1.9c-0.2-0.7-0.4-1.5-0.4-2.4
		v-0.4c0-1,0.1-1.8,0.4-2.5c0.3-0.8,0.7-1.4,1.1-2c0.4-0.6,1-1,1.7-1.2s1.3-0.4,2-0.4c0.8,0,1.4,0.1,2.1,0.4
		c0.7,0.3,1.1,0.7,1.5,1.2c0.4,0.6,0.8,1.1,0.9,1.8c0.1,0.7,0.3,1.4,0.3,2.2v0.8h-8.7v0.2c0,0.7,0.1,1.3,0.3,1.9s0.4,1.1,0.9,1.5
		c0.4,0.4,0.8,0.8,1.3,1c0.6,0.2,1.1,0.3,1.7,0.3c0.8,0,1.3-0.1,1.9-0.4c0.6-0.2,1.1-0.7,1.5-1.2l0.9,0.7c-0.2,0.3-0.4,0.6-0.7,0.9
		c-0.2,0.2-0.6,0.4-0.9,0.7c-0.3,0.2-0.8,0.3-1.2,0.4C153.9,495.6,153.4,495.7,152.8,495.7z M152.6,484.1c-0.6,0-1,0.1-1.4,0.3
		s-0.8,0.4-1.2,0.9c-0.4,0.4-0.7,0.8-0.8,1.3c-0.2,0.6-0.3,1.1-0.4,1.7h7.4v-0.1c0-0.6-0.1-1-0.2-1.4s-0.3-0.9-0.7-1.3
		c-0.3-0.3-0.7-0.7-1.1-0.9C153.6,484.2,153.1,484.1,152.6,484.1z"/>
	<path class="st0" d="M170.4,495.7c-0.8,0-1.5-0.1-2.2-0.4s-1.2-0.7-1.8-1.2c-0.4-0.6-0.9-1.2-1.1-1.9c-0.2-0.7-0.4-1.5-0.4-2.4
		v-0.4c0-1,0.1-1.8,0.4-2.5c0.3-0.8,0.7-1.4,1.1-2c0.4-0.6,1-1,1.7-1.2s1.3-0.4,2-0.4c0.8,0,1.4,0.1,2.1,0.4
		c0.7,0.3,1.1,0.7,1.5,1.2c0.4,0.6,0.8,1.1,0.9,1.8c0.1,0.7,0.3,1.4,0.3,2.2v0.8h-8.7v0.2c0,0.7,0.1,1.3,0.3,1.9s0.4,1.1,0.9,1.5
		c0.4,0.4,0.8,0.8,1.3,1c0.6,0.2,1.1,0.3,1.7,0.3c0.8,0,1.3-0.1,1.9-0.4c0.6-0.2,1.1-0.7,1.5-1.2l0.9,0.7c-0.2,0.3-0.4,0.6-0.7,0.9
		c-0.2,0.2-0.6,0.4-0.9,0.7c-0.3,0.2-0.8,0.3-1.2,0.4C171.5,495.6,170.9,495.7,170.4,495.7z M170.2,484.1c-0.6,0-1,0.1-1.4,0.3
		c-0.4,0.2-0.8,0.4-1.2,0.9c-0.4,0.4-0.7,0.8-0.8,1.3c-0.2,0.6-0.3,1.1-0.4,1.7h7.4v-0.1c0-0.6-0.1-1-0.2-1.4
		c-0.1-0.4-0.3-0.9-0.7-1.3c-0.3-0.3-0.7-0.7-1.1-0.9C171.3,484.2,170.7,484.1,170.2,484.1z"/>
	<path class="st0" d="M179,483.2v2.1c0.2-0.3,0.4-0.7,0.8-1c0.3-0.3,0.6-0.6,0.9-0.8c0.3-0.2,0.7-0.3,1.1-0.4
		c0.4-0.1,0.8-0.1,1.2-0.1c0.7,0,1.1,0.1,1.7,0.2s0.9,0.4,1.2,0.8c0.3,0.3,0.6,0.9,0.8,1.4s0.2,1.2,0.2,2.1v8h-1.3v-8
		c0-0.7-0.1-1.2-0.2-1.5c-0.1-0.3-0.3-0.8-0.6-1c-0.2-0.2-0.6-0.4-0.9-0.6s-0.8-0.1-1.2-0.1s-0.9,0.1-1.3,0.2
		c-0.4,0.1-0.8,0.3-1,0.7c-0.2,0.3-0.6,0.6-0.8,0.9s-0.4,0.7-0.6,1.1v8.4h-1.3v-12.3h1.3L179,483.2L179,483.2z"/>
	<path class="st0" d="M189.9,489.2c0-1,0.1-1.8,0.3-2.5c0.2-0.8,0.6-1.4,0.9-2s0.9-1,1.4-1.2c0.6-0.2,1.2-0.4,2-0.4
		c0.9,0,1.7,0.2,2.2,0.6c0.7,0.3,1.1,0.9,1.5,1.4l0.1-1.8h1.2v12.1c0,0.8-0.1,1.5-0.3,2.1c-0.2,0.7-0.6,1.2-1,1.7
		c-0.4,0.4-1,0.8-1.5,1c-0.6,0.2-1.3,0.3-2,0.3c-0.3,0-0.8,0-1.2-0.1s-0.8-0.2-1.2-0.4c-0.3-0.2-0.8-0.4-1.1-0.7
		c-0.3-0.2-0.7-0.6-0.9-0.9l0.8-0.8c0.6,0.7,1,1.1,1.5,1.3c0.6,0.3,1.2,0.4,1.9,0.4c0.6,0,1.1-0.1,1.5-0.2c0.4-0.2,0.9-0.4,1.1-0.8
		c0.3-0.3,0.6-0.8,0.7-1.2s0.2-1,0.2-1.7V494c-0.4,0.6-0.9,1-1.5,1.3c-0.7,0.3-1.3,0.4-2.2,0.4c-0.8,0-1.4-0.1-2-0.4
		s-1.1-0.8-1.4-1.3c-0.4-0.6-0.8-1.2-0.9-2c-0.2-0.8-0.3-1.7-0.3-2.5v-0.2L189.9,489.2L189.9,489.2z M191.3,489.5
		c0,0.7,0.1,1.4,0.2,2c0.1,0.7,0.3,1.1,0.7,1.7c0.3,0.6,0.7,0.8,1.1,1.1c0.4,0.3,1,0.3,1.7,0.3c0.4,0,0.9-0.1,1.2-0.2s0.7-0.2,1-0.4
		c0.3-0.2,0.6-0.4,0.8-0.7c0.2-0.2,0.4-0.6,0.6-0.9v-5.7c-0.1-0.3-0.3-0.7-0.4-0.9c-0.2-0.3-0.4-0.6-0.8-0.8c-0.3-0.2-0.7-0.4-1-0.6
		s-0.8-0.2-1.3-0.2c-0.7,0-1.2,0.1-1.7,0.4c-0.4,0.2-0.8,0.7-1.1,1.1s-0.6,1-0.7,1.7s-0.2,1.3-0.2,2L191.3,489.5L191.3,489.5z"/>
	<path class="st0" d="M211.1,495.5c-0.1-0.2-0.1-0.4-0.2-0.8c0-0.3-0.1-0.7-0.1-0.9c-0.2,0.2-0.4,0.6-0.8,0.8s-0.6,0.4-1,0.7
		c-0.4,0.2-0.8,0.3-1.1,0.4s-0.9,0.1-1.3,0.1c-0.6,0-1.1-0.1-1.7-0.2c-0.4-0.2-0.9-0.4-1.2-0.8c-0.3-0.3-0.7-0.7-0.8-1.1
		s-0.3-0.9-0.3-1.4s0.1-1.1,0.3-1.7c0.2-0.4,0.7-0.9,1.1-1.2c0.4-0.3,1.1-0.6,1.8-0.8c0.7-0.2,1.4-0.2,2.3-0.2h2.5V487
		c0-0.9-0.2-1.5-0.8-2.1s-1.3-0.8-2.3-0.8c-0.4,0-0.9,0.1-1.3,0.2c-0.4,0.1-0.8,0.3-1,0.6c-0.3,0.2-0.6,0.4-0.7,0.8
		c-0.1,0.3-0.2,0.7-0.2,1H203c0-0.4,0.1-0.9,0.3-1.3s0.6-0.8,1-1.1c0.4-0.3,0.9-0.6,1.4-0.8s1.2-0.3,1.9-0.3s1.2,0.1,1.8,0.2
		c0.6,0.2,1,0.4,1.4,0.8c0.4,0.3,0.7,0.8,0.9,1.2c0.2,0.4,0.3,1.1,0.3,1.8v6c0,0.2,0,0.4,0,0.7c0,0.2,0,0.4,0.1,0.7
		c0,0.2,0.1,0.4,0.1,0.6s0.1,0.3,0.1,0.6v0.1H211v-0.4H211.1z M206.8,494.5c0.4,0,1-0.1,1.3-0.2c0.4-0.1,0.8-0.3,1.1-0.6
		c0.3-0.2,0.7-0.4,0.9-0.8c0.2-0.3,0.4-0.6,0.6-1v-2.7h-2.3c-0.7,0-1.3,0.1-1.9,0.2c-0.6,0.1-1,0.3-1.4,0.6
		c-0.4,0.2-0.7,0.6-0.9,0.9s-0.3,0.7-0.3,1.1c0,0.3,0.1,0.7,0.2,0.9c0.1,0.3,0.3,0.6,0.6,0.8c0.2,0.2,0.6,0.3,0.9,0.6
		C206,494.5,206.3,494.5,206.8,494.5z"/>
	<path class="st0" d="M217.3,483.2v13.7c0,1.1-0.2,2-0.8,2.5s-1.3,0.9-2.4,0.9c-0.2,0-0.4,0-0.6-0.1c-0.1-0.1-0.4-0.1-0.6-0.1V499
		c0.1,0,0.3,0.1,0.4,0.1c0.1,0,0.3,0,0.6,0c0.7,0,1.1-0.2,1.5-0.6c0.4-0.3,0.6-1,0.6-1.8V483h1.2v0.2H217.3z M215.6,479.7
		c0-0.2,0.1-0.4,0.2-0.7c0.1-0.2,0.4-0.2,0.7-0.2s0.6,0.1,0.7,0.2c0.2,0.2,0.2,0.4,0.2,0.7c0,0.2-0.1,0.4-0.2,0.7
		c-0.1,0.2-0.4,0.2-0.7,0.2s-0.6-0.1-0.7-0.2C215.7,480.2,215.6,479.9,215.6,479.7z"/>
	<path class="st0" d="M228.8,495.5c-0.1-0.2-0.1-0.4-0.2-0.8c0-0.3-0.1-0.7-0.1-0.9c-0.2,0.2-0.4,0.6-0.8,0.8s-0.6,0.4-1,0.7
		c-0.4,0.2-0.8,0.3-1.1,0.4s-0.9,0.1-1.3,0.1c-0.6,0-1.1-0.1-1.7-0.2c-0.4-0.2-0.9-0.4-1.2-0.8c-0.3-0.3-0.7-0.7-0.8-1.1
		s-0.3-0.9-0.3-1.4s0.1-1.1,0.3-1.7c0.2-0.4,0.7-0.9,1.1-1.2c0.4-0.3,1.1-0.6,1.8-0.8c0.7-0.2,1.4-0.2,2.3-0.2h2.5V487
		c0-0.9-0.2-1.5-0.8-2.1s-1.3-0.8-2.3-0.8c-0.4,0-0.9,0.1-1.3,0.2c-0.4,0.1-0.8,0.3-1,0.6c-0.3,0.2-0.6,0.4-0.7,0.8
		c-0.1,0.3-0.2,0.7-0.2,1h-1.3c0-0.4,0.1-0.9,0.3-1.3s0.6-0.8,1-1.1c0.4-0.3,0.9-0.6,1.4-0.8s1.2-0.3,1.9-0.3s1.2,0.1,1.8,0.2
		c0.6,0.2,1,0.4,1.4,0.8c0.4,0.3,0.7,0.8,0.9,1.2c0.2,0.4,0.3,1.1,0.3,1.8v6c0,0.2,0,0.4,0,0.7c0,0.2,0,0.4,0.1,0.7
		c0,0.2,0.1,0.4,0.1,0.6s0.1,0.3,0.1,0.6v0.1h-1.3v-0.4H228.8z M224.6,494.5c0.4,0,1-0.1,1.3-0.2c0.4-0.1,0.8-0.3,1.1-0.6
		c0.3-0.2,0.7-0.4,0.9-0.8c0.2-0.3,0.4-0.6,0.6-1v-2.7h-2.3c-0.7,0-1.3,0.1-1.9,0.2s-1,0.3-1.4,0.6c-0.4,0.2-0.7,0.6-0.9,0.9
		s-0.3,0.7-0.3,1.1c0,0.3,0.1,0.7,0.2,0.9c0.1,0.3,0.3,0.6,0.6,0.8c0.2,0.2,0.6,0.3,0.9,0.6C223.7,494.5,224.1,494.5,224.6,494.5z"
		/>
	<path class="st0" d="M234.7,483.2v2c0.2-0.3,0.4-0.7,0.7-0.9c0.2-0.3,0.6-0.6,0.9-0.7c0.3-0.2,0.7-0.3,1.1-0.4
		c0.4-0.1,0.8-0.1,1.2-0.1c0.9,0,1.7,0.2,2.3,0.6c0.7,0.3,1.1,1,1.3,1.8c0.2-0.3,0.4-0.7,0.7-1c0.2-0.3,0.6-0.6,1-0.8
		c0.3-0.2,0.8-0.3,1.2-0.6c0.4-0.2,0.9-0.2,1.3-0.2c0.7,0,1.2,0.1,1.7,0.2c0.6,0.2,0.9,0.4,1.2,0.8c0.3,0.3,0.6,0.9,0.8,1.4
		s0.2,1.2,0.2,2v8H249v-8c0-0.7-0.1-1.2-0.2-1.7s-0.3-0.8-0.7-1c-0.2-0.2-0.6-0.4-1-0.6c-0.3-0.1-0.8-0.1-1.2-0.1
		c-0.6,0-1.1,0.1-1.5,0.3c-0.4,0.2-0.8,0.4-1.1,0.8c-0.3,0.3-0.6,0.7-0.7,1c-0.1,0.3-0.2,0.8-0.3,1.1v8.1H241v-8.1
		c0-0.7-0.1-1.1-0.2-1.5c-0.1-0.4-0.3-0.8-0.7-1c-0.3-0.2-0.6-0.4-1-0.6c-0.3-0.1-0.8-0.1-1.2-0.1c-0.6,0-1,0.1-1.3,0.2
		c-0.4,0.1-0.8,0.3-1,0.7c-0.3,0.2-0.6,0.6-0.8,0.9s-0.3,0.7-0.4,1.1v8.4H233V483h1.8v0.2H234.7z"/>
	<path class="st0" d="M258.8,495.7c-0.8,0-1.5-0.1-2.2-0.4c-0.7-0.3-1.2-0.7-1.8-1.2c-0.4-0.6-0.9-1.2-1.1-1.9
		c-0.2-0.7-0.4-1.5-0.4-2.4v-0.4c0-1,0.1-1.8,0.4-2.5c0.3-0.8,0.7-1.4,1.1-2c0.4-0.6,1-1,1.7-1.2c0.7-0.2,1.3-0.4,2-0.4
		c0.8,0,1.4,0.1,2.1,0.4s1.1,0.7,1.5,1.2c0.4,0.6,0.8,1.1,0.9,1.8c0.1,0.7,0.3,1.4,0.3,2.2v0.8h-8.7v0.2c0,0.7,0.1,1.3,0.3,1.9
		s0.4,1.1,0.9,1.5c0.4,0.4,0.8,0.8,1.3,1c0.6,0.2,1.1,0.3,1.7,0.3c0.8,0,1.3-0.1,1.9-0.4c0.6-0.2,1.1-0.7,1.5-1.2l0.9,0.7
		c-0.2,0.3-0.4,0.6-0.7,0.9c-0.2,0.2-0.6,0.4-0.9,0.7c-0.3,0.2-0.8,0.3-1.2,0.4C260,495.6,259.4,495.7,258.8,495.7z M258.6,484.1
		c-0.6,0-1,0.1-1.4,0.3c-0.4,0.2-0.8,0.4-1.2,0.9c-0.4,0.4-0.7,0.8-0.8,1.3c-0.2,0.6-0.3,1.1-0.4,1.7h7.4v-0.1c0-0.6-0.1-1-0.2-1.4
		s-0.3-0.9-0.7-1.3c-0.3-0.3-0.7-0.7-1.1-0.9C259.6,484.2,259.2,484.1,258.6,484.1z"/>
	<path class="st0" d="M267.4,483.2v2.1c0.2-0.3,0.4-0.7,0.8-1c0.3-0.3,0.6-0.6,0.9-0.8c0.3-0.2,0.7-0.3,1.1-0.4s0.8-0.1,1.2-0.1
		c0.7,0,1.1,0.1,1.7,0.2s0.9,0.4,1.2,0.8c0.3,0.3,0.6,0.9,0.8,1.4c0.2,0.6,0.2,1.2,0.2,2.1v8H274v-8c0-0.7-0.1-1.2-0.2-1.5
		s-0.3-0.8-0.6-1s-0.6-0.4-0.9-0.6s-0.8-0.1-1.2-0.1s-0.9,0.1-1.3,0.2s-0.8,0.3-1,0.7c-0.2,0.3-0.6,0.6-0.8,0.9
		c-0.2,0.3-0.4,0.7-0.6,1.1v8.4H266v-12.3h1.3v-0.1H267.4z"/>
	<path class="st0" d="M281,480.1v3.1h2.5v1.1H281v8.2c0,0.4,0,0.8,0.1,1s0.2,0.4,0.3,0.7c0.1,0.1,0.3,0.2,0.6,0.3
		c0.2,0,0.4,0.1,0.6,0.1s0.4,0,0.6,0s0.3,0,0.6-0.1l0.1,1.1c-0.2,0.1-0.3,0.1-0.7,0.1c-0.2,0-0.6,0-0.8,0c-0.3,0-0.8,0-1.1-0.1
		c-0.3-0.1-0.7-0.3-0.9-0.6c-0.2-0.2-0.4-0.6-0.6-1s-0.2-0.9-0.2-1.5v-8.2h-2.2v-1.1h2.2v-3.1H281z"/>
	<path class="st0" d="M285.3,489.2c0-0.9,0.1-1.8,0.4-2.4c0.2-0.8,0.7-1.4,1.1-2s1.1-1,1.8-1.3s1.4-0.4,2.2-0.4
		c0.9,0,1.5,0.1,2.3,0.4s1.2,0.8,1.8,1.3c0.4,0.6,0.9,1.2,1.1,2s0.3,1.5,0.3,2.4v0.3c0,0.9-0.1,1.8-0.3,2.4s-0.7,1.4-1.1,2
		s-1.1,1-1.8,1.3c-0.7,0.3-1.4,0.4-2.2,0.4s-1.5-0.1-2.2-0.4s-1.2-0.8-1.8-1.3c-0.4-0.6-0.9-1.2-1.1-2s-0.4-1.5-0.4-2.4L285.3,489.2
		L285.3,489.2z M286.7,489.5c0,0.7,0.1,1.3,0.2,1.9c0.2,0.6,0.4,1.1,0.8,1.5s0.8,0.8,1.3,1.1s1.1,0.4,1.8,0.4c0.7,0,1.2-0.1,1.8-0.4
		c0.6-0.2,0.9-0.7,1.3-1.1c0.3-0.4,0.7-1,0.8-1.5c0.2-0.7,0.2-1.2,0.2-1.9v-0.3c0-0.7-0.1-1.3-0.2-1.9c-0.2-0.7-0.4-1.1-0.8-1.7
		s-0.8-0.9-1.3-1.1s-1.1-0.4-1.8-0.4c-0.7,0-1.2,0.1-1.8,0.4c-0.6,0.3-0.9,0.7-1.3,1.1s-0.7,1-0.8,1.7c-0.2,0.6-0.2,1.2-0.2,1.9
		V489.5z"/>
	<path class="st0" d="M63.5,511.1c0,0.4-0.1,0.9-0.2,1.2c-0.1,0.4-0.3,0.8-0.6,1.1c-0.2,0.3-0.6,0.7-0.9,0.9
		c-0.3,0.2-0.7,0.4-1.1,0.7c0.4,0.1,0.9,0.3,1.3,0.7c0.4,0.3,0.7,0.6,1,0.9c0.3,0.3,0.4,0.8,0.7,1.2c0.1,0.4,0.2,0.9,0.2,1.3
		c0,0.8-0.1,1.4-0.4,2c-0.3,0.6-0.7,1.1-1.1,1.4s-1,0.7-1.7,0.9s-1.3,0.3-2.1,0.3s-1.4-0.1-2.1-0.3s-1.2-0.4-1.7-0.9
		c-0.4-0.3-0.9-0.9-1.1-1.4c-0.2-0.6-0.4-1.2-0.4-2c0-0.4,0.1-0.9,0.2-1.3s0.3-0.8,0.7-1.2c0.2-0.3,0.6-0.7,1-0.9s0.8-0.4,1.3-0.7
		c-0.4-0.1-0.8-0.3-1.1-0.7c-0.3-0.2-0.7-0.6-0.9-0.9c-0.2-0.3-0.4-0.7-0.6-1.1s-0.2-0.8-0.2-1.2c0-0.7,0.1-1.3,0.3-1.9s0.6-1,1-1.4
		c0.4-0.3,0.9-0.7,1.5-0.9c0.7-0.2,1.2-0.3,1.9-0.3s1.3,0.1,1.9,0.3c0.6,0.2,1.1,0.4,1.5,0.9c0.4,0.3,0.8,0.9,1,1.4
		C63.4,509.7,63.5,510.4,63.5,511.1z M62.6,518.9c0-0.6-0.1-1-0.3-1.4s-0.4-0.8-0.8-1.1c-0.3-0.3-0.8-0.6-1.2-0.7
		c-0.4-0.2-1-0.2-1.5-0.2s-1.1,0.1-1.5,0.2c-0.4,0.2-0.9,0.4-1.2,0.7s-0.7,0.7-0.8,1.1c-0.2,0.4-0.3,0.9-0.3,1.4
		c0,0.6,0.1,1,0.3,1.4s0.4,0.8,0.8,1.1c0.3,0.3,0.8,0.6,1.2,0.7s1,0.2,1.5,0.2s1.1-0.1,1.5-0.2c0.4-0.1,0.9-0.3,1.2-0.7
		s0.7-0.7,0.8-1.1C62.5,520,62.6,519.5,62.6,518.9z M62.1,511.1c0-0.4-0.1-0.9-0.2-1.3c-0.2-0.4-0.4-0.8-0.8-1s-0.7-0.6-1.1-0.7
		s-0.9-0.2-1.4-0.2s-0.9,0-1.3,0.1s-0.8,0.3-1.1,0.7c-0.3,0.3-0.6,0.7-0.8,1c-0.2,0.4-0.2,0.9-0.2,1.3s0.1,0.9,0.2,1.3
		c0.2,0.4,0.4,0.8,0.7,1c0.3,0.3,0.7,0.4,1.1,0.7c0.4,0.1,0.9,0.2,1.4,0.2s1-0.1,1.4-0.2c0.4-0.1,0.8-0.3,1.1-0.7
		c0.3-0.3,0.6-0.7,0.8-1C62,511.9,62.1,511.5,62.1,511.1z"/>
	<path class="st0" d="M77.2,523.6c-0.8,0-1.5-0.1-2.2-0.4s-1.2-0.7-1.8-1.2c-0.4-0.6-0.9-1.2-1.1-1.9s-0.4-1.5-0.4-2.4v-0.4
		c0-1,0.1-1.8,0.4-2.5s0.7-1.4,1.1-2s1-1,1.7-1.2s1.3-0.4,2-0.4c0.8,0,1.4,0.1,2.1,0.4s1.1,0.7,1.5,1.2c0.4,0.6,0.8,1.1,0.9,1.8
		s0.3,1.4,0.3,2.2v0.8H73v0.2c0,0.7,0.1,1.3,0.3,1.9c0.2,0.6,0.4,1.1,0.9,1.5s0.8,0.8,1.3,1c0.6,0.2,1.1,0.3,1.7,0.3
		c0.8,0,1.3-0.1,1.9-0.4c0.6-0.2,1.1-0.7,1.5-1.2l0.9,0.7c-0.2,0.3-0.4,0.6-0.7,0.9c-0.2,0.2-0.6,0.4-0.9,0.7s-0.8,0.3-1.2,0.4
		S77.7,523.6,77.2,523.6z M77,511.9c-0.6,0-1,0.1-1.4,0.3s-0.8,0.4-1.2,0.9c-0.4,0.4-0.7,0.8-0.8,1.3c-0.2,0.6-0.3,1.1-0.4,1.7h7.4
		V516c0-0.6-0.1-1-0.2-1.4s-0.3-0.9-0.7-1.3c-0.3-0.3-0.7-0.7-1.1-0.9C78.1,512.1,77.5,511.9,77,511.9z"/>
	<path class="st0" d="M91.8,520.2c0-0.2,0-0.6-0.1-0.8s-0.2-0.4-0.4-0.7s-0.6-0.4-1-0.7c-0.4-0.2-1-0.3-1.7-0.6
		c-0.7-0.2-1.3-0.3-1.8-0.6c-0.6-0.2-1-0.4-1.3-0.7s-0.7-0.6-0.9-1c-0.2-0.4-0.3-0.8-0.3-1.3c0-0.4,0.1-0.9,0.3-1.3s0.4-0.8,0.9-1.1
		c0.3-0.3,0.8-0.6,1.3-0.8c0.6-0.2,1.1-0.2,1.8-0.2c0.7,0,1.3,0.1,1.9,0.3s1,0.4,1.4,0.8c0.4,0.3,0.7,0.7,0.9,1.2
		c0.2,0.6,0.3,0.9,0.3,1.4h-1.3c0-0.3-0.1-0.7-0.2-0.9c-0.1-0.3-0.3-0.6-0.7-0.8c-0.2-0.2-0.6-0.4-1-0.6s-0.9-0.2-1.3-0.2
		c-0.6,0-1,0.1-1.3,0.2s-0.7,0.3-0.9,0.6c-0.2,0.2-0.4,0.4-0.6,0.7c-0.1,0.2-0.1,0.6-0.1,0.8s0,0.6,0.1,0.8s0.2,0.4,0.4,0.7
		c0.2,0.2,0.6,0.3,1,0.6c0.4,0.1,1,0.3,1.7,0.4c0.8,0.2,1.3,0.3,1.9,0.6s1,0.4,1.3,0.8c0.3,0.3,0.7,0.7,0.8,1
		c0.2,0.3,0.2,0.8,0.2,1.3c0,0.6-0.1,1-0.3,1.4c-0.2,0.4-0.6,0.8-0.9,1.1c-0.4,0.3-0.9,0.6-1.4,0.7c-0.6,0.1-1.2,0.2-1.9,0.2
		c-0.8,0-1.4-0.1-2.1-0.3s-1.1-0.4-1.5-0.8s-0.7-0.8-0.9-1.2c-0.2-0.4-0.3-0.9-0.3-1.3H85c0,0.4,0.1,0.9,0.3,1.2
		c0.2,0.3,0.4,0.6,0.8,0.8c0.3,0.2,0.7,0.3,1.1,0.4c0.4,0.1,0.8,0.1,1.2,0.1c0.6,0,1-0.1,1.3-0.2c0.3-0.1,0.8-0.3,1-0.4
		c0.2-0.1,0.4-0.4,0.6-0.7C91.4,521,91.8,520.5,91.8,520.2z"/>
	<path class="st0" d="M98.3,508v3.1h2.5v1.1h-2.5v8.2c0,0.4,0,0.8,0.1,1s0.2,0.4,0.3,0.7c0.1,0.1,0.3,0.2,0.6,0.3
		c0.2,0,0.4,0.1,0.6,0.1s0.4,0,0.6,0s0.3,0,0.6-0.1l0.1,1.1c-0.2,0.1-0.3,0.1-0.7,0.1c-0.2,0-0.6,0-0.8,0c-0.3,0-0.8,0-1.1-0.1
		c-0.3-0.1-0.7-0.3-0.9-0.6s-0.4-0.6-0.6-1s-0.2-0.9-0.2-1.5v-8.2h-2.2v-1.1h2.2V508H98.3z"/>
	<path class="st0" d="M109.4,512.2c-0.3,0-0.6-0.1-0.9-0.1c-0.4,0-0.9,0.1-1.2,0.2c-0.3,0.1-0.7,0.3-1,0.6s-0.6,0.6-0.7,0.9
		c-0.2,0.3-0.3,0.7-0.4,1.1v8.4h-1.3V511h1.3v2c0.3-0.7,0.8-1.2,1.3-1.5c0.6-0.4,1.3-0.6,2.1-0.6c0.2,0,0.3,0,0.6,0s0.3,0.1,0.3,0.1
		L109.4,512.2z"/>
	<path class="st0" d="M118.8,523.3c-0.1-0.2-0.1-0.4-0.2-0.8c0-0.3-0.1-0.7-0.1-0.9c-0.2,0.2-0.4,0.6-0.8,0.8
		c-0.3,0.2-0.6,0.4-1,0.7c-0.4,0.2-0.8,0.3-1.1,0.4c-0.3,0.1-0.9,0.1-1.3,0.1c-0.6,0-1.1-0.1-1.7-0.2c-0.4-0.2-0.9-0.4-1.2-0.8
		c-0.3-0.3-0.7-0.7-0.8-1.1c-0.1-0.4-0.3-0.9-0.3-1.4c0-0.6,0.1-1.1,0.3-1.7c0.2-0.4,0.7-0.9,1.1-1.2s1.1-0.6,1.8-0.8
		c0.7-0.2,1.4-0.2,2.3-0.2h2.8v-1.4c0-0.9-0.2-1.5-0.8-2.1c-0.6-0.6-1.3-0.8-2.3-0.8c-0.4,0-0.9,0.1-1.3,0.2c-0.4,0.1-0.8,0.3-1,0.6
		c-0.3,0.2-0.6,0.4-0.7,0.8s-0.2,0.7-0.2,1H111c0-0.4,0.1-0.9,0.3-1.3c0.2-0.4,0.6-0.8,1-1.1s0.9-0.6,1.4-0.8
		c0.6-0.2,1.2-0.3,1.9-0.3c0.7,0,1.2,0.1,1.8,0.2c0.6,0.2,1,0.4,1.4,0.8c0.4,0.3,0.7,0.8,0.9,1.2s0.3,1.1,0.3,1.8v6
		c0,0.2,0,0.4,0,0.7s0,0.4,0.1,0.7c0,0.2,0.1,0.4,0.1,0.6c0,0.2,0.1,0.3,0.1,0.6v0.1h-1.5L118.8,523.3L118.8,523.3z M114.6,522.3
		c0.4,0,1-0.1,1.3-0.2c0.4-0.1,0.8-0.3,1.1-0.6c0.3-0.2,0.7-0.4,0.9-0.8s0.4-0.6,0.6-1V517h-2.3c-0.7,0-1.3,0.1-1.9,0.2
		c-0.6,0.1-1,0.3-1.4,0.6c-0.4,0.2-0.7,0.6-0.9,0.9s-0.3,0.7-0.3,1.1c0,0.3,0.1,0.7,0.2,0.9c0.1,0.3,0.3,0.6,0.6,0.8
		c0.2,0.2,0.6,0.3,0.9,0.6C113.7,522.3,114.1,522.3,114.6,522.3z"/>
	<path class="st0" d="M125.6,508v3.1h2.5v1.1h-2.5v8.2c0,0.4,0,0.8,0.1,1s0.2,0.4,0.3,0.7c0.1,0.1,0.3,0.2,0.6,0.3
		c0.2,0,0.4,0.1,0.6,0.1s0.4,0,0.6,0s0.3,0,0.6-0.1l0.1,1.1c-0.2,0.1-0.3,0.1-0.7,0.1c-0.2,0-0.6,0-0.8,0c-0.3,0-0.8,0-1.1-0.1
		c-0.3-0.1-0.7-0.3-0.9-0.6s-0.4-0.6-0.6-1s-0.2-0.9-0.2-1.5v-8.2H122v-1.1h2.2V508H125.6z"/>
	<path class="st0" d="M135.7,523.6c-0.8,0-1.5-0.1-2.2-0.4s-1.2-0.7-1.8-1.2c-0.4-0.6-0.9-1.2-1.1-1.9c-0.2-0.7-0.4-1.5-0.4-2.4
		v-0.4c0-1,0.1-1.8,0.4-2.5c0.3-0.8,0.7-1.4,1.1-2c0.4-0.6,1-1,1.7-1.2s1.3-0.4,2-0.4c0.8,0,1.4,0.1,2.1,0.4
		c0.7,0.3,1.1,0.7,1.5,1.2c0.4,0.6,0.8,1.1,0.9,1.8c0.1,0.7,0.3,1.4,0.3,2.2v0.8h-8.7v0.2c0,0.7,0.1,1.3,0.3,1.9
		c0.2,0.6,0.4,1.1,0.9,1.5c0.4,0.4,0.8,0.8,1.3,1c0.6,0.2,1.1,0.3,1.7,0.3c0.8,0,1.3-0.1,1.9-0.4c0.6-0.2,1.1-0.7,1.5-1.2l0.9,0.7
		c-0.2,0.3-0.4,0.6-0.7,0.9c-0.2,0.2-0.6,0.4-0.9,0.7s-0.8,0.3-1.2,0.4S136.2,523.6,135.7,523.6z M135.5,511.9c-0.6,0-1,0.1-1.4,0.3
		s-0.8,0.4-1.2,0.9c-0.4,0.4-0.7,0.8-0.8,1.3c-0.2,0.6-0.3,1.1-0.4,1.7h7.4V516c0-0.6-0.1-1-0.2-1.4s-0.3-0.9-0.7-1.3
		c-0.3-0.3-0.7-0.7-1.1-0.9C136.6,512.1,136,511.9,135.5,511.9z M137,506.1h1.7l-2.7,3.2h-1.2L137,506.1z"/>
	<path class="st0" d="M142.4,517c0-1,0.1-1.8,0.3-2.5c0.2-0.8,0.6-1.4,0.9-2c0.3-0.6,0.9-1,1.4-1.2c0.6-0.2,1.2-0.4,2-0.4
		c0.9,0,1.7,0.2,2.2,0.6c0.7,0.3,1.1,0.9,1.5,1.4l0.1-1.8h1.2v12.1c0,0.8-0.1,1.5-0.3,2.1c-0.2,0.7-0.6,1.2-1,1.7
		c-0.4,0.4-1,0.8-1.5,1c-0.6,0.2-1.3,0.3-2,0.3c-0.3,0-0.8,0-1.2-0.1s-0.8-0.2-1.2-0.4c-0.3-0.2-0.8-0.4-1.1-0.7
		c-0.3-0.2-0.7-0.6-0.9-0.9l0.8-0.8c0.6,0.7,1,1.1,1.5,1.3c0.6,0.3,1.2,0.4,1.9,0.4c0.6,0,1.1-0.1,1.5-0.2c0.4-0.2,0.9-0.4,1.1-0.8
		c0.3-0.3,0.6-0.8,0.7-1.2c0.1-0.4,0.2-1,0.2-1.7v-1.4c-0.4,0.6-0.9,1-1.5,1.3c-0.7,0.3-1.3,0.4-2.2,0.4c-0.8,0-1.4-0.1-2-0.4
		c-0.6-0.3-1.1-0.8-1.4-1.3c-0.4-0.6-0.8-1.2-0.9-2c-0.2-0.8-0.3-1.7-0.3-2.5V517H142.4z M143.7,517.4c0,0.7,0.1,1.4,0.2,2
		c0.1,0.7,0.3,1.1,0.7,1.7c0.3,0.6,0.7,0.8,1.1,1.1s1,0.3,1.7,0.3c0.4,0,0.9-0.1,1.2-0.2s0.7-0.2,1-0.4s0.6-0.4,0.8-0.7
		s0.4-0.6,0.6-0.9v-5.7c-0.1-0.3-0.3-0.7-0.4-0.9c-0.2-0.3-0.4-0.6-0.8-0.8c-0.3-0.2-0.7-0.4-1-0.6c-0.3-0.1-0.8-0.2-1.3-0.2
		c-0.7,0-1.2,0.1-1.7,0.4c-0.4,0.2-0.8,0.7-1.1,1.1c-0.3,0.4-0.6,1-0.7,1.7c-0.1,0.7-0.2,1.3-0.2,2v0.1H143.7z"/>
	<path class="st0" d="M155.7,507.5c0-0.2,0.1-0.4,0.2-0.7c0.2-0.2,0.4-0.2,0.7-0.2s0.6,0.1,0.7,0.2c0.2,0.2,0.2,0.4,0.2,0.7
		s-0.1,0.4-0.2,0.7c-0.2,0.2-0.4,0.2-0.7,0.2s-0.6-0.1-0.7-0.2S155.7,507.7,155.7,507.5z M157.3,523.3H156V511h1.3V523.3z"/>
	<path class="st0" d="M168.7,523.3c-0.1-0.2-0.1-0.4-0.2-0.8c0-0.3-0.1-0.7-0.1-0.9c-0.2,0.2-0.4,0.6-0.8,0.8
		c-0.3,0.2-0.6,0.4-1,0.7s-0.8,0.3-1.1,0.4c-0.3,0.1-0.9,0.1-1.3,0.1c-0.6,0-1.1-0.1-1.7-0.2c-0.4-0.2-0.9-0.4-1.2-0.8
		c-0.3-0.3-0.7-0.7-0.8-1.1c-0.1-0.4-0.3-0.9-0.3-1.4c0-0.6,0.1-1.1,0.3-1.7c0.2-0.4,0.7-0.9,1.1-1.2c0.4-0.3,1.1-0.6,1.8-0.8
		s1.4-0.2,2.3-0.2h2.5v-1.4c0-0.9-0.2-1.5-0.8-2.1s-1.3-0.8-2.3-0.8c-0.4,0-0.9,0.1-1.3,0.2c-0.4,0.1-0.8,0.3-1,0.6
		c-0.3,0.2-0.6,0.4-0.7,0.8s-0.2,0.7-0.2,1h-1.3c0-0.4,0.1-0.9,0.3-1.3c0.2-0.4,0.6-0.8,1-1.1s0.9-0.6,1.4-0.8
		c0.6-0.2,1.2-0.3,1.9-0.3s1.2,0.1,1.8,0.2c0.6,0.2,1,0.4,1.4,0.8c0.4,0.3,0.7,0.8,0.9,1.2s0.3,1.1,0.3,1.8v6c0,0.2,0,0.4,0,0.7
		s0,0.4,0.1,0.7c0,0.2,0.1,0.4,0.1,0.6c0,0.2,0.1,0.3,0.1,0.6v0.1h-1.3v-0.4H168.7z M164.5,522.3c0.4,0,1-0.1,1.3-0.2
		c0.4-0.1,0.8-0.3,1.1-0.6c0.3-0.2,0.7-0.4,0.9-0.8s0.4-0.6,0.6-1V517h-2.3c-0.7,0-1.3,0.1-1.9,0.2c-0.6,0.1-1,0.3-1.4,0.6
		s-0.7,0.6-0.9,0.9s-0.3,0.7-0.3,1.1c0,0.3,0.1,0.7,0.2,0.9c0.1,0.3,0.3,0.6,0.6,0.8c0.2,0.2,0.6,0.3,0.9,0.6
		C163.6,522.3,164.1,522.3,164.5,522.3z"/>
</g>
<g>
	<path class="st3" d="M58.9,243.9c-0.7,0-1.3-0.1-2.1-0.3s-1.3-0.6-1.9-1.1c-0.6-0.4-1-1.1-1.3-1.9c-0.3-0.8-0.4-1.7-0.4-2.8v-31
		c0-1.1,0.1-2,0.4-2.8c0.3-0.8,0.8-1.4,1.3-1.9c0.6-0.4,1.2-0.9,1.9-1.1c0.7-0.2,1.3-0.3,2.1-0.3H60c0.7,0,1.3,0.1,2.1,0.3
		s1.3,0.6,1.9,1.1c0.6,0.4,1,1.1,1.3,1.9c0.3,0.8,0.4,1.7,0.4,2.8v11.4H61v-10.7c0-1.1-0.1-1.8-0.3-2.2s-0.6-0.6-1-0.6h-0.2
		c-0.4,0-0.8,0.2-1,0.7c-0.2,0.4-0.3,1.2-0.3,2.2V237c0,1.1,0.1,1.8,0.3,2.2s0.6,0.7,1,0.7h0.2c0.4,0,0.8-0.2,1-0.7
		c0.2-0.4,0.3-1.2,0.3-2.2v-10.7h4.8v11.4c0,1.1-0.1,2-0.4,2.8s-0.8,1.4-1.3,1.9c-0.6,0.4-1.2,0.9-1.9,1.1c-0.7,0.2-1.3,0.3-2.1,0.3
		H59L58.9,243.9L58.9,243.9z"/>
	<path class="st3" d="M78.1,243.9c-0.7,0-1.3-0.1-2.1-0.3c-0.8-0.2-1.3-0.6-1.9-1.1c-0.6-0.4-1-1.1-1.3-1.9
		c-0.3-0.8-0.4-1.7-0.4-2.8v-31c0-1.1,0.1-2,0.4-2.8s0.8-1.4,1.3-1.9c0.6-0.4,1.2-0.9,1.9-1.1c0.7-0.2,1.3-0.3,2.1-0.3h1.1
		c0.7,0,1.3,0.1,2.1,0.3c0.8,0.2,1.3,0.6,1.9,1.1c0.6,0.4,1,1.1,1.3,1.9s0.4,1.7,0.4,2.8v31c0,1.1-0.1,2-0.4,2.8s-0.8,1.4-1.3,1.9
		c-0.6,0.4-1.2,0.9-1.9,1.1s-1.3,0.3-2.1,0.3H78.1z M78.5,204.8c-0.9,0-1.4,1-1.4,2.9v29.4c0,1.1,0.1,1.8,0.3,2.2
		c0.2,0.4,0.6,0.7,1,0.7h0.2c0.4,0,0.8-0.2,1-0.7c0.2-0.4,0.3-1.2,0.3-2.2v-29.4C80,205.8,79.5,204.8,78.5,204.8L78.5,204.8z"/>
	<path class="st3" d="M100.7,243.6l-5.1-27.8h-0.1v27.8h-4v-42.5h5.3l4.8,27.2v-27.2h4.3v42.5H100.7z"/>
	<path class="st3" d="M125.1,201.1v42.5h-4.8v-19.5h-2.9v19.5h-4.8v-42.5h4.8v19.5h2.9v-19.5H125.1L125.1,201.1z"/>
	<path class="st3" d="M136.7,205.1v15.4h4.1v3.5h-4.1v15.4h5.6v4h-10.4v-42.5H142v4h-5.3V205.1z"/>
	<path class="st3" d="M154.3,243.9c-0.7,0-1.3-0.1-2.1-0.3s-1.3-0.6-1.9-1.1c-0.6-0.4-1-1.1-1.3-1.9c-0.3-0.8-0.4-1.7-0.4-2.8v-31
		c0-1.1,0.1-2,0.4-2.8c0.3-0.8,0.8-1.4,1.3-1.9c0.6-0.4,1.2-0.9,1.9-1.1c0.7-0.2,1.3-0.3,2.1-0.3h1.1c0.7,0,1.3,0.1,2.1,0.3
		s1.3,0.6,1.9,1.1c0.6,0.4,1,1.1,1.3,1.9s0.4,1.7,0.4,2.8v11.4h-4.8v-10.7c0-1.1-0.1-1.8-0.3-2.2s-0.6-0.6-1-0.6h-0.2
		c-0.4,0-0.8,0.2-1,0.7c-0.2,0.4-0.3,1.2-0.3,2.2V237c0,1.1,0.1,1.8,0.3,2.2s0.6,0.7,1,0.7h0.2c0.4,0,0.8-0.2,1-0.7
		c0.2-0.4,0.3-1.2,0.3-2.2v-10.7h4.8v11.4c0,1.1-0.1,2-0.4,2.8c-0.3,0.8-0.8,1.4-1.3,1.9c-0.6,0.4-1.2,0.9-1.9,1.1
		c-0.7,0.2-1.3,0.3-2.1,0.3h-1.1V243.9z"/>
	<path class="st3" d="M172.5,201.1v42.5h-4.8v-42.5H172.5L172.5,201.1z"/>
	<path class="st3" d="M196.8,201.1v42.5h-4v-27.8h-0.1l-3,27.8h-3.4l-3-27.8h-0.1v27.8h-4v-42.5h6.1l2.5,24.2h0.1l2.7-24.2H196.8
		L196.8,201.1z"/>
	<path class="st3" d="M208.3,205.1v15.4h4.1v3.5h-4.1v15.4h5.6v4h-10.4v-42.5h10.1v4h-5.3L208.3,205.1L208.3,205.1z"/>
	<path class="st3" d="M229.3,243.6l-5.1-27.8h-0.1v27.8h-4v-42.5h5.3l4.8,27.2v-27.2h4.3v42.5H229.3z"/>
	<path class="st3" d="M253.5,205.1h-4.1v38.5h-4.8v-38.5h-4.1v-4h12.9v4H253.5z"/>
	<path class="st3" d="M265.1,243.9c-0.7,0-1.3-0.1-2.1-0.3c-0.8-0.2-1.3-0.6-1.9-1.1c-0.6-0.4-1-1.1-1.3-1.9
		c-0.3-0.8-0.4-1.7-0.4-2.8v-31c0-1.1,0.1-2,0.4-2.8s0.8-1.4,1.3-1.9c0.6-0.4,1.2-0.9,1.9-1.1c0.7-0.2,1.3-0.3,2.1-0.3h1.1
		c0.7,0,1.3,0.1,2.1,0.3c0.8,0.2,1.3,0.6,1.9,1.1c0.6,0.4,1,1.1,1.3,1.9c0.3,0.8,0.4,1.7,0.4,2.8v31c0,1.1-0.1,2-0.4,2.8
		s-0.8,1.4-1.3,1.9c-0.6,0.4-1.2,0.9-1.9,1.1s-1.3,0.3-2.1,0.3H265.1z M265.6,204.8c-0.9,0-1.4,1-1.4,2.9v29.4
		c0,1.1,0.1,1.8,0.3,2.2c0.2,0.4,0.6,0.7,1,0.7h0.2c0.4,0,0.8-0.2,1-0.7c0.2-0.4,0.3-1.2,0.3-2.2v-29.4
		C267,205.8,266.6,204.8,265.6,204.8L265.6,204.8z"/>
</g>
<g>
	<g>
		<path class="st1" d="M56.8,277.5h1.4c0.7,0,1.2-0.1,1.7-0.2c0.4-0.2,0.9-0.4,1.2-0.7c0.3-0.3,0.6-0.7,0.8-1
			c0.1-0.4,0.2-0.8,0.2-1.2c0-0.6-0.1-1-0.2-1.3c-0.1-0.4-0.3-0.8-0.7-1.1c-0.3-0.3-0.7-0.6-1.1-0.7c-0.4-0.2-1-0.2-1.5-0.2
			s-1,0.1-1.4,0.2s-0.8,0.3-1.1,0.7s-0.6,0.7-0.8,1.1s-0.2,0.9-0.2,1.4h-1.4c0-0.7,0.1-1.3,0.3-1.9s0.6-1,1-1.4s1-0.7,1.5-1
			c0.7-0.2,1.2-0.3,2-0.3s1.4,0.1,2,0.3c0.6,0.2,1.1,0.6,1.5,0.9c0.4,0.4,0.8,0.9,1,1.4c0.2,0.6,0.3,1.2,0.3,2
			c0,0.3-0.1,0.8-0.2,1.1c-0.1,0.3-0.3,0.7-0.6,1c-0.2,0.3-0.6,0.7-0.9,0.9c-0.3,0.2-0.8,0.4-1.2,0.7c0.6,0.1,1,0.3,1.4,0.7
			c0.4,0.2,0.7,0.6,1,0.9c0.2,0.3,0.4,0.8,0.6,1.1c0.1,0.4,0.2,0.9,0.2,1.3c0,0.8-0.1,1.4-0.3,2s-0.7,1.1-1.1,1.4s-1,0.7-1.7,0.9
			s-1.3,0.3-2,0.3s-1.3-0.1-2-0.3c-0.7-0.2-1.2-0.4-1.7-0.9s-0.9-0.9-1.2-1.4c-0.3-0.6-0.4-1.3-0.4-2.1h1.3c0,0.6,0.1,1,0.3,1.4
			s0.4,0.8,0.8,1.1s0.8,0.6,1.2,0.8c0.4,0.2,1,0.2,1.5,0.2c1.2,0,2.1-0.3,2.8-0.9s1-1.4,1-2.7c0-0.6-0.1-1.1-0.3-1.5
			s-0.4-0.8-0.9-1.1c-0.3-0.2-0.8-0.4-1.3-0.6c-0.6-0.1-1.1-0.2-1.7-0.2h-1.4v-1.1L56.8,277.5L56.8,277.5z"/>
		<path class="st1" d="M76.4,284.7l3.8-10.4h1.4l-4.5,12.3H76l-4.6-12.3h1.4L76.4,284.7z"/>
		<path class="st1" d="M83.7,270.8c0-0.2,0.1-0.4,0.2-0.7c0.1-0.2,0.4-0.2,0.7-0.2c0.3,0,0.6,0.1,0.7,0.2c0.2,0.2,0.2,0.4,0.2,0.7
			s-0.1,0.4-0.2,0.7c-0.2,0.2-0.4,0.2-0.7,0.2c-0.3,0-0.6-0.1-0.7-0.2C83.8,271.2,83.7,271,83.7,270.8z M85.3,286.6H84v-12.3h1.3
			V286.6z"/>
		<path class="st1" d="M92.8,284.7l3.8-10.4H98l-4.5,12.3h-1.1l-4.6-12.3h1.4L92.8,284.7z"/>
		<path class="st1" d="M104.7,286.8c-0.8,0-1.5-0.1-2.2-0.4s-1.2-0.7-1.8-1.2c-0.4-0.6-0.9-1.2-1.1-1.9c-0.2-0.7-0.4-1.5-0.4-2.4
			v-0.4c0-1,0.1-1.8,0.4-2.5c0.3-0.8,0.7-1.4,1.1-2s1-1,1.7-1.2c0.7-0.3,1.3-0.4,2-0.4c0.8,0,1.4,0.1,2.1,0.4s1.1,0.7,1.5,1.2
			c0.4,0.6,0.8,1.1,0.9,1.8c0.1,0.7,0.3,1.4,0.3,2.2v0.8h-8.7v0.2c0,0.7,0.1,1.3,0.3,1.9c0.2,0.6,0.4,1.1,0.9,1.5
			c0.4,0.4,0.8,0.8,1.3,1s1.1,0.3,1.7,0.3c0.8,0,1.3-0.1,1.9-0.4c0.6-0.2,1.1-0.7,1.5-1.2l0.9,0.7c-0.2,0.3-0.4,0.6-0.7,0.9
			c-0.2,0.2-0.6,0.4-0.9,0.7c-0.3,0.2-0.8,0.3-1.2,0.4C105.8,286.7,105.3,286.8,104.7,286.8z M104.5,275.2c-0.6,0-1,0.1-1.4,0.3
			c-0.4,0.2-0.8,0.4-1.2,0.9c-0.3,0.3-0.7,0.8-0.8,1.3c-0.2,0.6-0.3,1.1-0.4,1.7h7.4v-0.1c0-0.6-0.1-1-0.2-1.4s-0.3-0.9-0.7-1.3
			c-0.3-0.3-0.7-0.7-1.1-0.9C105.6,275.4,105,275.2,104.5,275.2z M107.8,272.2v0.1h-1.2l-1.9-2.1l-1.9,2.1h-1.2v-0.1l2.7-2.9h0.9
			L107.8,272.2z"/>
		<path class="st1" d="M113.2,274.3v2.1c0.2-0.3,0.4-0.7,0.8-1c0.3-0.3,0.6-0.6,0.9-0.8s0.7-0.3,1.1-0.4s0.8-0.1,1.2-0.1
			c0.7,0,1.1,0.1,1.7,0.2s0.9,0.4,1.2,0.8c0.3,0.3,0.6,0.9,0.8,1.4s0.2,1.2,0.2,2.1v8h-1.3v-8c0-0.7-0.1-1.2-0.2-1.5s-0.3-0.8-0.6-1
			c-0.2-0.2-0.6-0.4-0.9-0.6c-0.3-0.1-0.8-0.1-1.2-0.1c-0.4,0-0.9,0.1-1.3,0.2s-0.8,0.3-1,0.7s-0.6,0.6-0.8,0.9
			c-0.2,0.3-0.4,0.7-0.6,1.1v8.4h-1.3v-12.3h1.3C113.2,274.4,113.2,274.3,113.2,274.3z"/>
		<path class="st1" d="M129.3,285.6c0.4,0,0.9-0.1,1.2-0.2c0.4-0.1,0.8-0.3,1.1-0.6s0.6-0.6,0.8-0.9s0.3-0.8,0.3-1.2h1.3
			c0,0.6-0.2,1.1-0.4,1.7c-0.2,0.4-0.6,0.9-1,1.2c-0.4,0.3-0.9,0.7-1.4,0.9s-1.1,0.3-1.8,0.3c-0.9,0-1.7-0.1-2.3-0.4
			c-0.7-0.3-1.2-0.8-1.7-1.3c-0.4-0.6-0.8-1.2-1-2s-0.3-1.5-0.3-2.4v-0.4c0-0.9,0.1-1.7,0.3-2.4c0.2-0.8,0.6-1.4,1-2s1-1,1.7-1.3
			s1.4-0.4,2.2-0.4c0.7,0,1.2,0.1,1.9,0.3c0.6,0.2,1.1,0.4,1.4,0.9c0.4,0.3,0.8,0.9,1,1.3c0.2,0.6,0.4,1.1,0.4,1.8h-1.3
			c0-0.6-0.1-1-0.3-1.3c-0.2-0.4-0.4-0.8-0.8-1c-0.3-0.3-0.7-0.4-1.1-0.7c-0.4-0.1-0.9-0.2-1.3-0.2c-0.7,0-1.3,0.1-1.8,0.4
			c-0.4,0.2-0.9,0.7-1.2,1.1c-0.3,0.4-0.6,1-0.7,1.5s-0.2,1.2-0.2,1.9v0.4c0,0.7,0.1,1.3,0.2,1.9s0.3,1.1,0.7,1.5
			c0.3,0.4,0.7,0.8,1.2,1.1C127.9,285.5,128.6,285.6,129.3,285.6z"/>
		<path class="st1" d="M136.7,270.8c0-0.2,0.1-0.4,0.2-0.7c0.1-0.2,0.4-0.2,0.7-0.2s0.6,0.1,0.7,0.2c0.2,0.2,0.2,0.4,0.2,0.7
			s-0.1,0.4-0.2,0.7c-0.2,0.2-0.4,0.2-0.7,0.2s-0.6-0.1-0.7-0.2C136.7,271.2,136.7,271,136.7,270.8z M138.2,286.6h-1.3v-12.3h1.3
			V286.6z"/>
		<path class="st1" d="M149.6,286.6c-0.1-0.2-0.1-0.4-0.2-0.8c0-0.3-0.1-0.7-0.1-0.9c-0.2,0.2-0.4,0.6-0.8,0.8
			c-0.3,0.2-0.6,0.4-1,0.7c-0.4,0.2-0.8,0.3-1.1,0.4s-0.9,0.1-1.3,0.1c-0.6,0-1.1-0.1-1.7-0.2c-0.4-0.2-0.9-0.4-1.2-0.8
			s-0.7-0.7-0.8-1.1s-0.3-0.9-0.3-1.4s0.1-1.1,0.3-1.7c0.2-0.4,0.7-0.9,1.1-1.2s1.1-0.6,1.8-0.8s1.4-0.2,2.3-0.2h2.5v-1.4
			c0-0.9-0.2-1.5-0.8-2.1s-1.3-0.8-2.3-0.8c-0.4,0-0.9,0.1-1.3,0.2c-0.4,0.1-0.8,0.3-1,0.6c-0.3,0.2-0.6,0.4-0.7,0.8
			c-0.1,0.3-0.2,0.7-0.2,1h-1.3c0-0.4,0.1-0.9,0.3-1.3s0.6-0.8,1-1.1c0.4-0.3,0.9-0.6,1.4-0.8s1.2-0.3,1.9-0.3s1.2,0.1,1.8,0.2
			c0.6,0.2,1,0.4,1.4,0.8c0.4,0.3,0.7,0.8,0.9,1.2c0.2,0.4,0.3,1.1,0.3,1.8v6c0,0.2,0,0.4,0,0.7s0,0.4,0.1,0.7
			c0,0.2,0.1,0.4,0.1,0.6s0.1,0.3,0.1,0.6v0.1h-1.3v-0.4H149.6z M145.4,285.6c0.4,0,1-0.1,1.3-0.2c0.4-0.1,0.8-0.3,1.1-0.6
			s0.7-0.4,0.9-0.8s0.4-0.6,0.6-1v-2.7H147c-0.7,0-1.3,0.1-1.9,0.2s-1,0.3-1.4,0.6c-0.3,0.2-0.7,0.6-0.9,0.9s-0.3,0.7-0.3,1.1
			c0,0.3,0.1,0.7,0.2,0.9s0.3,0.6,0.6,0.8c0.2,0.2,0.6,0.3,0.9,0.6C144.6,285.5,145,285.6,145.4,285.6z"/>
		<path class="st1" d="M159.8,279.9c0-1,0.1-1.9,0.2-2.9c0.1-0.9,0.3-1.8,0.6-2.5c0.2-0.8,0.6-1.5,0.9-2.2c0.3-0.7,0.7-1.3,1.1-1.9
			c0.3-0.6,0.8-1,1.2-1.4s0.8-0.7,1.2-1l0.3,0.9c-0.6,0.3-1,0.9-1.4,1.5c-0.4,0.7-0.9,1.4-1.3,2.4c-0.4,1-0.7,2-0.9,3.2
			s-0.3,2.4-0.3,3.8v0.2c0,1.3,0.1,2.5,0.3,3.8c0.2,1.2,0.6,2.2,0.9,3.2s0.8,1.8,1.3,2.4c0.6,0.7,1,1.2,1.4,1.5l-0.3,0.9
			c-0.4-0.2-0.8-0.6-1.2-1s-0.8-0.9-1.2-1.4c-0.3-0.6-0.8-1.1-1.1-1.9c-0.3-0.7-0.7-1.4-0.9-2.2s-0.4-1.7-0.6-2.5
			C159.9,281.8,159.8,280.9,159.8,279.9L159.8,279.9z"/>
		<path class="st1" d="M166.9,280.3c0-1,0.1-1.8,0.3-2.5s0.6-1.4,1-2s0.9-1,1.4-1.2c0.6-0.3,1.2-0.4,2-0.4c0.9,0,1.7,0.2,2.2,0.6
			c0.7,0.3,1.1,0.8,1.5,1.4v-6.9h1.3v17.4h-1.2l-0.1-1.7c-0.4,0.6-0.9,1-1.5,1.3c-0.7,0.3-1.4,0.4-2.3,0.4c-0.8,0-1.3-0.1-2-0.4
			c-0.6-0.3-1.1-0.8-1.4-1.3c-0.4-0.6-0.8-1.2-1-2s-0.3-1.7-0.3-2.5v-0.1L166.9,280.3L166.9,280.3z M168.2,280.5
			c0,0.7,0.1,1.4,0.2,2c0.1,0.7,0.3,1.1,0.7,1.7s0.7,0.8,1.1,1.1c0.4,0.2,1,0.3,1.7,0.3c0.4,0,0.9,0,1.2-0.1s0.7-0.2,1-0.4
			c0.3-0.2,0.6-0.4,0.8-0.7c0.2-0.2,0.4-0.6,0.6-0.9v-5.7c-0.1-0.3-0.3-0.7-0.6-0.9c-0.2-0.2-0.4-0.6-0.8-0.8
			c-0.3-0.2-0.7-0.4-1-0.6c-0.3-0.1-0.8-0.2-1.3-0.2c-0.7,0-1.2,0.1-1.7,0.4c-0.4,0.2-0.8,0.7-1.1,1.1s-0.6,1-0.7,1.7
			c-0.1,0.7-0.2,1.3-0.2,2l0,0H168.2z"/>
		<path class="st1" d="M180.2,270.8c0-0.2,0.1-0.4,0.2-0.7c0.1-0.2,0.4-0.2,0.7-0.2s0.6,0.1,0.7,0.2c0.2,0.2,0.2,0.4,0.2,0.7
			s-0.1,0.4-0.2,0.7c-0.2,0.2-0.4,0.2-0.7,0.2s-0.6-0.1-0.7-0.2C180.3,271.2,180.2,271,180.2,270.8z M181.8,286.6h-1.3v-12.3h1.3
			V286.6z"/>
		<path class="st1" d="M186.8,274.3v2.1c0.2-0.3,0.4-0.7,0.8-1c0.3-0.3,0.6-0.6,0.9-0.8c0.3-0.2,0.7-0.3,1.1-0.4
			c0.4-0.1,0.8-0.1,1.2-0.1c0.7,0,1.1,0.1,1.7,0.2c0.6,0.1,0.9,0.4,1.2,0.8c0.3,0.3,0.6,0.9,0.8,1.4c0.2,0.6,0.2,1.2,0.2,2.1v8h-1.3
			v-8c0-0.7-0.1-1.2-0.2-1.5c-0.1-0.3-0.3-0.8-0.6-1c-0.2-0.2-0.6-0.4-0.9-0.6c-0.3-0.1-0.8-0.1-1.2-0.1s-0.9,0.1-1.3,0.2
			c-0.4,0.1-0.8,0.3-1,0.7s-0.6,0.6-0.8,0.9s-0.4,0.7-0.6,1.1v8.4h-1.3v-12.3h1.3L186.8,274.3L186.8,274.3z"/>
		<path class="st1" d="M206,286.6c-0.1-0.2-0.1-0.4-0.2-0.8c0-0.3-0.1-0.7-0.1-0.9c-0.2,0.2-0.4,0.6-0.8,0.8c-0.3,0.2-0.6,0.4-1,0.7
			c-0.4,0.2-0.8,0.3-1.1,0.4s-0.9,0.1-1.3,0.1c-0.6,0-1.1-0.1-1.7-0.2c-0.4-0.2-0.9-0.4-1.2-0.8c-0.3-0.3-0.7-0.7-0.8-1.1
			s-0.3-0.9-0.3-1.4s0.1-1.1,0.3-1.7c0.2-0.4,0.7-0.9,1.1-1.2c0.4-0.3,1.1-0.6,1.8-0.8c0.7-0.2,1.4-0.2,2.3-0.2h2.5v-1.4
			c0-0.9-0.2-1.5-0.8-2.1s-1.3-0.8-2.3-0.8c-0.4,0-0.9,0.1-1.3,0.2c-0.4,0.1-0.8,0.3-1,0.6c-0.3,0.2-0.6,0.4-0.7,0.8s-0.2,0.7-0.2,1
			h-1.3c0-0.4,0.1-0.9,0.3-1.3s0.6-0.8,1-1.1c0.4-0.3,0.9-0.6,1.4-0.8s1.2-0.3,1.9-0.3s1.2,0.1,1.8,0.2c0.6,0.2,1,0.4,1.4,0.8
			s0.7,0.8,0.9,1.2c0.2,0.4,0.3,1.1,0.3,1.8v6c0,0.2,0,0.4,0,0.7s0,0.4,0.1,0.7c0,0.2,0.1,0.4,0.1,0.6s0.1,0.3,0.1,0.6v0.1H206
			V286.6z M201.7,285.6c0.4,0,1-0.1,1.3-0.2c0.4-0.1,0.8-0.3,1.1-0.6c0.3-0.2,0.7-0.4,0.9-0.8c0.2-0.3,0.4-0.6,0.6-1v-2.7h-2.3
			c-0.7,0-1.3,0.1-1.9,0.2s-1,0.3-1.4,0.6c-0.3,0.2-0.7,0.6-0.9,0.9s-0.3,0.7-0.3,1.1c0,0.3,0.1,0.7,0.2,0.9s0.3,0.6,0.6,0.8
			c0.2,0.2,0.6,0.3,0.9,0.6C200.9,285.5,201.4,285.6,201.7,285.6z M206.2,272.2v0.1H205l-1.9-2.1l-1.9,2.1H200v-0.1l2.7-2.9h0.9
			L206.2,272.2z"/>
		<path class="st1" d="M212,274.3v2c0.2-0.3,0.4-0.7,0.7-0.9c0.2-0.2,0.6-0.6,0.9-0.7c0.3-0.2,0.7-0.3,1.1-0.4
			c0.4-0.1,0.8-0.1,1.2-0.1c0.9,0,1.7,0.2,2.3,0.6c0.7,0.3,1.1,1,1.3,1.8c0.2-0.3,0.4-0.7,0.7-1s0.6-0.6,1-0.8
			c0.3-0.2,0.8-0.3,1.2-0.6s0.9-0.2,1.3-0.2c0.7,0,1.2,0.1,1.7,0.2c0.6,0.2,0.9,0.4,1.2,0.8c0.3,0.3,0.6,0.9,0.8,1.4
			c0.2,0.6,0.2,1.2,0.2,2v8h-1.3v-8c0-0.7-0.1-1.2-0.2-1.7c-0.1-0.4-0.3-0.8-0.7-1c-0.2-0.2-0.6-0.4-1-0.6c-0.3-0.1-0.8-0.1-1.2-0.1
			c-0.6,0-1.1,0.1-1.5,0.3c-0.4,0.2-0.8,0.4-1.1,0.8c-0.3,0.3-0.6,0.7-0.7,1c-0.1,0.3-0.2,0.8-0.3,1.1v8.1h-1.3v-8.1
			c0-0.7-0.1-1.1-0.2-1.5s-0.3-0.8-0.7-1c-0.2-0.2-0.6-0.4-1-0.6c-0.3-0.1-0.8-0.1-1.2-0.1c-0.6,0-1,0.1-1.3,0.2s-0.8,0.3-1,0.7
			c-0.3,0.2-0.6,0.6-0.8,0.9s-0.3,0.7-0.4,1.1v8.4h-1.3V274h1.8v0.3H212z"/>
		<path class="st1" d="M231.2,270.8c0-0.2,0.1-0.4,0.2-0.7c0.1-0.2,0.4-0.2,0.7-0.2s0.6,0.1,0.7,0.2c0.2,0.2,0.2,0.4,0.2,0.7
			s-0.1,0.4-0.2,0.7c-0.2,0.2-0.4,0.2-0.7,0.2s-0.6-0.1-0.7-0.2C231.3,271.2,231.2,271,231.2,270.8z M232.8,286.6h-1.3v-12.3h1.3
			V286.6z"/>
		<path class="st1" d="M241,285.6c0.4,0,0.9-0.1,1.2-0.2c0.4-0.1,0.8-0.3,1.1-0.6c0.3-0.2,0.6-0.6,0.8-0.9s0.3-0.8,0.3-1.2h1.3
			c0,0.6-0.2,1.1-0.4,1.7c-0.2,0.4-0.6,0.9-1,1.2s-0.9,0.7-1.4,0.9s-1.1,0.3-1.8,0.3c-0.9,0-1.7-0.1-2.3-0.4
			c-0.7-0.3-1.2-0.8-1.7-1.3c-0.4-0.6-0.8-1.2-1-2s-0.3-1.5-0.3-2.4v-0.4c0-0.9,0.1-1.7,0.3-2.4c0.2-0.8,0.6-1.4,1-2s1-1,1.7-1.3
			s1.4-0.4,2.2-0.4c0.7,0,1.2,0.1,1.9,0.3c0.6,0.2,1.1,0.4,1.4,0.9c0.4,0.3,0.8,0.9,1,1.3c0.2,0.6,0.4,1.1,0.4,1.8h-1.3
			c0-0.6-0.1-1-0.3-1.3c-0.2-0.4-0.4-0.8-0.8-1c-0.3-0.3-0.7-0.4-1.1-0.7c-0.4-0.1-0.9-0.2-1.3-0.2c-0.7,0-1.3,0.1-1.8,0.4
			c-0.4,0.2-0.9,0.7-1.2,1.1s-0.6,1-0.7,1.5c-0.1,0.6-0.2,1.2-0.2,1.9v0.4c0,0.7,0.1,1.3,0.2,1.9c0.1,0.6,0.3,1.1,0.7,1.5
			c0.3,0.4,0.7,0.8,1.2,1.1C239.7,285.5,240.3,285.6,241,285.6z"/>
		<path class="st1" d="M256.2,286.6c-0.1-0.2-0.1-0.4-0.2-0.8c0-0.3-0.1-0.7-0.1-0.9c-0.2,0.2-0.4,0.6-0.8,0.8
			c-0.3,0.2-0.6,0.4-1,0.7c-0.4,0.2-0.8,0.3-1.1,0.4s-0.9,0.1-1.3,0.1c-0.6,0-1.1-0.1-1.7-0.2c-0.4-0.2-0.9-0.4-1.2-0.8
			c-0.3-0.3-0.7-0.7-0.8-1.1s-0.3-0.9-0.3-1.4s0.1-1.1,0.3-1.7c0.2-0.4,0.7-0.9,1.1-1.2s1.1-0.6,1.8-0.8s1.4-0.2,2.3-0.2h2.5v-1.4
			c0-0.9-0.2-1.5-0.8-2.1s-1.3-0.8-2.3-0.8c-0.4,0-0.9,0.1-1.3,0.2c-0.4,0.1-0.8,0.3-1,0.6c-0.3,0.2-0.6,0.4-0.7,0.8s-0.2,0.7-0.2,1
			h-1.3c0-0.4,0.1-0.9,0.3-1.3s0.6-0.8,1-1.1c0.4-0.3,0.9-0.6,1.4-0.8s1.2-0.3,1.9-0.3s1.2,0.1,1.8,0.2c0.6,0.2,1,0.4,1.4,0.8
			c0.4,0.3,0.7,0.8,0.9,1.2s0.3,1.1,0.3,1.8v6c0,0.2,0,0.4,0,0.7s0,0.4,0.1,0.7c0,0.2,0.1,0.4,0.1,0.6s0.1,0.3,0.1,0.6v0.1h-1.3
			v-0.4H256.2z M251.9,285.6c0.4,0,1-0.1,1.3-0.2c0.4-0.1,0.8-0.3,1.1-0.6c0.3-0.2,0.7-0.4,0.9-0.8c0.2-0.3,0.4-0.6,0.6-1v-2.7h-2.3
			c-0.7,0-1.3,0.1-1.9,0.2s-1,0.3-1.4,0.6c-0.3,0.2-0.7,0.6-0.9,0.9s-0.3,0.7-0.3,1.1c0,0.3,0.1,0.7,0.2,0.9
			c0.1,0.2,0.3,0.6,0.6,0.8c0.2,0.2,0.6,0.3,0.9,0.6C251.1,285.5,251.4,285.6,251.9,285.6z"/>
		<path class="st1" d="M268.2,283.5c0-0.2,0-0.6-0.1-0.8s-0.2-0.4-0.4-0.7c-0.2-0.2-0.6-0.4-1-0.7c-0.4-0.2-1-0.3-1.7-0.6
			c-0.7-0.2-1.3-0.3-1.8-0.6c-0.6-0.2-1-0.4-1.3-0.7c-0.3-0.2-0.7-0.6-0.9-1c-0.2-0.4-0.3-0.8-0.3-1.3c0-0.4,0.1-0.9,0.3-1.3
			c0.2-0.4,0.4-0.8,0.9-1.1c0.3-0.3,0.8-0.6,1.3-0.8s1.1-0.2,1.8-0.2c0.7,0,1.3,0.1,1.9,0.3s1,0.4,1.4,0.8c0.4,0.3,0.7,0.7,0.9,1.2
			c0.2,0.4,0.3,0.9,0.3,1.4h-1.3c0-0.3-0.1-0.7-0.2-0.9c-0.1-0.3-0.3-0.6-0.7-0.8c-0.2-0.2-0.6-0.4-1-0.6c-0.4-0.1-0.9-0.2-1.3-0.2
			c-0.6,0-1,0.1-1.3,0.2s-0.7,0.3-0.9,0.6c-0.2,0.2-0.4,0.4-0.6,0.7c-0.1,0.2-0.1,0.6-0.1,0.8s0,0.6,0.1,0.8
			c0.1,0.2,0.2,0.4,0.4,0.7c0.2,0.2,0.6,0.3,1,0.6c0.4,0.1,1,0.3,1.7,0.4c0.8,0.2,1.3,0.3,1.9,0.6s1,0.4,1.3,0.8
			c0.3,0.3,0.7,0.7,0.8,1c0.2,0.3,0.2,0.8,0.2,1.3s-0.1,1-0.3,1.4c-0.2,0.4-0.6,0.8-0.9,1.1c-0.4,0.3-0.9,0.6-1.4,0.7
			s-1.2,0.2-1.9,0.2c-0.8,0-1.4-0.1-2.1-0.3c-0.6-0.2-1.1-0.4-1.5-0.8s-0.7-0.8-0.9-1.2c-0.2-0.4-0.3-0.9-0.3-1.3h1.3
			c0,0.4,0.1,0.9,0.3,1.2c0.2,0.3,0.4,0.6,0.8,0.8c0.3,0.2,0.7,0.3,1.1,0.4s0.8,0.1,1.2,0.1c0.6,0,1-0.1,1.3-0.2s0.8-0.3,1-0.4
			c0.2-0.2,0.4-0.4,0.6-0.7C267.9,284.3,268.2,283.7,268.2,283.5z"/>
		<path class="st1" d="M276.6,280.1c0,1-0.1,2-0.2,2.9s-0.3,1.8-0.6,2.5s-0.6,1.5-0.9,2.2s-0.7,1.3-1.1,1.9c-0.3,0.6-0.8,1-1.2,1.4
			s-0.8,0.7-1.2,1l-0.3-0.9c0.6-0.3,1-0.9,1.4-1.5s0.9-1.5,1.3-2.4c0.3-1,0.7-2,0.9-3.2c0.2-1.2,0.3-2.4,0.3-3.8V280
			c0-1.3-0.1-2.5-0.3-3.8c-0.2-1.2-0.6-2.2-1-3.2s-0.9-1.8-1.3-2.4c-0.4-0.7-1-1.2-1.4-1.5l0.3-0.9c0.3,0.2,0.8,0.6,1.2,1
			c0.4,0.4,0.8,0.9,1.2,1.4c0.3,0.6,0.8,1.2,1.1,1.9s0.7,1.4,0.9,2.2c0.2,0.8,0.4,1.7,0.6,2.5c0.1,0.9,0.2,1.9,0.2,2.9l0,0H276.6z"
			/>
		<path class="st1" d="M62.1,309.2h2.5v1.1h-2.5v4.2h-1.3v-4.2h-7.7v-0.8l7.6-11.6h1.4V309.2z M54.7,309.2h6.1v-9.4l-0.6,1
			L54.7,309.2z"/>
		<path class="st1" d="M73.9,302.2v2c0.2-0.3,0.4-0.7,0.7-0.9c0.2-0.3,0.6-0.6,0.9-0.7c0.3-0.2,0.7-0.3,1.1-0.4s0.8-0.1,1.2-0.1
			c0.9,0,1.7,0.2,2.3,0.6s1.1,1,1.3,1.8c0.2-0.3,0.4-0.7,0.7-1c0.3-0.3,0.6-0.6,1-0.8c0.3-0.2,0.8-0.3,1.2-0.6
			c0.4-0.2,0.9-0.2,1.3-0.2c0.7,0,1.2,0.1,1.7,0.2c0.6,0.2,0.9,0.4,1.2,0.8c0.3,0.3,0.6,0.9,0.8,1.4s0.2,1.2,0.2,2v8h-1.3v-8
			c0-0.7-0.1-1.2-0.2-1.7c-0.1-0.4-0.3-0.8-0.7-1c-0.2-0.2-0.6-0.4-1-0.6c-0.3-0.1-0.8-0.1-1.2-0.1c-0.6,0-1.1,0.1-1.5,0.3
			c-0.4,0.2-0.8,0.4-1.1,0.8s-0.6,0.7-0.7,1s-0.2,0.8-0.3,1.1v8.1h-1.3v-8.1c0-0.7-0.1-1.1-0.2-1.5s-0.3-0.8-0.7-1
			c-0.2-0.2-0.6-0.4-1-0.6c-0.3-0.1-0.8-0.1-1.2-0.1c-0.6,0-1,0.1-1.3,0.2c-0.4,0.1-0.8,0.3-1,0.7c-0.3,0.2-0.6,0.6-0.8,0.9
			c-0.2,0.3-0.3,0.7-0.4,1.1v8.4h-1.3V302h1.8v0.2H73.9z"/>
		<path class="st1" d="M93.1,298.7c0-0.2,0.1-0.4,0.2-0.7c0.1-0.2,0.4-0.2,0.7-0.2c0.3,0,0.6,0.1,0.7,0.2c0.2,0.2,0.2,0.4,0.2,0.7
			s-0.1,0.4-0.2,0.7c-0.2,0.2-0.4,0.2-0.7,0.2c-0.3,0-0.6-0.1-0.7-0.2C93.2,299.1,93.1,298.9,93.1,298.7z M94.7,314.5h-1.3v-12.3
			h1.3V314.5z"/>
		<path class="st1" d="M99.6,302.2v2.1c0.2-0.3,0.4-0.7,0.8-1s0.6-0.6,0.9-0.8c0.3-0.2,0.7-0.3,1.1-0.4s0.8-0.1,1.2-0.1
			c0.7,0,1.1,0.1,1.7,0.2s0.9,0.4,1.2,0.8s0.6,0.9,0.8,1.4s0.2,1.2,0.2,2.1v8h-1.3v-8c0-0.7-0.1-1.2-0.2-1.5s-0.3-0.8-0.6-1
			c-0.2-0.2-0.6-0.4-0.9-0.6c-0.3-0.1-0.8-0.1-1.2-0.1c-0.4,0-0.9,0.1-1.3,0.2s-0.8,0.3-1,0.7s-0.6,0.6-0.8,0.9
			c-0.2,0.3-0.4,0.7-0.6,1.1v8.4h-1.3v-12.3h1.3C99.6,302.3,99.6,302.2,99.6,302.2z"/>
		<path class="st1" d="M110.6,308.2c0-1,0.1-1.8,0.3-2.5c0.2-0.8,0.6-1.4,1-2s0.9-1,1.4-1.2c0.6-0.3,1.2-0.4,2-0.4
			c0.9,0,1.7,0.2,2.2,0.6c0.7,0.3,1.1,0.8,1.5,1.4v-6.9h1.3v17.4h-1.2l-0.1-1.7c-0.4,0.6-0.9,1-1.5,1.3c-0.7,0.3-1.4,0.4-2.3,0.4
			c-0.8,0-1.3-0.1-2-0.4c-0.6-0.3-1.1-0.8-1.4-1.3c-0.4-0.6-0.8-1.2-1-2s-0.3-1.7-0.3-2.5L110.6,308.2L110.6,308.2L110.6,308.2z
			 M112,308.4c0,0.7,0.1,1.4,0.2,2c0.1,0.7,0.3,1.1,0.7,1.7c0.3,0.4,0.7,0.8,1.1,1.1c0.4,0.2,1,0.3,1.7,0.3c0.4,0,0.9,0,1.2-0.1
			c0.3-0.1,0.7-0.2,1-0.4c0.3-0.2,0.6-0.4,0.8-0.7c0.2-0.2,0.4-0.6,0.6-0.9v-5.7c-0.1-0.3-0.3-0.6-0.6-0.9c-0.2-0.3-0.4-0.6-0.8-0.8
			s-0.7-0.4-1-0.6c-0.3-0.1-0.8-0.2-1.3-0.2c-0.7,0-1.2,0.1-1.7,0.4c-0.4,0.2-0.8,0.7-1.1,1.1s-0.6,1-0.7,1.7s-0.2,1.3-0.2,2l0,0
			H112z"/>
		<path class="st1" d="M131.4,311.4c0-0.2,0-0.6-0.1-0.8s-0.2-0.4-0.4-0.7c-0.2-0.2-0.6-0.4-1-0.7c-0.4-0.2-1-0.3-1.7-0.6
			c-0.7-0.1-1.3-0.3-1.8-0.6c-0.6-0.2-1-0.4-1.3-0.7c-0.3-0.2-0.7-0.6-0.9-1c-0.2-0.4-0.3-0.8-0.3-1.3c0-0.4,0.1-0.9,0.3-1.3
			c0.2-0.4,0.4-0.8,0.9-1.1c0.3-0.3,0.8-0.6,1.3-0.8c0.6-0.2,1.1-0.2,1.8-0.2c0.7,0,1.3,0.1,1.9,0.3s1,0.4,1.4,0.8
			c0.4,0.3,0.7,0.7,0.9,1.2c0.2,0.4,0.3,0.9,0.3,1.4h-1.3c0-0.3-0.1-0.7-0.2-0.9c-0.1-0.3-0.3-0.6-0.7-0.8c-0.2-0.2-0.6-0.4-1-0.6
			s-0.9-0.2-1.3-0.2c-0.6,0-1,0.1-1.3,0.2s-0.7,0.3-0.9,0.6s-0.4,0.4-0.6,0.7c-0.1,0.2-0.1,0.6-0.1,0.8s0,0.6,0.1,0.8
			c0.1,0.2,0.2,0.4,0.4,0.7c0.2,0.2,0.6,0.3,1,0.6c0.4,0.1,1,0.3,1.7,0.4c0.8,0.2,1.3,0.3,1.9,0.6s1,0.4,1.3,0.8
			c0.3,0.3,0.7,0.7,0.8,1c0.2,0.3,0.2,0.8,0.2,1.3s-0.1,1-0.3,1.4s-0.6,0.8-0.9,1.1c-0.4,0.3-0.9,0.6-1.4,0.7s-1.2,0.2-1.9,0.2
			c-0.8,0-1.4-0.1-2.1-0.3c-0.6-0.2-1.1-0.4-1.5-0.8c-0.4-0.3-0.7-0.8-0.9-1.2c-0.2-0.4-0.3-0.9-0.3-1.3h1.3c0,0.4,0.1,0.9,0.3,1.2
			c0.2,0.3,0.4,0.6,0.8,0.8c0.3,0.2,0.7,0.3,1.1,0.4s0.8,0.1,1.2,0.1c0.6,0,1-0.1,1.3-0.2s0.8-0.3,1-0.4c0.2-0.2,0.4-0.4,0.6-0.7
			C131.4,311.9,131.4,311.6,131.4,311.4z"/>
		<path class="st1" d="M140.5,314.7c-0.8,0-1.5-0.1-2.2-0.4s-1.2-0.7-1.8-1.2c-0.4-0.6-0.9-1.2-1.1-1.9c-0.2-0.7-0.4-1.5-0.4-2.4
			v-0.4c0-1,0.1-1.8,0.4-2.5c0.3-0.8,0.7-1.4,1.1-2s1-1,1.7-1.2c0.7-0.3,1.3-0.4,2-0.4c0.8,0,1.4,0.1,2.1,0.4
			c0.7,0.3,1.1,0.7,1.5,1.2s0.8,1.1,0.9,1.8s0.3,1.4,0.3,2.2v0.8h-8.7v0.2c0,0.7,0.1,1.3,0.3,1.9s0.4,1.1,0.9,1.5
			c0.3,0.4,0.8,0.8,1.3,1s1.1,0.3,1.7,0.3c0.8,0,1.3-0.1,1.9-0.4c0.6-0.2,1.1-0.7,1.5-1.2l0.9,0.7c-0.2,0.3-0.4,0.6-0.7,0.9
			c-0.2,0.2-0.6,0.4-0.9,0.7c-0.3,0.2-0.8,0.3-1.2,0.4C141.6,314.6,141.1,314.7,140.5,314.7z M140.3,303.1c-0.6,0-1,0.1-1.4,0.3
			c-0.4,0.2-0.8,0.4-1.2,0.9c-0.3,0.3-0.7,0.8-0.8,1.3c-0.2,0.6-0.3,1.1-0.4,1.7h7.4v-0.1c0-0.6-0.1-1-0.2-1.4
			c-0.1-0.4-0.3-0.9-0.7-1.3c-0.3-0.3-0.7-0.7-1.1-0.9C141.4,303.2,140.9,303.1,140.3,303.1z"/>
		<path class="st1" d="M149.9,299v3.1h2.5v1.1h-2.5v8.2c0,0.4,0,0.8,0.1,1s0.2,0.4,0.3,0.7c0.1,0.1,0.3,0.2,0.6,0.3
			c0.2,0,0.4,0.1,0.6,0.1c0.2,0,0.4,0,0.6,0c0.2,0,0.3,0,0.6-0.1l0.1,1.1c-0.2,0.1-0.3,0.1-0.7,0.1c-0.2,0-0.6,0-0.8,0
			c-0.3,0-0.8,0-1.1-0.1s-0.7-0.3-0.9-0.6s-0.4-0.6-0.6-1c-0.1-0.4-0.2-0.9-0.2-1.5v-8.2h-2.2v-1.1h2.2V299H149.9z"/>
		<path class="st1" d="M168.6,314.5c-0.1-0.2-0.1-0.4-0.2-0.8c0-0.3-0.1-0.7-0.1-0.9c-0.2,0.2-0.4,0.6-0.8,0.8
			c-0.3,0.2-0.6,0.4-1,0.7c-0.3,0.2-0.8,0.3-1.1,0.4s-0.9,0.1-1.3,0.1c-0.6,0-1.1-0.1-1.7-0.2c-0.4-0.2-0.9-0.4-1.2-0.8
			c-0.3-0.3-0.7-0.7-0.8-1.1s-0.3-0.9-0.3-1.4s0.1-1.1,0.3-1.7c0.2-0.4,0.7-0.9,1.1-1.2c0.4-0.3,1.1-0.6,1.8-0.8s1.4-0.2,2.3-0.2
			h2.5V306c0-0.9-0.2-1.5-0.8-2.1s-1.3-0.8-2.3-0.8c-0.4,0-0.9,0.1-1.3,0.2c-0.4,0.1-0.8,0.3-1,0.6c-0.3,0.2-0.6,0.4-0.7,0.8
			s-0.2,0.7-0.2,1h-1.3c0-0.4,0.1-0.9,0.3-1.3s0.6-0.8,1-1.1c0.4-0.3,0.9-0.6,1.4-0.8s1.2-0.3,1.9-0.3s1.2,0.1,1.8,0.2
			c0.6,0.2,1,0.4,1.4,0.8c0.4,0.3,0.7,0.8,0.9,1.2s0.3,1.1,0.3,1.8v6c0,0.2,0,0.4,0,0.7s0,0.4,0.1,0.7c0,0.2,0.1,0.4,0.1,0.6
			s0.1,0.3,0.1,0.6v0.1h-1.3v-0.4H168.6z M164.4,313.5c0.4,0,1-0.1,1.3-0.2c0.4-0.1,0.8-0.3,1.1-0.6c0.3-0.2,0.7-0.4,0.9-0.8
			s0.4-0.6,0.6-1v-2.7H166c-0.7,0-1.3,0.1-1.9,0.2c-0.6,0.1-1,0.3-1.4,0.6c-0.3,0.2-0.7,0.6-0.9,0.9s-0.3,0.7-0.3,1.1
			c0,0.3,0.1,0.7,0.2,0.9c0.1,0.3,0.3,0.6,0.6,0.8c0.2,0.2,0.6,0.3,0.9,0.6C163.5,313.4,164,313.5,164.4,313.5z M167.1,297.2h1.7
			l-2.7,3.2h-1.2L167.1,297.2z"/>
		<path class="st1" d="M172.8,308.2c0-1,0.1-1.8,0.3-2.5c0.2-0.8,0.6-1.4,0.9-2c0.3-0.6,0.9-1,1.4-1.2c0.6-0.3,1.2-0.4,2-0.4
			c0.9,0,1.7,0.2,2.2,0.6c0.7,0.3,1.1,0.9,1.5,1.4l0.1-1.8h1.2v12.1c0,0.8-0.1,1.5-0.3,2.1c-0.2,0.7-0.6,1.2-1,1.7
			c-0.4,0.4-1,0.8-1.5,1s-1.3,0.3-2,0.3c-0.3,0-0.8,0-1.2-0.1s-0.8-0.2-1.2-0.4c-0.3-0.2-0.8-0.4-1.1-0.7c-0.3-0.2-0.7-0.6-0.9-0.9
			l0.8-0.8c0.6,0.7,1,1.1,1.5,1.3c0.6,0.3,1.2,0.4,1.9,0.4c0.6,0,1.1-0.1,1.5-0.2c0.4-0.2,0.9-0.4,1.1-0.8c0.3-0.3,0.6-0.8,0.7-1.2
			c0.1-0.4,0.2-1,0.2-1.7V313c-0.4,0.6-0.9,1-1.5,1.3c-0.7,0.3-1.3,0.4-2.2,0.4c-0.8,0-1.4-0.1-2-0.4s-1.1-0.8-1.4-1.3
			c-0.4-0.6-0.8-1.2-0.9-2c-0.2-0.8-0.3-1.7-0.3-2.5v-0.2L172.8,308.2L172.8,308.2z M174.2,308.4c0,0.7,0.1,1.4,0.2,2
			c0.1,0.7,0.3,1.1,0.7,1.7c0.3,0.4,0.7,0.8,1.1,1.1c0.4,0.2,1,0.3,1.7,0.3c0.4,0,0.9-0.1,1.2-0.2s0.7-0.2,1-0.4
			c0.3-0.2,0.6-0.4,0.8-0.7c0.2-0.2,0.4-0.6,0.6-0.9v-5.7c-0.1-0.3-0.3-0.7-0.4-0.9c-0.2-0.3-0.4-0.6-0.8-0.8
			c-0.3-0.2-0.7-0.4-1-0.6c-0.3-0.1-0.8-0.2-1.3-0.2c-0.7,0-1.2,0.1-1.7,0.4c-0.4,0.2-0.8,0.7-1.1,1.1s-0.6,1-0.7,1.7
			s-0.2,1.3-0.2,2v0.1H174.2z"/>
		<path class="st1" d="M186.1,298.7c0-0.2,0.1-0.4,0.2-0.7s0.4-0.2,0.7-0.2s0.6,0.1,0.7,0.2c0.2,0.2,0.2,0.4,0.2,0.7
			s-0.1,0.4-0.2,0.7c-0.2,0.2-0.4,0.2-0.7,0.2s-0.6-0.1-0.7-0.2C186.2,299.1,186.1,298.9,186.1,298.7z M187.8,314.5h-1.3v-12.3h1.3
			V314.5z"/>
		<path class="st1" d="M192.9,314.5h-1.3v-17.4h1.3V314.5z"/>
		<path class="st1" d="M54.7,333.8l0.8-8.1h8.3v1.2h-7.1l-0.6,5.5c0.1-0.1,0.3-0.2,0.6-0.3c0.2-0.1,0.4-0.2,0.7-0.3
			c0.2-0.1,0.6-0.1,0.9-0.2c0.3-0.1,0.7-0.1,1-0.1c0.8,0,1.4,0.1,2,0.3c0.6,0.2,1.1,0.6,1.5,1.1c0.4,0.4,0.8,1,1,1.7
			c0.2,0.7,0.3,1.4,0.3,2.2c0,0.8-0.1,1.5-0.3,2.2s-0.4,1.2-0.9,1.8c-0.4,0.4-0.9,0.9-1.5,1.1c-0.7,0.2-1.3,0.4-2.2,0.4
			c-0.7,0-1.3-0.1-1.9-0.3c-0.6-0.2-1.1-0.4-1.5-0.9c-0.4-0.3-0.8-0.9-1.1-1.4c-0.3-0.6-0.4-1.2-0.6-2h1.3c0.1,1.1,0.6,2,1.1,2.5
			c0.7,0.6,1.4,0.9,2.5,0.9c1.2,0,2.1-0.3,2.7-1.1c0.6-0.8,0.9-1.8,0.9-3.2c0-0.6-0.1-1.1-0.2-1.7c-0.1-0.6-0.4-0.9-0.8-1.3
			c-0.3-0.4-0.7-0.7-1.2-0.9c-0.4-0.2-1-0.3-1.7-0.3c-0.4,0-0.8,0-1.1,0.1s-0.6,0.1-0.8,0.2s-0.4,0.2-0.7,0.3
			c-0.2,0.1-0.4,0.3-0.7,0.4L54.7,333.8z"/>
		<path class="st1" d="M73.5,342.3v-11.2h-2V330h2v-1.5c0-0.7,0.1-1.2,0.2-1.7c0.1-0.4,0.4-0.9,0.8-1.2c0.3-0.3,0.7-0.6,1.1-0.8
			c0.4-0.2,1-0.2,1.5-0.2c0.2,0,0.4,0,0.8,0c0.2,0,0.4,0.1,0.8,0.1l-0.1,1.1c-0.2,0-0.3-0.1-0.6-0.1c-0.2,0-0.4,0-0.7,0
			c-0.8,0-1.3,0.2-1.8,0.7c-0.4,0.4-0.7,1.1-0.7,2v1.5h2.9v1.1H75v11.2h-1.4L73.5,342.3L73.5,342.3z"/>
		<path class="st1" d="M84.8,342.5c-0.8,0-1.5-0.1-2.2-0.4s-1.2-0.7-1.8-1.2c-0.4-0.6-0.9-1.2-1.1-1.9c-0.2-0.7-0.4-1.5-0.4-2.4
			v-0.4c0-1,0.1-1.8,0.4-2.5c0.3-0.8,0.7-1.4,1.1-2s1-1,1.7-1.2c0.7-0.3,1.3-0.4,2-0.4c0.8,0,1.4,0.1,2.1,0.4s1.1,0.7,1.5,1.2
			c0.4,0.6,0.8,1.1,0.9,1.8c0.1,0.7,0.3,1.4,0.3,2.2v0.8h-8.7v0.2c0,0.7,0.1,1.3,0.3,1.9s0.4,1.1,0.9,1.5c0.4,0.4,0.8,0.8,1.3,1
			c0.6,0.2,1.1,0.3,1.7,0.3c0.8,0,1.3-0.1,1.9-0.4c0.6-0.2,1.1-0.7,1.5-1.2l0.9,0.7c-0.2,0.3-0.4,0.6-0.7,0.9
			c-0.2,0.2-0.6,0.4-0.9,0.7c-0.3,0.2-0.8,0.3-1.2,0.4C85.8,342.4,85.4,342.5,84.8,342.5z M84.5,330.9c-0.6,0-1,0.1-1.4,0.3
			c-0.4,0.2-0.8,0.4-1.2,0.9c-0.3,0.3-0.7,0.8-0.8,1.3c-0.2,0.6-0.3,1.1-0.4,1.7H88V335c0-0.6-0.1-1-0.2-1.4s-0.3-0.9-0.7-1.3
			c-0.3-0.3-0.7-0.7-1.1-0.9C85.6,331.1,85,330.9,84.5,330.9z"/>
		<path class="st1" d="M97.6,331.2c-0.3,0-0.6-0.1-0.9-0.1c-0.4,0-0.9,0.1-1.2,0.2s-0.7,0.3-1,0.6c-0.3,0.2-0.6,0.6-0.7,0.9
			c-0.2,0.3-0.3,0.7-0.4,1.1v8.4h-1.3V330h1.3v2c0.3-0.7,0.8-1.2,1.3-1.5c0.6-0.4,1.3-0.6,2.1-0.6c0.2,0,0.3,0,0.6,0
			c0.2,0,0.3,0.1,0.3,0.1L97.6,331.2z"/>
		<path class="st1" d="M105.5,331.2c-0.3,0-0.6-0.1-0.9-0.1c-0.4,0-0.9,0.1-1.2,0.2s-0.7,0.3-1,0.6c-0.3,0.2-0.6,0.6-0.7,0.9
			c-0.2,0.3-0.3,0.7-0.4,1.1v8.4H100V330h1.3v2c0.3-0.7,0.8-1.2,1.3-1.5c0.6-0.4,1.3-0.6,2.1-0.6c0.2,0,0.3,0,0.6,0
			c0.2,0,0.3,0.1,0.3,0.1L105.5,331.2z"/>
		<path class="st1" d="M114.9,342.3c-0.1-0.2-0.1-0.4-0.2-0.8c0-0.3-0.1-0.7-0.1-0.9c-0.2,0.2-0.4,0.6-0.8,0.8
			c-0.3,0.2-0.6,0.4-1,0.7c-0.3,0.2-0.8,0.3-1.1,0.4s-0.9,0.1-1.3,0.1c-0.6,0-1.1-0.1-1.7-0.2c-0.4-0.2-0.9-0.4-1.2-0.8
			c-0.3-0.3-0.7-0.7-0.8-1.1c-0.1-0.4-0.3-0.9-0.3-1.4s0.1-1.1,0.3-1.7c0.2-0.4,0.7-0.9,1.1-1.2c0.4-0.3,1.1-0.6,1.8-0.8
			c0.7-0.2,1.4-0.2,2.3-0.2h2.5v-1.4c0-0.9-0.2-1.5-0.8-2.1s-1.3-0.8-2.3-0.8c-0.4,0-0.9,0.1-1.3,0.2s-0.8,0.3-1,0.6
			c-0.3,0.2-0.6,0.4-0.7,0.8c-0.1,0.3-0.2,0.7-0.2,1h-1.3c0-0.4,0.1-0.9,0.3-1.3c0.2-0.4,0.6-0.8,1-1.1c0.4-0.3,0.9-0.6,1.4-0.8
			c0.6-0.2,1.2-0.3,1.9-0.3c0.7,0,1.2,0.1,1.8,0.2c0.6,0.2,1,0.4,1.4,0.8c0.4,0.3,0.7,0.8,0.9,1.2c0.2,0.4,0.3,1.1,0.3,1.8v6
			c0,0.2,0,0.4,0,0.7c0,0.2,0,0.4,0.1,0.7c0,0.2,0.1,0.4,0.1,0.6s0.1,0.3,0.1,0.6v0.1h-1.3L114.9,342.3L114.9,342.3z M110.7,341.3
			c0.4,0,1-0.1,1.3-0.2c0.4-0.1,0.8-0.3,1.1-0.6c0.3-0.2,0.7-0.4,0.9-0.8c0.2-0.3,0.4-0.6,0.6-1V336h-2.3c-0.7,0-1.3,0.1-1.9,0.2
			s-1,0.3-1.4,0.6c-0.3,0.2-0.7,0.6-0.9,0.9c-0.2,0.3-0.3,0.7-0.3,1.1c0,0.3,0.1,0.7,0.2,0.9c0.1,0.3,0.3,0.6,0.6,0.8
			c0.2,0.2,0.6,0.3,0.9,0.6C109.8,341.2,110.2,341.3,110.7,341.3z"/>
		<path class="st1" d="M120.9,330.1v2c0.2-0.3,0.4-0.7,0.7-0.9c0.2-0.3,0.6-0.6,0.9-0.7c0.3-0.2,0.7-0.3,1.1-0.4s0.8-0.1,1.2-0.1
			c0.9,0,1.7,0.2,2.3,0.6c0.7,0.3,1.1,1,1.3,1.8c0.2-0.3,0.4-0.7,0.7-1s0.6-0.6,1-0.8c0.3-0.2,0.8-0.3,1.2-0.6
			c0.4-0.2,0.9-0.2,1.3-0.2c0.7,0,1.2,0.1,1.7,0.2c0.6,0.2,0.9,0.4,1.2,0.8c0.3,0.3,0.6,0.9,0.8,1.4s0.2,1.2,0.2,2v8h-1.3v-8
			c0-0.7-0.1-1.2-0.2-1.7c-0.1-0.4-0.3-0.8-0.7-1c-0.2-0.2-0.6-0.4-1-0.6c-0.3-0.1-0.8-0.1-1.2-0.1c-0.6,0-1.1,0.1-1.5,0.3
			c-0.4,0.2-0.8,0.4-1.1,0.8c-0.3,0.3-0.6,0.7-0.7,1c-0.1,0.3-0.2,0.8-0.3,1.1v8.1h-1.3v-8c0-0.7-0.1-1.1-0.2-1.5s-0.3-0.8-0.7-1
			c-0.2-0.2-0.6-0.4-1-0.6c-0.3-0.1-0.8-0.1-1.2-0.1c-0.6,0-1,0.1-1.3,0.2c-0.4,0.1-0.8,0.3-1,0.7c-0.3,0.2-0.6,0.6-0.8,0.9
			c-0.2,0.3-0.3,0.7-0.4,1.1v8.4h-1.3v-12.3h1.8v0.2H120.9z"/>
		<path class="st1" d="M145,342.5c-0.8,0-1.5-0.1-2.2-0.4s-1.2-0.7-1.8-1.2c-0.4-0.6-0.9-1.2-1.1-1.9c-0.2-0.7-0.4-1.5-0.4-2.4v-0.4
			c0-1,0.1-1.8,0.4-2.5c0.3-0.8,0.7-1.4,1.1-2c0.4-0.6,1-1,1.7-1.2c0.7-0.3,1.3-0.4,2-0.4c0.8,0,1.4,0.1,2.1,0.4
			c0.7,0.3,1.1,0.7,1.5,1.2s0.8,1.1,0.9,1.8s0.3,1.4,0.3,2.2v0.8h-8.7v0.2c0,0.7,0.1,1.3,0.3,1.9s0.4,1.1,0.9,1.5
			c0.4,0.4,0.8,0.8,1.3,1c0.6,0.2,1.1,0.3,1.7,0.3c0.8,0,1.3-0.1,1.9-0.4c0.6-0.2,1.1-0.7,1.5-1.2l0.9,0.7c-0.2,0.3-0.4,0.6-0.7,0.9
			c-0.2,0.2-0.6,0.4-0.9,0.7c-0.3,0.2-0.8,0.3-1.2,0.4C146,342.4,145.5,342.5,145,342.5z M144.7,330.9c-0.6,0-1,0.1-1.4,0.3
			c-0.4,0.2-0.8,0.4-1.2,0.9c-0.3,0.3-0.7,0.8-0.8,1.3c-0.2,0.6-0.3,1.1-0.4,1.7h7.4V335c0-0.6-0.1-1-0.2-1.4
			c-0.1-0.4-0.3-0.9-0.7-1.3c-0.3-0.3-0.7-0.7-1.1-0.9C145.7,331.1,145.3,330.9,144.7,330.9z"/>
		<path class="st1" d="M153.5,330.1v2.1c0.2-0.3,0.4-0.7,0.8-1c0.3-0.3,0.6-0.6,0.9-0.8c0.3-0.2,0.7-0.3,1.1-0.4
			c0.4-0.1,0.8-0.1,1.2-0.1c0.7,0,1.1,0.1,1.7,0.2s0.9,0.4,1.2,0.8s0.6,0.9,0.8,1.4s0.2,1.2,0.2,2.1v8H160v-8c0-0.7-0.1-1.2-0.2-1.5
			c-0.1-0.3-0.3-0.8-0.6-1c-0.2-0.2-0.6-0.4-0.9-0.6s-0.8-0.1-1.2-0.1s-0.9,0.1-1.3,0.2s-0.8,0.3-1,0.7c-0.2,0.3-0.6,0.6-0.8,0.9
			s-0.4,0.7-0.6,1.1v8.4h-1.3v-12.3h1.3v-0.1H153.5z"/>
		<path class="st1" d="M167.1,326.8v3.1h2.5v1.1h-2.5v8.2c0,0.4,0,0.8,0.1,1s0.2,0.4,0.3,0.7c0.1,0.1,0.3,0.2,0.6,0.3
			c0.2,0,0.4,0.1,0.6,0.1c0.2,0,0.4,0,0.6,0c0.2,0,0.3,0,0.6-0.1l0.1,1.1c-0.2,0.1-0.3,0.1-0.7,0.1c-0.2,0-0.6,0-0.8,0
			c-0.3,0-0.8,0-1.1-0.1s-0.7-0.3-0.9-0.6c-0.2-0.2-0.4-0.6-0.6-1c-0.1-0.4-0.2-0.9-0.2-1.5V331h-2.2v-1.1h2.2v-3.1H167.1z"/>
		<path class="st1" d="M180.1,342.3c-0.1-0.2-0.1-0.4-0.2-0.8c0-0.3-0.1-0.7-0.1-0.9c-0.2,0.2-0.4,0.6-0.8,0.8s-0.6,0.4-1,0.7
			c-0.3,0.2-0.8,0.3-1.1,0.4s-0.9,0.1-1.3,0.1c-0.6,0-1.1-0.1-1.7-0.2c-0.4-0.2-0.9-0.4-1.2-0.8c-0.3-0.3-0.7-0.7-0.8-1.1
			s-0.3-0.9-0.3-1.4s0.1-1.1,0.3-1.7c0.2-0.4,0.7-0.9,1.1-1.2c0.4-0.3,1.1-0.6,1.8-0.8c0.7-0.2,1.4-0.2,2.3-0.2h2.5v-1.4
			c0-0.9-0.2-1.5-0.8-2.1s-1.3-0.8-2.3-0.8c-0.4,0-0.9,0.1-1.3,0.2c-0.4,0.1-0.8,0.3-1,0.6c-0.3,0.2-0.6,0.4-0.7,0.8
			c-0.1,0.3-0.2,0.7-0.2,1H172c0-0.4,0.1-0.9,0.3-1.3s0.6-0.8,1-1.1c0.4-0.3,0.9-0.6,1.4-0.8c0.6-0.2,1.2-0.3,1.9-0.3
			s1.2,0.1,1.8,0.2c0.6,0.2,1,0.4,1.4,0.8c0.4,0.3,0.7,0.8,0.9,1.2c0.2,0.4,0.3,1.1,0.3,1.8v6c0,0.2,0,0.4,0,0.7
			c0,0.2,0,0.4,0.1,0.7c0,0.2,0.1,0.4,0.1,0.6s0.1,0.3,0.1,0.6v0.1H180v-0.4H180.1z M175.9,341.3c0.4,0,1-0.1,1.3-0.2
			c0.4-0.1,0.8-0.3,1.1-0.6c0.3-0.2,0.7-0.4,0.9-0.8c0.2-0.3,0.4-0.6,0.6-1V336h-2.3c-0.7,0-1.3,0.1-1.9,0.2s-1,0.3-1.4,0.6
			c-0.3,0.2-0.7,0.6-0.9,0.9s-0.3,0.7-0.3,1.1c0,0.3,0.1,0.7,0.2,0.9c0.1,0.3,0.3,0.6,0.6,0.8c0.2,0.2,0.6,0.3,0.9,0.6
			C175,341.2,175.5,341.3,175.9,341.3z"/>
		<path class="st1" d="M192.2,339.2c0-0.2,0-0.6-0.1-0.8c-0.1-0.2-0.2-0.4-0.4-0.7c-0.2-0.2-0.6-0.4-1-0.7c-0.4-0.2-1-0.3-1.7-0.6
			c-0.7-0.1-1.3-0.3-1.8-0.6c-0.6-0.2-1-0.4-1.3-0.7c-0.3-0.2-0.7-0.6-0.9-1s-0.3-0.8-0.3-1.3c0-0.4,0.1-0.9,0.3-1.3
			s0.4-0.8,0.9-1.1c0.3-0.3,0.8-0.6,1.3-0.8c0.6-0.2,1.1-0.2,1.8-0.2s1.3,0.1,1.9,0.3c0.6,0.2,1,0.4,1.4,0.8
			c0.4,0.3,0.7,0.7,0.9,1.2c0.2,0.4,0.3,0.9,0.3,1.4h-1.3c0-0.3-0.1-0.7-0.2-0.9c-0.1-0.3-0.3-0.6-0.7-0.8c-0.2-0.2-0.6-0.4-1-0.6
			c-0.4-0.1-0.9-0.2-1.3-0.2c-0.6,0-1,0.1-1.3,0.2s-0.7,0.3-0.9,0.6c-0.2,0.2-0.4,0.4-0.6,0.7c-0.1,0.2-0.1,0.6-0.1,0.8
			c0,0.2,0,0.6,0.1,0.8c0.1,0.2,0.2,0.4,0.4,0.7c0.2,0.2,0.6,0.3,1,0.6c0.4,0.1,1,0.3,1.7,0.4c0.8,0.2,1.3,0.3,1.9,0.6
			c0.6,0.2,1,0.4,1.3,0.8c0.3,0.3,0.7,0.7,0.8,1c0.2,0.3,0.2,0.8,0.2,1.3s-0.1,1-0.3,1.4s-0.6,0.8-0.9,1.1c-0.4,0.3-0.9,0.6-1.4,0.7
			c-0.6,0.1-1.2,0.2-1.9,0.2c-0.8,0-1.4-0.1-2.1-0.3c-0.6-0.2-1.1-0.4-1.5-0.8s-0.7-0.8-0.9-1.2c-0.2-0.4-0.3-0.9-0.3-1.3h1.3
			c0,0.4,0.1,0.9,0.3,1.2c0.2,0.3,0.4,0.6,0.8,0.8c0.3,0.2,0.7,0.3,1.1,0.4c0.4,0.1,0.8,0.1,1.2,0.1c0.6,0,1-0.1,1.3-0.2
			s0.8-0.3,1-0.4c0.2-0.2,0.4-0.4,0.6-0.7C191.8,340,192.2,339.5,192.2,339.2z"/>
	</g>
</g>
<g>
	<g>
		<g>
			<g>
				<g>
					<rect x="429.3" y="223.1" class="st3" width="1" height="518.5"/>
				</g>
				<g>
					<path class="st3" d="M426.1,741.4c0,2.4,2.2,4.3,4.7,3.7c1.4-0.3,2.5-1.4,2.8-2.8c0.6-2.5-1.3-4.7-3.7-4.7
						C427.7,737.7,426.1,739.3,426.1,741.4z"/>
				</g>
			</g>
		</g>
	</g>
	<g>
		<rect x="292" y="222.1" class="st3" width="137.8" height="1"/>
	</g>
</g>
<g>
	<g>
		<g>
			<g>
				<g>
					<rect x="514.9" y="403.9" class="st3" width="1" height="293.1"/>
				</g>
				<g>
					<path class="st3" d="M511.7,696.8c0,2.4,2.2,4.3,4.7,3.7c1.4-0.3,2.5-1.4,2.8-2.8c0.6-2.5-1.3-4.7-3.7-4.7
						C513.3,693.1,511.7,694.7,511.7,696.8z"/>
				</g>
			</g>
		</g>
	</g>
	<g>
		<rect x="290" y="402.9" class="st3" width="225.3" height="1"/>
	</g>
</g>
</svg>
