<?xml version="1.0" encoding="utf-8"?>
<!-- Generator: Adobe Illustrator 23.0.1, SVG Export Plug-In . SVG Version: 6.00 Build 0)  -->
<svg version="1.1" id="Layer_1" xmlns="http://www.w3.org/2000/svg" xmlns:xlink="http://www.w3.org/1999/xlink" x="0px" y="0px"
	 viewBox="0 0 6.8 7" style="enable-background:new 0 0 6.8 7;" xml:space="preserve">
<style type="text/css">
	.st0{fill:#FF0000;}
	.st1{fill-rule:evenodd;clip-rule:evenodd;fill:#FF0000;}
	.st2{fill:none;}
</style>
<g>
	<path class="st0" d="M3.1,2l1.5,1.5l0,0c0,0,0,0.1,0,0.2l0,0L3.1,5c0,0,0,0-0.1,0C3,5.1,2.9,5,2.9,5V2h0c0,0,0-0.1,0-0.1
		C3,1.9,3,1.9,3.1,2C3.1,2,3.1,2,3.1,2z"/>
	<path class="st1" d="M6,3.5c0-0.7-0.3-1.4-0.8-1.8C4.8,1.2,4.1,0.9,3.4,0.9c-0.7,0-1.4,0.3-1.8,0.8C1.1,2.1,0.8,2.8,0.8,3.5
		c0,0.7,0.3,1.4,0.8,1.8c0.5,0.5,1.1,0.8,1.8,0.8c0.7,0,1.4-0.3,1.8-0.8C5.7,4.9,6,4.2,6,3.5z M5.7,3.5c0-0.6-0.2-1.2-0.7-1.6
		C4.6,1.5,4,1.2,3.4,1.2c-0.6,0-1.2,0.2-1.6,0.7c-0.4,0.4-0.7,1-0.7,1.6c0,0.6,0.2,1.2,0.7,1.6c0.4,0.4,1,0.7,1.6,0.7
		C4,5.8,4.6,5.5,5,5.1C5.4,4.7,5.7,4.1,5.7,3.5z"/>
</g>
<rect y="-0.3" class="st2" width="6.8" height="6.8"/>
</svg>
