<?xml version="1.0" encoding="utf-8"?>
<!-- Generator: Adobe Illustrator 23.0.1, SVG Export Plug-In . SVG Version: 6.00 Build 0)  -->
<svg version="1.1" id="Layer_1" xmlns="http://www.w3.org/2000/svg" xmlns:xlink="http://www.w3.org/1999/xlink" x="0px" y="0px"
	 viewBox="0 0 1920 901" style="enable-background:new 0 0 1920 901;" xml:space="preserve">
<style type="text/css">
	.st0{fill:#FFFFFF;}
	.st1{fill:#FFD700;}
	.st2{fill:#F9123C;}
</style>
<rect y="-5" width="1920" height="906"/>
<g>
	<g>
		<path class="st0" d="M1056.3,144.4c-1.1,0-2.1-0.2-3.2-0.6c-1.1-0.4-2-0.9-2.8-1.7c-0.8-0.7-1.5-1.7-2-2.9s-0.7-2.6-0.7-4.3v-47
			c0-1.7,0.2-3.1,0.7-4.3c0.5-1.2,1.2-2.1,2-2.9c0.8-0.7,1.8-1.3,2.8-1.7c1-0.4,2.1-0.6,3.2-0.6h1.7c1,0,2.1,0.2,3.2,0.6
			c1,0.4,2,0.9,2.8,1.7c0.8,0.7,1.5,1.7,2,2.9c0.5,1.2,0.7,2.6,0.7,4.3v47.2c0,1.7-0.2,3.1-0.7,4.3s-1.2,2.1-2,2.9
			c-0.8,0.7-1.8,1.3-2.8,1.7c-1.1,0.4-2.1,0.6-3.2,0.6h-1.7V144.4z M1057,84.7c-1.4,0-2.1,1.5-2.1,4.4V134c0,1.6,0.2,2.7,0.6,3.4
			c0.4,0.6,0.9,1,1.6,1h0.4c0.7,0,1.2-0.3,1.6-1c0.4-0.6,0.6-1.8,0.6-3.4V89c0-2.9-0.7-4.4-2.1-4.4L1057,84.7L1057,84.7z"/>
		<path class="st0" d="M1082.1,144.4c-1,0-2.1-0.2-3.1-0.5s-2-0.9-2.8-1.7s-1.5-1.7-2-2.9s-0.8-2.6-0.8-4.3V79h7.2v55
			c0,1.6,0.2,2.7,0.6,3.4c0.4,0.6,0.9,1,1.6,1h0.5c0.6,0,1.1-0.3,1.5-1c0.4-0.6,0.6-1.8,0.6-3.4V79.1h7.2v56c0,1.7-0.2,3.1-0.7,4.3
			s-1.2,2.1-2,2.9c-0.8,0.7-1.8,1.3-2.8,1.7s-2.1,0.6-3.2,0.6h-1.8V144.4z"/>
		<path class="st0" d="M1112.6,79.1h6.3l-5.8,64.8h-9.3l-6-64.8h7l3.8,44.9h0.3L1112.6,79.1z"/>
		<path class="st0" d="M1131.5,79.1v64.8h-7.2V79.1H1131.5z"/>
		<path class="st0" d="M1157.3,105.2c0,2-0.3,3.4-0.9,4.4s-1.4,1.6-2.3,1.9c0.9,0.2,1.7,0.8,2.3,1.8c0.6,1,0.9,2.4,0.9,4.4v14.6
			c0,2.1,0,3.9,0.1,5.3c0.1,1.4,0.2,2.6,0.3,3.5c0.1,0.9,0.2,1.6,0.4,2c0.1,0.4,0.2,0.7,0.3,0.8h-7.2c-0.4-0.7-0.7-2-0.9-3.8
			c-0.2-1.8-0.2-4.4-0.2-7.7v-13.9c0-2.8-0.6-4.2-1.9-4.2h-2.8V144h-7.2V79.1h10.4c2.4,0,4.4,0.8,6.1,2.4s2.5,3.9,2.5,6.9
			L1157.3,105.2L1157.3,105.2z M1148.2,108.9c1.2,0,1.9-1.4,1.9-4.1V89.5c0-2.8-0.7-4.3-2.1-4.3h-2.5v23.6h2.7V108.9z"/>
	</g>
	<g>
		<path class="st0" d="M1342.3,144.4c-1.1,0-2.1-0.2-3.2-0.6c-1.1-0.4-2-0.9-2.8-1.7c-0.8-0.7-1.5-1.7-2-2.9s-0.7-2.6-0.7-4.3v-47
			c0-1.7,0.2-3.1,0.7-4.3c0.5-1.2,1.2-2.1,2-2.9c0.8-0.7,1.8-1.3,2.8-1.7c1-0.4,2.1-0.6,3.2-0.6h1.7c1,0,2.1,0.2,3.2,0.6
			c1,0.4,2,0.9,2.8,1.7c0.8,0.7,1.5,1.7,2,2.9c0.5,1.2,0.7,2.6,0.7,4.3v47.2c0,1.7-0.2,3.1-0.7,4.3s-1.2,2.1-2,2.9
			c-0.8,0.7-1.8,1.3-2.8,1.7c-1.1,0.4-2.1,0.6-3.2,0.6h-1.7V144.4z M1343,84.7c-1.4,0-2.1,1.5-2.1,4.4V134c0,1.6,0.2,2.7,0.6,3.4
			c0.4,0.6,0.9,1,1.6,1h0.4c0.7,0,1.2-0.3,1.6-1c0.4-0.6,0.6-1.8,0.6-3.4V89c0-2.9-0.7-4.4-2.1-4.4L1343,84.7L1343,84.7z"/>
		<path class="st0" d="M1368.1,144.4c-1,0-2.1-0.2-3.1-0.5s-2-0.9-2.8-1.7s-1.5-1.7-2-2.9s-0.8-2.6-0.8-4.3V79h7.2v55
			c0,1.6,0.2,2.7,0.6,3.4c0.4,0.6,0.9,1,1.6,1h0.5c0.6,0,1.1-0.3,1.5-1c0.4-0.6,0.6-1.8,0.6-3.4V79.1h7.2v56c0,1.7-0.2,3.1-0.7,4.3
			s-1.2,2.1-2,2.9c-0.8,0.7-1.8,1.3-2.8,1.7s-2.1,0.6-3.2,0.6h-1.8V144.4z"/>
		<path class="st0" d="M1398.6,79.1h6.3l-5.8,64.8h-9.3l-6-64.8h7l3.8,44.9h0.3L1398.6,79.1z"/>
		<path class="st0" d="M1417.5,79.1v64.8h-7.2V79.1H1417.5z"/>
		<path class="st0" d="M1443.3,105.2c0,2-0.3,3.4-0.9,4.4s-1.4,1.6-2.3,1.9c0.9,0.2,1.7,0.8,2.3,1.8c0.6,1,0.9,2.4,0.9,4.4v14.6
			c0,2.1,0,3.9,0.1,5.3c0.1,1.4,0.2,2.6,0.3,3.5c0.1,0.9,0.2,1.6,0.4,2c0.1,0.4,0.2,0.7,0.3,0.8h-7.2c-0.4-0.7-0.7-2-0.9-3.8
			c-0.2-1.8-0.2-4.4-0.2-7.7v-13.9c0-2.8-0.6-4.2-1.9-4.2h-2.8V144h-7.2V79.1h10.4c2.4,0,4.4,0.8,6.1,2.4s2.5,3.9,2.5,6.9
			L1443.3,105.2L1443.3,105.2z M1434.2,108.9c1.2,0,1.9-1.4,1.9-4.1V89.5c0-2.8-0.7-4.3-2.1-4.3h-2.5v23.6h2.7V108.9z"/>
	</g>
	<g>
		<path class="st0" d="M1628.3,144.4c-1.1,0-2.1-0.2-3.2-0.6c-1.1-0.4-2-0.9-2.8-1.7c-0.8-0.7-1.5-1.7-2-2.9s-0.7-2.6-0.7-4.3v-47
			c0-1.7,0.2-3.1,0.7-4.3c0.5-1.2,1.2-2.1,2-2.9c0.8-0.7,1.8-1.3,2.8-1.7c1-0.4,2.1-0.6,3.2-0.6h1.7c1,0,2.1,0.2,3.2,0.6
			c1,0.4,2,0.9,2.8,1.7c0.8,0.7,1.5,1.7,2,2.9c0.5,1.2,0.7,2.6,0.7,4.3v47.2c0,1.7-0.2,3.1-0.7,4.3s-1.2,2.1-2,2.9
			c-0.8,0.7-1.8,1.3-2.8,1.7c-1.1,0.4-2.1,0.6-3.2,0.6h-1.7V144.4z M1629,84.7c-1.4,0-2.1,1.5-2.1,4.4V134c0,1.6,0.2,2.7,0.6,3.4
			c0.4,0.6,0.9,1,1.6,1h0.4c0.7,0,1.2-0.3,1.6-1c0.4-0.6,0.6-1.8,0.6-3.4V89c0-2.9-0.7-4.4-2.1-4.4L1629,84.7L1629,84.7z"/>
		<path class="st0" d="M1654.1,144.4c-1,0-2.1-0.2-3.1-0.5s-2-0.9-2.8-1.7s-1.5-1.7-2-2.9s-0.8-2.6-0.8-4.3V79h7.2v55
			c0,1.6,0.2,2.7,0.6,3.4c0.4,0.6,0.9,1,1.6,1h0.5c0.6,0,1.1-0.3,1.5-1c0.4-0.6,0.6-1.8,0.6-3.4V79.1h7.2v56c0,1.7-0.2,3.1-0.7,4.3
			s-1.2,2.1-2,2.9c-0.8,0.7-1.8,1.3-2.8,1.7s-2.1,0.6-3.2,0.6h-1.8V144.4z"/>
		<path class="st0" d="M1684.6,79.1h6.3l-5.8,64.8h-9.3l-6-64.8h7l3.8,44.9h0.3L1684.6,79.1z"/>
		<path class="st0" d="M1703.5,79.1v64.8h-7.2V79.1H1703.5z"/>
		<path class="st0" d="M1729.3,105.2c0,2-0.3,3.4-0.9,4.4s-1.4,1.6-2.3,1.9c0.9,0.2,1.7,0.8,2.3,1.8c0.6,1,0.9,2.4,0.9,4.4v14.6
			c0,2.1,0,3.9,0.1,5.3c0.1,1.4,0.2,2.6,0.3,3.5c0.1,0.9,0.2,1.6,0.4,2c0.1,0.4,0.2,0.7,0.3,0.8h-7.2c-0.4-0.7-0.7-2-0.9-3.8
			c-0.2-1.8-0.2-4.4-0.2-7.7v-13.9c0-2.8-0.6-4.2-1.9-4.2h-2.8V144h-7.2V79.1h10.4c2.4,0,4.4,0.8,6.1,2.4s2.5,3.9,2.5,6.9
			L1729.3,105.2L1729.3,105.2z M1720.2,108.9c1.2,0,1.9-1.4,1.9-4.1V89.5c0-2.8-0.7-4.3-2.1-4.3h-2.5v23.6h2.7V108.9z"/>
	</g>
	<g>
		<path class="st0" d="M198.3,386.4c-1.1,0-2.1-0.2-3.2-0.6c-1.1-0.4-2-0.9-2.8-1.7c-0.8-0.7-1.5-1.7-2-2.9
			c-0.5-1.2-0.7-2.6-0.7-4.3v-47.2c0-1.7,0.2-3.1,0.7-4.3c0.5-1.2,1.2-2.1,2-2.9c0.8-0.7,1.8-1.3,2.8-1.7c1-0.4,2.1-0.6,3.2-0.6h1.7
			c1,0,2.1,0.2,3.2,0.6c1,0.4,2,0.9,2.8,1.7s1.5,1.7,2,2.9c0.5,1.2,0.7,2.6,0.7,4.3v47.2c0,1.7-0.2,3.1-0.7,4.3
			c-0.5,1.2-1.2,2.1-2,2.9c-0.8,0.7-1.8,1.3-2.8,1.7c-1.1,0.4-2.1,0.6-3.2,0.6H198.3z M199,326.7c-1.4,0-2.1,1.5-2.1,4.4V376
			c0,1.6,0.2,2.7,0.6,3.4c0.4,0.6,0.9,1,1.6,1h0.4c0.7,0,1.2-0.3,1.6-1c0.4-0.6,0.6-1.8,0.6-3.4v-45c0-2.9-0.7-4.4-2.1-4.4H199
			V326.7z"/>
		<path class="st0" d="M224.1,386.4c-1,0-2.1-0.2-3.1-0.5s-2-0.9-2.8-1.7c-0.8-0.8-1.5-1.7-2-2.9c-0.5-1.2-0.8-2.6-0.8-4.3v-56h7.2
			v55c0,1.6,0.2,2.7,0.6,3.4c0.4,0.6,0.9,1,1.6,1h0.5c0.6,0,1.1-0.3,1.5-1c0.4-0.6,0.6-1.8,0.6-3.4v-54.9h7.2v56
			c0,1.7-0.2,3.1-0.7,4.3c-0.5,1.2-1.2,2.1-2,2.9c-0.8,0.7-1.8,1.3-2.8,1.7c-1,0.4-2.1,0.6-3.2,0.6h-1.8V386.4z"/>
		<path class="st0" d="M254.6,321.1h6.3l-5.8,64.8h-9.3l-6-64.8h7l3.8,44.9h0.3L254.6,321.1z"/>
		<path class="st0" d="M273.5,321.1v64.8h-7.2v-64.8L273.5,321.1L273.5,321.1z"/>
		<path class="st0" d="M299.3,347.2c0,2-0.3,3.4-0.9,4.4s-1.4,1.6-2.3,1.9c0.9,0.2,1.7,0.8,2.3,1.8c0.6,1,0.9,2.4,0.9,4.4v14.6
			c0,2.1,0,3.9,0.1,5.3s0.2,2.6,0.3,3.5c0.1,0.9,0.2,1.6,0.4,2c0.1,0.4,0.2,0.7,0.3,0.8h-7.2c-0.4-0.7-0.7-2-0.9-3.8
			c-0.2-1.8-0.2-4.4-0.2-7.7v-13.9c0-2.8-0.6-4.2-1.9-4.2h-2.8V386h-7.2v-64.8h10.4c2.4,0,4.4,0.8,6.1,2.4s2.5,3.9,2.5,6.9v16.7
			H299.3z M290.2,350.9c1.2,0,1.9-1.4,1.9-4.1v-15.3c0-2.8-0.7-4.3-2.1-4.3h-2.5v23.6L290.2,350.9L290.2,350.9z"/>
	</g>
	<g>
		<path class="st0" d="M484.3,386.4c-1.1,0-2.1-0.2-3.2-0.6s-2-0.9-2.8-1.7c-0.8-0.7-1.5-1.7-2-2.9c-0.5-1.2-0.7-2.6-0.7-4.3v-47.2
			c0-1.7,0.2-3.1,0.7-4.3c0.5-1.2,1.2-2.1,2-2.9c0.8-0.7,1.8-1.3,2.8-1.7c1-0.4,2.1-0.6,3.2-0.6h1.7c1,0,2.1,0.2,3.2,0.6
			c1,0.4,2,0.9,2.8,1.7c0.8,0.7,1.5,1.7,2,2.9c0.5,1.2,0.7,2.6,0.7,4.3v47.2c0,1.7-0.2,3.1-0.7,4.3c-0.5,1.2-1.2,2.1-2,2.9
			c-0.8,0.7-1.8,1.3-2.8,1.7c-1.1,0.4-2.1,0.6-3.2,0.6H484.3z M485,326.7c-1.4,0-2.1,1.5-2.1,4.4V376c0,1.6,0.2,2.7,0.6,3.4
			c0.4,0.6,0.9,1,1.6,1h0.4c0.7,0,1.2-0.3,1.6-1c0.4-0.6,0.6-1.8,0.6-3.4v-45c0-2.9-0.7-4.4-2.1-4.4H485V326.7z"/>
		<path class="st0" d="M510.1,386.4c-1,0-2.1-0.2-3.1-0.5s-2-0.9-2.8-1.7c-0.8-0.8-1.5-1.7-2-2.9c-0.5-1.2-0.8-2.6-0.8-4.3v-56h7.2
			v55c0,1.6,0.2,2.7,0.6,3.4c0.4,0.6,0.9,1,1.6,1h0.5c0.6,0,1.1-0.3,1.5-1c0.4-0.6,0.6-1.8,0.6-3.4v-54.9h7.2v56
			c0,1.7-0.2,3.1-0.7,4.3c-0.5,1.2-1.2,2.1-2,2.9c-0.8,0.7-1.8,1.3-2.8,1.7c-1,0.4-2.1,0.6-3.2,0.6h-1.8V386.4z"/>
		<path class="st0" d="M540.6,321.1h6.3l-5.8,64.8h-9.3l-6-64.8h7l3.8,44.9h0.3L540.6,321.1z"/>
		<path class="st0" d="M559.5,321.1v64.8h-7.2v-64.8L559.5,321.1L559.5,321.1z"/>
		<path class="st0" d="M585.3,347.2c0,2-0.3,3.4-0.9,4.4c-0.6,1-1.4,1.6-2.3,1.9c0.9,0.2,1.7,0.8,2.3,1.8s0.9,2.4,0.9,4.4v14.6
			c0,2.1,0,3.9,0.1,5.3s0.2,2.6,0.3,3.5s0.2,1.6,0.4,2c0.1,0.4,0.2,0.7,0.3,0.8h-7.2c-0.4-0.7-0.7-2-0.9-3.8s-0.2-4.4-0.2-7.7v-13.9
			c0-2.8-0.6-4.2-1.9-4.2h-2.8V386h-7.2v-64.8h10.4c2.4,0,4.4,0.8,6.1,2.4c1.7,1.6,2.5,3.9,2.5,6.9v16.7H585.3z M576.2,350.9
			c1.2,0,1.9-1.4,1.9-4.1v-15.3c0-2.8-0.7-4.3-2.1-4.3h-2.5v23.6L576.2,350.9L576.2,350.9z"/>
	</g>
	<g>
		<path class="st0" d="M198.3,144.4c-1.1,0-2.1-0.2-3.2-0.6c-1.1-0.4-2-0.9-2.8-1.7c-0.8-0.7-1.5-1.7-2-2.9s-0.7-2.6-0.7-4.3v-47
			c0-1.7,0.2-3.1,0.7-4.3c0.5-1.2,1.2-2.1,2-2.9c0.8-0.7,1.8-1.3,2.8-1.7c1-0.4,2.1-0.6,3.2-0.6h1.7c1,0,2.1,0.2,3.2,0.6
			c1,0.4,2,0.9,2.8,1.7c0.8,0.7,1.5,1.7,2,2.9c0.5,1.2,0.7,2.6,0.7,4.3v47.2c0,1.7-0.2,3.1-0.7,4.3s-1.2,2.1-2,2.9
			c-0.8,0.7-1.8,1.3-2.8,1.7c-1.1,0.4-2.1,0.6-3.2,0.6h-1.7V144.4z M199,84.7c-1.4,0-2.1,1.5-2.1,4.4V134c0,1.6,0.2,2.7,0.6,3.4
			c0.4,0.6,0.9,1,1.6,1h0.4c0.7,0,1.2-0.3,1.6-1c0.4-0.6,0.6-1.8,0.6-3.4V89c0-2.9-0.7-4.4-2.1-4.4L199,84.7L199,84.7z"/>
		<path class="st0" d="M224.1,144.4c-1,0-2.1-0.2-3.1-0.5s-2-0.9-2.8-1.7s-1.5-1.7-2-2.9s-0.8-2.6-0.8-4.3V79h7.2v55
			c0,1.6,0.2,2.7,0.6,3.4c0.4,0.6,0.9,1,1.6,1h0.5c0.6,0,1.1-0.3,1.5-1c0.4-0.6,0.6-1.8,0.6-3.4V79.1h7.2v56c0,1.7-0.2,3.1-0.7,4.3
			s-1.2,2.1-2,2.9c-0.8,0.7-1.8,1.3-2.8,1.7s-2.1,0.6-3.2,0.6h-1.8V144.4z"/>
		<path class="st0" d="M254.6,79.1h6.3l-5.8,64.8h-9.3l-6-64.8h7l3.8,44.9h0.3L254.6,79.1z"/>
		<path class="st0" d="M273.5,79.1v64.8h-7.2V79.1H273.5z"/>
		<path class="st0" d="M299.3,105.2c0,2-0.3,3.4-0.9,4.4s-1.4,1.6-2.3,1.9c0.9,0.2,1.7,0.8,2.3,1.8c0.6,1,0.9,2.4,0.9,4.4v14.6
			c0,2.1,0,3.9,0.1,5.3c0.1,1.4,0.2,2.6,0.3,3.5c0.1,0.9,0.2,1.6,0.4,2c0.1,0.4,0.2,0.7,0.3,0.8h-7.2c-0.4-0.7-0.7-2-0.9-3.8
			c-0.2-1.8-0.2-4.4-0.2-7.7v-13.9c0-2.8-0.6-4.2-1.9-4.2h-2.8V144h-7.2V79.1h10.4c2.4,0,4.4,0.8,6.1,2.4s2.5,3.9,2.5,6.9v16.8
			H299.3z M290.2,108.9c1.2,0,1.9-1.4,1.9-4.1V89.5c0-2.8-0.7-4.3-2.1-4.3h-2.5v23.6h2.7V108.9z"/>
	</g>
	<g>
		<path class="st0" d="M484.3,144.4c-1.1,0-2.1-0.2-3.2-0.6c-1.1-0.4-2-0.9-2.8-1.7c-0.8-0.7-1.5-1.7-2-2.9s-0.7-2.6-0.7-4.3v-47
			c0-1.7,0.2-3.1,0.7-4.3c0.5-1.2,1.2-2.1,2-2.9c0.8-0.7,1.8-1.3,2.8-1.7c1-0.4,2.1-0.6,3.2-0.6h1.7c1,0,2.1,0.2,3.2,0.6
			c1,0.4,2,0.9,2.8,1.7c0.8,0.7,1.5,1.7,2,2.9c0.5,1.2,0.7,2.6,0.7,4.3v47.2c0,1.7-0.2,3.1-0.7,4.3s-1.2,2.1-2,2.9
			c-0.8,0.7-1.8,1.3-2.8,1.7c-1.1,0.4-2.1,0.6-3.2,0.6h-1.7V144.4z M485,84.7c-1.4,0-2.1,1.5-2.1,4.4V134c0,1.6,0.2,2.7,0.6,3.4
			c0.4,0.6,0.9,1,1.6,1h0.4c0.7,0,1.2-0.3,1.6-1c0.4-0.6,0.6-1.8,0.6-3.4V89c0-2.9-0.7-4.4-2.1-4.4L485,84.7L485,84.7z"/>
		<path class="st0" d="M510.1,144.4c-1,0-2.1-0.2-3.1-0.5s-2-0.9-2.8-1.7s-1.5-1.7-2-2.9s-0.8-2.6-0.8-4.3V79h7.2v55
			c0,1.6,0.2,2.7,0.6,3.4c0.4,0.6,0.9,1,1.6,1h0.5c0.6,0,1.1-0.3,1.5-1c0.4-0.6,0.6-1.8,0.6-3.4V79.1h7.2v56c0,1.7-0.2,3.1-0.7,4.3
			s-1.2,2.1-2,2.9c-0.8,0.7-1.8,1.3-2.8,1.7s-2.1,0.6-3.2,0.6h-1.8V144.4z"/>
		<path class="st0" d="M540.6,79.1h6.3l-5.8,64.8h-9.3l-6-64.8h7l3.8,44.9h0.3L540.6,79.1z"/>
		<path class="st0" d="M559.5,79.1v64.8h-7.2V79.1H559.5z"/>
		<path class="st0" d="M585.3,105.2c0,2-0.3,3.4-0.9,4.4c-0.6,1-1.4,1.6-2.3,1.9c0.9,0.2,1.7,0.8,2.3,1.8s0.9,2.4,0.9,4.4v14.6
			c0,2.1,0,3.9,0.1,5.3c0.1,1.4,0.2,2.6,0.3,3.5s0.2,1.6,0.4,2c0.1,0.4,0.2,0.7,0.3,0.8h-7.2c-0.4-0.7-0.7-2-0.9-3.8
			s-0.2-4.4-0.2-7.7v-13.9c0-2.8-0.6-4.2-1.9-4.2h-2.8V144h-7.2V79.1h10.4c2.4,0,4.4,0.8,6.1,2.4c1.7,1.6,2.5,3.9,2.5,6.9v16.8
			H585.3z M576.2,108.9c1.2,0,1.9-1.4,1.9-4.1V89.5c0-2.8-0.7-4.3-2.1-4.3h-2.5v23.6h2.7V108.9z"/>
	</g>
	<g>
		<path class="st0" d="M1342.3,386.4c-1.1,0-2.1-0.2-3.2-0.6s-2-0.9-2.8-1.7c-0.8-0.7-1.5-1.7-2-2.9c-0.5-1.2-0.7-2.6-0.7-4.3v-47.2
			c0-1.7,0.2-3.1,0.7-4.3c0.5-1.2,1.2-2.1,2-2.9c0.8-0.7,1.8-1.3,2.8-1.7c1-0.4,2.1-0.6,3.2-0.6h1.7c1,0,2.1,0.2,3.2,0.6
			c1,0.4,2,0.9,2.8,1.7c0.8,0.7,1.5,1.7,2,2.9c0.5,1.2,0.7,2.6,0.7,4.3v47.2c0,1.7-0.2,3.1-0.7,4.3c-0.5,1.2-1.2,2.1-2,2.9
			c-0.8,0.7-1.8,1.3-2.8,1.7c-1.1,0.4-2.1,0.6-3.2,0.6H1342.3z M1343,326.7c-1.4,0-2.1,1.5-2.1,4.4V376c0,1.6,0.2,2.7,0.6,3.4
			c0.4,0.6,0.9,1,1.6,1h0.4c0.7,0,1.2-0.3,1.6-1c0.4-0.6,0.6-1.8,0.6-3.4v-45c0-2.9-0.7-4.4-2.1-4.4h-0.6V326.7z"/>
		<path class="st0" d="M1368.1,386.4c-1,0-2.1-0.2-3.1-0.5s-2-0.9-2.8-1.7c-0.8-0.8-1.5-1.7-2-2.9c-0.5-1.2-0.8-2.6-0.8-4.3v-56h7.2
			v55c0,1.6,0.2,2.7,0.6,3.4c0.4,0.6,0.9,1,1.6,1h0.5c0.6,0,1.1-0.3,1.5-1c0.4-0.6,0.6-1.8,0.6-3.4v-54.9h7.2v56
			c0,1.7-0.2,3.1-0.7,4.3c-0.5,1.2-1.2,2.1-2,2.9c-0.8,0.7-1.8,1.3-2.8,1.7c-1,0.4-2.1,0.6-3.2,0.6h-1.8V386.4z"/>
		<path class="st0" d="M1398.6,321.1h6.3l-5.8,64.8h-9.3l-6-64.8h7l3.8,44.9h0.3L1398.6,321.1z"/>
		<path class="st0" d="M1417.5,321.1v64.8h-7.2v-64.8L1417.5,321.1L1417.5,321.1z"/>
		<path class="st0" d="M1443.3,347.2c0,2-0.3,3.4-0.9,4.4s-1.4,1.6-2.3,1.9c0.9,0.2,1.7,0.8,2.3,1.8c0.6,1,0.9,2.4,0.9,4.4v14.6
			c0,2.1,0,3.9,0.1,5.3s0.2,2.6,0.3,3.5c0.1,0.9,0.2,1.6,0.4,2c0.1,0.4,0.2,0.7,0.3,0.8h-7.2c-0.4-0.7-0.7-2-0.9-3.8
			c-0.2-1.8-0.2-4.4-0.2-7.7v-13.9c0-2.8-0.6-4.2-1.9-4.2h-2.8V386h-7.2v-64.8h10.4c2.4,0,4.4,0.8,6.1,2.4s2.5,3.9,2.5,6.9
			L1443.3,347.2L1443.3,347.2z M1434.2,350.9c1.2,0,1.9-1.4,1.9-4.1v-15.3c0-2.8-0.7-4.3-2.1-4.3h-2.5v23.6L1434.2,350.9
			L1434.2,350.9z"/>
	</g>
	<g>
		<path class="st0" d="M1628.3,386.4c-1.1,0-2.1-0.2-3.2-0.6s-2-0.9-2.8-1.7c-0.8-0.7-1.5-1.7-2-2.9c-0.5-1.2-0.7-2.6-0.7-4.3v-47.2
			c0-1.7,0.2-3.1,0.7-4.3c0.5-1.2,1.2-2.1,2-2.9c0.8-0.7,1.8-1.3,2.8-1.7c1-0.4,2.1-0.6,3.2-0.6h1.7c1,0,2.1,0.2,3.2,0.6
			c1,0.4,2,0.9,2.8,1.7c0.8,0.7,1.5,1.7,2,2.9c0.5,1.2,0.7,2.6,0.7,4.3v47.2c0,1.7-0.2,3.1-0.7,4.3c-0.5,1.2-1.2,2.1-2,2.9
			c-0.8,0.7-1.8,1.3-2.8,1.7c-1.1,0.4-2.1,0.6-3.2,0.6H1628.3z M1629,326.7c-1.4,0-2.1,1.5-2.1,4.4V376c0,1.6,0.2,2.7,0.6,3.4
			c0.4,0.6,0.9,1,1.6,1h0.4c0.7,0,1.2-0.3,1.6-1c0.4-0.6,0.6-1.8,0.6-3.4v-45c0-2.9-0.7-4.4-2.1-4.4h-0.6V326.7z"/>
		<path class="st0" d="M1654.1,386.4c-1,0-2.1-0.2-3.1-0.5s-2-0.9-2.8-1.7c-0.8-0.8-1.5-1.7-2-2.9c-0.5-1.2-0.8-2.6-0.8-4.3v-56h7.2
			v55c0,1.6,0.2,2.7,0.6,3.4c0.4,0.6,0.9,1,1.6,1h0.5c0.6,0,1.1-0.3,1.5-1c0.4-0.6,0.6-1.8,0.6-3.4v-54.9h7.2v56
			c0,1.7-0.2,3.1-0.7,4.3c-0.5,1.2-1.2,2.1-2,2.9c-0.8,0.7-1.8,1.3-2.8,1.7c-1,0.4-2.1,0.6-3.2,0.6h-1.8V386.4z"/>
		<path class="st0" d="M1684.6,321.1h6.3l-5.8,64.8h-9.3l-6-64.8h7l3.8,44.9h0.3L1684.6,321.1z"/>
		<path class="st0" d="M1703.5,321.1v64.8h-7.2v-64.8L1703.5,321.1L1703.5,321.1z"/>
		<path class="st0" d="M1729.3,347.2c0,2-0.3,3.4-0.9,4.4s-1.4,1.6-2.3,1.9c0.9,0.2,1.7,0.8,2.3,1.8c0.6,1,0.9,2.4,0.9,4.4v14.6
			c0,2.1,0,3.9,0.1,5.3s0.2,2.6,0.3,3.5c0.1,0.9,0.2,1.6,0.4,2c0.1,0.4,0.2,0.7,0.3,0.8h-7.2c-0.4-0.7-0.7-2-0.9-3.8
			c-0.2-1.8-0.2-4.4-0.2-7.7v-13.9c0-2.8-0.6-4.2-1.9-4.2h-2.8V386h-7.2v-64.8h10.4c2.4,0,4.4,0.8,6.1,2.4s2.5,3.9,2.5,6.9
			L1729.3,347.2L1729.3,347.2z M1720.2,350.9c1.2,0,1.9-1.4,1.9-4.1v-15.3c0-2.8-0.7-4.3-2.1-4.3h-2.5v23.6L1720.2,350.9
			L1720.2,350.9z"/>
	</g>
	<g>
		<path class="st0" d="M198.3,617.4c-1.1,0-2.1-0.2-3.2-0.6c-1.1-0.4-2-0.9-2.8-1.7c-0.8-0.7-1.5-1.7-2-2.9s-0.7-2.6-0.7-4.3v-47.2
			c0-1.7,0.2-3.1,0.7-4.3s1.2-2.1,2-2.9c0.8-0.7,1.8-1.3,2.8-1.7s2.1-0.6,3.2-0.6h1.7c1,0,2.1,0.2,3.2,0.6c1,0.4,2,0.9,2.8,1.7
			s1.5,1.7,2,2.9s0.7,2.6,0.7,4.3v47.2c0,1.7-0.2,3.1-0.7,4.3s-1.2,2.1-2,2.9c-0.8,0.7-1.8,1.3-2.8,1.7c-1.1,0.4-2.1,0.6-3.2,0.6
			H198.3z M199,557.7c-1.4,0-2.1,1.5-2.1,4.4V607c0,1.6,0.2,2.7,0.6,3.4c0.4,0.6,0.9,1,1.6,1h0.4c0.7,0,1.2-0.3,1.6-1
			c0.4-0.6,0.6-1.8,0.6-3.4v-45c0-2.9-0.7-4.4-2.1-4.4H199V557.7z"/>
		<path class="st0" d="M224.1,617.4c-1,0-2.1-0.2-3.1-0.5s-2-0.9-2.8-1.7s-1.5-1.7-2-2.9s-0.8-2.6-0.8-4.3v-56h7.2v55
			c0,1.6,0.2,2.7,0.6,3.4c0.4,0.6,0.9,1,1.6,1h0.5c0.6,0,1.1-0.3,1.5-1c0.4-0.6,0.6-1.8,0.6-3.4v-54.9h7.2v56c0,1.7-0.2,3.1-0.7,4.3
			s-1.2,2.1-2,2.9c-0.8,0.7-1.8,1.3-2.8,1.7s-2.1,0.6-3.2,0.6h-1.8V617.4z"/>
		<path class="st0" d="M254.6,552.1h6.3l-5.8,64.8h-9.3l-6-64.8h7l3.8,44.9h0.3L254.6,552.1z"/>
		<path class="st0" d="M273.5,552.1v64.8h-7.2v-64.8H273.5z"/>
		<path class="st0" d="M299.3,578.2c0,2-0.3,3.4-0.9,4.4s-1.4,1.6-2.3,1.9c0.9,0.2,1.7,0.8,2.3,1.8c0.6,1,0.9,2.4,0.9,4.4v14.6
			c0,2.1,0,3.9,0.1,5.3c0.1,1.4,0.2,2.6,0.3,3.5c0.1,0.9,0.2,1.6,0.4,2c0.1,0.4,0.2,0.7,0.3,0.8h-7.2c-0.4-0.7-0.7-2-0.9-3.8
			c-0.2-1.8-0.2-4.4-0.2-7.7v-13.9c0-2.8-0.6-4.2-1.9-4.2h-2.8V617h-7.2v-64.8h10.4c2.4,0,4.4,0.8,6.1,2.4c1.7,1.6,2.5,3.9,2.5,6.9
			v16.7H299.3z M290.2,581.9c1.2,0,1.9-1.4,1.9-4.1v-15.3c0-2.8-0.7-4.3-2.1-4.3h-2.5v23.6L290.2,581.9L290.2,581.9z"/>
	</g>
	<g>
		<path class="st0" d="M484.3,617.4c-1.1,0-2.1-0.2-3.2-0.6c-1.1-0.4-2-0.9-2.8-1.7c-0.8-0.7-1.5-1.7-2-2.9s-0.7-2.6-0.7-4.3v-47.2
			c0-1.7,0.2-3.1,0.7-4.3s1.2-2.1,2-2.9c0.8-0.7,1.8-1.3,2.8-1.7s2.1-0.6,3.2-0.6h1.7c1,0,2.1,0.2,3.2,0.6c1,0.4,2,0.9,2.8,1.7
			c0.8,0.7,1.5,1.7,2,2.9s0.7,2.6,0.7,4.3v47.2c0,1.7-0.2,3.1-0.7,4.3s-1.2,2.1-2,2.9c-0.8,0.7-1.8,1.3-2.8,1.7
			c-1.1,0.4-2.1,0.6-3.2,0.6H484.3z M485,557.7c-1.4,0-2.1,1.5-2.1,4.4V607c0,1.6,0.2,2.7,0.6,3.4c0.4,0.6,0.9,1,1.6,1h0.4
			c0.7,0,1.2-0.3,1.6-1c0.4-0.6,0.6-1.8,0.6-3.4v-45c0-2.9-0.7-4.4-2.1-4.4H485V557.7z"/>
		<path class="st0" d="M510.1,617.4c-1,0-2.1-0.2-3.1-0.5s-2-0.9-2.8-1.7s-1.5-1.7-2-2.9s-0.8-2.6-0.8-4.3v-56h7.2v55
			c0,1.6,0.2,2.7,0.6,3.4c0.4,0.6,0.9,1,1.6,1h0.5c0.6,0,1.1-0.3,1.5-1c0.4-0.6,0.6-1.8,0.6-3.4v-54.9h7.2v56c0,1.7-0.2,3.1-0.7,4.3
			s-1.2,2.1-2,2.9c-0.8,0.7-1.8,1.3-2.8,1.7s-2.1,0.6-3.2,0.6h-1.8V617.4z"/>
		<path class="st0" d="M540.6,552.1h6.3l-5.8,64.8h-9.3l-6-64.8h7l3.8,44.9h0.3L540.6,552.1z"/>
		<path class="st0" d="M559.5,552.1v64.8h-7.2v-64.8H559.5z"/>
		<path class="st0" d="M585.3,578.2c0,2-0.3,3.4-0.9,4.4c-0.6,1-1.4,1.6-2.3,1.9c0.9,0.2,1.7,0.8,2.3,1.8s0.9,2.4,0.9,4.4v14.6
			c0,2.1,0,3.9,0.1,5.3c0.1,1.4,0.2,2.6,0.3,3.5s0.2,1.6,0.4,2c0.1,0.4,0.2,0.7,0.3,0.8h-7.2c-0.4-0.7-0.7-2-0.9-3.8
			s-0.2-4.4-0.2-7.7v-13.9c0-2.8-0.6-4.2-1.9-4.2h-2.8V617h-7.2v-64.8h10.4c2.4,0,4.4,0.8,6.1,2.4c1.7,1.6,2.5,3.9,2.5,6.9v16.7
			H585.3z M576.2,581.9c1.2,0,1.9-1.4,1.9-4.1v-15.3c0-2.8-0.7-4.3-2.1-4.3h-2.5v23.6L576.2,581.9L576.2,581.9z"/>
	</g>
	<g>
		<path class="st0" d="M1342.3,617.4c-1.1,0-2.1-0.2-3.2-0.6c-1.1-0.4-2-0.9-2.8-1.7c-0.8-0.7-1.5-1.7-2-2.9s-0.7-2.6-0.7-4.3v-47.2
			c0-1.7,0.2-3.1,0.7-4.3s1.2-2.1,2-2.9c0.8-0.7,1.8-1.3,2.8-1.7s2.1-0.6,3.2-0.6h1.7c1,0,2.1,0.2,3.2,0.6c1,0.4,2,0.9,2.8,1.7
			c0.8,0.7,1.5,1.7,2,2.9s0.7,2.6,0.7,4.3v47.2c0,1.7-0.2,3.1-0.7,4.3s-1.2,2.1-2,2.9c-0.8,0.7-1.8,1.3-2.8,1.7
			c-1.1,0.4-2.1,0.6-3.2,0.6H1342.3z M1343,557.7c-1.4,0-2.1,1.5-2.1,4.4V607c0,1.6,0.2,2.7,0.6,3.4c0.4,0.6,0.9,1,1.6,1h0.4
			c0.7,0,1.2-0.3,1.6-1c0.4-0.6,0.6-1.8,0.6-3.4v-45c0-2.9-0.7-4.4-2.1-4.4h-0.6V557.7z"/>
		<path class="st0" d="M1368.1,617.4c-1,0-2.1-0.2-3.1-0.5s-2-0.9-2.8-1.7s-1.5-1.7-2-2.9s-0.8-2.6-0.8-4.3v-56h7.2v55
			c0,1.6,0.2,2.7,0.6,3.4c0.4,0.6,0.9,1,1.6,1h0.5c0.6,0,1.1-0.3,1.5-1c0.4-0.6,0.6-1.8,0.6-3.4v-54.9h7.2v56c0,1.7-0.2,3.1-0.7,4.3
			s-1.2,2.1-2,2.9c-0.8,0.7-1.8,1.3-2.8,1.7s-2.1,0.6-3.2,0.6h-1.8V617.4z"/>
		<path class="st0" d="M1398.6,552.1h6.3l-5.8,64.8h-9.3l-6-64.8h7l3.8,44.9h0.3L1398.6,552.1z"/>
		<path class="st0" d="M1417.5,552.1v64.8h-7.2v-64.8H1417.5z"/>
		<path class="st0" d="M1443.3,578.2c0,2-0.3,3.4-0.9,4.4s-1.4,1.6-2.3,1.9c0.9,0.2,1.7,0.8,2.3,1.8c0.6,1,0.9,2.4,0.9,4.4v14.6
			c0,2.1,0,3.9,0.1,5.3c0.1,1.4,0.2,2.6,0.3,3.5c0.1,0.9,0.2,1.6,0.4,2c0.1,0.4,0.2,0.7,0.3,0.8h-7.2c-0.4-0.7-0.7-2-0.9-3.8
			c-0.2-1.8-0.2-4.4-0.2-7.7v-13.9c0-2.8-0.6-4.2-1.9-4.2h-2.8V617h-7.2v-64.8h10.4c2.4,0,4.4,0.8,6.1,2.4c1.7,1.6,2.5,3.9,2.5,6.9
			L1443.3,578.2L1443.3,578.2z M1434.2,581.9c1.2,0,1.9-1.4,1.9-4.1v-15.3c0-2.8-0.7-4.3-2.1-4.3h-2.5v23.6L1434.2,581.9
			L1434.2,581.9z"/>
	</g>
	<g>
		<path class="st0" d="M1628.3,617.4c-1.1,0-2.1-0.2-3.2-0.6c-1.1-0.4-2-0.9-2.8-1.7c-0.8-0.7-1.5-1.7-2-2.9s-0.7-2.6-0.7-4.3v-47.2
			c0-1.7,0.2-3.1,0.7-4.3s1.2-2.1,2-2.9c0.8-0.7,1.8-1.3,2.8-1.7s2.1-0.6,3.2-0.6h1.7c1,0,2.1,0.2,3.2,0.6c1,0.4,2,0.9,2.8,1.7
			c0.8,0.7,1.5,1.7,2,2.9s0.7,2.6,0.7,4.3v47.2c0,1.7-0.2,3.1-0.7,4.3s-1.2,2.1-2,2.9c-0.8,0.7-1.8,1.3-2.8,1.7
			c-1.1,0.4-2.1,0.6-3.2,0.6H1628.3z M1629,557.7c-1.4,0-2.1,1.5-2.1,4.4V607c0,1.6,0.2,2.7,0.6,3.4c0.4,0.6,0.9,1,1.6,1h0.4
			c0.7,0,1.2-0.3,1.6-1c0.4-0.6,0.6-1.8,0.6-3.4v-45c0-2.9-0.7-4.4-2.1-4.4h-0.6V557.7z"/>
		<path class="st0" d="M1654.1,617.4c-1,0-2.1-0.2-3.1-0.5s-2-0.9-2.8-1.7s-1.5-1.7-2-2.9s-0.8-2.6-0.8-4.3v-56h7.2v55
			c0,1.6,0.2,2.7,0.6,3.4c0.4,0.6,0.9,1,1.6,1h0.5c0.6,0,1.1-0.3,1.5-1c0.4-0.6,0.6-1.8,0.6-3.4v-54.9h7.2v56c0,1.7-0.2,3.1-0.7,4.3
			s-1.2,2.1-2,2.9c-0.8,0.7-1.8,1.3-2.8,1.7s-2.1,0.6-3.2,0.6h-1.8V617.4z"/>
		<path class="st0" d="M1684.6,552.1h6.3l-5.8,64.8h-9.3l-6-64.8h7l3.8,44.9h0.3L1684.6,552.1z"/>
		<path class="st0" d="M1703.5,552.1v64.8h-7.2v-64.8H1703.5z"/>
		<path class="st0" d="M1729.3,578.2c0,2-0.3,3.4-0.9,4.4s-1.4,1.6-2.3,1.9c0.9,0.2,1.7,0.8,2.3,1.8c0.6,1,0.9,2.4,0.9,4.4v14.6
			c0,2.1,0,3.9,0.1,5.3c0.1,1.4,0.2,2.6,0.3,3.5c0.1,0.9,0.2,1.6,0.4,2c0.1,0.4,0.2,0.7,0.3,0.8h-7.2c-0.4-0.7-0.7-2-0.9-3.8
			c-0.2-1.8-0.2-4.4-0.2-7.7v-13.9c0-2.8-0.6-4.2-1.9-4.2h-2.8V617h-7.2v-64.8h10.4c2.4,0,4.4,0.8,6.1,2.4c1.7,1.6,2.5,3.9,2.5,6.9
			L1729.3,578.2L1729.3,578.2z M1720.2,581.9c1.2,0,1.9-1.4,1.9-4.1v-15.3c0-2.8-0.7-4.3-2.1-4.3h-2.5v23.6L1720.2,581.9
			L1720.2,581.9z"/>
	</g>
	<g>
		<path class="st0" d="M198.3,825.4c-1.1,0-2.1-0.2-3.2-0.6c-1.1-0.4-2-0.9-2.8-1.7c-0.8-0.7-1.5-1.7-2-2.9s-0.7-2.6-0.7-4.3v-47.2
			c0-1.7,0.2-3.1,0.7-4.3s1.2-2.1,2-2.9c0.8-0.7,1.8-1.3,2.8-1.7s2.1-0.6,3.2-0.6h1.7c1,0,2.1,0.2,3.2,0.6c1,0.4,2,0.9,2.8,1.7
			s1.5,1.7,2,2.9s0.7,2.6,0.7,4.3v47.2c0,1.7-0.2,3.1-0.7,4.3s-1.2,2.1-2,2.9c-0.8,0.7-1.8,1.3-2.8,1.7c-1.1,0.4-2.1,0.6-3.2,0.6
			H198.3z M199,765.7c-1.4,0-2.1,1.5-2.1,4.4V815c0,1.6,0.2,2.7,0.6,3.4c0.4,0.6,0.9,1,1.6,1h0.4c0.7,0,1.2-0.3,1.6-1
			c0.4-0.6,0.6-1.8,0.6-3.4v-45c0-2.9-0.7-4.4-2.1-4.4H199V765.7z"/>
		<path class="st0" d="M224.1,825.4c-1,0-2.1-0.2-3.1-0.5s-2-0.9-2.8-1.7s-1.5-1.7-2-2.9s-0.8-2.6-0.8-4.3v-56h7.2v55
			c0,1.6,0.2,2.7,0.6,3.4c0.4,0.6,0.9,1,1.6,1h0.5c0.6,0,1.1-0.3,1.5-1c0.4-0.6,0.6-1.8,0.6-3.4v-54.9h7.2v56c0,1.7-0.2,3.1-0.7,4.3
			s-1.2,2.1-2,2.9c-0.8,0.7-1.8,1.3-2.8,1.7s-2.1,0.6-3.2,0.6h-1.8V825.4z"/>
		<path class="st0" d="M254.6,760.1h6.3l-5.8,64.8h-9.3l-6-64.8h7l3.8,44.9h0.3L254.6,760.1z"/>
		<path class="st0" d="M273.5,760.1v64.8h-7.2v-64.8H273.5z"/>
		<path class="st0" d="M299.3,786.2c0,2-0.3,3.4-0.9,4.4s-1.4,1.6-2.3,1.9c0.9,0.2,1.7,0.8,2.3,1.8c0.6,1,0.9,2.4,0.9,4.4v14.6
			c0,2.1,0,3.9,0.1,5.3c0.1,1.4,0.2,2.6,0.3,3.5c0.1,0.9,0.2,1.6,0.4,2c0.1,0.4,0.2,0.7,0.3,0.8h-7.2c-0.4-0.7-0.7-2-0.9-3.8
			c-0.2-1.8-0.2-4.4-0.2-7.7v-13.9c0-2.8-0.6-4.2-1.9-4.2h-2.8V825h-7.2v-64.8h10.4c2.4,0,4.4,0.8,6.1,2.4c1.7,1.6,2.5,3.9,2.5,6.9
			v16.7H299.3z M290.2,789.9c1.2,0,1.9-1.4,1.9-4.1v-15.3c0-2.8-0.7-4.3-2.1-4.3h-2.5v23.6L290.2,789.9L290.2,789.9z"/>
	</g>
	<g>
		<path class="st0" d="M484.3,825.4c-1.1,0-2.1-0.2-3.2-0.6c-1.1-0.4-2-0.9-2.8-1.7c-0.8-0.7-1.5-1.7-2-2.9s-0.7-2.6-0.7-4.3v-47.2
			c0-1.7,0.2-3.1,0.7-4.3s1.2-2.1,2-2.9c0.8-0.7,1.8-1.3,2.8-1.7s2.1-0.6,3.2-0.6h1.7c1,0,2.1,0.2,3.2,0.6c1,0.4,2,0.9,2.8,1.7
			c0.8,0.7,1.5,1.7,2,2.9s0.7,2.6,0.7,4.3v47.2c0,1.7-0.2,3.1-0.7,4.3s-1.2,2.1-2,2.9c-0.8,0.7-1.8,1.3-2.8,1.7
			c-1.1,0.4-2.1,0.6-3.2,0.6H484.3z M485,765.7c-1.4,0-2.1,1.5-2.1,4.4V815c0,1.6,0.2,2.7,0.6,3.4c0.4,0.6,0.9,1,1.6,1h0.4
			c0.7,0,1.2-0.3,1.6-1c0.4-0.6,0.6-1.8,0.6-3.4v-45c0-2.9-0.7-4.4-2.1-4.4H485V765.7z"/>
		<path class="st0" d="M510.1,825.4c-1,0-2.1-0.2-3.1-0.5s-2-0.9-2.8-1.7s-1.5-1.7-2-2.9s-0.8-2.6-0.8-4.3v-56h7.2v55
			c0,1.6,0.2,2.7,0.6,3.4c0.4,0.6,0.9,1,1.6,1h0.5c0.6,0,1.1-0.3,1.5-1c0.4-0.6,0.6-1.8,0.6-3.4v-54.9h7.2v56c0,1.7-0.2,3.1-0.7,4.3
			s-1.2,2.1-2,2.9c-0.8,0.7-1.8,1.3-2.8,1.7s-2.1,0.6-3.2,0.6h-1.8V825.4z"/>
		<path class="st0" d="M540.6,760.1h6.3l-5.8,64.8h-9.3l-6-64.8h7l3.8,44.9h0.3L540.6,760.1z"/>
		<path class="st0" d="M559.5,760.1v64.8h-7.2v-64.8H559.5z"/>
		<path class="st0" d="M585.3,786.2c0,2-0.3,3.4-0.9,4.4c-0.6,1-1.4,1.6-2.3,1.9c0.9,0.2,1.7,0.8,2.3,1.8s0.9,2.4,0.9,4.4v14.6
			c0,2.1,0,3.9,0.1,5.3c0.1,1.4,0.2,2.6,0.3,3.5s0.2,1.6,0.4,2c0.1,0.4,0.2,0.7,0.3,0.8h-7.2c-0.4-0.7-0.7-2-0.9-3.8
			s-0.2-4.4-0.2-7.7v-13.9c0-2.8-0.6-4.2-1.9-4.2h-2.8V825h-7.2v-64.8h10.4c2.4,0,4.4,0.8,6.1,2.4c1.7,1.6,2.5,3.9,2.5,6.9v16.7
			H585.3z M576.2,789.9c1.2,0,1.9-1.4,1.9-4.1v-15.3c0-2.8-0.7-4.3-2.1-4.3h-2.5v23.6L576.2,789.9L576.2,789.9z"/>
	</g>
	<g>
		<path class="st0" d="M770.3,825.4c-1.1,0-2.1-0.2-3.2-0.6c-1.1-0.4-2-0.9-2.8-1.7c-0.8-0.7-1.5-1.7-2-2.9s-0.7-2.6-0.7-4.3v-47.2
			c0-1.7,0.2-3.1,0.7-4.3s1.2-2.1,2-2.9c0.8-0.7,1.8-1.3,2.8-1.7s2.1-0.6,3.2-0.6h1.7c1,0,2.1,0.2,3.2,0.6c1,0.4,2,0.9,2.8,1.7
			s1.5,1.7,2,2.9s0.7,2.6,0.7,4.3v47.2c0,1.7-0.2,3.1-0.7,4.3s-1.2,2.1-2,2.9c-0.8,0.7-1.8,1.3-2.8,1.7c-1.1,0.4-2.1,0.6-3.2,0.6
			H770.3z M771,765.7c-1.4,0-2.1,1.5-2.1,4.4V815c0,1.6,0.2,2.7,0.6,3.4c0.4,0.6,0.9,1,1.6,1h0.4c0.7,0,1.2-0.3,1.6-1
			c0.4-0.6,0.6-1.8,0.6-3.4v-45c0-2.9-0.7-4.4-2.1-4.4H771V765.7z"/>
		<path class="st0" d="M796.1,825.4c-1,0-2.1-0.2-3.1-0.5s-2-0.9-2.8-1.7s-1.5-1.7-2-2.9s-0.8-2.6-0.8-4.3v-56h7.2v55
			c0,1.6,0.2,2.7,0.6,3.4c0.4,0.6,0.9,1,1.6,1h0.5c0.6,0,1.1-0.3,1.5-1c0.4-0.6,0.6-1.8,0.6-3.4v-54.9h7.2v56c0,1.7-0.2,3.1-0.7,4.3
			s-1.2,2.1-2,2.9c-0.8,0.7-1.8,1.3-2.8,1.7s-2.1,0.6-3.2,0.6h-1.8V825.4z"/>
		<path class="st0" d="M826.6,760.1h6.3l-5.8,64.8h-9.3l-6-64.8h7l3.8,44.9h0.3L826.6,760.1z"/>
		<path class="st0" d="M845.5,760.1v64.8h-7.2v-64.8H845.5z"/>
		<path class="st0" d="M871.3,786.2c0,2-0.3,3.4-0.9,4.4c-0.6,1-1.4,1.6-2.3,1.9c0.9,0.2,1.7,0.8,2.3,1.8s0.9,2.4,0.9,4.4v14.6
			c0,2.1,0,3.9,0.1,5.3c0.1,1.4,0.2,2.6,0.3,3.5s0.2,1.6,0.4,2c0.1,0.4,0.2,0.7,0.3,0.8h-7.2c-0.4-0.7-0.7-2-0.9-3.8
			s-0.2-4.4-0.2-7.7v-13.9c0-2.8-0.6-4.2-1.9-4.2h-2.8V825h-7.2v-64.8h10.4c2.4,0,4.4,0.8,6.1,2.4c1.7,1.6,2.5,3.9,2.5,6.9v16.7
			H871.3z M862.2,789.9c1.2,0,1.9-1.4,1.9-4.1v-15.3c0-2.8-0.7-4.3-2.1-4.3h-2.5v23.6L862.2,789.9L862.2,789.9z"/>
	</g>
	<g>
		<path class="st0" d="M1056.3,825.4c-1.1,0-2.1-0.2-3.2-0.6c-1.1-0.4-2-0.9-2.8-1.7c-0.8-0.7-1.5-1.7-2-2.9s-0.7-2.6-0.7-4.3v-47.2
			c0-1.7,0.2-3.1,0.7-4.3s1.2-2.1,2-2.9c0.8-0.7,1.8-1.3,2.8-1.7s2.1-0.6,3.2-0.6h1.7c1,0,2.1,0.2,3.2,0.6c1,0.4,2,0.9,2.8,1.7
			c0.8,0.7,1.5,1.7,2,2.9s0.7,2.6,0.7,4.3v47.2c0,1.7-0.2,3.1-0.7,4.3s-1.2,2.1-2,2.9c-0.8,0.7-1.8,1.3-2.8,1.7
			c-1.1,0.4-2.1,0.6-3.2,0.6H1056.3z M1057,765.7c-1.4,0-2.1,1.5-2.1,4.4V815c0,1.6,0.2,2.7,0.6,3.4c0.4,0.6,0.9,1,1.6,1h0.4
			c0.7,0,1.2-0.3,1.6-1c0.4-0.6,0.6-1.8,0.6-3.4v-45c0-2.9-0.7-4.4-2.1-4.4h-0.6V765.7z"/>
		<path class="st0" d="M1082.1,825.4c-1,0-2.1-0.2-3.1-0.5s-2-0.9-2.8-1.7s-1.5-1.7-2-2.9s-0.8-2.6-0.8-4.3v-56h7.2v55
			c0,1.6,0.2,2.7,0.6,3.4c0.4,0.6,0.9,1,1.6,1h0.5c0.6,0,1.1-0.3,1.5-1c0.4-0.6,0.6-1.8,0.6-3.4v-54.9h7.2v56c0,1.7-0.2,3.1-0.7,4.3
			s-1.2,2.1-2,2.9c-0.8,0.7-1.8,1.3-2.8,1.7s-2.1,0.6-3.2,0.6h-1.8V825.4z"/>
		<path class="st0" d="M1112.6,760.1h6.3l-5.8,64.8h-9.3l-6-64.8h7l3.8,44.9h0.3L1112.6,760.1z"/>
		<path class="st0" d="M1131.5,760.1v64.8h-7.2v-64.8H1131.5z"/>
		<path class="st0" d="M1157.3,786.2c0,2-0.3,3.4-0.9,4.4s-1.4,1.6-2.3,1.9c0.9,0.2,1.7,0.8,2.3,1.8c0.6,1,0.9,2.4,0.9,4.4v14.6
			c0,2.1,0,3.9,0.1,5.3c0.1,1.4,0.2,2.6,0.3,3.5c0.1,0.9,0.2,1.6,0.4,2c0.1,0.4,0.2,0.7,0.3,0.8h-7.2c-0.4-0.7-0.7-2-0.9-3.8
			c-0.2-1.8-0.2-4.4-0.2-7.7v-13.9c0-2.8-0.6-4.2-1.9-4.2h-2.8V825h-7.2v-64.8h10.4c2.4,0,4.4,0.8,6.1,2.4c1.7,1.6,2.5,3.9,2.5,6.9
			L1157.3,786.2L1157.3,786.2z M1148.2,789.9c1.2,0,1.9-1.4,1.9-4.1v-15.3c0-2.8-0.7-4.3-2.1-4.3h-2.5v23.6L1148.2,789.9
			L1148.2,789.9z"/>
	</g>
	<g>
		<path class="st0" d="M1342.3,825.4c-1.1,0-2.1-0.2-3.2-0.6c-1.1-0.4-2-0.9-2.8-1.7c-0.8-0.7-1.5-1.7-2-2.9s-0.7-2.6-0.7-4.3v-47.2
			c0-1.7,0.2-3.1,0.7-4.3s1.2-2.1,2-2.9c0.8-0.7,1.8-1.3,2.8-1.7s2.1-0.6,3.2-0.6h1.7c1,0,2.1,0.2,3.2,0.6c1,0.4,2,0.9,2.8,1.7
			c0.8,0.7,1.5,1.7,2,2.9s0.7,2.6,0.7,4.3v47.2c0,1.7-0.2,3.1-0.7,4.3s-1.2,2.1-2,2.9c-0.8,0.7-1.8,1.3-2.8,1.7
			c-1.1,0.4-2.1,0.6-3.2,0.6H1342.3z M1343,765.7c-1.4,0-2.1,1.5-2.1,4.4V815c0,1.6,0.2,2.7,0.6,3.4c0.4,0.6,0.9,1,1.6,1h0.4
			c0.7,0,1.2-0.3,1.6-1c0.4-0.6,0.6-1.8,0.6-3.4v-45c0-2.9-0.7-4.4-2.1-4.4h-0.6V765.7z"/>
		<path class="st0" d="M1368.1,825.4c-1,0-2.1-0.2-3.1-0.5s-2-0.9-2.8-1.7s-1.5-1.7-2-2.9s-0.8-2.6-0.8-4.3v-56h7.2v55
			c0,1.6,0.2,2.7,0.6,3.4c0.4,0.6,0.9,1,1.6,1h0.5c0.6,0,1.1-0.3,1.5-1c0.4-0.6,0.6-1.8,0.6-3.4v-54.9h7.2v56c0,1.7-0.2,3.1-0.7,4.3
			s-1.2,2.1-2,2.9c-0.8,0.7-1.8,1.3-2.8,1.7s-2.1,0.6-3.2,0.6h-1.8V825.4z"/>
		<path class="st0" d="M1398.6,760.1h6.3l-5.8,64.8h-9.3l-6-64.8h7l3.8,44.9h0.3L1398.6,760.1z"/>
		<path class="st0" d="M1417.5,760.1v64.8h-7.2v-64.8H1417.5z"/>
		<path class="st0" d="M1443.3,786.2c0,2-0.3,3.4-0.9,4.4s-1.4,1.6-2.3,1.9c0.9,0.2,1.7,0.8,2.3,1.8c0.6,1,0.9,2.4,0.9,4.4v14.6
			c0,2.1,0,3.9,0.1,5.3c0.1,1.4,0.2,2.6,0.3,3.5c0.1,0.9,0.2,1.6,0.4,2c0.1,0.4,0.2,0.7,0.3,0.8h-7.2c-0.4-0.7-0.7-2-0.9-3.8
			c-0.2-1.8-0.2-4.4-0.2-7.7v-13.9c0-2.8-0.6-4.2-1.9-4.2h-2.8V825h-7.2v-64.8h10.4c2.4,0,4.4,0.8,6.1,2.4c1.7,1.6,2.5,3.9,2.5,6.9
			L1443.3,786.2L1443.3,786.2z M1434.2,789.9c1.2,0,1.9-1.4,1.9-4.1v-15.3c0-2.8-0.7-4.3-2.1-4.3h-2.5v23.6L1434.2,789.9
			L1434.2,789.9z"/>
	</g>
	<g>
		<path class="st0" d="M1628.3,825.4c-1.1,0-2.1-0.2-3.2-0.6c-1.1-0.4-2-0.9-2.8-1.7c-0.8-0.7-1.5-1.7-2-2.9s-0.7-2.6-0.7-4.3v-47.2
			c0-1.7,0.2-3.1,0.7-4.3s1.2-2.1,2-2.9c0.8-0.7,1.8-1.3,2.8-1.7s2.1-0.6,3.2-0.6h1.7c1,0,2.1,0.2,3.2,0.6c1,0.4,2,0.9,2.8,1.7
			c0.8,0.7,1.5,1.7,2,2.9s0.7,2.6,0.7,4.3v47.2c0,1.7-0.2,3.1-0.7,4.3s-1.2,2.1-2,2.9c-0.8,0.7-1.8,1.3-2.8,1.7
			c-1.1,0.4-2.1,0.6-3.2,0.6H1628.3z M1629,765.7c-1.4,0-2.1,1.5-2.1,4.4V815c0,1.6,0.2,2.7,0.6,3.4c0.4,0.6,0.9,1,1.6,1h0.4
			c0.7,0,1.2-0.3,1.6-1c0.4-0.6,0.6-1.8,0.6-3.4v-45c0-2.9-0.7-4.4-2.1-4.4h-0.6V765.7z"/>
		<path class="st0" d="M1654.1,825.4c-1,0-2.1-0.2-3.1-0.5s-2-0.9-2.8-1.7s-1.5-1.7-2-2.9s-0.8-2.6-0.8-4.3v-56h7.2v55
			c0,1.6,0.2,2.7,0.6,3.4c0.4,0.6,0.9,1,1.6,1h0.5c0.6,0,1.1-0.3,1.5-1c0.4-0.6,0.6-1.8,0.6-3.4v-54.9h7.2v56c0,1.7-0.2,3.1-0.7,4.3
			s-1.2,2.1-2,2.9c-0.8,0.7-1.8,1.3-2.8,1.7s-2.1,0.6-3.2,0.6h-1.8V825.4z"/>
		<path class="st0" d="M1684.6,760.1h6.3l-5.8,64.8h-9.3l-6-64.8h7l3.8,44.9h0.3L1684.6,760.1z"/>
		<path class="st0" d="M1703.5,760.1v64.8h-7.2v-64.8H1703.5z"/>
		<path class="st0" d="M1729.3,786.2c0,2-0.3,3.4-0.9,4.4s-1.4,1.6-2.3,1.9c0.9,0.2,1.7,0.8,2.3,1.8c0.6,1,0.9,2.4,0.9,4.4v14.6
			c0,2.1,0,3.9,0.1,5.3c0.1,1.4,0.2,2.6,0.3,3.5c0.1,0.9,0.2,1.6,0.4,2c0.1,0.4,0.2,0.7,0.3,0.8h-7.2c-0.4-0.7-0.7-2-0.9-3.8
			c-0.2-1.8-0.2-4.4-0.2-7.7v-13.9c0-2.8-0.6-4.2-1.9-4.2h-2.8V825h-7.2v-64.8h10.4c2.4,0,4.4,0.8,6.1,2.4c1.7,1.6,2.5,3.9,2.5,6.9
			L1729.3,786.2L1729.3,786.2z M1720.2,789.9c1.2,0,1.9-1.4,1.9-4.1v-15.3c0-2.8-0.7-4.3-2.1-4.3h-2.5v23.6L1720.2,789.9
			L1720.2,789.9z"/>
	</g>
	<g>
		<g>
			<path class="st1" d="M784.4,486.8h-9.8l-1.7-51.3V390h13.2v45.5L784.4,486.8z M786.5,508.7h-13.6V492h13.6V508.7z"/>
		</g>
		<g>
			<path class="st2" d="M881.9,356.9v45.4h-4.2v-29.7h-0.1l-3.3,29.7h-3.7l-3.2-29.7h-0.1v29.7h-4.2v-45.4h6.6l2.7,25.9h0.1
				l2.9-25.9H881.9z"/>
			<path class="st2" d="M891.7,356.9v45.4h-5.1v-45.4H891.7z"/>
			<path class="st2" d="M906,402.4l-5.4-29.7h-0.1v29.7h-4.2V357h5.7l5.1,29.1V357h4.6v45.4H906z"/>
			<path class="st2" d="M916.3,402.4V357h7.2c0.8,0,1.5,0.1,2.3,0.4c0.7,0.2,1.4,0.6,2,1.1s1,1.2,1.4,2c0.3,0.8,0.5,1.8,0.5,3v32.6
				c0,1.2-0.2,2.2-0.5,3s-0.8,1.5-1.4,2c-0.6,0.5-1.2,0.9-2,1.1c-0.7,0.2-1.5,0.4-2.3,0.4h-7.2V402.4z M921.4,361.2v36.9h1.8
				c0.4,0,0.8-0.2,1-0.6c0.3-0.4,0.4-1.2,0.4-2.3v-31c0-1.1-0.1-1.8-0.4-2.3c-0.3-0.4-0.6-0.7-1-0.7H921.4z"/>
			<path class="st2" d="M942.6,375.2v-11.4c0-1.1-0.1-1.9-0.4-2.3c-0.3-0.4-0.6-0.6-1.1-0.6h-0.3c-0.5,0-0.8,0.2-1.1,0.7
				s-0.4,1.2-0.4,2.4v5.5c0,2.1,0.4,3.9,1.3,5.5c0.9,1.5,1.8,3,2.9,4.4c1,1.4,2,2.9,2.9,4.4s1.3,3.4,1.3,5.6v7c0,1.2-0.2,2.2-0.5,3
				s-0.8,1.5-1.4,2c-0.6,0.5-1.2,0.9-2,1.2c-0.7,0.3-1.5,0.4-2.3,0.4h-1c-0.8,0-1.5-0.1-2.3-0.4c-0.7-0.2-1.4-0.6-2-1.2
				c-0.6-0.5-1.1-1.2-1.5-2s-0.6-1.8-0.6-3v-12.2h4.6v11.4c0,1.1,0.2,1.9,0.5,2.4s0.8,0.7,1.2,0.7h0.3c0.5,0,0.9-0.2,1.2-0.7
				s0.5-1.2,0.5-2.4V390c0-2.1-0.4-3.9-1.3-5.5c-0.9-1.5-1.8-3-2.9-4.4c-1-1.4-2-2.9-2.9-4.4s-1.3-3.4-1.3-5.6v-7
				c0-1.2,0.2-2.2,0.6-3c0.4-0.8,0.8-1.5,1.4-2s1.2-0.9,2-1.2c0.7-0.3,1.5-0.4,2.2-0.4h0.7c0.8,0,1.5,0.1,2.2,0.4s1.4,0.6,2,1.2
				s1,1.2,1.4,2c0.3,0.8,0.5,1.8,0.5,3v12.1H942.6z"/>
			<path class="st2" d="M957.3,361.2v16.5h4.4v3.8h-4.4V398h6v4.3h-11.1v-45.4H963v4.3L957.3,361.2L957.3,361.2z"/>
			<path class="st2" d="M980.5,361.2h-4.4v41.1H971v-41.1h-4.4v-4.3h13.8v4.3H980.5z"/>
			<path class="st2" d="M1002,390.4h-3.6l-1,12H993l4-45.4h6.5l4.3,45.4h-4.9L1002,390.4z M998.8,386.6h2.9l-1.4-15.6h-0.2
				L998.8,386.6z M998.8,354.4l2.5-5.6h4.5l-3.8,5.6H998.8z"/>
			<path class="st2" d="M1018.3,384h6.8v18.4h-2.5l-0.6-1.5c-1.3,1.3-2.6,1.9-3.8,1.9h-0.4c-0.7,0-1.5-0.1-2.2-0.4s-1.4-0.6-2-1.2
				s-1.1-1.2-1.4-2c-0.3-0.8-0.5-1.8-0.5-3v-33.1c0-1.2,0.2-2.2,0.5-3s0.8-1.5,1.4-2s1.2-0.9,2-1.2c0.7-0.3,1.5-0.4,2.2-0.4h1.2
				c0.7,0,1.5,0.1,2.2,0.4s1.4,0.6,2,1.2s1,1.2,1.4,2c0.3,0.8,0.5,1.8,0.5,3v12.2h-5.1v-11.4c0-1.1-0.1-1.9-0.4-2.3
				c-0.3-0.4-0.6-0.6-1.1-0.6h-0.3c-0.5,0-0.8,0.2-1.1,0.7s-0.4,1.2-0.4,2.4v31.5c0,1.1,0.1,1.9,0.4,2.4c0.3,0.5,0.6,0.7,1.1,0.7
				h0.3c0.5,0,0.8-0.2,1.1-0.7s0.4-1.2,0.4-2.4v-7.1h-1.7V384z"/>
			<path class="st2" d="M1034.7,356.9v45.4h-5.1v-45.4H1034.7z"/>
			<path class="st2" d="M1044.5,356.9v41.6h5.4v3.8h-10.5v-45.4H1044.5z"/>
			<path class="st2" d="M1068.4,361.2v16.5h4.4v3.8h-4.4V398h6v4.3h-11.1v-45.4h10.7v4.3L1068.4,361.2L1068.4,361.2z M1067.3,354.4
				l2.5-5.6h4.5l-3.8,5.6H1067.3z"/>
			<path class="st2" d="M1096.3,390.4h-3.6l-1,12h-4.4l4-45.4h6.5l4.3,45.4h-4.9L1096.3,390.4z M1093,386.6h2.9l-1.4-15.6h-0.2
				L1093,386.6z"/>
			<path class="st2" d="M1123.6,390.4h-3.6l-1,12h-4.4l4-45.4h6.5l4.3,45.4h-4.9L1123.6,390.4z M1120.4,386.6h2.9l-1.4-15.6h-0.2
				L1120.4,386.6z"/>
			<path class="st2" d="M1146.7,375.3c0,1.4-0.2,2.4-0.6,3.1s-1,1.1-1.6,1.3c0.6,0.2,1.2,0.6,1.6,1.3c0.4,0.7,0.6,1.7,0.6,3.1v10.2
				c0,1.5,0,2.7,0.1,3.7s0.1,1.8,0.2,2.4s0.2,1.1,0.3,1.4c0.1,0.3,0.2,0.5,0.2,0.6h-5.1c-0.3-0.5-0.5-1.4-0.6-2.7
				c-0.1-1.3-0.2-3.1-0.2-5.4v-9.7c0-2-0.4-2.9-1.3-2.9h-2v20.8h-5.1v-45.4h7.3c1.7,0,3.1,0.6,4.3,1.7c1.2,1.1,1.8,2.7,1.8,4.8
				L1146.7,375.3L1146.7,375.3z M1140.3,377.8c0.9,0,1.3-1,1.3-2.9v-10.7c0-2-0.5-3-1.5-3h-1.8v16.6H1140.3z"/>
			<path class="st2" d="M1164.8,361.2h-4.4v41.1h-5.1v-41.1h-4.4v-4.3h13.8L1164.8,361.2L1164.8,361.2z"/>
			<path class="st2" d="M1173.7,361.2v16.5h4.4v3.8h-4.4V398h6v4.3h-11.1v-45.4h10.7v4.3L1173.7,361.2L1173.7,361.2z"/>
			<path class="st2" d="M863.2,480.4V435h7.2c0.8,0,1.5,0.1,2.3,0.4c0.7,0.2,1.4,0.6,2,1.1s1,1.2,1.4,2c0.3,0.8,0.5,1.8,0.5,3v32.6
				c0,1.2-0.2,2.2-0.5,3s-0.8,1.5-1.4,2c-0.6,0.5-1.2,0.9-2,1.1c-0.7,0.2-1.5,0.4-2.3,0.4h-7.2V480.4z M868.3,439.2v36.9h1.8
				c0.4,0,0.8-0.2,1-0.6c0.3-0.4,0.4-1.2,0.4-2.3v-31c0-1.1-0.1-1.8-0.4-2.3c-0.3-0.4-0.6-0.7-1-0.7H868.3z"/>
			<path class="st2" d="M886.3,439.2v16.5h4.4v3.8h-4.4V476h6v4.3h-11.1v-45.4h10.7v4.3L886.3,439.2L886.3,439.2z"/>
			<path class="st2" d="M914.4,453.2v-11.4c0-1.1-0.1-1.9-0.4-2.3c-0.3-0.4-0.6-0.6-1.1-0.6h-0.3c-0.5,0-0.8,0.2-1.1,0.7
				s-0.4,1.2-0.4,2.4v5.5c0,2.1,0.4,3.9,1.3,5.5c0.9,1.5,1.8,3,2.9,4.4c1,1.4,2,2.9,2.9,4.4s1.3,3.4,1.3,5.6v7c0,1.2-0.2,2.2-0.5,3
				s-0.8,1.5-1.4,2c-0.6,0.5-1.2,0.9-2,1.2c-0.7,0.3-1.5,0.4-2.3,0.4h-1c-0.8,0-1.5-0.1-2.3-0.4c-0.7-0.2-1.4-0.6-2-1.2
				c-0.6-0.5-1.1-1.2-1.5-2s-0.6-1.8-0.6-3V462h4.6v11.4c0,1.1,0.2,1.9,0.5,2.4s0.8,0.7,1.2,0.7h0.3c0.5,0,0.9-0.2,1.2-0.7
				s0.5-1.2,0.5-2.4V468c0-2.1-0.4-3.9-1.3-5.5c-0.9-1.5-1.8-3-2.9-4.4c-1-1.4-2-2.9-2.9-4.4s-1.3-3.4-1.3-5.6v-7
				c0-1.2,0.2-2.2,0.6-3c0.4-0.8,0.8-1.5,1.4-2s1.2-0.9,2-1.2c0.7-0.3,1.5-0.4,2.2-0.4h0.7c0.8,0,1.5,0.1,2.2,0.4s1.4,0.6,2,1.2
				s1,1.2,1.4,2c0.3,0.8,0.5,1.8,0.5,3v12.1H914.4z"/>
			<path class="st2" d="M932.1,468.4h-3.6l-1,12h-4.4l4-45.4h6.5l4.3,45.4H933L932.1,468.4z M928.8,464.6h2.9l-1.4-15.6h-0.2
				L928.8,464.6z"/>
			<path class="st2" d="M955.2,452.6c0,1.4-0.2,2.4-0.6,3.1c-0.4,0.7-1,1.1-1.6,1.3c0.6,0.2,1.2,0.6,1.6,1.3
				c0.4,0.7,0.6,1.7,0.6,3.1v12.7c0,1.1-0.2,2.1-0.5,2.9s-0.8,1.4-1.4,1.9c-0.6,0.5-1.2,0.9-2,1.1c-0.7,0.2-1.5,0.4-2.3,0.4h-7.2
				V435h7.2c0.8,0,1.5,0.1,2.3,0.4c0.7,0.3,1.4,0.6,2,1.2c0.6,0.5,1,1.2,1.4,2c0.3,0.8,0.5,1.8,0.5,3V452.6z M948.9,455.2
				c0.8,0,1.2-1,1.2-2.9v-10c0-2-0.5-3.1-1.4-3.1h-1.8v15.9h2V455.2z M950.1,461.8c0-1.9-0.4-2.9-1.3-2.9h-2v17.2h1.8
				c1,0,1.5-0.9,1.5-2.8V461.8z"/>
			<path class="st2" d="M964.8,439.2v16.5h4.4v3.8h-4.4V476h6v4.3h-11.1v-45.4h10.7v4.3L964.8,439.2L964.8,439.2z"/>
			<path class="st2" d="M988.4,453.3c0,1.4-0.2,2.4-0.6,3.1c-0.4,0.7-1,1.1-1.6,1.3c0.6,0.2,1.2,0.6,1.6,1.3
				c0.4,0.7,0.6,1.7,0.6,3.1v10.2c0,1.5,0,2.7,0.1,3.7s0.1,1.8,0.2,2.4c0.1,0.6,0.2,1.1,0.3,1.4s0.2,0.5,0.2,0.6h-5.1
				c-0.3-0.5-0.5-1.4-0.6-2.7c-0.1-1.3-0.2-3.1-0.2-5.4v-9.7c0-2-0.4-2.9-1.3-2.9h-2v20.8h-5v-45.4h7.3c1.7,0,3.1,0.6,4.3,1.7
				s1.8,2.7,1.8,4.8L988.4,453.3L988.4,453.3z M982,455.8c0.9,0,1.3-1,1.3-2.9v-10.7c0-2-0.5-3-1.5-3H980v16.6H982z"/>
			<path class="st2" d="M1009.1,480.8c-0.7,0-1.5-0.1-2.2-0.4s-1.4-0.6-2-1.2s-1.1-1.2-1.4-2c-0.3-0.8-0.5-1.8-0.5-3v-33.1
				c0-1.2,0.2-2.2,0.5-3s0.8-1.5,1.4-2s1.2-0.9,2-1.2c0.7-0.3,1.5-0.4,2.2-0.4h1.2c0.7,0,1.5,0.1,2.2,0.4s1.4,0.6,2,1.2s1,1.2,1.4,2
				c0.3,0.8,0.5,1.8,0.5,3v33.1c0,1.2-0.2,2.2-0.5,3s-0.8,1.5-1.4,2s-1.2,0.9-2,1.2c-0.7,0.3-1.5,0.4-2.2,0.4H1009.1z M1009.6,438.8
				c-1,0-1.5,1-1.5,3.1v31.5c0,1.1,0.1,1.9,0.4,2.4c0.3,0.5,0.6,0.7,1.1,0.7h0.3c0.5,0,0.8-0.2,1.1-0.7s0.4-1.2,0.4-2.4v-31.5
				c0-2-0.5-3.1-1.5-3.1H1009.6z"/>
			<path class="st2" d="M1027.2,480.8c-0.7,0-1.5-0.1-2.2-0.4c-0.7-0.2-1.4-0.6-2-1.2c-0.6-0.5-1.1-1.2-1.4-2
				c-0.4-0.8-0.5-1.8-0.5-3v-39.3h5.1v38.5c0,1.1,0.1,1.9,0.4,2.4s0.6,0.7,1.1,0.7h0.3c0.4,0,0.8-0.2,1-0.7c0.3-0.5,0.4-1.2,0.4-2.4
				v-38.5h5.1v39.3c0,1.2-0.2,2.2-0.5,3s-0.8,1.5-1.4,2s-1.2,0.9-2,1.2s-1.5,0.4-2.3,0.4H1027.2z"/>
			<path class="st2" d="M1048.6,434.9h4.4l-4.1,45.4h-6.5l-4.2-45.4h4.9l2.7,31.5h0.2L1048.6,434.9z"/>
			<path class="st2" d="M1061.8,434.9v45.4h-5.1v-45.4H1061.8z"/>
			<path class="st2" d="M1079.9,453.3c0,1.4-0.2,2.4-0.6,3.1s-1,1.1-1.6,1.3c0.6,0.2,1.2,0.6,1.6,1.3c0.4,0.7,0.6,1.7,0.6,3.1v10.2
				c0,1.5,0,2.7,0.1,3.7s0.1,1.8,0.2,2.4s0.2,1.1,0.3,1.4c0.1,0.3,0.2,0.5,0.2,0.6h-5.1c-0.3-0.5-0.5-1.4-0.6-2.7
				c-0.1-1.3-0.2-3.1-0.2-5.4v-9.7c0-2-0.4-2.9-1.3-2.9h-2v20.8h-5.1v-45.4h7.3c1.7,0,3.1,0.6,4.3,1.7c1.2,1.1,1.8,2.7,1.8,4.8
				L1079.9,453.3L1079.9,453.3z M1073.5,455.8c0.9,0,1.3-1,1.3-2.9v-10.7c0-2-0.5-3-1.5-3h-1.8v16.6H1073.5z"/>
			<path class="st2" d="M870.5,512.9c1.7,0,3.1,0.6,4.3,1.7c1.2,1.1,1.8,2.7,1.8,4.8v14.8c0,2-0.6,3.4-1.7,4.3
				c-1.1,0.8-2.5,1.3-4.2,1.3h-2.5v18.6h-5.1V513L870.5,512.9L870.5,512.9z M871.5,520.2c0-2-0.5-3-1.5-3h-1.8v18.3h2
				c0.9,0,1.3-1,1.3-2.9V520.2z"/>
			<path class="st2" d="M888,546.4h-3.6l-1,12H879l4-45.4h6.5l4.3,45.4H889L888,546.4z M884.7,542.6h2.9l-1.4-15.6H886L884.7,542.6z
				"/>
			<path class="st2" d="M911,531.3c0,1.4-0.2,2.4-0.6,3.1c-0.4,0.7-1,1.1-1.6,1.3c0.6,0.2,1.2,0.6,1.6,1.3c0.4,0.7,0.6,1.7,0.6,3.1
				v10.2c0,1.5,0,2.7,0.1,3.7s0.1,1.8,0.2,2.4c0.1,0.6,0.2,1.1,0.3,1.4c0.1,0.3,0.2,0.5,0.2,0.6h-5.1c-0.3-0.5-0.5-1.4-0.6-2.7
				s-0.2-3.1-0.2-5.4v-9.7c0-2-0.4-2.9-1.3-2.9h-2v20.8h-5.1v-45.4h7.3c1.7,0,3.1,0.6,4.3,1.7c1.2,1.1,1.8,2.7,1.8,4.8L911,531.3
				L911,531.3z M904.7,533.8c0.9,0,1.3-1,1.3-2.9v-10.7c0-2-0.5-3-1.5-3h-1.8v16.6L904.7,533.8L904.7,533.8z"/>
			<path class="st2" d="M924.2,546.4h-3.6l-1,12h-4.4l4-45.4h6.5l4.3,45.4h-4.9L924.2,546.4z M920.9,542.6h2.9l-1.4-15.6h-0.2
				L920.9,542.6z"/>
			<path class="st2" d="M951.7,531.2v-11.4c0-1.1-0.1-1.9-0.4-2.3c-0.3-0.4-0.6-0.6-1.1-0.6H950c-0.5,0-0.8,0.2-1.1,0.7
				s-0.4,1.2-0.4,2.4v5.5c0,2.1,0.4,3.9,1.3,5.5c0.9,1.5,1.8,3,2.9,4.4c1,1.4,2,2.9,2.9,4.4s1.3,3.4,1.3,5.6v7c0,1.2-0.2,2.2-0.5,3
				s-0.8,1.5-1.4,2c-0.6,0.5-1.2,0.9-2,1.2c-0.7,0.3-1.5,0.4-2.3,0.4h-1c-0.8,0-1.5-0.1-2.3-0.4c-0.7-0.2-1.4-0.6-2-1.2
				c-0.6-0.5-1.1-1.2-1.5-2s-0.6-1.8-0.6-3V540h4.6v11.4c0,1.1,0.2,1.9,0.5,2.4s0.8,0.7,1.2,0.7h0.3c0.5,0,0.9-0.2,1.2-0.7
				s0.5-1.2,0.5-2.4V546c0-2.1-0.4-3.9-1.3-5.5c-0.9-1.5-1.8-3-2.9-4.4c-1-1.4-2-2.9-2.9-4.4s-1.3-3.4-1.3-5.6v-7
				c0-1.2,0.2-2.2,0.6-3c0.4-0.8,0.8-1.5,1.4-2s1.2-0.9,2-1.2c0.7-0.3,1.5-0.4,2.2-0.4h0.7c0.8,0,1.5,0.1,2.2,0.4
				c0.7,0.3,1.4,0.6,2,1.2s1,1.2,1.4,2c0.3,0.8,0.5,1.8,0.5,3v12.1L951.7,531.2L951.7,531.2z"/>
			<path class="st2" d="M966.5,517.2v16.5h4.4v3.8h-4.4V554h6v4.3h-11.1v-45.4h10.7v4.3L966.5,517.2L966.5,517.2z"/>
			<path class="st2" d="M990.1,531.3c0,1.4-0.2,2.4-0.6,3.1c-0.4,0.7-1,1.1-1.6,1.3c0.6,0.2,1.2,0.6,1.6,1.3
				c0.4,0.7,0.6,1.7,0.6,3.1v10.2c0,1.5,0,2.7,0.1,3.7s0.1,1.8,0.2,2.4c0.1,0.6,0.2,1.1,0.3,1.4c0.1,0.3,0.2,0.5,0.2,0.6h-5.1
				c-0.3-0.5-0.5-1.4-0.6-2.7s-0.2-3.1-0.2-5.4v-9.7c0-2-0.4-2.9-1.3-2.9h-2v20.8h-5.1v-45.4h7.3c1.7,0,3.1,0.6,4.3,1.7
				c1.2,1.1,1.8,2.7,1.8,4.8L990.1,531.3L990.1,531.3z M983.7,533.8c0.9,0,1.3-1,1.3-2.9v-10.7c0-2-0.5-3-1.5-3h-1.8v16.6
				L983.7,533.8L983.7,533.8z"/>
			<path class="st2" d="M1010.8,558.8c-0.7,0-1.5-0.1-2.2-0.4c-0.7-0.3-1.4-0.6-2-1.2s-1.1-1.2-1.4-2c-0.3-0.8-0.5-1.8-0.5-3v-33.1
				c0-1.2,0.2-2.2,0.5-3s0.8-1.5,1.4-2s1.2-0.9,2-1.2c0.7-0.3,1.5-0.4,2.2-0.4h1.2c0.7,0,1.5,0.1,2.2,0.4c0.7,0.3,1.4,0.6,2,1.2
				s1,1.2,1.4,2c0.3,0.8,0.5,1.8,0.5,3v33.1c0,1.2-0.2,2.2-0.5,3s-0.8,1.5-1.4,2s-1.2,0.9-2,1.2c-0.7,0.3-1.5,0.4-2.2,0.4H1010.8z
				 M1011.3,516.8c-1,0-1.5,1-1.5,3.1v31.5c0,1.1,0.1,1.9,0.4,2.4c0.3,0.5,0.6,0.7,1.1,0.7h0.3c0.5,0,0.8-0.2,1.1-0.7
				s0.4-1.2,0.4-2.4v-31.5c0-2-0.5-3.1-1.5-3.1H1011.3z"/>
			<path class="st2" d="M1028.8,558.8c-0.7,0-1.5-0.1-2.2-0.4c-0.7-0.2-1.4-0.6-2-1.2c-0.6-0.5-1.1-1.2-1.4-2
				c-0.4-0.8-0.5-1.8-0.5-3v-39.3h5.1v38.5c0,1.1,0.1,1.9,0.4,2.4s0.6,0.7,1.1,0.7h0.3c0.4,0,0.8-0.2,1-0.7c0.3-0.5,0.4-1.2,0.4-2.4
				v-38.5h5.1v39.3c0,1.2-0.2,2.2-0.5,3s-0.8,1.5-1.4,2s-1.2,0.9-2,1.2s-1.5,0.4-2.3,0.4H1028.8z"/>
			<path class="st2" d="M1050.3,512.9h4.4l-4.1,45.4h-6.5l-4.2-45.4h4.9l2.7,31.5h0.2L1050.3,512.9z"/>
			<path class="st2" d="M1063.5,512.9v45.4h-5.1v-45.4H1063.5z"/>
			<path class="st2" d="M1068.2,558.4V513h7.2c0.8,0,1.5,0.1,2.3,0.4c0.7,0.2,1.4,0.6,2,1.1s1,1.2,1.4,2c0.3,0.8,0.5,1.8,0.5,3v32.6
				c0,1.2-0.2,2.2-0.5,3s-0.8,1.5-1.4,2s-1.2,0.9-2,1.1c-0.7,0.2-1.5,0.4-2.3,0.4h-7.2V558.4z M1073.3,517.2v36.9h1.8
				c0.4,0,0.8-0.2,1-0.6c0.3-0.4,0.4-1.2,0.4-2.3v-31c0-1.1-0.1-1.8-0.4-2.3c-0.3-0.4-0.6-0.7-1-0.7L1073.3,517.2L1073.3,517.2z"/>
			<path class="st2" d="M1092.2,558.8c-0.7,0-1.5-0.1-2.2-0.4c-0.7-0.3-1.4-0.6-2-1.2s-1.1-1.2-1.4-2s-0.5-1.8-0.5-3v-33.1
				c0-1.2,0.2-2.2,0.5-3s0.8-1.5,1.4-2s1.2-0.9,2-1.2c0.7-0.3,1.5-0.4,2.2-0.4h1.2c0.7,0,1.5,0.1,2.2,0.4c0.7,0.3,1.4,0.6,2,1.2
				s1,1.2,1.4,2c0.3,0.8,0.5,1.8,0.5,3v33.1c0,1.2-0.2,2.2-0.5,3s-0.8,1.5-1.4,2s-1.2,0.9-2,1.2c-0.7,0.3-1.5,0.4-2.2,0.4H1092.2z
				 M1092.7,516.8c-1,0-1.5,1-1.5,3.1v31.5c0,1.1,0.1,1.9,0.4,2.4s0.6,0.7,1.1,0.7h0.3c0.5,0,0.8-0.2,1.1-0.7
				c0.3-0.5,0.4-1.2,0.4-2.4v-31.5c0-2-0.5-3.1-1.5-3.1H1092.7z"/>
		</g>
	</g>
	<g>
		<path class="st1" d="M936.2,27H710.9c-8.8,0-16,7.2-16,16v141.4c0,8.8,7.2,16,16,16h101.3l11.3,17.8l11.3-17.8h101.3
			c8.8,0,16-7.2,16-16V43C952.2,34.2,945,27,936.2,27z M946.8,184.4c0,5.8-4.7,10.6-10.6,10.6H832l-8.4,13.2l-8.4-13.2H710.9
			c-5.8,0-10.6-4.7-10.6-10.6V43c0-5.8,4.7-10.6,10.6-10.6h225.4c5.8,0,10.6,4.7,10.6,10.6V184.4z"/>
		<path class="st1" d="M871.2,137.1c-0.1-0.7-0.2-1.7-0.3-2.8c-0.1-1.2-0.1-2.6-0.1-4.3v-11.8c0-1.6-0.2-2.8-0.7-3.6
			c-0.5-0.8-1.1-1.3-1.9-1.5c0.7-0.3,1.4-0.8,1.9-1.5c0.5-0.8,0.7-2,0.7-3.6V94.2c0-2.4-0.7-4.3-2.1-5.6c-1.4-1.3-3-2-5-2h-8.5v52.7
			h5.9v-24.1h2.3c1,0,1.5,1.1,1.5,3.4V130c0,2.7,0.1,4.8,0.2,6.3c0.1,1.5,0.4,2.5,0.7,3.1h5.9c-0.1-0.1-0.1-0.3-0.2-0.7
			C871.4,138.4,871.3,137.9,871.2,137.1z M864.9,107.6c0,2.2-0.5,3.3-1.5,3.3h-2.3V91.7h2c1.2,0,1.7,1.2,1.7,3.5V107.6z"/>
		<path class="st1" d="M835.3,86.7l-4.7,52.7h5.1l1.1-14h4.2l1.2,14h5.7l-5-52.7H835.3z M837.2,121.1l1.6-18.1h0.2l1.6,18.1H837.2z"
			/>
		<polygon class="st1" points="817.9,86.7 812,86.7 812,139.4 824.2,139.4 824.2,135 817.9,135 		"/>
		<path class="st1" d="M792.1,86.7l-4.7,52.7h5.1l1.1-14h4.1l1.2,14h5.7l-5-52.7H792.1z M794,121.1l1.6-18.1h0.2l1.6,18.1H794z"/>
		<polygon class="st1" points="769.8,139.4 775.7,139.4 775.7,115.3 780.9,115.3 780.9,110.8 775.7,110.8 775.7,91.7 782.3,91.7 
			782.3,86.7 769.8,86.7 		"/>
	</g>
</g>
</svg>
