<?xml version="1.0" encoding="utf-8"?>
<!-- Generator: Adobe Illustrator 23.0.4, SVG Export Plug-In . SVG Version: 6.00 Build 0)  -->
<svg version="1.1" id="Camada_1" xmlns="http://www.w3.org/2000/svg" xmlns:xlink="http://www.w3.org/1999/xlink" x="0px" y="0px"
	 viewBox="0 0 187 1024" style="enable-background:new 0 0 187 1024;" xml:space="preserve">
<style type="text/css">
	.st0{fill:#FFFFFF;}
</style>
<g>
	<path class="st0" d="M182.7,985.8l-84.6,15v0.4h84.6v18.1H30.3v-24l82-13.5v-0.2h-82v-19.6h152.4V985.8z"/>
	<path class="st0" d="M144.4,928.5v9.2l38.4,2.8V959L30.3,946.2v-27.7l152.4-13.7v20.7L144.4,928.5z M128.2,936.4v-6.5l-38.8,2.8
		v0.7L128.2,936.4z"/>
	<path class="st0" d="M91.6,873.6H55.4c-3.1,0-5.2,0.2-6.4,0.7c-1.2,0.4-1.9,1.2-1.9,2.4v0.4c0,1.2,0.6,2,1.9,2.4
		c1.2,0.4,3.5,0.7,6.6,0.7h16.1c4.9,0,9.3-0.7,13.1-2.1c3.8-1.4,7.3-3.1,10.6-5.2c3.3-2.1,6.4-4.4,9.3-6.8c2.9-2.4,6-4.7,9.3-6.8
		c3.3-2.1,6.8-3.8,10.7-5.2c3.9-1.4,8.3-2.1,13.2-2.1h22.9c4.1,0,7.6,0.6,10.6,1.9c3,1.2,5.4,2.9,7.3,5c1.9,2.1,3.3,4.5,4.1,7.3
		c0.9,2.8,1.3,5.6,1.3,8.5v3.7c0,2.9-0.4,5.7-1.3,8.5c-0.9,2.8-2.3,5.2-4.1,7.4c-1.9,2.2-4.3,4-7.3,5.3c-3,1.4-6.5,2.1-10.6,2.1
		h-39.5v-19.6h36.2c3.1,0,5.2-0.4,6.5-1.1c1.3-0.7,2-1.7,2-3.1v-0.4c0-1.3-0.7-2.3-2-2.9c-1.3-0.7-3.5-1-6.5-1h-16.4
		c-4.9,0-9.3,0.7-13.1,2.1c-3.8,1.4-7.3,3.1-10.5,5.2c-3.2,2.1-6.2,4.4-9.2,6.8c-2.9,2.4-6,4.7-9.3,6.8c-3.3,2.1-6.8,3.9-10.6,5.2
		c-3.8,1.4-8.2,2.1-13.3,2.1H52.4c-4.1,0-7.6-0.7-10.6-2c-3-1.3-5.4-3.1-7.3-5.2c-1.9-2.2-3.3-4.6-4.1-7.3c-0.9-2.7-1.3-5.5-1.3-8.4
		v-2.2c0-2.9,0.4-5.7,1.3-8.4c0.9-2.7,2.3-5.1,4.1-7.2c1.9-2.1,4.3-3.8,7.3-5.1c3-1.3,6.5-2,10.6-2h39.2V873.6z"/>
	<path class="st0" d="M184,824.1c0,2.9-0.4,5.7-1.3,8.4c-0.9,2.7-2.3,5.1-4.1,7.2c-1.9,2.1-4.3,3.8-7.3,5.1c-3,1.3-6.5,2-10.6,2
		H52.4c-4.1,0-7.6-0.7-10.6-2c-3-1.3-5.4-3-7.3-5.1c-1.9-2.1-3.3-4.5-4.1-7.2c-0.9-2.7-1.3-5.5-1.3-8.4v-4.4c0-2.8,0.4-5.5,1.3-8.3
		c0.9-2.8,2.3-5.2,4.1-7.3c1.9-2.1,4.3-3.8,7.3-5.1c3-1.3,6.5-2,10.6-2h39.2v21.6H55.4c-3.1,0-5.2,0.2-6.4,0.7
		c-1.2,0.4-1.9,1.2-1.9,2.4v0.4c0,1.2,0.6,2,1.9,2.4c1.2,0.4,3.5,0.7,6.6,0.7h101.8c3.1,0,5.2-0.2,6.5-0.7c1.3-0.4,2-1.2,2-2.4v-0.4
		c0-1.2-0.7-2-2-2.4c-1.3-0.4-3.5-0.7-6.5-0.7H121v-21.6h39.7c4.1,0,7.6,0.7,10.6,2c3,1.3,5.4,3,7.3,5.1c1.9,2.1,3.3,4.5,4.1,7.3
		c0.9,2.8,1.3,5.5,1.3,8.3V824.1z"/>
	<path class="st0" d="M48.4,770.2h50.1v-14.4h16.1v14.4h49.9v-19.8h18.1v41.4H30.3v-39.7h18.1V770.2z"/>
	<path class="st0" d="M30.3,677.2h152.4V695H98.1v0.4l84.6,8.7v15.5l-84.6,8.3v0.4h84.6v18.1H30.3v-27.7l68.5-6.5v-0.4l-68.5-7
		V677.2z"/>
	<path class="st0" d="M184,649.2c0,2.9-0.4,5.7-1.3,8.4c-0.9,2.7-2.3,5.1-4.1,7.2c-1.9,2.1-4.3,3.8-7.3,5.1c-3,1.3-6.5,2-10.6,2
		H52.4c-4.1,0-7.6-0.7-10.6-2c-3-1.3-5.4-3-7.3-5.1c-1.9-2.1-3.3-4.5-4.1-7.2c-0.9-2.7-1.3-5.5-1.3-8.4v-4.4c0-2.8,0.4-5.5,1.3-8.3
		c0.9-2.8,2.3-5.2,4.1-7.3c1.9-2.1,4.3-3.8,7.3-5.1c3-1.3,6.5-2,10.6-2h108.3c4.1,0,7.6,0.7,10.6,2c3,1.3,5.4,3,7.3,5.1
		c1.9,2.1,3.3,4.5,4.1,7.3c0.9,2.8,1.3,5.5,1.3,8.3V649.2z M47.1,647.3c0,2,2.8,3.1,8.5,3.1h101.8c3.1,0,5.2-0.2,6.5-0.7
		c1.3-0.4,2-1.2,2-2.4v-0.4c0-1.2-0.7-2-2-2.4c-1.3-0.4-3.5-0.7-6.5-0.7H55.6c-5.7,0-8.5,1-8.5,3.1V647.3z"/>
	<path class="st0" d="M91.6,588.9H55.4c-3.1,0-5.2,0.2-6.4,0.7c-1.2,0.4-1.9,1.2-1.9,2.4v0.4c0,1.2,0.6,2,1.9,2.4
		c1.2,0.4,3.5,0.7,6.6,0.7h16.1c4.9,0,9.3-0.7,13.1-2.1c3.8-1.4,7.3-3.1,10.6-5.2c3.3-2.1,6.4-4.4,9.3-6.8c2.9-2.4,6-4.7,9.3-6.8
		c3.3-2.1,6.8-3.8,10.7-5.2c3.9-1.4,8.3-2.1,13.2-2.1h22.9c4.1,0,7.6,0.6,10.6,1.9c3,1.2,5.4,2.9,7.3,5c1.9,2.1,3.3,4.5,4.1,7.3
		c0.9,2.8,1.3,5.6,1.3,8.5v3.7c0,2.9-0.4,5.7-1.3,8.5c-0.9,2.8-2.3,5.2-4.1,7.4c-1.9,2.2-4.3,4-7.3,5.3c-3,1.4-6.5,2.1-10.6,2.1
		h-39.5v-19.6h36.2c3.1,0,5.2-0.4,6.5-1.1c1.3-0.7,2-1.7,2-3.1v-0.4c0-1.3-0.7-2.3-2-2.9c-1.3-0.7-3.5-1-6.5-1h-16.4
		c-4.9,0-9.3,0.7-13.1,2.1c-3.8,1.4-7.3,3.1-10.5,5.2c-3.2,2.1-6.2,4.4-9.2,6.8c-2.9,2.4-6,4.7-9.3,6.8c-3.3,2.1-6.8,3.9-10.6,5.2
		c-3.8,1.4-8.2,2.1-13.3,2.1H52.4c-4.1,0-7.6-0.7-10.6-2c-3-1.3-5.4-3.1-7.3-5.2c-1.9-2.2-3.3-4.6-4.1-7.3c-0.9-2.7-1.3-5.5-1.3-8.4
		v-2.2c0-2.9,0.4-5.7,1.3-8.4c0.9-2.7,2.3-5.1,4.1-7.2c1.9-2.1,4.3-3.8,7.3-5.1c3-1.3,6.5-2,10.6-2h39.2V588.9z"/>
	<path class="st0" d="M182.7,541.1H30.3v-27c0-2.7,0.4-5.5,1.3-8.2c0.9-2.7,2.3-5.2,4.1-7.3c1.9-2.2,4.3-3.9,7.2-5.2
		c2.9-1.3,6.4-1.9,10.5-1.9h106.2c4.1,0,7.6,0.7,10.5,1.9c2.9,1.3,5.3,3,7.2,5.2c1.9,2.2,3.3,4.6,4.1,7.3c0.9,2.7,1.3,5.5,1.3,8.2
		V541.1z M48.4,519.5h116.2v-3.7c0-1.2-0.7-1.9-2-2.3c-1.3-0.4-3.5-0.5-6.5-0.5H56.9c-5.7,0-8.5,0.9-8.5,2.8V519.5z"/>
	<path class="st0" d="M144.4,457.8v9.2l38.4,2.8v18.5L30.3,475.5v-27.7l152.4-13.7v20.7L144.4,457.8z M128.2,465.7v-6.5L89.4,462
		v0.7L128.2,465.7z"/>
	<path class="st0" d="M184,387.2c0,2.8-0.4,5.5-1.3,8.3c-0.9,2.8-2.3,5.2-4.1,7.4c-1.9,2.2-4.3,3.9-7.3,5.2c-3,1.3-6.5,2-10.6,2
		H30.3v-21.6h127.1c3.1,0,5.2-0.2,6.5-0.7c1.3-0.4,2-1.2,2-2.4v-0.7c0-1.2-0.7-1.9-2-2.3c-1.3-0.4-3.5-0.5-6.5-0.5H30.3v-21.6h130.4
		c4.1,0,7.6,0.7,10.6,1.9c3,1.3,5.4,3,7.3,5.1c1.9,2.1,3.3,4.5,4.1,7.2c0.9,2.7,1.3,5.5,1.3,8.4V387.2z"/>
	<path class="st0" d="M91.8,305.5c4.7,0,8.1,0.7,10.4,2.2c2.3,1.4,3.7,3.2,4.5,5.4c0.6-2.2,2-4,4.3-5.4c2.3-1.4,5.7-2.2,10.4-2.2
		h31.6c5.7,0,10.4-0.1,14.2-0.4c3.8-0.3,6.8-0.6,9-1c2.3-0.4,3.9-0.7,4.9-1c1-0.3,1.6-0.5,1.7-0.7V324c-1.7,1.2-5,1.9-9.7,2.4
		c-4.7,0.4-11.4,0.6-20.2,0.6h-29.6c-2.9,0-5,0.2-6.4,0.5c-1.4,0.4-2.1,1.1-2.1,2.3v3.7h68v21.6H30.3v-27.3c0-6.5,2-11.8,6.1-16.1
		c4.1-4.2,9.7-6.4,17-6.4H91.8z M98.6,329.9c0-1.2-0.7-1.9-2-2.3c-1.3-0.4-3.3-0.5-6.1-0.5H56.7c-5.5,0-8.3,1-8.3,3.1v3.5h50.1
		V329.9z"/>
	<path class="st0" d="M184,276c0,2.9-0.4,5.7-1.3,8.4c-0.9,2.7-2.3,5.1-4.1,7.2c-1.9,2.1-4.3,3.8-7.3,5.1c-3,1.3-6.5,2-10.6,2H52.4
		c-4.1,0-7.6-0.7-10.6-2c-3-1.3-5.4-3-7.3-5.1c-1.9-2.1-3.3-4.5-4.1-7.2c-0.9-2.7-1.3-5.5-1.3-8.4v-4.4c0-2.8,0.4-5.5,1.3-8.3
		c0.9-2.8,2.3-5.2,4.1-7.3c1.9-2.1,4.3-3.8,7.3-5.1c3-1.3,6.5-2,10.6-2h39.2v21.6H55.4c-3.1,0-5.2,0.2-6.4,0.7
		c-1.2,0.4-1.9,1.2-1.9,2.4v0.4c0,1.2,0.6,2,1.9,2.4c1.2,0.4,3.5,0.7,6.6,0.7h101.8c3.1,0,5.2-0.2,6.5-0.7c1.3-0.4,2-1.2,2-2.4v-0.4
		c0-1.2-0.7-2-2-2.4c-1.3-0.4-3.5-0.7-6.5-0.7h-18.3v4.1H121V249h32h1.3h28.3v10.5l-5,2.4c2,2.3,3.6,4.7,4.7,7
		c1.1,2.3,1.6,4.4,1.6,6.3V276z"/>
	<path class="st0" d="M3.3,213.2L22,199.9v18.7l-8.3,4.1L22,227v19L3.3,232.6V213.2z M48.4,222.2h50.1v-14.4h16.1v14.4h49.9v-19.8
		h18.1v41.4H30.3v-39.7h18.1V222.2z"/>
	<path class="st0" d="M182.7,164.8l-84.6,15v0.4h84.6v18.1H30.3v-24l82-13.5v-0.2h-82v-19.6h152.4V164.8z"/>
	<path class="st0" d="M184,113.2c0,2.9-0.4,5.7-1.3,8.4c-0.9,2.7-2.3,5.1-4.1,7.2c-1.9,2.1-4.3,3.8-7.3,5.1c-3,1.3-6.5,2-10.6,2
		H52.4c-4.1,0-7.6-0.7-10.6-2c-3-1.3-5.4-3-7.3-5.1c-1.9-2.1-3.3-4.5-4.1-7.2c-0.9-2.7-1.3-5.5-1.3-8.4v-4.4c0-2.8,0.4-5.5,1.3-8.3
		c0.9-2.8,2.3-5.2,4.1-7.3c1.9-2.1,4.3-3.8,7.3-5.1c3-1.3,6.5-2,10.6-2h39.2v21.6H55.4c-3.1,0-5.2,0.2-6.4,0.7
		c-1.2,0.4-1.9,1.2-1.9,2.4v0.4c0,1.2,0.6,2,1.9,2.4c1.2,0.4,3.5,0.7,6.6,0.7h101.8c3.1,0,5.2-0.2,6.5-0.7c1.3-0.4,2-1.2,2-2.4v-0.4
		c0-1.2-0.7-2-2-2.4c-1.3-0.4-3.5-0.7-6.5-0.7H121V86.1h39.7c4.1,0,7.6,0.7,10.6,2c3,1.3,5.4,3,7.3,5.1c1.9,2.1,3.3,4.5,4.1,7.3
		c0.9,2.8,1.3,5.5,1.3,8.3V113.2z"/>
	<path class="st0" d="M30.3,59.3h152.4v21.6H30.3V59.3z"/>
	<path class="st0" d="M144.4,25.8v9.2l38.4,2.8v18.5L30.3,43.4V15.7L182.7,2v20.7L144.4,25.8z M128.2,33.6v-6.5l-38.8,2.8v0.7
		L128.2,33.6z"/>
</g>
</svg>
