<?xml version="1.0" encoding="utf-8"?>
<!-- Generator: Adobe Illustrator 23.0.1, SVG Export Plug-In . SVG Version: 6.00 Build 0)  -->
<svg version="1.1" id="Layer_1" xmlns="http://www.w3.org/2000/svg" xmlns:xlink="http://www.w3.org/1999/xlink" x="0px" y="0px"
	 viewBox="0 0 33.4 22" style="enable-background:new 0 0 33.4 22;" xml:space="preserve">
<style type="text/css">
	.st0{fill:#FF0000;}
</style>
<g>
	<path class="st0" d="M3.3,5.4h26.2v2.2h0.3V3.9H3v3.8h0.3V5.4z M16.4,4.4l0.7,0.7h-1.5L16.4,4.4z"/>
	<path class="st0" d="M29.2,8V5.8H3.6V8H3v0.6v9.5c0,0.4,0.3,0.8,0.7,0.8h25.5c0.4,0,0.6-0.4,0.6-0.8V8H29.2z M9.7,14.5
		c0,0.4-0.2,0.5-0.6,0.5H5.5c-0.6,0-0.8-0.3-1-0.6c-0.4-0.7-0.7-1.6-0.7-2.6c0-1.1,0.4-2.2,0.7-2.8c0.2-0.3,0.6-0.6,1-0.6h3.6
		c0.4,0,0.6,0.3,0.6,0.6V14.5z M22.5,14.4c0,0.4-0.2,0.6-0.6,0.6H10.9c-0.4,0-0.6-0.2-0.6-0.6V9c0-0.4,0.2-0.7,0.6-0.7h10.9
		c0.4,0,0.6,0.3,0.6,0.7V14.4z M28.4,14.4c-0.2,0.3-0.4,0.6-1,0.6h-3.6c-0.4,0-0.7-0.2-0.7-0.5V9c0-0.4,0.3-0.6,0.7-0.6h3.6
		c0.4,0,0.8,0.3,1,0.7c0.4,0.7,0.7,1.7,0.7,2.8C29.1,12.8,28.7,13.7,28.4,14.4z"/>
	<path class="st0" d="M23.4,13.8v0.6c0,0.4,0.2,0.3,0.5,0.3h2.2c0.8-0.6,1.3-1.8,1.3-3s-0.5-2-1.3-3h-2.2c-0.4,0-0.5,0.3-0.5,0.7V10
		c0.7,0.2,1.5,1,1.5,1.9C24.9,12.8,24.1,13.6,23.4,13.8z"/>
	<path class="st0" d="M9.4,13.8v0.6c0,0.4-0.3,0.3-0.7,0.3H6.5c-0.8-0.6-1.3-1.8-1.3-3s0.5-2.1,1.3-3h2.2c0.4,0,0.7,0.3,0.7,0.7V10
		c-0.6,0.2-1.5,1-1.5,1.9C7.9,12.8,8.7,13.6,9.4,13.8z"/>
</g>
</svg>
